<?xml version="1.0" encoding="UTF-8" standalone="no"?>
<svg
   xmlns:dc="http://purl.org/dc/elements/1.1/"
   xmlns:cc="http://creativecommons.org/ns#"
   xmlns:rdf="http://www.w3.org/1999/02/22-rdf-syntax-ns#"
   xmlns:svg="http://www.w3.org/2000/svg"
   xmlns="http://www.w3.org/2000/svg"
   xmlns:sodipodi="http://sodipodi.sourceforge.net/DTD/sodipodi-0.dtd"
   xmlns:inkscape="http://www.inkscape.org/namespaces/inkscape"
   version="1.1"
   width="17.907000cm"
   height="14.427200cm"
   viewBox="0 0 70500 56800"
   id="svg1820"
   sodipodi:docname="YAEMK-top-2x1u-2x1u.svg"
   inkscape:version="1.0.1 (3bc2e813f5, 2020-09-07)">
  <metadata
     id="metadata1826">
    <rdf:RDF>
      <cc:Work
         rdf:about="">
        <dc:format>image/svg+xml</dc:format>
        <dc:type
           rdf:resource="http://purl.org/dc/dcmitype/StillImage" />
        <dc:title>SVG Picture created as YAEMK-brd.svg date 2021/03/19 11:43:02 </dc:title>
      </cc:Work>
    </rdf:RDF>
  </metadata>
  <defs
     id="defs1824" />
  <sodipodi:namedview
     pagecolor="#ffffff"
     bordercolor="#666666"
     borderopacity="1"
     objecttolerance="10"
     gridtolerance="10"
     guidetolerance="10"
     inkscape:pageopacity="0"
     inkscape:pageshadow="2"
     inkscape:window-width="1914"
     inkscape:window-height="2106"
     id="namedview1822"
     showgrid="false"
     inkscape:zoom="1.3071516"
     inkscape:cx="409.63752"
     inkscape:cy="478.31477"
     inkscape:window-x="26"
     inkscape:window-y="23"
     inkscape:window-maximized="0"
     inkscape:current-layer="g290"
     inkscape:document-rotation="0" />
  <title
     id="title2">SVG Picture created as YAEMK-brd.svg date 2021/03/19 11:43:02 </title>
  <desc
     id="desc4">Picture generated by PCBNEW </desc>
  <g
     style="fill:#000000; fill-opacity:1;stroke:#000000; stroke-opacity:1; stroke-linecap:round; stroke-linejoin:round;"
     transform="translate(0 0) scale(1 1)"
     id="g6" />
  <g
     style="fill:#000000; fill-opacity:0.0;  stroke:#000000; stroke-width:-0.000393701; stroke-opacity:1;  stroke-linecap:round; stroke-linejoin:round;"
     id="g8" />
  <g
     style="fill:#000000; fill-opacity:0.0;  stroke:#000000; stroke-width:39.3701; stroke-opacity:1;  stroke-linecap:round; stroke-linejoin:round;"
     id="g290">
    <path
       d="M19741 39739 L22497 44512 "
       id="path18" />
    <path
       d="M17758 47248 L15002 42475 "
       id="path20" />
    <path
       d="M14018 40770 L11262 35997 "
       id="path22" />
    <path
       d="M18757 38034 L14018 40770 "
       id="path24" />
    <path
       d="M16001 33261 L18757 38034 "
       id="path26" />
    <path
       d="M11262 35997 L16001 33261 "
       id="path28" />
    <path
       d="M22497 44512 L17758 47248 "
       id="path30" />
    <path
       d="M15002 42475 L19741 39739 "
       id="path32" />
    <path
       d="M12408 44290 L15951 48512 "
       id="path42" />
    <path
       d="M11759 52030 L8216 47807 "
       id="path44" />
    <path
       d="M6951 46299 L3408 42077 "
       id="path46" />
    <path
       d="M11143 42782 L6951 46299 "
       id="path48" />
    <path
       d="M7600 38559 L11143 42782 "
       id="path50" />
    <path
       d="M3408 42077 L7600 38559 "
       id="path52" />
    <path
       d="M15951 48512 L11759 52030 "
       id="path54" />
    <path
       d="M8216 47807 L12408 44290 "
       id="path56" />
    <path
       d="M58281 33189 L52809 33189 "
       id="path58" />
    <path
       d="M52809 33189 L52809 38700 "
       id="path60" />
    <path
       d="M52789 38700 L58301 38700 "
       id="path62" />
    <path
       d="M58281 38700 L58281 33189 "
       id="path64" />
    <path
       d="M43281 25964 L37809 25964 "
       id="path66" />
    <path
       d="M37809 25964 L37809 31475 "
       id="path68" />
    <path
       d="M37789 31475 L43301 31475 "
       id="path70" />
    <path
       d="M43281 31475 L43281 25964 "
       id="path72" />
    <path
       d="M50781 6539 L45309 6539 "
       id="path74" />
    <path
       d="M45309 6539 L45309 12050 "
       id="path76" />
    <path
       d="M45289 12050 L50801 12050 "
       id="path78" />
    <path
       d="M50781 12050 L50781 6539 "
       id="path80" />
    <path
       d="M65786 34019 L60314 34019 "
       id="path82" />
    <path
       d="M60314 34019 L60314 39530 "
       id="path84" />
    <path
       d="M60294 39530 L65806 39530 "
       id="path86" />
    <path
       d="M65786 39530 L65786 34019 "
       id="path88" />
    <path
       d="M65786 26519 L60314 26519 "
       id="path90" />
    <path
       d="M60314 26519 L60314 32030 "
       id="path92" />
    <path
       d="M60294 32030 L65806 32030 "
       id="path94" />
    <path
       d="M65786 32030 L65786 26519 "
       id="path96" />
    <path
       d="M65786 19019 L60314 19019 "
       id="path98" />
    <path
       d="M60314 19019 L60314 24530 "
       id="path100" />
    <path
       d="M60294 24530 L65806 24530 "
       id="path102" />
    <path
       d="M65786 24530 L65786 19019 "
       id="path104" />
    <path
       d="M65786 11519 L60314 11519 "
       id="path106" />
    <path
       d="M60314 11519 L60314 17030 "
       id="path108" />
    <path
       d="M60294 17030 L65806 17030 "
       id="path110" />
    <path
       d="M65786 17030 L65786 11519 "
       id="path112" />
    <path
       d="M58281 25689 L52809 25689 "
       id="path114" />
    <path
       d="M52809 25689 L52809 31200 "
       id="path116" />
    <path
       d="M52789 31200 L58301 31200 "
       id="path118" />
    <path
       d="M58281 31200 L58281 25689 "
       id="path120" />
    <path
       d="M58281 18189 L52809 18189 "
       id="path122" />
    <path
       d="M52809 18189 L52809 23700 "
       id="path124" />
    <path
       d="M52789 23700 L58301 23700 "
       id="path126" />
    <path
       d="M58281 23700 L58281 18189 "
       id="path128" />
    <path
       d="M58281 10689 L52809 10689 "
       id="path130" />
    <path
       d="M52809 10689 L52809 16200 "
       id="path132" />
    <path
       d="M52789 16200 L58301 16200 "
       id="path134" />
    <path
       d="M58281 16200 L58281 10689 "
       id="path136" />
    <path
       d="M50781 29039 L45309 29039 "
       id="path138" />
    <path
       d="M45309 29039 L45309 34550 "
       id="path140" />
    <path
       d="M45289 34550 L50801 34550 "
       id="path142" />
    <path
       d="M50781 34550 L50781 29039 "
       id="path144" />
    <path
       d="M50781 21539 L45309 21539 "
       id="path146" />
    <path
       d="M45309 21539 L45309 27050 "
       id="path148" />
    <path
       d="M45289 27050 L50801 27050 "
       id="path150" />
    <path
       d="M50781 27050 L50781 21539 "
       id="path152" />
    <path
       d="M50781 14039 L45309 14039 "
       id="path154" />
    <path
       d="M45309 14039 L45309 19550 "
       id="path156" />
    <path
       d="M45289 19550 L50801 19550 "
       id="path158" />
    <path
       d="M50781 19550 L50781 14039 "
       id="path160" />
    <path
       d="M43281 18464 L37809 18464 "
       id="path162" />
    <path
       d="M37809 18464 L37809 23975 "
       id="path164" />
    <path
       d="M37789 23975 L43301 23975 "
       id="path166" />
    <path
       d="M43281 23975 L43281 18464 "
       id="path168" />
    <path
       d="M43281 10964 L37809 10964 "
       id="path170" />
    <path
       d="M37809 10964 L37809 16475 "
       id="path172" />
    <path
       d="M37789 16475 L43301 16475 "
       id="path174" />
    <path
       d="M43281 16475 L43281 10964 "
       id="path176" />
    <path
       d="M43281 3464 L37809 3464 "
       id="path178" />
    <path
       d="M37809 3464 L37809 8975 "
       id="path180" />
    <path
       d="M37789 8975 L43301 8975 "
       id="path182" />
    <path
       d="M43281 8975 L43281 3464 "
       id="path184" />
    <path
       d="M37696 36534 L32224 36534 "
       id="path186" />
    <path
       d="M32224 36534 L32224 42045 "
       id="path188" />
    <path
       d="M32204 42045 L37716 42045 "
       id="path190" />
    <path
       d="M37696 42045 L37696 36534 "
       id="path192" />
    <path
       d="M35781 27839 L30309 27839 "
       id="path194" />
    <path
       d="M30309 27839 L30309 33350 "
       id="path196" />
    <path
       d="M30289 33350 L35801 33350 "
       id="path198" />
    <path
       d="M35781 33350 L35781 27839 "
       id="path200" />
    <path
       d="M35781 20339 L30309 20339 "
       id="path202" />
    <path
       d="M30309 20339 L30309 25850 "
       id="path204" />
    <path
       d="M30289 25850 L35801 25850 "
       id="path206" />
    <path
       d="M35781 25850 L35781 20339 "
       id="path208" />
    <path
       d="M35781 12839 L30309 12839 "
       id="path210" />
    <path
       d="M30309 12839 L30309 18350 "
       id="path212" />
    <path
       d="M30289 18350 L35801 18350 "
       id="path214" />
    <path
       d="M35781 18350 L35781 12839 "
       id="path216" />
    <path
       d="M35781 5339 L30309 5339 "
       id="path218" />
    <path
       d="M30309 5339 L30309 10850 "
       id="path220" />
    <path
       d="M30289 10850 L35801 10850 "
       id="path222" />
    <path
       d="M35781 10850 L35781 5339 "
       id="path224" />
    <path
       d="M28618 36979 L23308 38302 "
       id="path226" />
    <path
       d="M23308 38302 L24641 43650 "
       id="path228" />
    <path
       d="M24622 43655 L29970 42322 "
       id="path230" />
    <path
       d="M29951 42327 L28618 36979 "
       id="path232" />
    <path
       d="M28281 28964 L22809 28964 "
       id="path234" />
    <path
       d="M22809 28964 L22809 34475 "
       id="path236" />
    <path
       d="M22789 34475 L28301 34475 "
       id="path238" />
    <path
       d="M28281 34475 L28281 28964 "
       id="path240" />
    <path
       d="M28281 21464 L22809 21464 "
       id="path242" />
    <path
       d="M22809 21464 L22809 26975 "
       id="path244" />
    <path
       d="M22789 26975 L28301 26975 "
       id="path246" />
    <path
       d="M28281 26975 L28281 21464 "
       id="path248" />
    <path
       d="M28281 13964 L22809 13964 "
       id="path250" />
    <path
       d="M22809 13964 L22809 19475 "
       id="path252" />
    <path
       d="M22789 19475 L28301 19475 "
       id="path254" />
    <path
       d="M28281 19475 L28281 13964 "
       id="path256" />
    <path
       d="M20781 21464 L15309 21464 "
       id="path258" />
    <path
       d="M15309 21464 L15309 26975 "
       id="path260" />
    <path
       d="M15289 26975 L20801 26975 "
       id="path262" />
    <path
       d="M20781 26975 L20781 21464 "
       id="path264" />
    <path
       d="M20781 13964 L15309 13964 "
       id="path266" />
    <path
       d="M15309 13964 L15309 19475 "
       id="path268" />
    <path
       d="M15289 19475 L20801 19475 "
       id="path270" />
    <path
       d="M20781 19475 L20781 13964 "
       id="path272" />
    <path
       d="M28281 6464 L22809 6464 "
       id="path274" />
    <path
       d="M22809 6464 L22809 11975 "
       id="path276" />
    <path
       d="M22789 11975 L28301 11975 "
       id="path278" />
    <path
       d="M28281 11975 L28281 6464 "
       id="path280" />
    <path
       d="M20781 6464 L15309 6464 "
       id="path282" />
    <path
       d="M15309 6464 L15309 11975 "
       id="path284" />
    <path
       d="M15289 11975 L20801 11975 "
       id="path286" />
    <path
       d="M20781 11975 L20781 6464 "
       id="path288" />
  </g>
  <g
     style="fill:#000000; fill-opacity:0.0;  stroke:#000000; stroke-width:47.2441; stroke-opacity:1;  stroke-linecap:round; stroke-linejoin:round;"
     id="g798">
    <path
       d="M12550 26970 L12550 25789 "
       id="path304" />
    <path
       d="M8220 25789 L8220 26970 "
       id="path306" />
    <path
       d="M8220 25789 L12550 25789 "
       id="path308" />
    <path
       d="M8220 26970 L12550 26970 "
       id="path310" />
    <circle
       cx="13338.2"
       cy="26151.7"
       r="511.811"
       id="circle312" />
    <circle
       cx="7432.68"
       cy="26151.7"
       r="511.811"
       id="circle314" />
    <circle
       cx="7790"
       cy="35900"
       r="748.031"
       id="circle318" />
    <circle
       cx="40600"
       cy="32900"
       r="748.031"
       id="circle322" />
    <circle
       cx="29050"
       cy="20450"
       r="748.031"
       id="circle326" />
    <circle
       cx="29050"
       cy="4600"
       r="748.031"
       id="circle330" />
    <circle
       cx="51498.8"
       cy="20554.7"
       r="748.031"
       id="circle334" />
    <circle
       cx="54950"
       cy="40900"
       r="748.031"
       id="circle338" />
    <circle
       cx="20950"
       cy="47285"
       r="748.031"
       id="circle342" />
    <circle
       cx="59360.4"
       cy="9230"
       r="748.031"
       id="circle346" />
    <circle
       cx="7790"
       cy="10360"
       r="748.031"
       id="circle350" />
    <path
       d="M44787 42220 L40063 42220 "
       id="path352" />
    <path
       d="M44787 36118 L44787 42220 "
       id="path354" />
    <path
       d="M40063 36118 L40063 42220 "
       id="path356" />
    <path
       d="M44787 36118 L40063 36118 "
       id="path358" />
    <g
       id="g360" />
    <g
       id="g362" />
    <g
       id="g364" />
    <g
       id="g366" />
    <g
       id="g368" />
    <g
       id="g370" />
    <g
       id="g372" />
    <g
       id="g374" />
    <g
       id="g376" />
    <g
       id="g378" />
    <g
       id="g380" />
    <g
       id="g382" />
    <g
       id="g384" />
    <g
       id="g386" />
    <g
       id="g388" />
    <g
       id="g390" />
    <g
       id="g392" />
    <g
       id="g394" />
    <g
       id="g396" />
    <g
       id="g398" />
    <g
       id="g400" />
    <g
       id="g402" />
    <g
       id="g404" />
    <g
       id="g406" />
    <g
       id="g408" />
    <g
       id="g410" />
    <g
       id="g412" />
    <g
       id="g414" />
    <g
       id="g416" />
    <g
       id="g418" />
    <g
       id="g420" />
    <g
       id="g422" />
    <g
       id="g424" />
    <g
       id="g426" />
    <g
       id="g428" />
    <g
       id="g430" />
    <g
       id="g432" />
    <g
       id="g434" />
    <g
       id="g436" />
    <g
       id="g438" />
    <g
       id="g440" />
    <g
       id="g442" />
    <g
       id="g444" />
    <g
       id="g446" />
    <g
       id="g448" />
    <g
       id="g450" />
    <g
       id="g452" />
    <g
       id="g454" />
    <g
       id="g456" />
    <g
       id="g458" />
    <g
       id="g460" />
    <g
       id="g462" />
    <g
       id="g464" />
    <g
       id="g466" />
    <g
       id="g468" />
    <g
       id="g470" />
    <g
       id="g472" />
    <g
       id="g474" />
    <g
       id="g476" />
    <g
       id="g478" />
    <g
       id="g480" />
    <g
       id="g482" />
    <g
       id="g484" />
    <g
       id="g486" />
    <g
       id="g488" />
    <g
       id="g490" />
    <g
       id="g492" />
    <g
       id="g494" />
    <g
       id="g496" />
    <g
       id="g498" />
    <g
       id="g500" />
    <g
       id="g502" />
    <g
       id="g504" />
    <g
       id="g506" />
    <g
       id="g508" />
    <g
       id="g510" />
    <g
       id="g512" />
    <g
       id="g514" />
    <g
       id="g516" />
    <g
       id="g518" />
    <g
       id="g520" />
    <g
       id="g522" />
    <g
       id="g524" />
    <g
       id="g526" />
    <g
       id="g528" />
    <g
       id="g530" />
    <g
       id="g532" />
    <g
       id="g534" />
    <g
       id="g536" />
    <g
       id="g538" />
    <g
       id="g540" />
    <g
       id="g542" />
    <g
       id="g544" />
    <g
       id="g546" />
    <g
       id="g548" />
    <g
       id="g550" />
    <g
       id="g552" />
    <g
       id="g554" />
    <g
       id="g556" />
    <g
       id="g558" />
    <g
       id="g560" />
    <g
       id="g562" />
    <g
       id="g564" />
    <g
       id="g566" />
    <g
       id="g568" />
    <g
       id="g570" />
    <g
       id="g572" />
    <g
       id="g574" />
    <g
       id="g576" />
    <g
       id="g578" />
    <g
       id="g580" />
    <g
       id="g582" />
    <g
       id="g584" />
    <g
       id="g586" />
    <g
       id="g588" />
    <g
       id="g590" />
    <g
       id="g592" />
    <g
       id="g594" />
    <g
       id="g596" />
    <g
       id="g598" />
    <g
       id="g600" />
    <g
       id="g602" />
    <g
       id="g604" />
    <g
       id="g606" />
    <g
       id="g608" />
    <g
       id="g610" />
    <g
       id="g612" />
    <g
       id="g614" />
    <g
       id="g616" />
    <g
       id="g618" />
    <g
       id="g620" />
    <g
       id="g622" />
    <g
       id="g624" />
    <g
       id="g626" />
    <g
       id="g628" />
    <g
       id="g630" />
    <g
       id="g632" />
    <g
       id="g634" />
    <g
       id="g636" />
    <g
       id="g638" />
    <g
       id="g640" />
    <g
       id="g642" />
    <g
       id="g644" />
    <g
       id="g646" />
    <g
       id="g648" />
    <g
       id="g650" />
    <g
       id="g652" />
    <g
       id="g654" />
    <g
       id="g656" />
    <g
       id="g658" />
    <g
       id="g660" />
    <g
       id="g662" />
    <g
       id="g664" />
    <g
       id="g666" />
    <g
       id="g668" />
    <g
       id="g670" />
    <g
       id="g672" />
    <g
       id="g674" />
    <g
       id="g676" />
    <g
       id="g678" />
    <g
       id="g680" />
    <g
       id="g682" />
    <g
       id="g684" />
    <g
       id="g686" />
    <g
       id="g688" />
    <g
       id="g690" />
    <g
       id="g692" />
    <g
       id="g694" />
    <g
       id="g696" />
    <g
       id="g698" />
    <g
       id="g700" />
    <g
       id="g702" />
    <g
       id="g704" />
    <g
       id="g706" />
    <g
       id="g708" />
    <g
       id="g710" />
    <g
       id="g712" />
    <g
       id="g714" />
    <g
       id="g716" />
    <g
       id="g718" />
    <g
       id="g720" />
    <g
       id="g722" />
    <g
       id="g724" />
    <g
       id="g726" />
    <g
       id="g728" />
    <g
       id="g730" />
    <g
       id="g732" />
    <g
       id="g734" />
    <g
       id="g736" />
    <g
       id="g738" />
    <g
       id="g740" />
    <g
       id="g742" />
    <g
       id="g744" />
    <g
       id="g746" />
    <g
       id="g748" />
    <g
       id="g750" />
    <g
       id="g752" />
    <g
       id="g754" />
    <g
       id="g756" />
    <g
       id="g758" />
    <g
       id="g760" />
    <g
       id="g762" />
    <g
       id="g764" />
    <g
       id="g766" />
    <g
       id="g768" />
    <g
       id="g770" />
    <g
       id="g772" />
    <g
       id="g774" />
    <g
       id="g776" />
    <g
       id="g778" />
    <g
       id="g780" />
    <g
       id="g782" />
    <g
       id="g784" />
    <g
       id="g786" />
    <g
       id="g788" />
    <g
       id="g790" />
    <g
       id="g792" />
    <g
       id="g794" />
    <g
       id="g796" />
  </g>
  <g
     style="fill:#000000; fill-opacity:0.0;  stroke:#000000; stroke-width:47.2441; stroke-opacity:1;  stroke-linecap:round; stroke-linejoin:round;"
     id="g800" />
  <g
     style="fill:#000000; fill-opacity:0.0;  stroke:#000000; stroke-width:50; stroke-opacity:1;  stroke-linecap:round; stroke-linejoin:round;"
     id="g850">
    <path
       d="M 6410,5640 V 37784.45"
       id="path804"
       sodipodi:nodetypes="cc" />
    <path
       d="M6410 5640 L6710 5340 "
       id="path806" />
    <path
       d="M66800 40850 L67090 40560 "
       id="path814" />
    <path
       d="M66790 10190 L67090 10490 "
       id="path816" />
    <path
       d="M36800 2140 L13040 5340 "
       id="path818" />
    <path
       d="M 6410,37784.45 1810,41655"
       id="path826"
       sodipodi:nodetypes="cc" />
    <path
       d="M1810 42155 L11275 53550 "
       id="path828" />
    <path
       d="M1810 41655 L1810 42155 "
       id="path830" />
    <path
       d="M11275 53550 L11955 53620 "
       id="path832" />
    <path
       d="M11955 53620 L31205 43350 "
       id="path834" />
    <path
       d="M31205 43350 L47260 43330 "
       id="path836" />
    <path
       d="M47260 43330 L66800 40850 "
       id="path838" />
    <path
       d="M67090 40560 L67090 10490 "
       id="path840" />
    <path
       d="M66790 10190 L44230 2140 "
       id="path842" />
    <path
       d="M 13040,5340 H 6710"
       id="path844"
       sodipodi:nodetypes="cc" />
    <path
       d="M36800 2140 L44230 2140 "
       id="path846" />
  </g>
</svg>
