G04 #@! TF.GenerationSoftware,KiCad,Pcbnew,5.1.6+dfsg1-1*
G04 #@! TF.CreationDate,2020-12-09T15:08:11+01:00*
G04 #@! TF.ProjectId,YAEMK,5941454d-4b2e-46b6-9963-61645f706362,1.2*
G04 #@! TF.SameCoordinates,Original*
G04 #@! TF.FileFunction,Paste,Top*
G04 #@! TF.FilePolarity,Positive*
%FSLAX46Y46*%
G04 Gerber Fmt 4.6, Leading zero omitted, Abs format (unit mm)*
G04 Created by KiCad (PCBNEW 5.1.6+dfsg1-1) date 2020-12-09 15:08:11*
%MOMM*%
%LPD*%
G01*
G04 APERTURE LIST*
%ADD10R,1.000000X1.000000*%
%ADD11R,0.800000X2.700000*%
%ADD12R,0.600000X0.700000*%
%ADD13R,0.700000X0.600000*%
%ADD14C,0.150000*%
%ADD15R,0.650000X1.060000*%
%ADD16R,1.560000X0.650000*%
%ADD17R,0.650000X1.560000*%
%ADD18R,0.800000X0.900000*%
%ADD19R,1.400000X1.200000*%
%ADD20R,1.450000X0.450000*%
%ADD21R,0.797560X0.797560*%
%ADD22R,1.300000X0.600000*%
%ADD23R,1.300000X0.300000*%
%ADD24R,0.600000X1.300000*%
%ADD25R,0.300000X1.300000*%
G04 APERTURE END LIST*
D10*
G04 #@! TO.C,D77*
X92222000Y-49530000D03*
X94722000Y-49530000D03*
G04 #@! TD*
G04 #@! TO.C,U5*
G36*
G01*
X84396700Y-78820600D02*
X83071700Y-78820600D01*
G75*
G02*
X82996700Y-78745600I0J75000D01*
G01*
X82996700Y-78595600D01*
G75*
G02*
X83071700Y-78520600I75000J0D01*
G01*
X84396700Y-78520600D01*
G75*
G02*
X84471700Y-78595600I0J-75000D01*
G01*
X84471700Y-78745600D01*
G75*
G02*
X84396700Y-78820600I-75000J0D01*
G01*
G37*
G36*
G01*
X84396700Y-78320600D02*
X83071700Y-78320600D01*
G75*
G02*
X82996700Y-78245600I0J75000D01*
G01*
X82996700Y-78095600D01*
G75*
G02*
X83071700Y-78020600I75000J0D01*
G01*
X84396700Y-78020600D01*
G75*
G02*
X84471700Y-78095600I0J-75000D01*
G01*
X84471700Y-78245600D01*
G75*
G02*
X84396700Y-78320600I-75000J0D01*
G01*
G37*
G36*
G01*
X84396700Y-77820600D02*
X83071700Y-77820600D01*
G75*
G02*
X82996700Y-77745600I0J75000D01*
G01*
X82996700Y-77595600D01*
G75*
G02*
X83071700Y-77520600I75000J0D01*
G01*
X84396700Y-77520600D01*
G75*
G02*
X84471700Y-77595600I0J-75000D01*
G01*
X84471700Y-77745600D01*
G75*
G02*
X84396700Y-77820600I-75000J0D01*
G01*
G37*
G36*
G01*
X84396700Y-77320600D02*
X83071700Y-77320600D01*
G75*
G02*
X82996700Y-77245600I0J75000D01*
G01*
X82996700Y-77095600D01*
G75*
G02*
X83071700Y-77020600I75000J0D01*
G01*
X84396700Y-77020600D01*
G75*
G02*
X84471700Y-77095600I0J-75000D01*
G01*
X84471700Y-77245600D01*
G75*
G02*
X84396700Y-77320600I-75000J0D01*
G01*
G37*
G36*
G01*
X84396700Y-76820600D02*
X83071700Y-76820600D01*
G75*
G02*
X82996700Y-76745600I0J75000D01*
G01*
X82996700Y-76595600D01*
G75*
G02*
X83071700Y-76520600I75000J0D01*
G01*
X84396700Y-76520600D01*
G75*
G02*
X84471700Y-76595600I0J-75000D01*
G01*
X84471700Y-76745600D01*
G75*
G02*
X84396700Y-76820600I-75000J0D01*
G01*
G37*
G36*
G01*
X84396700Y-76320600D02*
X83071700Y-76320600D01*
G75*
G02*
X82996700Y-76245600I0J75000D01*
G01*
X82996700Y-76095600D01*
G75*
G02*
X83071700Y-76020600I75000J0D01*
G01*
X84396700Y-76020600D01*
G75*
G02*
X84471700Y-76095600I0J-75000D01*
G01*
X84471700Y-76245600D01*
G75*
G02*
X84396700Y-76320600I-75000J0D01*
G01*
G37*
G36*
G01*
X84396700Y-75820600D02*
X83071700Y-75820600D01*
G75*
G02*
X82996700Y-75745600I0J75000D01*
G01*
X82996700Y-75595600D01*
G75*
G02*
X83071700Y-75520600I75000J0D01*
G01*
X84396700Y-75520600D01*
G75*
G02*
X84471700Y-75595600I0J-75000D01*
G01*
X84471700Y-75745600D01*
G75*
G02*
X84396700Y-75820600I-75000J0D01*
G01*
G37*
G36*
G01*
X84396700Y-75320600D02*
X83071700Y-75320600D01*
G75*
G02*
X82996700Y-75245600I0J75000D01*
G01*
X82996700Y-75095600D01*
G75*
G02*
X83071700Y-75020600I75000J0D01*
G01*
X84396700Y-75020600D01*
G75*
G02*
X84471700Y-75095600I0J-75000D01*
G01*
X84471700Y-75245600D01*
G75*
G02*
X84396700Y-75320600I-75000J0D01*
G01*
G37*
G36*
G01*
X84396700Y-74820600D02*
X83071700Y-74820600D01*
G75*
G02*
X82996700Y-74745600I0J75000D01*
G01*
X82996700Y-74595600D01*
G75*
G02*
X83071700Y-74520600I75000J0D01*
G01*
X84396700Y-74520600D01*
G75*
G02*
X84471700Y-74595600I0J-75000D01*
G01*
X84471700Y-74745600D01*
G75*
G02*
X84396700Y-74820600I-75000J0D01*
G01*
G37*
G36*
G01*
X84396700Y-74320600D02*
X83071700Y-74320600D01*
G75*
G02*
X82996700Y-74245600I0J75000D01*
G01*
X82996700Y-74095600D01*
G75*
G02*
X83071700Y-74020600I75000J0D01*
G01*
X84396700Y-74020600D01*
G75*
G02*
X84471700Y-74095600I0J-75000D01*
G01*
X84471700Y-74245600D01*
G75*
G02*
X84396700Y-74320600I-75000J0D01*
G01*
G37*
G36*
G01*
X84396700Y-73820600D02*
X83071700Y-73820600D01*
G75*
G02*
X82996700Y-73745600I0J75000D01*
G01*
X82996700Y-73595600D01*
G75*
G02*
X83071700Y-73520600I75000J0D01*
G01*
X84396700Y-73520600D01*
G75*
G02*
X84471700Y-73595600I0J-75000D01*
G01*
X84471700Y-73745600D01*
G75*
G02*
X84396700Y-73820600I-75000J0D01*
G01*
G37*
G36*
G01*
X84396700Y-73320600D02*
X83071700Y-73320600D01*
G75*
G02*
X82996700Y-73245600I0J75000D01*
G01*
X82996700Y-73095600D01*
G75*
G02*
X83071700Y-73020600I75000J0D01*
G01*
X84396700Y-73020600D01*
G75*
G02*
X84471700Y-73095600I0J-75000D01*
G01*
X84471700Y-73245600D01*
G75*
G02*
X84396700Y-73320600I-75000J0D01*
G01*
G37*
G36*
G01*
X85221700Y-72495600D02*
X85071700Y-72495600D01*
G75*
G02*
X84996700Y-72420600I0J75000D01*
G01*
X84996700Y-71095600D01*
G75*
G02*
X85071700Y-71020600I75000J0D01*
G01*
X85221700Y-71020600D01*
G75*
G02*
X85296700Y-71095600I0J-75000D01*
G01*
X85296700Y-72420600D01*
G75*
G02*
X85221700Y-72495600I-75000J0D01*
G01*
G37*
G36*
G01*
X85721700Y-72495600D02*
X85571700Y-72495600D01*
G75*
G02*
X85496700Y-72420600I0J75000D01*
G01*
X85496700Y-71095600D01*
G75*
G02*
X85571700Y-71020600I75000J0D01*
G01*
X85721700Y-71020600D01*
G75*
G02*
X85796700Y-71095600I0J-75000D01*
G01*
X85796700Y-72420600D01*
G75*
G02*
X85721700Y-72495600I-75000J0D01*
G01*
G37*
G36*
G01*
X86221700Y-72495600D02*
X86071700Y-72495600D01*
G75*
G02*
X85996700Y-72420600I0J75000D01*
G01*
X85996700Y-71095600D01*
G75*
G02*
X86071700Y-71020600I75000J0D01*
G01*
X86221700Y-71020600D01*
G75*
G02*
X86296700Y-71095600I0J-75000D01*
G01*
X86296700Y-72420600D01*
G75*
G02*
X86221700Y-72495600I-75000J0D01*
G01*
G37*
G36*
G01*
X86721700Y-72495600D02*
X86571700Y-72495600D01*
G75*
G02*
X86496700Y-72420600I0J75000D01*
G01*
X86496700Y-71095600D01*
G75*
G02*
X86571700Y-71020600I75000J0D01*
G01*
X86721700Y-71020600D01*
G75*
G02*
X86796700Y-71095600I0J-75000D01*
G01*
X86796700Y-72420600D01*
G75*
G02*
X86721700Y-72495600I-75000J0D01*
G01*
G37*
G36*
G01*
X87221700Y-72495600D02*
X87071700Y-72495600D01*
G75*
G02*
X86996700Y-72420600I0J75000D01*
G01*
X86996700Y-71095600D01*
G75*
G02*
X87071700Y-71020600I75000J0D01*
G01*
X87221700Y-71020600D01*
G75*
G02*
X87296700Y-71095600I0J-75000D01*
G01*
X87296700Y-72420600D01*
G75*
G02*
X87221700Y-72495600I-75000J0D01*
G01*
G37*
G36*
G01*
X87721700Y-72495600D02*
X87571700Y-72495600D01*
G75*
G02*
X87496700Y-72420600I0J75000D01*
G01*
X87496700Y-71095600D01*
G75*
G02*
X87571700Y-71020600I75000J0D01*
G01*
X87721700Y-71020600D01*
G75*
G02*
X87796700Y-71095600I0J-75000D01*
G01*
X87796700Y-72420600D01*
G75*
G02*
X87721700Y-72495600I-75000J0D01*
G01*
G37*
G36*
G01*
X88221700Y-72495600D02*
X88071700Y-72495600D01*
G75*
G02*
X87996700Y-72420600I0J75000D01*
G01*
X87996700Y-71095600D01*
G75*
G02*
X88071700Y-71020600I75000J0D01*
G01*
X88221700Y-71020600D01*
G75*
G02*
X88296700Y-71095600I0J-75000D01*
G01*
X88296700Y-72420600D01*
G75*
G02*
X88221700Y-72495600I-75000J0D01*
G01*
G37*
G36*
G01*
X88721700Y-72495600D02*
X88571700Y-72495600D01*
G75*
G02*
X88496700Y-72420600I0J75000D01*
G01*
X88496700Y-71095600D01*
G75*
G02*
X88571700Y-71020600I75000J0D01*
G01*
X88721700Y-71020600D01*
G75*
G02*
X88796700Y-71095600I0J-75000D01*
G01*
X88796700Y-72420600D01*
G75*
G02*
X88721700Y-72495600I-75000J0D01*
G01*
G37*
G36*
G01*
X89221700Y-72495600D02*
X89071700Y-72495600D01*
G75*
G02*
X88996700Y-72420600I0J75000D01*
G01*
X88996700Y-71095600D01*
G75*
G02*
X89071700Y-71020600I75000J0D01*
G01*
X89221700Y-71020600D01*
G75*
G02*
X89296700Y-71095600I0J-75000D01*
G01*
X89296700Y-72420600D01*
G75*
G02*
X89221700Y-72495600I-75000J0D01*
G01*
G37*
G36*
G01*
X89721700Y-72495600D02*
X89571700Y-72495600D01*
G75*
G02*
X89496700Y-72420600I0J75000D01*
G01*
X89496700Y-71095600D01*
G75*
G02*
X89571700Y-71020600I75000J0D01*
G01*
X89721700Y-71020600D01*
G75*
G02*
X89796700Y-71095600I0J-75000D01*
G01*
X89796700Y-72420600D01*
G75*
G02*
X89721700Y-72495600I-75000J0D01*
G01*
G37*
G36*
G01*
X90221700Y-72495600D02*
X90071700Y-72495600D01*
G75*
G02*
X89996700Y-72420600I0J75000D01*
G01*
X89996700Y-71095600D01*
G75*
G02*
X90071700Y-71020600I75000J0D01*
G01*
X90221700Y-71020600D01*
G75*
G02*
X90296700Y-71095600I0J-75000D01*
G01*
X90296700Y-72420600D01*
G75*
G02*
X90221700Y-72495600I-75000J0D01*
G01*
G37*
G36*
G01*
X90721700Y-72495600D02*
X90571700Y-72495600D01*
G75*
G02*
X90496700Y-72420600I0J75000D01*
G01*
X90496700Y-71095600D01*
G75*
G02*
X90571700Y-71020600I75000J0D01*
G01*
X90721700Y-71020600D01*
G75*
G02*
X90796700Y-71095600I0J-75000D01*
G01*
X90796700Y-72420600D01*
G75*
G02*
X90721700Y-72495600I-75000J0D01*
G01*
G37*
G36*
G01*
X92721700Y-73320600D02*
X91396700Y-73320600D01*
G75*
G02*
X91321700Y-73245600I0J75000D01*
G01*
X91321700Y-73095600D01*
G75*
G02*
X91396700Y-73020600I75000J0D01*
G01*
X92721700Y-73020600D01*
G75*
G02*
X92796700Y-73095600I0J-75000D01*
G01*
X92796700Y-73245600D01*
G75*
G02*
X92721700Y-73320600I-75000J0D01*
G01*
G37*
G36*
G01*
X92721700Y-73820600D02*
X91396700Y-73820600D01*
G75*
G02*
X91321700Y-73745600I0J75000D01*
G01*
X91321700Y-73595600D01*
G75*
G02*
X91396700Y-73520600I75000J0D01*
G01*
X92721700Y-73520600D01*
G75*
G02*
X92796700Y-73595600I0J-75000D01*
G01*
X92796700Y-73745600D01*
G75*
G02*
X92721700Y-73820600I-75000J0D01*
G01*
G37*
G36*
G01*
X92721700Y-74320600D02*
X91396700Y-74320600D01*
G75*
G02*
X91321700Y-74245600I0J75000D01*
G01*
X91321700Y-74095600D01*
G75*
G02*
X91396700Y-74020600I75000J0D01*
G01*
X92721700Y-74020600D01*
G75*
G02*
X92796700Y-74095600I0J-75000D01*
G01*
X92796700Y-74245600D01*
G75*
G02*
X92721700Y-74320600I-75000J0D01*
G01*
G37*
G36*
G01*
X92721700Y-74820600D02*
X91396700Y-74820600D01*
G75*
G02*
X91321700Y-74745600I0J75000D01*
G01*
X91321700Y-74595600D01*
G75*
G02*
X91396700Y-74520600I75000J0D01*
G01*
X92721700Y-74520600D01*
G75*
G02*
X92796700Y-74595600I0J-75000D01*
G01*
X92796700Y-74745600D01*
G75*
G02*
X92721700Y-74820600I-75000J0D01*
G01*
G37*
G36*
G01*
X92721700Y-75320600D02*
X91396700Y-75320600D01*
G75*
G02*
X91321700Y-75245600I0J75000D01*
G01*
X91321700Y-75095600D01*
G75*
G02*
X91396700Y-75020600I75000J0D01*
G01*
X92721700Y-75020600D01*
G75*
G02*
X92796700Y-75095600I0J-75000D01*
G01*
X92796700Y-75245600D01*
G75*
G02*
X92721700Y-75320600I-75000J0D01*
G01*
G37*
G36*
G01*
X92721700Y-75820600D02*
X91396700Y-75820600D01*
G75*
G02*
X91321700Y-75745600I0J75000D01*
G01*
X91321700Y-75595600D01*
G75*
G02*
X91396700Y-75520600I75000J0D01*
G01*
X92721700Y-75520600D01*
G75*
G02*
X92796700Y-75595600I0J-75000D01*
G01*
X92796700Y-75745600D01*
G75*
G02*
X92721700Y-75820600I-75000J0D01*
G01*
G37*
G36*
G01*
X92721700Y-76320600D02*
X91396700Y-76320600D01*
G75*
G02*
X91321700Y-76245600I0J75000D01*
G01*
X91321700Y-76095600D01*
G75*
G02*
X91396700Y-76020600I75000J0D01*
G01*
X92721700Y-76020600D01*
G75*
G02*
X92796700Y-76095600I0J-75000D01*
G01*
X92796700Y-76245600D01*
G75*
G02*
X92721700Y-76320600I-75000J0D01*
G01*
G37*
G36*
G01*
X92721700Y-76820600D02*
X91396700Y-76820600D01*
G75*
G02*
X91321700Y-76745600I0J75000D01*
G01*
X91321700Y-76595600D01*
G75*
G02*
X91396700Y-76520600I75000J0D01*
G01*
X92721700Y-76520600D01*
G75*
G02*
X92796700Y-76595600I0J-75000D01*
G01*
X92796700Y-76745600D01*
G75*
G02*
X92721700Y-76820600I-75000J0D01*
G01*
G37*
G36*
G01*
X92721700Y-77320600D02*
X91396700Y-77320600D01*
G75*
G02*
X91321700Y-77245600I0J75000D01*
G01*
X91321700Y-77095600D01*
G75*
G02*
X91396700Y-77020600I75000J0D01*
G01*
X92721700Y-77020600D01*
G75*
G02*
X92796700Y-77095600I0J-75000D01*
G01*
X92796700Y-77245600D01*
G75*
G02*
X92721700Y-77320600I-75000J0D01*
G01*
G37*
G36*
G01*
X92721700Y-77820600D02*
X91396700Y-77820600D01*
G75*
G02*
X91321700Y-77745600I0J75000D01*
G01*
X91321700Y-77595600D01*
G75*
G02*
X91396700Y-77520600I75000J0D01*
G01*
X92721700Y-77520600D01*
G75*
G02*
X92796700Y-77595600I0J-75000D01*
G01*
X92796700Y-77745600D01*
G75*
G02*
X92721700Y-77820600I-75000J0D01*
G01*
G37*
G36*
G01*
X92721700Y-78320600D02*
X91396700Y-78320600D01*
G75*
G02*
X91321700Y-78245600I0J75000D01*
G01*
X91321700Y-78095600D01*
G75*
G02*
X91396700Y-78020600I75000J0D01*
G01*
X92721700Y-78020600D01*
G75*
G02*
X92796700Y-78095600I0J-75000D01*
G01*
X92796700Y-78245600D01*
G75*
G02*
X92721700Y-78320600I-75000J0D01*
G01*
G37*
G36*
G01*
X92721700Y-78820600D02*
X91396700Y-78820600D01*
G75*
G02*
X91321700Y-78745600I0J75000D01*
G01*
X91321700Y-78595600D01*
G75*
G02*
X91396700Y-78520600I75000J0D01*
G01*
X92721700Y-78520600D01*
G75*
G02*
X92796700Y-78595600I0J-75000D01*
G01*
X92796700Y-78745600D01*
G75*
G02*
X92721700Y-78820600I-75000J0D01*
G01*
G37*
G36*
G01*
X90721700Y-80820600D02*
X90571700Y-80820600D01*
G75*
G02*
X90496700Y-80745600I0J75000D01*
G01*
X90496700Y-79420600D01*
G75*
G02*
X90571700Y-79345600I75000J0D01*
G01*
X90721700Y-79345600D01*
G75*
G02*
X90796700Y-79420600I0J-75000D01*
G01*
X90796700Y-80745600D01*
G75*
G02*
X90721700Y-80820600I-75000J0D01*
G01*
G37*
G36*
G01*
X90221700Y-80820600D02*
X90071700Y-80820600D01*
G75*
G02*
X89996700Y-80745600I0J75000D01*
G01*
X89996700Y-79420600D01*
G75*
G02*
X90071700Y-79345600I75000J0D01*
G01*
X90221700Y-79345600D01*
G75*
G02*
X90296700Y-79420600I0J-75000D01*
G01*
X90296700Y-80745600D01*
G75*
G02*
X90221700Y-80820600I-75000J0D01*
G01*
G37*
G36*
G01*
X89721700Y-80820600D02*
X89571700Y-80820600D01*
G75*
G02*
X89496700Y-80745600I0J75000D01*
G01*
X89496700Y-79420600D01*
G75*
G02*
X89571700Y-79345600I75000J0D01*
G01*
X89721700Y-79345600D01*
G75*
G02*
X89796700Y-79420600I0J-75000D01*
G01*
X89796700Y-80745600D01*
G75*
G02*
X89721700Y-80820600I-75000J0D01*
G01*
G37*
G36*
G01*
X89221700Y-80820600D02*
X89071700Y-80820600D01*
G75*
G02*
X88996700Y-80745600I0J75000D01*
G01*
X88996700Y-79420600D01*
G75*
G02*
X89071700Y-79345600I75000J0D01*
G01*
X89221700Y-79345600D01*
G75*
G02*
X89296700Y-79420600I0J-75000D01*
G01*
X89296700Y-80745600D01*
G75*
G02*
X89221700Y-80820600I-75000J0D01*
G01*
G37*
G36*
G01*
X88721700Y-80820600D02*
X88571700Y-80820600D01*
G75*
G02*
X88496700Y-80745600I0J75000D01*
G01*
X88496700Y-79420600D01*
G75*
G02*
X88571700Y-79345600I75000J0D01*
G01*
X88721700Y-79345600D01*
G75*
G02*
X88796700Y-79420600I0J-75000D01*
G01*
X88796700Y-80745600D01*
G75*
G02*
X88721700Y-80820600I-75000J0D01*
G01*
G37*
G36*
G01*
X88221700Y-80820600D02*
X88071700Y-80820600D01*
G75*
G02*
X87996700Y-80745600I0J75000D01*
G01*
X87996700Y-79420600D01*
G75*
G02*
X88071700Y-79345600I75000J0D01*
G01*
X88221700Y-79345600D01*
G75*
G02*
X88296700Y-79420600I0J-75000D01*
G01*
X88296700Y-80745600D01*
G75*
G02*
X88221700Y-80820600I-75000J0D01*
G01*
G37*
G36*
G01*
X87721700Y-80820600D02*
X87571700Y-80820600D01*
G75*
G02*
X87496700Y-80745600I0J75000D01*
G01*
X87496700Y-79420600D01*
G75*
G02*
X87571700Y-79345600I75000J0D01*
G01*
X87721700Y-79345600D01*
G75*
G02*
X87796700Y-79420600I0J-75000D01*
G01*
X87796700Y-80745600D01*
G75*
G02*
X87721700Y-80820600I-75000J0D01*
G01*
G37*
G36*
G01*
X87221700Y-80820600D02*
X87071700Y-80820600D01*
G75*
G02*
X86996700Y-80745600I0J75000D01*
G01*
X86996700Y-79420600D01*
G75*
G02*
X87071700Y-79345600I75000J0D01*
G01*
X87221700Y-79345600D01*
G75*
G02*
X87296700Y-79420600I0J-75000D01*
G01*
X87296700Y-80745600D01*
G75*
G02*
X87221700Y-80820600I-75000J0D01*
G01*
G37*
G36*
G01*
X86721700Y-80820600D02*
X86571700Y-80820600D01*
G75*
G02*
X86496700Y-80745600I0J75000D01*
G01*
X86496700Y-79420600D01*
G75*
G02*
X86571700Y-79345600I75000J0D01*
G01*
X86721700Y-79345600D01*
G75*
G02*
X86796700Y-79420600I0J-75000D01*
G01*
X86796700Y-80745600D01*
G75*
G02*
X86721700Y-80820600I-75000J0D01*
G01*
G37*
G36*
G01*
X86221700Y-80820600D02*
X86071700Y-80820600D01*
G75*
G02*
X85996700Y-80745600I0J75000D01*
G01*
X85996700Y-79420600D01*
G75*
G02*
X86071700Y-79345600I75000J0D01*
G01*
X86221700Y-79345600D01*
G75*
G02*
X86296700Y-79420600I0J-75000D01*
G01*
X86296700Y-80745600D01*
G75*
G02*
X86221700Y-80820600I-75000J0D01*
G01*
G37*
G36*
G01*
X85721700Y-80820600D02*
X85571700Y-80820600D01*
G75*
G02*
X85496700Y-80745600I0J75000D01*
G01*
X85496700Y-79420600D01*
G75*
G02*
X85571700Y-79345600I75000J0D01*
G01*
X85721700Y-79345600D01*
G75*
G02*
X85796700Y-79420600I0J-75000D01*
G01*
X85796700Y-80745600D01*
G75*
G02*
X85721700Y-80820600I-75000J0D01*
G01*
G37*
G36*
G01*
X85221700Y-80820600D02*
X85071700Y-80820600D01*
G75*
G02*
X84996700Y-80745600I0J75000D01*
G01*
X84996700Y-79420600D01*
G75*
G02*
X85071700Y-79345600I75000J0D01*
G01*
X85221700Y-79345600D01*
G75*
G02*
X85296700Y-79420600I0J-75000D01*
G01*
X85296700Y-80745600D01*
G75*
G02*
X85221700Y-80820600I-75000J0D01*
G01*
G37*
G04 #@! TD*
G04 #@! TO.C,F2*
G36*
G01*
X88636000Y-99815000D02*
X87386000Y-99815000D01*
G75*
G02*
X87136000Y-99565000I0J250000D01*
G01*
X87136000Y-98815000D01*
G75*
G02*
X87386000Y-98565000I250000J0D01*
G01*
X88636000Y-98565000D01*
G75*
G02*
X88886000Y-98815000I0J-250000D01*
G01*
X88886000Y-99565000D01*
G75*
G02*
X88636000Y-99815000I-250000J0D01*
G01*
G37*
G36*
G01*
X88636000Y-97015000D02*
X87386000Y-97015000D01*
G75*
G02*
X87136000Y-96765000I0J250000D01*
G01*
X87136000Y-96015000D01*
G75*
G02*
X87386000Y-95765000I250000J0D01*
G01*
X88636000Y-95765000D01*
G75*
G02*
X88886000Y-96015000I0J-250000D01*
G01*
X88886000Y-96765000D01*
G75*
G02*
X88636000Y-97015000I-250000J0D01*
G01*
G37*
G04 #@! TD*
G04 #@! TO.C,F1*
G36*
G01*
X90477500Y-49713500D02*
X89227500Y-49713500D01*
G75*
G02*
X88977500Y-49463500I0J250000D01*
G01*
X88977500Y-48713500D01*
G75*
G02*
X89227500Y-48463500I250000J0D01*
G01*
X90477500Y-48463500D01*
G75*
G02*
X90727500Y-48713500I0J-250000D01*
G01*
X90727500Y-49463500D01*
G75*
G02*
X90477500Y-49713500I-250000J0D01*
G01*
G37*
G36*
G01*
X90477500Y-46913500D02*
X89227500Y-46913500D01*
G75*
G02*
X88977500Y-46663500I0J250000D01*
G01*
X88977500Y-45913500D01*
G75*
G02*
X89227500Y-45663500I250000J0D01*
G01*
X90477500Y-45663500D01*
G75*
G02*
X90727500Y-45913500I0J-250000D01*
G01*
X90727500Y-46663500D01*
G75*
G02*
X90477500Y-46913500I-250000J0D01*
G01*
G37*
G04 #@! TD*
D11*
G04 #@! TO.C,L1*
X90721000Y-60579000D03*
X92921000Y-60579000D03*
G04 #@! TD*
D12*
G04 #@! TO.C,D69*
X78548000Y-84455000D03*
X79948000Y-84455000D03*
G04 #@! TD*
D13*
G04 #@! TO.C,D34*
X211404200Y-121096000D03*
X211404200Y-119696000D03*
G04 #@! TD*
G04 #@! TO.C,D33*
X211404200Y-102046000D03*
X211404200Y-100646000D03*
G04 #@! TD*
G04 #@! TO.C,D32*
X211328000Y-82996000D03*
X211328000Y-81596000D03*
G04 #@! TD*
G04 #@! TO.C,D31*
X211455000Y-64327000D03*
X211455000Y-62927000D03*
G04 #@! TD*
G04 #@! TO.C,D30*
X192405000Y-119064000D03*
X192405000Y-117664000D03*
G04 #@! TD*
G04 #@! TO.C,D29*
X192405000Y-100014000D03*
X192405000Y-98614000D03*
G04 #@! TD*
G04 #@! TO.C,D28*
X192405000Y-80964000D03*
X192405000Y-79564000D03*
G04 #@! TD*
G04 #@! TO.C,D27*
X192405000Y-61152000D03*
X192405000Y-59752000D03*
G04 #@! TD*
G04 #@! TO.C,D26*
X173228000Y-107761000D03*
X173228000Y-106361000D03*
G04 #@! TD*
G04 #@! TO.C,D25*
X173355000Y-89600000D03*
X173355000Y-88200000D03*
G04 #@! TD*
G04 #@! TO.C,D24*
X173355000Y-70550000D03*
X173355000Y-69150000D03*
G04 #@! TD*
G04 #@! TO.C,D23*
X173228000Y-50611000D03*
X173228000Y-49211000D03*
G04 #@! TD*
G04 #@! TO.C,D22*
X159131000Y-129160500D03*
X159131000Y-127760500D03*
G04 #@! TD*
G04 #@! TO.C,D21*
X154305000Y-104205000D03*
X154305000Y-102805000D03*
G04 #@! TD*
G04 #@! TO.C,D19*
X154305000Y-62676000D03*
X154305000Y-61276000D03*
G04 #@! TD*
G04 #@! TO.C,D18*
X154432000Y-43880000D03*
X154432000Y-42480000D03*
G04 #@! TD*
G04 #@! TO.C,D17*
X140208000Y-127636500D03*
X140208000Y-126236500D03*
G04 #@! TD*
G04 #@! TO.C,D16*
X135255000Y-105602000D03*
X135255000Y-104202000D03*
G04 #@! TD*
G04 #@! TO.C,D15*
X135255000Y-86298000D03*
X135255000Y-84898000D03*
G04 #@! TD*
G04 #@! TO.C,D14*
X135356600Y-67502000D03*
X135356600Y-66102000D03*
G04 #@! TD*
G04 #@! TO.C,D13*
X135255000Y-48706000D03*
X135255000Y-47306000D03*
G04 #@! TD*
D14*
G04 #@! TO.C,D12*
G36*
X121174066Y-132551987D02*
G01*
X120497918Y-132733160D01*
X120342626Y-132153605D01*
X121018774Y-131972432D01*
X121174066Y-132551987D01*
G37*
G36*
X120811720Y-131199691D02*
G01*
X120135572Y-131380864D01*
X119980280Y-130801309D01*
X120656428Y-130620136D01*
X120811720Y-131199691D01*
G37*
G04 #@! TD*
D13*
G04 #@! TO.C,D11*
X116205000Y-108396000D03*
X116205000Y-106996000D03*
G04 #@! TD*
G04 #@! TO.C,D10*
X116205000Y-89346000D03*
X116205000Y-87946000D03*
G04 #@! TD*
G04 #@! TO.C,D9*
X116205000Y-70296000D03*
X116205000Y-68896000D03*
G04 #@! TD*
G04 #@! TO.C,D8*
X116205000Y-51373000D03*
X116205000Y-49973000D03*
G04 #@! TD*
D14*
G04 #@! TO.C,D7*
G36*
X102587280Y-141461400D02*
G01*
X102013874Y-141862903D01*
X101669728Y-141371412D01*
X102243134Y-140969909D01*
X102587280Y-141461400D01*
G37*
G36*
X101784272Y-140314588D02*
G01*
X101210866Y-140716091D01*
X100866720Y-140224600D01*
X101440126Y-139823097D01*
X101784272Y-140314588D01*
G37*
G04 #@! TD*
G04 #@! TO.C,D6*
G36*
X93005109Y-125214526D02*
G01*
X92398891Y-125564526D01*
X92098891Y-125044910D01*
X92705109Y-124694910D01*
X93005109Y-125214526D01*
G37*
G36*
X92305109Y-124002090D02*
G01*
X91698891Y-124352090D01*
X91398891Y-123832474D01*
X92005109Y-123482474D01*
X92305109Y-124002090D01*
G37*
G04 #@! TD*
D13*
G04 #@! TO.C,D5*
X97180400Y-89346000D03*
X97180400Y-87946000D03*
G04 #@! TD*
G04 #@! TO.C,D4*
X97155000Y-70296000D03*
X97155000Y-68896000D03*
G04 #@! TD*
G04 #@! TO.C,D3*
X97028000Y-51500000D03*
X97028000Y-50100000D03*
G04 #@! TD*
D14*
G04 #@! TO.C,D2*
G36*
X104471776Y-144189994D02*
G01*
X103898370Y-144591497D01*
X103554224Y-144100006D01*
X104127630Y-143698503D01*
X104471776Y-144189994D01*
G37*
G36*
X103668768Y-143043182D02*
G01*
X103095362Y-143444685D01*
X102751216Y-142953194D01*
X103324622Y-142551691D01*
X103668768Y-143043182D01*
G37*
G04 #@! TD*
G04 #@! TO.C,D1*
G36*
X90572903Y-126842569D02*
G01*
X90036672Y-127292520D01*
X89650999Y-126832893D01*
X90187230Y-126382942D01*
X90572903Y-126842569D01*
G37*
G36*
X89673001Y-125770107D02*
G01*
X89136770Y-126220058D01*
X88751097Y-125760431D01*
X89287328Y-125310480D01*
X89673001Y-125770107D01*
G37*
G04 #@! TD*
D13*
G04 #@! TO.C,D20*
X154305000Y-81726000D03*
X154305000Y-80326000D03*
G04 #@! TD*
D15*
G04 #@! TO.C,U2*
X92903000Y-57150000D03*
X93853000Y-57150000D03*
X94803000Y-57150000D03*
X94803000Y-54950000D03*
X92903000Y-54950000D03*
G04 #@! TD*
D16*
G04 #@! TO.C,U4*
X90656400Y-102260400D03*
X90656400Y-101310400D03*
X90656400Y-103210400D03*
X87956400Y-103210400D03*
X87956400Y-102260400D03*
X87956400Y-101310400D03*
G04 #@! TD*
D17*
G04 #@! TO.C,U3*
X86512400Y-49076600D03*
X87462400Y-49076600D03*
X85562400Y-49076600D03*
X85562400Y-46376600D03*
X86512400Y-46376600D03*
X87462400Y-46376600D03*
G04 #@! TD*
D18*
G04 #@! TO.C,Q1*
X80645000Y-76311000D03*
X79695000Y-74311000D03*
X81595000Y-74311000D03*
G04 #@! TD*
D19*
G04 #@! TO.C,HSE1*
X85768000Y-84621000D03*
X87968000Y-84621000D03*
X87968000Y-86321000D03*
X85768000Y-86321000D03*
G04 #@! TD*
D20*
G04 #@! TO.C,U1*
X84235500Y-94256500D03*
X84235500Y-93606500D03*
X84235500Y-92956500D03*
X84235500Y-92306500D03*
X90135500Y-92306500D03*
X90135500Y-92956500D03*
X90135500Y-93606500D03*
X90135500Y-94256500D03*
G04 #@! TD*
G04 #@! TO.C,C54*
G36*
G01*
X80295000Y-81150750D02*
X80295000Y-81663250D01*
G75*
G02*
X80076250Y-81882000I-218750J0D01*
G01*
X79638750Y-81882000D01*
G75*
G02*
X79420000Y-81663250I0J218750D01*
G01*
X79420000Y-81150750D01*
G75*
G02*
X79638750Y-80932000I218750J0D01*
G01*
X80076250Y-80932000D01*
G75*
G02*
X80295000Y-81150750I0J-218750D01*
G01*
G37*
G36*
G01*
X81870000Y-81150750D02*
X81870000Y-81663250D01*
G75*
G02*
X81651250Y-81882000I-218750J0D01*
G01*
X81213750Y-81882000D01*
G75*
G02*
X80995000Y-81663250I0J218750D01*
G01*
X80995000Y-81150750D01*
G75*
G02*
X81213750Y-80932000I218750J0D01*
G01*
X81651250Y-80932000D01*
G75*
G02*
X81870000Y-81150750I0J-218750D01*
G01*
G37*
G04 #@! TD*
G04 #@! TO.C,R26*
G36*
G01*
X93739266Y-107712581D02*
X93995516Y-108156419D01*
G75*
G02*
X93915448Y-108455237I-189443J-109375D01*
G01*
X93536562Y-108673987D01*
G75*
G02*
X93237744Y-108593919I-109375J189443D01*
G01*
X92981494Y-108150081D01*
G75*
G02*
X93061562Y-107851263I189443J109375D01*
G01*
X93440448Y-107632513D01*
G75*
G02*
X93739266Y-107712581I109375J-189443D01*
G01*
G37*
G36*
G01*
X95103256Y-106925081D02*
X95359506Y-107368919D01*
G75*
G02*
X95279438Y-107667737I-189443J-109375D01*
G01*
X94900552Y-107886487D01*
G75*
G02*
X94601734Y-107806419I-109375J189443D01*
G01*
X94345484Y-107362581D01*
G75*
G02*
X94425552Y-107063763I189443J109375D01*
G01*
X94804438Y-106845013D01*
G75*
G02*
X95103256Y-106925081I109375J-189443D01*
G01*
G37*
G04 #@! TD*
G04 #@! TO.C,R25*
G36*
G01*
X82801750Y-86456000D02*
X83314250Y-86456000D01*
G75*
G02*
X83533000Y-86674750I0J-218750D01*
G01*
X83533000Y-87112250D01*
G75*
G02*
X83314250Y-87331000I-218750J0D01*
G01*
X82801750Y-87331000D01*
G75*
G02*
X82583000Y-87112250I0J218750D01*
G01*
X82583000Y-86674750D01*
G75*
G02*
X82801750Y-86456000I218750J0D01*
G01*
G37*
G36*
G01*
X82801750Y-84881000D02*
X83314250Y-84881000D01*
G75*
G02*
X83533000Y-85099750I0J-218750D01*
G01*
X83533000Y-85537250D01*
G75*
G02*
X83314250Y-85756000I-218750J0D01*
G01*
X82801750Y-85756000D01*
G75*
G02*
X82583000Y-85537250I0J218750D01*
G01*
X82583000Y-85099750D01*
G75*
G02*
X82801750Y-84881000I218750J0D01*
G01*
G37*
G04 #@! TD*
G04 #@! TO.C,R24*
G36*
G01*
X82801750Y-83154000D02*
X83314250Y-83154000D01*
G75*
G02*
X83533000Y-83372750I0J-218750D01*
G01*
X83533000Y-83810250D01*
G75*
G02*
X83314250Y-84029000I-218750J0D01*
G01*
X82801750Y-84029000D01*
G75*
G02*
X82583000Y-83810250I0J218750D01*
G01*
X82583000Y-83372750D01*
G75*
G02*
X82801750Y-83154000I218750J0D01*
G01*
G37*
G36*
G01*
X82801750Y-81579000D02*
X83314250Y-81579000D01*
G75*
G02*
X83533000Y-81797750I0J-218750D01*
G01*
X83533000Y-82235250D01*
G75*
G02*
X83314250Y-82454000I-218750J0D01*
G01*
X82801750Y-82454000D01*
G75*
G02*
X82583000Y-82235250I0J218750D01*
G01*
X82583000Y-81797750D01*
G75*
G02*
X82801750Y-81579000I218750J0D01*
G01*
G37*
G04 #@! TD*
G04 #@! TO.C,C13*
G36*
G01*
X153481750Y-110902000D02*
X152969250Y-110902000D01*
G75*
G02*
X152750500Y-110683250I0J218750D01*
G01*
X152750500Y-110245750D01*
G75*
G02*
X152969250Y-110027000I218750J0D01*
G01*
X153481750Y-110027000D01*
G75*
G02*
X153700500Y-110245750I0J-218750D01*
G01*
X153700500Y-110683250D01*
G75*
G02*
X153481750Y-110902000I-218750J0D01*
G01*
G37*
G36*
G01*
X153481750Y-112477000D02*
X152969250Y-112477000D01*
G75*
G02*
X152750500Y-112258250I0J218750D01*
G01*
X152750500Y-111820750D01*
G75*
G02*
X152969250Y-111602000I218750J0D01*
G01*
X153481750Y-111602000D01*
G75*
G02*
X153700500Y-111820750I0J-218750D01*
G01*
X153700500Y-112258250D01*
G75*
G02*
X153481750Y-112477000I-218750J0D01*
G01*
G37*
G04 #@! TD*
G04 #@! TO.C,R23*
G36*
G01*
X94744250Y-46259000D02*
X94231750Y-46259000D01*
G75*
G02*
X94013000Y-46040250I0J218750D01*
G01*
X94013000Y-45602750D01*
G75*
G02*
X94231750Y-45384000I218750J0D01*
G01*
X94744250Y-45384000D01*
G75*
G02*
X94963000Y-45602750I0J-218750D01*
G01*
X94963000Y-46040250D01*
G75*
G02*
X94744250Y-46259000I-218750J0D01*
G01*
G37*
G36*
G01*
X94744250Y-47834000D02*
X94231750Y-47834000D01*
G75*
G02*
X94013000Y-47615250I0J218750D01*
G01*
X94013000Y-47177750D01*
G75*
G02*
X94231750Y-46959000I218750J0D01*
G01*
X94744250Y-46959000D01*
G75*
G02*
X94963000Y-47177750I0J-218750D01*
G01*
X94963000Y-47615250D01*
G75*
G02*
X94744250Y-47834000I-218750J0D01*
G01*
G37*
G04 #@! TD*
G04 #@! TO.C,R22*
G36*
G01*
X92199750Y-46959000D02*
X92712250Y-46959000D01*
G75*
G02*
X92931000Y-47177750I0J-218750D01*
G01*
X92931000Y-47615250D01*
G75*
G02*
X92712250Y-47834000I-218750J0D01*
G01*
X92199750Y-47834000D01*
G75*
G02*
X91981000Y-47615250I0J218750D01*
G01*
X91981000Y-47177750D01*
G75*
G02*
X92199750Y-46959000I218750J0D01*
G01*
G37*
G36*
G01*
X92199750Y-45384000D02*
X92712250Y-45384000D01*
G75*
G02*
X92931000Y-45602750I0J-218750D01*
G01*
X92931000Y-46040250D01*
G75*
G02*
X92712250Y-46259000I-218750J0D01*
G01*
X92199750Y-46259000D01*
G75*
G02*
X91981000Y-46040250I0J218750D01*
G01*
X91981000Y-45602750D01*
G75*
G02*
X92199750Y-45384000I218750J0D01*
G01*
G37*
G04 #@! TD*
G04 #@! TO.C,C53*
G36*
G01*
X91816318Y-127240844D02*
X92110276Y-127660659D01*
G75*
G02*
X92056556Y-127965319I-179190J-125470D01*
G01*
X91698177Y-128216259D01*
G75*
G02*
X91393517Y-128162539I-125470J179190D01*
G01*
X91099560Y-127742723D01*
G75*
G02*
X91153280Y-127438063I179190J125470D01*
G01*
X91511659Y-127187123D01*
G75*
G02*
X91816319Y-127240843I125470J-179190D01*
G01*
G37*
G36*
G01*
X93106482Y-126337462D02*
X93400440Y-126757277D01*
G75*
G02*
X93346720Y-127061937I-179190J-125470D01*
G01*
X92988341Y-127312877D01*
G75*
G02*
X92683681Y-127259157I-125470J179190D01*
G01*
X92389724Y-126839341D01*
G75*
G02*
X92443444Y-126534681I179190J125470D01*
G01*
X92801823Y-126283741D01*
G75*
G02*
X93106483Y-126337461I125470J-179190D01*
G01*
G37*
G04 #@! TD*
G04 #@! TO.C,C52*
G36*
G01*
X110233750Y-55277500D02*
X110746250Y-55277500D01*
G75*
G02*
X110965000Y-55496250I0J-218750D01*
G01*
X110965000Y-55933750D01*
G75*
G02*
X110746250Y-56152500I-218750J0D01*
G01*
X110233750Y-56152500D01*
G75*
G02*
X110015000Y-55933750I0J218750D01*
G01*
X110015000Y-55496250D01*
G75*
G02*
X110233750Y-55277500I218750J0D01*
G01*
G37*
G36*
G01*
X110233750Y-53702500D02*
X110746250Y-53702500D01*
G75*
G02*
X110965000Y-53921250I0J-218750D01*
G01*
X110965000Y-54358750D01*
G75*
G02*
X110746250Y-54577500I-218750J0D01*
G01*
X110233750Y-54577500D01*
G75*
G02*
X110015000Y-54358750I0J218750D01*
G01*
X110015000Y-53921250D01*
G75*
G02*
X110233750Y-53702500I218750J0D01*
G01*
G37*
G04 #@! TD*
G04 #@! TO.C,C51*
G36*
G01*
X167256750Y-47594000D02*
X167769250Y-47594000D01*
G75*
G02*
X167988000Y-47812750I0J-218750D01*
G01*
X167988000Y-48250250D01*
G75*
G02*
X167769250Y-48469000I-218750J0D01*
G01*
X167256750Y-48469000D01*
G75*
G02*
X167038000Y-48250250I0J218750D01*
G01*
X167038000Y-47812750D01*
G75*
G02*
X167256750Y-47594000I218750J0D01*
G01*
G37*
G36*
G01*
X167256750Y-46019000D02*
X167769250Y-46019000D01*
G75*
G02*
X167988000Y-46237750I0J-218750D01*
G01*
X167988000Y-46675250D01*
G75*
G02*
X167769250Y-46894000I-218750J0D01*
G01*
X167256750Y-46894000D01*
G75*
G02*
X167038000Y-46675250I0J218750D01*
G01*
X167038000Y-46237750D01*
G75*
G02*
X167256750Y-46019000I218750J0D01*
G01*
G37*
G04 #@! TD*
G04 #@! TO.C,C50*
G36*
G01*
X205610750Y-66009000D02*
X206123250Y-66009000D01*
G75*
G02*
X206342000Y-66227750I0J-218750D01*
G01*
X206342000Y-66665250D01*
G75*
G02*
X206123250Y-66884000I-218750J0D01*
G01*
X205610750Y-66884000D01*
G75*
G02*
X205392000Y-66665250I0J218750D01*
G01*
X205392000Y-66227750D01*
G75*
G02*
X205610750Y-66009000I218750J0D01*
G01*
G37*
G36*
G01*
X205610750Y-64434000D02*
X206123250Y-64434000D01*
G75*
G02*
X206342000Y-64652750I0J-218750D01*
G01*
X206342000Y-65090250D01*
G75*
G02*
X206123250Y-65309000I-218750J0D01*
G01*
X205610750Y-65309000D01*
G75*
G02*
X205392000Y-65090250I0J218750D01*
G01*
X205392000Y-64652750D01*
G75*
G02*
X205610750Y-64434000I218750J0D01*
G01*
G37*
G04 #@! TD*
G04 #@! TO.C,C49*
G36*
G01*
X205737750Y-103982000D02*
X206250250Y-103982000D01*
G75*
G02*
X206469000Y-104200750I0J-218750D01*
G01*
X206469000Y-104638250D01*
G75*
G02*
X206250250Y-104857000I-218750J0D01*
G01*
X205737750Y-104857000D01*
G75*
G02*
X205519000Y-104638250I0J218750D01*
G01*
X205519000Y-104200750D01*
G75*
G02*
X205737750Y-103982000I218750J0D01*
G01*
G37*
G36*
G01*
X205737750Y-102407000D02*
X206250250Y-102407000D01*
G75*
G02*
X206469000Y-102625750I0J-218750D01*
G01*
X206469000Y-103063250D01*
G75*
G02*
X206250250Y-103282000I-218750J0D01*
G01*
X205737750Y-103282000D01*
G75*
G02*
X205519000Y-103063250I0J218750D01*
G01*
X205519000Y-102625750D01*
G75*
G02*
X205737750Y-102407000I218750J0D01*
G01*
G37*
G04 #@! TD*
G04 #@! TO.C,C48*
G36*
G01*
X135860068Y-115783897D02*
X136355105Y-115651252D01*
G75*
G02*
X136623018Y-115805931I56617J-211296D01*
G01*
X136736251Y-116228524D01*
G75*
G02*
X136581572Y-116496437I-211296J-56617D01*
G01*
X136086535Y-116629082D01*
G75*
G02*
X135818622Y-116474403I-56617J211296D01*
G01*
X135705389Y-116051810D01*
G75*
G02*
X135860068Y-115783897I211296J56617D01*
G01*
G37*
G36*
G01*
X135452428Y-114262563D02*
X135947465Y-114129918D01*
G75*
G02*
X136215378Y-114284597I56617J-211296D01*
G01*
X136328611Y-114707190D01*
G75*
G02*
X136173932Y-114975103I-211296J-56617D01*
G01*
X135678895Y-115107748D01*
G75*
G02*
X135410982Y-114953069I-56617J211296D01*
G01*
X135297749Y-114530476D01*
G75*
G02*
X135452428Y-114262563I211296J56617D01*
G01*
G37*
G04 #@! TD*
G04 #@! TO.C,R16*
G36*
G01*
X91061250Y-52482000D02*
X90548750Y-52482000D01*
G75*
G02*
X90330000Y-52263250I0J218750D01*
G01*
X90330000Y-51825750D01*
G75*
G02*
X90548750Y-51607000I218750J0D01*
G01*
X91061250Y-51607000D01*
G75*
G02*
X91280000Y-51825750I0J-218750D01*
G01*
X91280000Y-52263250D01*
G75*
G02*
X91061250Y-52482000I-218750J0D01*
G01*
G37*
G36*
G01*
X91061250Y-54057000D02*
X90548750Y-54057000D01*
G75*
G02*
X90330000Y-53838250I0J218750D01*
G01*
X90330000Y-53400750D01*
G75*
G02*
X90548750Y-53182000I218750J0D01*
G01*
X91061250Y-53182000D01*
G75*
G02*
X91280000Y-53400750I0J-218750D01*
G01*
X91280000Y-53838250D01*
G75*
G02*
X91061250Y-54057000I-218750J0D01*
G01*
G37*
G04 #@! TD*
G04 #@! TO.C,R15*
G36*
G01*
X91061250Y-56038000D02*
X90548750Y-56038000D01*
G75*
G02*
X90330000Y-55819250I0J218750D01*
G01*
X90330000Y-55381750D01*
G75*
G02*
X90548750Y-55163000I218750J0D01*
G01*
X91061250Y-55163000D01*
G75*
G02*
X91280000Y-55381750I0J-218750D01*
G01*
X91280000Y-55819250D01*
G75*
G02*
X91061250Y-56038000I-218750J0D01*
G01*
G37*
G36*
G01*
X91061250Y-57613000D02*
X90548750Y-57613000D01*
G75*
G02*
X90330000Y-57394250I0J218750D01*
G01*
X90330000Y-56956750D01*
G75*
G02*
X90548750Y-56738000I218750J0D01*
G01*
X91061250Y-56738000D01*
G75*
G02*
X91280000Y-56956750I0J-218750D01*
G01*
X91280000Y-57394250D01*
G75*
G02*
X91061250Y-57613000I-218750J0D01*
G01*
G37*
G04 #@! TD*
G04 #@! TO.C,C44*
G36*
G01*
X92271000Y-64654750D02*
X92271000Y-63742250D01*
G75*
G02*
X92514750Y-63498500I243750J0D01*
G01*
X93002250Y-63498500D01*
G75*
G02*
X93246000Y-63742250I0J-243750D01*
G01*
X93246000Y-64654750D01*
G75*
G02*
X93002250Y-64898500I-243750J0D01*
G01*
X92514750Y-64898500D01*
G75*
G02*
X92271000Y-64654750I0J243750D01*
G01*
G37*
G36*
G01*
X90396000Y-64654750D02*
X90396000Y-63742250D01*
G75*
G02*
X90639750Y-63498500I243750J0D01*
G01*
X91127250Y-63498500D01*
G75*
G02*
X91371000Y-63742250I0J-243750D01*
G01*
X91371000Y-64654750D01*
G75*
G02*
X91127250Y-64898500I-243750J0D01*
G01*
X90639750Y-64898500D01*
G75*
G02*
X90396000Y-64654750I0J243750D01*
G01*
G37*
G04 #@! TD*
G04 #@! TO.C,C43*
G36*
G01*
X93403000Y-51867750D02*
X93403000Y-52780250D01*
G75*
G02*
X93159250Y-53024000I-243750J0D01*
G01*
X92671750Y-53024000D01*
G75*
G02*
X92428000Y-52780250I0J243750D01*
G01*
X92428000Y-51867750D01*
G75*
G02*
X92671750Y-51624000I243750J0D01*
G01*
X93159250Y-51624000D01*
G75*
G02*
X93403000Y-51867750I0J-243750D01*
G01*
G37*
G36*
G01*
X95278000Y-51867750D02*
X95278000Y-52780250D01*
G75*
G02*
X95034250Y-53024000I-243750J0D01*
G01*
X94546750Y-53024000D01*
G75*
G02*
X94303000Y-52780250I0J243750D01*
G01*
X94303000Y-51867750D01*
G75*
G02*
X94546750Y-51624000I243750J0D01*
G01*
X95034250Y-51624000D01*
G75*
G02*
X95278000Y-51867750I0J-243750D01*
G01*
G37*
G04 #@! TD*
G04 #@! TO.C,R19*
G36*
G01*
X85595750Y-68549000D02*
X86108250Y-68549000D01*
G75*
G02*
X86327000Y-68767750I0J-218750D01*
G01*
X86327000Y-69205250D01*
G75*
G02*
X86108250Y-69424000I-218750J0D01*
G01*
X85595750Y-69424000D01*
G75*
G02*
X85377000Y-69205250I0J218750D01*
G01*
X85377000Y-68767750D01*
G75*
G02*
X85595750Y-68549000I218750J0D01*
G01*
G37*
G36*
G01*
X85595750Y-66974000D02*
X86108250Y-66974000D01*
G75*
G02*
X86327000Y-67192750I0J-218750D01*
G01*
X86327000Y-67630250D01*
G75*
G02*
X86108250Y-67849000I-218750J0D01*
G01*
X85595750Y-67849000D01*
G75*
G02*
X85377000Y-67630250I0J218750D01*
G01*
X85377000Y-67192750D01*
G75*
G02*
X85595750Y-66974000I218750J0D01*
G01*
G37*
G04 #@! TD*
G04 #@! TO.C,R18*
G36*
G01*
X87500750Y-68549000D02*
X88013250Y-68549000D01*
G75*
G02*
X88232000Y-68767750I0J-218750D01*
G01*
X88232000Y-69205250D01*
G75*
G02*
X88013250Y-69424000I-218750J0D01*
G01*
X87500750Y-69424000D01*
G75*
G02*
X87282000Y-69205250I0J218750D01*
G01*
X87282000Y-68767750D01*
G75*
G02*
X87500750Y-68549000I218750J0D01*
G01*
G37*
G36*
G01*
X87500750Y-66974000D02*
X88013250Y-66974000D01*
G75*
G02*
X88232000Y-67192750I0J-218750D01*
G01*
X88232000Y-67630250D01*
G75*
G02*
X88013250Y-67849000I-218750J0D01*
G01*
X87500750Y-67849000D01*
G75*
G02*
X87282000Y-67630250I0J218750D01*
G01*
X87282000Y-67192750D01*
G75*
G02*
X87500750Y-66974000I218750J0D01*
G01*
G37*
G04 #@! TD*
G04 #@! TO.C,R8*
G36*
G01*
X90709000Y-96517750D02*
X90709000Y-97030250D01*
G75*
G02*
X90490250Y-97249000I-218750J0D01*
G01*
X90052750Y-97249000D01*
G75*
G02*
X89834000Y-97030250I0J218750D01*
G01*
X89834000Y-96517750D01*
G75*
G02*
X90052750Y-96299000I218750J0D01*
G01*
X90490250Y-96299000D01*
G75*
G02*
X90709000Y-96517750I0J-218750D01*
G01*
G37*
G36*
G01*
X92284000Y-96517750D02*
X92284000Y-97030250D01*
G75*
G02*
X92065250Y-97249000I-218750J0D01*
G01*
X91627750Y-97249000D01*
G75*
G02*
X91409000Y-97030250I0J218750D01*
G01*
X91409000Y-96517750D01*
G75*
G02*
X91627750Y-96299000I218750J0D01*
G01*
X92065250Y-96299000D01*
G75*
G02*
X92284000Y-96517750I0J-218750D01*
G01*
G37*
G04 #@! TD*
G04 #@! TO.C,R7*
G36*
G01*
X90709000Y-98549750D02*
X90709000Y-99062250D01*
G75*
G02*
X90490250Y-99281000I-218750J0D01*
G01*
X90052750Y-99281000D01*
G75*
G02*
X89834000Y-99062250I0J218750D01*
G01*
X89834000Y-98549750D01*
G75*
G02*
X90052750Y-98331000I218750J0D01*
G01*
X90490250Y-98331000D01*
G75*
G02*
X90709000Y-98549750I0J-218750D01*
G01*
G37*
G36*
G01*
X92284000Y-98549750D02*
X92284000Y-99062250D01*
G75*
G02*
X92065250Y-99281000I-218750J0D01*
G01*
X91627750Y-99281000D01*
G75*
G02*
X91409000Y-99062250I0J218750D01*
G01*
X91409000Y-98549750D01*
G75*
G02*
X91627750Y-98331000I218750J0D01*
G01*
X92065250Y-98331000D01*
G75*
G02*
X92284000Y-98549750I0J-218750D01*
G01*
G37*
G04 #@! TD*
G04 #@! TO.C,C42*
G36*
G01*
X80995000Y-78107250D02*
X80995000Y-77594750D01*
G75*
G02*
X81213750Y-77376000I218750J0D01*
G01*
X81651250Y-77376000D01*
G75*
G02*
X81870000Y-77594750I0J-218750D01*
G01*
X81870000Y-78107250D01*
G75*
G02*
X81651250Y-78326000I-218750J0D01*
G01*
X81213750Y-78326000D01*
G75*
G02*
X80995000Y-78107250I0J218750D01*
G01*
G37*
G36*
G01*
X79420000Y-78107250D02*
X79420000Y-77594750D01*
G75*
G02*
X79638750Y-77376000I218750J0D01*
G01*
X80076250Y-77376000D01*
G75*
G02*
X80295000Y-77594750I0J-218750D01*
G01*
X80295000Y-78107250D01*
G75*
G02*
X80076250Y-78326000I-218750J0D01*
G01*
X79638750Y-78326000D01*
G75*
G02*
X79420000Y-78107250I0J218750D01*
G01*
G37*
G04 #@! TD*
G04 #@! TO.C,C40*
G36*
G01*
X79598000Y-86616250D02*
X79598000Y-86103750D01*
G75*
G02*
X79816750Y-85885000I218750J0D01*
G01*
X80254250Y-85885000D01*
G75*
G02*
X80473000Y-86103750I0J-218750D01*
G01*
X80473000Y-86616250D01*
G75*
G02*
X80254250Y-86835000I-218750J0D01*
G01*
X79816750Y-86835000D01*
G75*
G02*
X79598000Y-86616250I0J218750D01*
G01*
G37*
G36*
G01*
X78023000Y-86616250D02*
X78023000Y-86103750D01*
G75*
G02*
X78241750Y-85885000I218750J0D01*
G01*
X78679250Y-85885000D01*
G75*
G02*
X78898000Y-86103750I0J-218750D01*
G01*
X78898000Y-86616250D01*
G75*
G02*
X78679250Y-86835000I-218750J0D01*
G01*
X78241750Y-86835000D01*
G75*
G02*
X78023000Y-86616250I0J218750D01*
G01*
G37*
G04 #@! TD*
G04 #@! TO.C,R20*
G36*
G01*
X83690750Y-68549000D02*
X84203250Y-68549000D01*
G75*
G02*
X84422000Y-68767750I0J-218750D01*
G01*
X84422000Y-69205250D01*
G75*
G02*
X84203250Y-69424000I-218750J0D01*
G01*
X83690750Y-69424000D01*
G75*
G02*
X83472000Y-69205250I0J218750D01*
G01*
X83472000Y-68767750D01*
G75*
G02*
X83690750Y-68549000I218750J0D01*
G01*
G37*
G36*
G01*
X83690750Y-66974000D02*
X84203250Y-66974000D01*
G75*
G02*
X84422000Y-67192750I0J-218750D01*
G01*
X84422000Y-67630250D01*
G75*
G02*
X84203250Y-67849000I-218750J0D01*
G01*
X83690750Y-67849000D01*
G75*
G02*
X83472000Y-67630250I0J218750D01*
G01*
X83472000Y-67192750D01*
G75*
G02*
X83690750Y-66974000I218750J0D01*
G01*
G37*
G04 #@! TD*
G04 #@! TO.C,C38*
G36*
G01*
X93695000Y-71249250D02*
X93695000Y-70736750D01*
G75*
G02*
X93913750Y-70518000I218750J0D01*
G01*
X94351250Y-70518000D01*
G75*
G02*
X94570000Y-70736750I0J-218750D01*
G01*
X94570000Y-71249250D01*
G75*
G02*
X94351250Y-71468000I-218750J0D01*
G01*
X93913750Y-71468000D01*
G75*
G02*
X93695000Y-71249250I0J218750D01*
G01*
G37*
G36*
G01*
X92120000Y-71249250D02*
X92120000Y-70736750D01*
G75*
G02*
X92338750Y-70518000I218750J0D01*
G01*
X92776250Y-70518000D01*
G75*
G02*
X92995000Y-70736750I0J-218750D01*
G01*
X92995000Y-71249250D01*
G75*
G02*
X92776250Y-71468000I-218750J0D01*
G01*
X92338750Y-71468000D01*
G75*
G02*
X92120000Y-71249250I0J218750D01*
G01*
G37*
G04 #@! TD*
G04 #@! TO.C,C37*
G36*
G01*
X80295000Y-79372750D02*
X80295000Y-79885250D01*
G75*
G02*
X80076250Y-80104000I-218750J0D01*
G01*
X79638750Y-80104000D01*
G75*
G02*
X79420000Y-79885250I0J218750D01*
G01*
X79420000Y-79372750D01*
G75*
G02*
X79638750Y-79154000I218750J0D01*
G01*
X80076250Y-79154000D01*
G75*
G02*
X80295000Y-79372750I0J-218750D01*
G01*
G37*
G36*
G01*
X81870000Y-79372750D02*
X81870000Y-79885250D01*
G75*
G02*
X81651250Y-80104000I-218750J0D01*
G01*
X81213750Y-80104000D01*
G75*
G02*
X80995000Y-79885250I0J218750D01*
G01*
X80995000Y-79372750D01*
G75*
G02*
X81213750Y-79154000I218750J0D01*
G01*
X81651250Y-79154000D01*
G75*
G02*
X81870000Y-79372750I0J-218750D01*
G01*
G37*
G04 #@! TD*
G04 #@! TO.C,R4*
G36*
G01*
X167324750Y-110330500D02*
X166812250Y-110330500D01*
G75*
G02*
X166593500Y-110111750I0J218750D01*
G01*
X166593500Y-109674250D01*
G75*
G02*
X166812250Y-109455500I218750J0D01*
G01*
X167324750Y-109455500D01*
G75*
G02*
X167543500Y-109674250I0J-218750D01*
G01*
X167543500Y-110111750D01*
G75*
G02*
X167324750Y-110330500I-218750J0D01*
G01*
G37*
G36*
G01*
X167324750Y-111905500D02*
X166812250Y-111905500D01*
G75*
G02*
X166593500Y-111686750I0J218750D01*
G01*
X166593500Y-111249250D01*
G75*
G02*
X166812250Y-111030500I218750J0D01*
G01*
X167324750Y-111030500D01*
G75*
G02*
X167543500Y-111249250I0J-218750D01*
G01*
X167543500Y-111686750D01*
G75*
G02*
X167324750Y-111905500I-218750J0D01*
G01*
G37*
G04 #@! TD*
G04 #@! TO.C,R1*
G36*
G01*
X161228750Y-110330500D02*
X160716250Y-110330500D01*
G75*
G02*
X160497500Y-110111750I0J218750D01*
G01*
X160497500Y-109674250D01*
G75*
G02*
X160716250Y-109455500I218750J0D01*
G01*
X161228750Y-109455500D01*
G75*
G02*
X161447500Y-109674250I0J-218750D01*
G01*
X161447500Y-110111750D01*
G75*
G02*
X161228750Y-110330500I-218750J0D01*
G01*
G37*
G36*
G01*
X161228750Y-111905500D02*
X160716250Y-111905500D01*
G75*
G02*
X160497500Y-111686750I0J218750D01*
G01*
X160497500Y-111249250D01*
G75*
G02*
X160716250Y-111030500I218750J0D01*
G01*
X161228750Y-111030500D01*
G75*
G02*
X161447500Y-111249250I0J-218750D01*
G01*
X161447500Y-111686750D01*
G75*
G02*
X161228750Y-111905500I-218750J0D01*
G01*
G37*
G04 #@! TD*
G04 #@! TO.C,R3*
G36*
G01*
X168717250Y-111030500D02*
X169229750Y-111030500D01*
G75*
G02*
X169448500Y-111249250I0J-218750D01*
G01*
X169448500Y-111686750D01*
G75*
G02*
X169229750Y-111905500I-218750J0D01*
G01*
X168717250Y-111905500D01*
G75*
G02*
X168498500Y-111686750I0J218750D01*
G01*
X168498500Y-111249250D01*
G75*
G02*
X168717250Y-111030500I218750J0D01*
G01*
G37*
G36*
G01*
X168717250Y-109455500D02*
X169229750Y-109455500D01*
G75*
G02*
X169448500Y-109674250I0J-218750D01*
G01*
X169448500Y-110111750D01*
G75*
G02*
X169229750Y-110330500I-218750J0D01*
G01*
X168717250Y-110330500D01*
G75*
G02*
X168498500Y-110111750I0J218750D01*
G01*
X168498500Y-109674250D01*
G75*
G02*
X168717250Y-109455500I218750J0D01*
G01*
G37*
G04 #@! TD*
G04 #@! TO.C,R2*
G36*
G01*
X162748250Y-111030500D02*
X163260750Y-111030500D01*
G75*
G02*
X163479500Y-111249250I0J-218750D01*
G01*
X163479500Y-111686750D01*
G75*
G02*
X163260750Y-111905500I-218750J0D01*
G01*
X162748250Y-111905500D01*
G75*
G02*
X162529500Y-111686750I0J218750D01*
G01*
X162529500Y-111249250D01*
G75*
G02*
X162748250Y-111030500I218750J0D01*
G01*
G37*
G36*
G01*
X162748250Y-109455500D02*
X163260750Y-109455500D01*
G75*
G02*
X163479500Y-109674250I0J-218750D01*
G01*
X163479500Y-110111750D01*
G75*
G02*
X163260750Y-110330500I-218750J0D01*
G01*
X162748250Y-110330500D01*
G75*
G02*
X162529500Y-110111750I0J218750D01*
G01*
X162529500Y-109674250D01*
G75*
G02*
X162748250Y-109455500I218750J0D01*
G01*
G37*
G04 #@! TD*
G04 #@! TO.C,C2*
G36*
G01*
X171388750Y-110330500D02*
X170876250Y-110330500D01*
G75*
G02*
X170657500Y-110111750I0J218750D01*
G01*
X170657500Y-109674250D01*
G75*
G02*
X170876250Y-109455500I218750J0D01*
G01*
X171388750Y-109455500D01*
G75*
G02*
X171607500Y-109674250I0J-218750D01*
G01*
X171607500Y-110111750D01*
G75*
G02*
X171388750Y-110330500I-218750J0D01*
G01*
G37*
G36*
G01*
X171388750Y-111905500D02*
X170876250Y-111905500D01*
G75*
G02*
X170657500Y-111686750I0J218750D01*
G01*
X170657500Y-111249250D01*
G75*
G02*
X170876250Y-111030500I218750J0D01*
G01*
X171388750Y-111030500D01*
G75*
G02*
X171607500Y-111249250I0J-218750D01*
G01*
X171607500Y-111686750D01*
G75*
G02*
X171388750Y-111905500I-218750J0D01*
G01*
G37*
G04 #@! TD*
G04 #@! TO.C,C1*
G36*
G01*
X165292750Y-110330500D02*
X164780250Y-110330500D01*
G75*
G02*
X164561500Y-110111750I0J218750D01*
G01*
X164561500Y-109674250D01*
G75*
G02*
X164780250Y-109455500I218750J0D01*
G01*
X165292750Y-109455500D01*
G75*
G02*
X165511500Y-109674250I0J-218750D01*
G01*
X165511500Y-110111750D01*
G75*
G02*
X165292750Y-110330500I-218750J0D01*
G01*
G37*
G36*
G01*
X165292750Y-111905500D02*
X164780250Y-111905500D01*
G75*
G02*
X164561500Y-111686750I0J218750D01*
G01*
X164561500Y-111249250D01*
G75*
G02*
X164780250Y-111030500I218750J0D01*
G01*
X165292750Y-111030500D01*
G75*
G02*
X165511500Y-111249250I0J-218750D01*
G01*
X165511500Y-111686750D01*
G75*
G02*
X165292750Y-111905500I-218750J0D01*
G01*
G37*
G04 #@! TD*
G04 #@! TO.C,R6*
G36*
G01*
X94261650Y-38994600D02*
X93749150Y-38994600D01*
G75*
G02*
X93530400Y-38775850I0J218750D01*
G01*
X93530400Y-38338350D01*
G75*
G02*
X93749150Y-38119600I218750J0D01*
G01*
X94261650Y-38119600D01*
G75*
G02*
X94480400Y-38338350I0J-218750D01*
G01*
X94480400Y-38775850D01*
G75*
G02*
X94261650Y-38994600I-218750J0D01*
G01*
G37*
G36*
G01*
X94261650Y-40569600D02*
X93749150Y-40569600D01*
G75*
G02*
X93530400Y-40350850I0J218750D01*
G01*
X93530400Y-39913350D01*
G75*
G02*
X93749150Y-39694600I218750J0D01*
G01*
X94261650Y-39694600D01*
G75*
G02*
X94480400Y-39913350I0J-218750D01*
G01*
X94480400Y-40350850D01*
G75*
G02*
X94261650Y-40569600I-218750J0D01*
G01*
G37*
G04 #@! TD*
G04 #@! TO.C,R12*
G36*
G01*
X78859900Y-94638150D02*
X78859900Y-95150650D01*
G75*
G02*
X78641150Y-95369400I-218750J0D01*
G01*
X78203650Y-95369400D01*
G75*
G02*
X77984900Y-95150650I0J218750D01*
G01*
X77984900Y-94638150D01*
G75*
G02*
X78203650Y-94419400I218750J0D01*
G01*
X78641150Y-94419400D01*
G75*
G02*
X78859900Y-94638150I0J-218750D01*
G01*
G37*
G36*
G01*
X80434900Y-94638150D02*
X80434900Y-95150650D01*
G75*
G02*
X80216150Y-95369400I-218750J0D01*
G01*
X79778650Y-95369400D01*
G75*
G02*
X79559900Y-95150650I0J218750D01*
G01*
X79559900Y-94638150D01*
G75*
G02*
X79778650Y-94419400I218750J0D01*
G01*
X80216150Y-94419400D01*
G75*
G02*
X80434900Y-94638150I0J-218750D01*
G01*
G37*
G04 #@! TD*
G04 #@! TO.C,R5*
G36*
G01*
X79275650Y-39121600D02*
X78763150Y-39121600D01*
G75*
G02*
X78544400Y-38902850I0J218750D01*
G01*
X78544400Y-38465350D01*
G75*
G02*
X78763150Y-38246600I218750J0D01*
G01*
X79275650Y-38246600D01*
G75*
G02*
X79494400Y-38465350I0J-218750D01*
G01*
X79494400Y-38902850D01*
G75*
G02*
X79275650Y-39121600I-218750J0D01*
G01*
G37*
G36*
G01*
X79275650Y-40696600D02*
X78763150Y-40696600D01*
G75*
G02*
X78544400Y-40477850I0J218750D01*
G01*
X78544400Y-40040350D01*
G75*
G02*
X78763150Y-39821600I218750J0D01*
G01*
X79275650Y-39821600D01*
G75*
G02*
X79494400Y-40040350I0J-218750D01*
G01*
X79494400Y-40477850D01*
G75*
G02*
X79275650Y-40696600I-218750J0D01*
G01*
G37*
G04 #@! TD*
G04 #@! TO.C,R13*
G36*
G01*
X78859900Y-109433650D02*
X78859900Y-109946150D01*
G75*
G02*
X78641150Y-110164900I-218750J0D01*
G01*
X78203650Y-110164900D01*
G75*
G02*
X77984900Y-109946150I0J218750D01*
G01*
X77984900Y-109433650D01*
G75*
G02*
X78203650Y-109214900I218750J0D01*
G01*
X78641150Y-109214900D01*
G75*
G02*
X78859900Y-109433650I0J-218750D01*
G01*
G37*
G36*
G01*
X80434900Y-109433650D02*
X80434900Y-109946150D01*
G75*
G02*
X80216150Y-110164900I-218750J0D01*
G01*
X79778650Y-110164900D01*
G75*
G02*
X79559900Y-109946150I0J218750D01*
G01*
X79559900Y-109433650D01*
G75*
G02*
X79778650Y-109214900I218750J0D01*
G01*
X80216150Y-109214900D01*
G75*
G02*
X80434900Y-109433650I0J-218750D01*
G01*
G37*
G04 #@! TD*
G04 #@! TO.C,C35*
G36*
G01*
X192148750Y-106077500D02*
X192661250Y-106077500D01*
G75*
G02*
X192880000Y-106296250I0J-218750D01*
G01*
X192880000Y-106733750D01*
G75*
G02*
X192661250Y-106952500I-218750J0D01*
G01*
X192148750Y-106952500D01*
G75*
G02*
X191930000Y-106733750I0J218750D01*
G01*
X191930000Y-106296250D01*
G75*
G02*
X192148750Y-106077500I218750J0D01*
G01*
G37*
G36*
G01*
X192148750Y-104502500D02*
X192661250Y-104502500D01*
G75*
G02*
X192880000Y-104721250I0J-218750D01*
G01*
X192880000Y-105158750D01*
G75*
G02*
X192661250Y-105377500I-218750J0D01*
G01*
X192148750Y-105377500D01*
G75*
G02*
X191930000Y-105158750I0J218750D01*
G01*
X191930000Y-104721250D01*
G75*
G02*
X192148750Y-104502500I218750J0D01*
G01*
G37*
G04 #@! TD*
G04 #@! TO.C,C31*
G36*
G01*
X81816677Y-118288830D02*
X82209274Y-117959401D01*
G75*
G02*
X82517456Y-117986363I140610J-167572D01*
G01*
X82798676Y-118321508D01*
G75*
G02*
X82771714Y-118629690I-167572J-140610D01*
G01*
X82379116Y-118959119D01*
G75*
G02*
X82070934Y-118932157I-140610J167572D01*
G01*
X81789714Y-118597012D01*
G75*
G02*
X81816676Y-118288830I167572J140610D01*
G01*
G37*
G36*
G01*
X80804287Y-117082310D02*
X81196884Y-116752881D01*
G75*
G02*
X81505066Y-116779843I140610J-167572D01*
G01*
X81786286Y-117114988D01*
G75*
G02*
X81759324Y-117423170I-167572J-140610D01*
G01*
X81366726Y-117752599D01*
G75*
G02*
X81058544Y-117725637I-140610J167572D01*
G01*
X80777324Y-117390492D01*
G75*
G02*
X80804286Y-117082310I167572J140610D01*
G01*
G37*
G04 #@! TD*
G04 #@! TO.C,C34*
G36*
G01*
X154048750Y-76296000D02*
X154561250Y-76296000D01*
G75*
G02*
X154780000Y-76514750I0J-218750D01*
G01*
X154780000Y-76952250D01*
G75*
G02*
X154561250Y-77171000I-218750J0D01*
G01*
X154048750Y-77171000D01*
G75*
G02*
X153830000Y-76952250I0J218750D01*
G01*
X153830000Y-76514750D01*
G75*
G02*
X154048750Y-76296000I218750J0D01*
G01*
G37*
G36*
G01*
X154048750Y-74721000D02*
X154561250Y-74721000D01*
G75*
G02*
X154780000Y-74939750I0J-218750D01*
G01*
X154780000Y-75377250D01*
G75*
G02*
X154561250Y-75596000I-218750J0D01*
G01*
X154048750Y-75596000D01*
G75*
G02*
X153830000Y-75377250I0J218750D01*
G01*
X153830000Y-74939750D01*
G75*
G02*
X154048750Y-74721000I218750J0D01*
G01*
G37*
G04 #@! TD*
G04 #@! TO.C,C30*
G36*
G01*
X115948750Y-81249000D02*
X116461250Y-81249000D01*
G75*
G02*
X116680000Y-81467750I0J-218750D01*
G01*
X116680000Y-81905250D01*
G75*
G02*
X116461250Y-82124000I-218750J0D01*
G01*
X115948750Y-82124000D01*
G75*
G02*
X115730000Y-81905250I0J218750D01*
G01*
X115730000Y-81467750D01*
G75*
G02*
X115948750Y-81249000I218750J0D01*
G01*
G37*
G36*
G01*
X115948750Y-79674000D02*
X116461250Y-79674000D01*
G75*
G02*
X116680000Y-79892750I0J-218750D01*
G01*
X116680000Y-80330250D01*
G75*
G02*
X116461250Y-80549000I-218750J0D01*
G01*
X115948750Y-80549000D01*
G75*
G02*
X115730000Y-80330250I0J218750D01*
G01*
X115730000Y-79892750D01*
G75*
G02*
X115948750Y-79674000I218750J0D01*
G01*
G37*
G04 #@! TD*
G04 #@! TO.C,C33*
G36*
G01*
X135062250Y-98330500D02*
X135574750Y-98330500D01*
G75*
G02*
X135793500Y-98549250I0J-218750D01*
G01*
X135793500Y-98986750D01*
G75*
G02*
X135574750Y-99205500I-218750J0D01*
G01*
X135062250Y-99205500D01*
G75*
G02*
X134843500Y-98986750I0J218750D01*
G01*
X134843500Y-98549250D01*
G75*
G02*
X135062250Y-98330500I218750J0D01*
G01*
G37*
G36*
G01*
X135062250Y-96755500D02*
X135574750Y-96755500D01*
G75*
G02*
X135793500Y-96974250I0J-218750D01*
G01*
X135793500Y-97411750D01*
G75*
G02*
X135574750Y-97630500I-218750J0D01*
G01*
X135062250Y-97630500D01*
G75*
G02*
X134843500Y-97411750I0J218750D01*
G01*
X134843500Y-96974250D01*
G75*
G02*
X135062250Y-96755500I218750J0D01*
G01*
G37*
G04 #@! TD*
G04 #@! TO.C,C32*
G36*
G01*
X173098750Y-95282500D02*
X173611250Y-95282500D01*
G75*
G02*
X173830000Y-95501250I0J-218750D01*
G01*
X173830000Y-95938750D01*
G75*
G02*
X173611250Y-96157500I-218750J0D01*
G01*
X173098750Y-96157500D01*
G75*
G02*
X172880000Y-95938750I0J218750D01*
G01*
X172880000Y-95501250D01*
G75*
G02*
X173098750Y-95282500I218750J0D01*
G01*
G37*
G36*
G01*
X173098750Y-93707500D02*
X173611250Y-93707500D01*
G75*
G02*
X173830000Y-93926250I0J-218750D01*
G01*
X173830000Y-94363750D01*
G75*
G02*
X173611250Y-94582500I-218750J0D01*
G01*
X173098750Y-94582500D01*
G75*
G02*
X172880000Y-94363750I0J218750D01*
G01*
X172880000Y-93926250D01*
G75*
G02*
X173098750Y-93707500I218750J0D01*
G01*
G37*
G04 #@! TD*
G04 #@! TO.C,C26*
G36*
G01*
X139824750Y-115285000D02*
X140337250Y-115285000D01*
G75*
G02*
X140556000Y-115503750I0J-218750D01*
G01*
X140556000Y-115941250D01*
G75*
G02*
X140337250Y-116160000I-218750J0D01*
G01*
X139824750Y-116160000D01*
G75*
G02*
X139606000Y-115941250I0J218750D01*
G01*
X139606000Y-115503750D01*
G75*
G02*
X139824750Y-115285000I218750J0D01*
G01*
G37*
G36*
G01*
X139824750Y-113710000D02*
X140337250Y-113710000D01*
G75*
G02*
X140556000Y-113928750I0J-218750D01*
G01*
X140556000Y-114366250D01*
G75*
G02*
X140337250Y-114585000I-218750J0D01*
G01*
X139824750Y-114585000D01*
G75*
G02*
X139606000Y-114366250I0J218750D01*
G01*
X139606000Y-113928750D01*
G75*
G02*
X139824750Y-113710000I218750J0D01*
G01*
G37*
G04 #@! TD*
G04 #@! TO.C,C29*
G36*
G01*
X96898750Y-37916500D02*
X97411250Y-37916500D01*
G75*
G02*
X97630000Y-38135250I0J-218750D01*
G01*
X97630000Y-38572750D01*
G75*
G02*
X97411250Y-38791500I-218750J0D01*
G01*
X96898750Y-38791500D01*
G75*
G02*
X96680000Y-38572750I0J218750D01*
G01*
X96680000Y-38135250D01*
G75*
G02*
X96898750Y-37916500I218750J0D01*
G01*
G37*
G36*
G01*
X96898750Y-36341500D02*
X97411250Y-36341500D01*
G75*
G02*
X97630000Y-36560250I0J-218750D01*
G01*
X97630000Y-36997750D01*
G75*
G02*
X97411250Y-37216500I-218750J0D01*
G01*
X96898750Y-37216500D01*
G75*
G02*
X96680000Y-36997750I0J218750D01*
G01*
X96680000Y-36560250D01*
G75*
G02*
X96898750Y-36341500I218750J0D01*
G01*
G37*
G04 #@! TD*
G04 #@! TO.C,C28*
G36*
G01*
X192148750Y-90926500D02*
X192661250Y-90926500D01*
G75*
G02*
X192880000Y-91145250I0J-218750D01*
G01*
X192880000Y-91582750D01*
G75*
G02*
X192661250Y-91801500I-218750J0D01*
G01*
X192148750Y-91801500D01*
G75*
G02*
X191930000Y-91582750I0J218750D01*
G01*
X191930000Y-91145250D01*
G75*
G02*
X192148750Y-90926500I218750J0D01*
G01*
G37*
G36*
G01*
X192148750Y-89351500D02*
X192661250Y-89351500D01*
G75*
G02*
X192880000Y-89570250I0J-218750D01*
G01*
X192880000Y-90007750D01*
G75*
G02*
X192661250Y-90226500I-218750J0D01*
G01*
X192148750Y-90226500D01*
G75*
G02*
X191930000Y-90007750I0J218750D01*
G01*
X191930000Y-89570250D01*
G75*
G02*
X192148750Y-89351500I218750J0D01*
G01*
G37*
G04 #@! TD*
G04 #@! TO.C,C27*
G36*
G01*
X88655156Y-121676818D02*
X88235341Y-121970776D01*
G75*
G02*
X87930681Y-121917056I-125470J179190D01*
G01*
X87679741Y-121558677D01*
G75*
G02*
X87733461Y-121254017I179190J125470D01*
G01*
X88153277Y-120960060D01*
G75*
G02*
X88457937Y-121013780I125470J-179190D01*
G01*
X88708877Y-121372159D01*
G75*
G02*
X88655157Y-121676819I-179190J-125470D01*
G01*
G37*
G36*
G01*
X89558538Y-122966982D02*
X89138723Y-123260940D01*
G75*
G02*
X88834063Y-123207220I-125470J179190D01*
G01*
X88583123Y-122848841D01*
G75*
G02*
X88636843Y-122544181I179190J125470D01*
G01*
X89056659Y-122250224D01*
G75*
G02*
X89361319Y-122303944I125470J-179190D01*
G01*
X89612259Y-122662323D01*
G75*
G02*
X89558539Y-122966983I-179190J-125470D01*
G01*
G37*
G04 #@! TD*
G04 #@! TO.C,C25*
G36*
G01*
X86871831Y-114557239D02*
X87315669Y-114300989D01*
G75*
G02*
X87614487Y-114381057I109375J-189443D01*
G01*
X87833237Y-114759943D01*
G75*
G02*
X87753169Y-115058761I-189443J-109375D01*
G01*
X87309331Y-115315011D01*
G75*
G02*
X87010513Y-115234943I-109375J189443D01*
G01*
X86791763Y-114856057D01*
G75*
G02*
X86871831Y-114557239I189443J109375D01*
G01*
G37*
G36*
G01*
X86084331Y-113193249D02*
X86528169Y-112936999D01*
G75*
G02*
X86826987Y-113017067I109375J-189443D01*
G01*
X87045737Y-113395953D01*
G75*
G02*
X86965669Y-113694771I-189443J-109375D01*
G01*
X86521831Y-113951021D01*
G75*
G02*
X86223013Y-113870953I-109375J189443D01*
G01*
X86004263Y-113492067D01*
G75*
G02*
X86084331Y-113193249I189443J109375D01*
G01*
G37*
G04 #@! TD*
G04 #@! TO.C,C23*
G36*
G01*
X116461250Y-58768500D02*
X115948750Y-58768500D01*
G75*
G02*
X115730000Y-58549750I0J218750D01*
G01*
X115730000Y-58112250D01*
G75*
G02*
X115948750Y-57893500I218750J0D01*
G01*
X116461250Y-57893500D01*
G75*
G02*
X116680000Y-58112250I0J-218750D01*
G01*
X116680000Y-58549750D01*
G75*
G02*
X116461250Y-58768500I-218750J0D01*
G01*
G37*
G36*
G01*
X116461250Y-60343500D02*
X115948750Y-60343500D01*
G75*
G02*
X115730000Y-60124750I0J218750D01*
G01*
X115730000Y-59687250D01*
G75*
G02*
X115948750Y-59468500I218750J0D01*
G01*
X116461250Y-59468500D01*
G75*
G02*
X116680000Y-59687250I0J-218750D01*
G01*
X116680000Y-60124750D01*
G75*
G02*
X116461250Y-60343500I-218750J0D01*
G01*
G37*
G04 #@! TD*
G04 #@! TO.C,C21*
G36*
G01*
X192148750Y-67761500D02*
X192661250Y-67761500D01*
G75*
G02*
X192880000Y-67980250I0J-218750D01*
G01*
X192880000Y-68417750D01*
G75*
G02*
X192661250Y-68636500I-218750J0D01*
G01*
X192148750Y-68636500D01*
G75*
G02*
X191930000Y-68417750I0J218750D01*
G01*
X191930000Y-67980250D01*
G75*
G02*
X192148750Y-67761500I218750J0D01*
G01*
G37*
G36*
G01*
X192148750Y-66186500D02*
X192661250Y-66186500D01*
G75*
G02*
X192880000Y-66405250I0J-218750D01*
G01*
X192880000Y-66842750D01*
G75*
G02*
X192661250Y-67061500I-218750J0D01*
G01*
X192148750Y-67061500D01*
G75*
G02*
X191930000Y-66842750I0J218750D01*
G01*
X191930000Y-66405250D01*
G75*
G02*
X192148750Y-66186500I218750J0D01*
G01*
G37*
G04 #@! TD*
G04 #@! TO.C,C17*
G36*
G01*
X211198750Y-75788000D02*
X211711250Y-75788000D01*
G75*
G02*
X211930000Y-76006750I0J-218750D01*
G01*
X211930000Y-76444250D01*
G75*
G02*
X211711250Y-76663000I-218750J0D01*
G01*
X211198750Y-76663000D01*
G75*
G02*
X210980000Y-76444250I0J218750D01*
G01*
X210980000Y-76006750D01*
G75*
G02*
X211198750Y-75788000I218750J0D01*
G01*
G37*
G36*
G01*
X211198750Y-74213000D02*
X211711250Y-74213000D01*
G75*
G02*
X211930000Y-74431750I0J-218750D01*
G01*
X211930000Y-74869250D01*
G75*
G02*
X211711250Y-75088000I-218750J0D01*
G01*
X211198750Y-75088000D01*
G75*
G02*
X210980000Y-74869250I0J218750D01*
G01*
X210980000Y-74431750D01*
G75*
G02*
X211198750Y-74213000I218750J0D01*
G01*
G37*
G04 #@! TD*
G04 #@! TO.C,C20*
G36*
G01*
X115948750Y-37942000D02*
X116461250Y-37942000D01*
G75*
G02*
X116680000Y-38160750I0J-218750D01*
G01*
X116680000Y-38598250D01*
G75*
G02*
X116461250Y-38817000I-218750J0D01*
G01*
X115948750Y-38817000D01*
G75*
G02*
X115730000Y-38598250I0J218750D01*
G01*
X115730000Y-38160750D01*
G75*
G02*
X115948750Y-37942000I218750J0D01*
G01*
G37*
G36*
G01*
X115948750Y-36367000D02*
X116461250Y-36367000D01*
G75*
G02*
X116680000Y-36585750I0J-218750D01*
G01*
X116680000Y-37023250D01*
G75*
G02*
X116461250Y-37242000I-218750J0D01*
G01*
X115948750Y-37242000D01*
G75*
G02*
X115730000Y-37023250I0J218750D01*
G01*
X115730000Y-36585750D01*
G75*
G02*
X115948750Y-36367000I218750J0D01*
G01*
G37*
G04 #@! TD*
G04 #@! TO.C,C15*
G36*
G01*
X154048750Y-31973000D02*
X154561250Y-31973000D01*
G75*
G02*
X154780000Y-32191750I0J-218750D01*
G01*
X154780000Y-32629250D01*
G75*
G02*
X154561250Y-32848000I-218750J0D01*
G01*
X154048750Y-32848000D01*
G75*
G02*
X153830000Y-32629250I0J218750D01*
G01*
X153830000Y-32191750D01*
G75*
G02*
X154048750Y-31973000I218750J0D01*
G01*
G37*
G36*
G01*
X154048750Y-30398000D02*
X154561250Y-30398000D01*
G75*
G02*
X154780000Y-30616750I0J-218750D01*
G01*
X154780000Y-31054250D01*
G75*
G02*
X154561250Y-31273000I-218750J0D01*
G01*
X154048750Y-31273000D01*
G75*
G02*
X153830000Y-31054250I0J218750D01*
G01*
X153830000Y-30616750D01*
G75*
G02*
X154048750Y-30398000I218750J0D01*
G01*
G37*
G04 #@! TD*
G04 #@! TO.C,C18*
G36*
G01*
X211198750Y-112046500D02*
X211711250Y-112046500D01*
G75*
G02*
X211930000Y-112265250I0J-218750D01*
G01*
X211930000Y-112702750D01*
G75*
G02*
X211711250Y-112921500I-218750J0D01*
G01*
X211198750Y-112921500D01*
G75*
G02*
X210980000Y-112702750I0J218750D01*
G01*
X210980000Y-112265250D01*
G75*
G02*
X211198750Y-112046500I218750J0D01*
G01*
G37*
G36*
G01*
X211198750Y-110471500D02*
X211711250Y-110471500D01*
G75*
G02*
X211930000Y-110690250I0J-218750D01*
G01*
X211930000Y-111127750D01*
G75*
G02*
X211711250Y-111346500I-218750J0D01*
G01*
X211198750Y-111346500D01*
G75*
G02*
X210980000Y-111127750I0J218750D01*
G01*
X210980000Y-110690250D01*
G75*
G02*
X211198750Y-110471500I218750J0D01*
G01*
G37*
G04 #@! TD*
G04 #@! TO.C,C11*
G36*
G01*
X134998750Y-60738500D02*
X135511250Y-60738500D01*
G75*
G02*
X135730000Y-60957250I0J-218750D01*
G01*
X135730000Y-61394750D01*
G75*
G02*
X135511250Y-61613500I-218750J0D01*
G01*
X134998750Y-61613500D01*
G75*
G02*
X134780000Y-61394750I0J218750D01*
G01*
X134780000Y-60957250D01*
G75*
G02*
X134998750Y-60738500I218750J0D01*
G01*
G37*
G36*
G01*
X134998750Y-59163500D02*
X135511250Y-59163500D01*
G75*
G02*
X135730000Y-59382250I0J-218750D01*
G01*
X135730000Y-59819750D01*
G75*
G02*
X135511250Y-60038500I-218750J0D01*
G01*
X134998750Y-60038500D01*
G75*
G02*
X134780000Y-59819750I0J218750D01*
G01*
X134780000Y-59382250D01*
G75*
G02*
X134998750Y-59163500I218750J0D01*
G01*
G37*
G04 #@! TD*
G04 #@! TO.C,C16*
G36*
G01*
X192148750Y-42514000D02*
X192661250Y-42514000D01*
G75*
G02*
X192880000Y-42732750I0J-218750D01*
G01*
X192880000Y-43170250D01*
G75*
G02*
X192661250Y-43389000I-218750J0D01*
G01*
X192148750Y-43389000D01*
G75*
G02*
X191930000Y-43170250I0J218750D01*
G01*
X191930000Y-42732750D01*
G75*
G02*
X192148750Y-42514000I218750J0D01*
G01*
G37*
G36*
G01*
X192148750Y-40939000D02*
X192661250Y-40939000D01*
G75*
G02*
X192880000Y-41157750I0J-218750D01*
G01*
X192880000Y-41595250D01*
G75*
G02*
X192661250Y-41814000I-218750J0D01*
G01*
X192148750Y-41814000D01*
G75*
G02*
X191930000Y-41595250I0J218750D01*
G01*
X191930000Y-41157750D01*
G75*
G02*
X192148750Y-40939000I218750J0D01*
G01*
G37*
G04 #@! TD*
G04 #@! TO.C,C22*
G36*
G01*
X154048750Y-56357000D02*
X154561250Y-56357000D01*
G75*
G02*
X154780000Y-56575750I0J-218750D01*
G01*
X154780000Y-57013250D01*
G75*
G02*
X154561250Y-57232000I-218750J0D01*
G01*
X154048750Y-57232000D01*
G75*
G02*
X153830000Y-57013250I0J218750D01*
G01*
X153830000Y-56575750D01*
G75*
G02*
X154048750Y-56357000I218750J0D01*
G01*
G37*
G36*
G01*
X154048750Y-54782000D02*
X154561250Y-54782000D01*
G75*
G02*
X154780000Y-55000750I0J-218750D01*
G01*
X154780000Y-55438250D01*
G75*
G02*
X154561250Y-55657000I-218750J0D01*
G01*
X154048750Y-55657000D01*
G75*
G02*
X153830000Y-55438250I0J218750D01*
G01*
X153830000Y-55000750D01*
G75*
G02*
X154048750Y-54782000I218750J0D01*
G01*
G37*
G04 #@! TD*
G04 #@! TO.C,C24*
G36*
G01*
X211198750Y-50769000D02*
X211711250Y-50769000D01*
G75*
G02*
X211930000Y-50987750I0J-218750D01*
G01*
X211930000Y-51425250D01*
G75*
G02*
X211711250Y-51644000I-218750J0D01*
G01*
X211198750Y-51644000D01*
G75*
G02*
X210980000Y-51425250I0J218750D01*
G01*
X210980000Y-50987750D01*
G75*
G02*
X211198750Y-50769000I218750J0D01*
G01*
G37*
G36*
G01*
X211198750Y-49194000D02*
X211711250Y-49194000D01*
G75*
G02*
X211930000Y-49412750I0J-218750D01*
G01*
X211930000Y-49850250D01*
G75*
G02*
X211711250Y-50069000I-218750J0D01*
G01*
X211198750Y-50069000D01*
G75*
G02*
X210980000Y-49850250I0J218750D01*
G01*
X210980000Y-49412750D01*
G75*
G02*
X211198750Y-49194000I218750J0D01*
G01*
G37*
G04 #@! TD*
G04 #@! TO.C,C12*
G36*
G01*
X97799156Y-134694318D02*
X97379341Y-134988276D01*
G75*
G02*
X97074681Y-134934556I-125470J179190D01*
G01*
X96823741Y-134576177D01*
G75*
G02*
X96877461Y-134271517I179190J125470D01*
G01*
X97297277Y-133977560D01*
G75*
G02*
X97601937Y-134031280I125470J-179190D01*
G01*
X97852877Y-134389659D01*
G75*
G02*
X97799157Y-134694319I-179190J-125470D01*
G01*
G37*
G36*
G01*
X98702538Y-135984482D02*
X98282723Y-136278440D01*
G75*
G02*
X97978063Y-136224720I-125470J179190D01*
G01*
X97727123Y-135866341D01*
G75*
G02*
X97780843Y-135561681I179190J125470D01*
G01*
X98200659Y-135267724D01*
G75*
G02*
X98505319Y-135321444I125470J-179190D01*
G01*
X98756259Y-135679823D01*
G75*
G02*
X98702539Y-135984483I-179190J-125470D01*
G01*
G37*
G04 #@! TD*
G04 #@! TO.C,C19*
G36*
G01*
X134998750Y-79852000D02*
X135511250Y-79852000D01*
G75*
G02*
X135730000Y-80070750I0J-218750D01*
G01*
X135730000Y-80508250D01*
G75*
G02*
X135511250Y-80727000I-218750J0D01*
G01*
X134998750Y-80727000D01*
G75*
G02*
X134780000Y-80508250I0J218750D01*
G01*
X134780000Y-80070750D01*
G75*
G02*
X134998750Y-79852000I218750J0D01*
G01*
G37*
G36*
G01*
X134998750Y-78277000D02*
X135511250Y-78277000D01*
G75*
G02*
X135730000Y-78495750I0J-218750D01*
G01*
X135730000Y-78933250D01*
G75*
G02*
X135511250Y-79152000I-218750J0D01*
G01*
X134998750Y-79152000D01*
G75*
G02*
X134780000Y-78933250I0J218750D01*
G01*
X134780000Y-78495750D01*
G75*
G02*
X134998750Y-78277000I218750J0D01*
G01*
G37*
G04 #@! TD*
G04 #@! TO.C,C14*
G36*
G01*
X96835250Y-77121500D02*
X97347750Y-77121500D01*
G75*
G02*
X97566500Y-77340250I0J-218750D01*
G01*
X97566500Y-77777750D01*
G75*
G02*
X97347750Y-77996500I-218750J0D01*
G01*
X96835250Y-77996500D01*
G75*
G02*
X96616500Y-77777750I0J218750D01*
G01*
X96616500Y-77340250D01*
G75*
G02*
X96835250Y-77121500I218750J0D01*
G01*
G37*
G36*
G01*
X96835250Y-75546500D02*
X97347750Y-75546500D01*
G75*
G02*
X97566500Y-75765250I0J-218750D01*
G01*
X97566500Y-76202750D01*
G75*
G02*
X97347750Y-76421500I-218750J0D01*
G01*
X96835250Y-76421500D01*
G75*
G02*
X96616500Y-76202750I0J218750D01*
G01*
X96616500Y-75765250D01*
G75*
G02*
X96835250Y-75546500I218750J0D01*
G01*
G37*
G04 #@! TD*
G04 #@! TO.C,C9*
G36*
G01*
X115948750Y-63088000D02*
X116461250Y-63088000D01*
G75*
G02*
X116680000Y-63306750I0J-218750D01*
G01*
X116680000Y-63744250D01*
G75*
G02*
X116461250Y-63963000I-218750J0D01*
G01*
X115948750Y-63963000D01*
G75*
G02*
X115730000Y-63744250I0J218750D01*
G01*
X115730000Y-63306750D01*
G75*
G02*
X115948750Y-63088000I218750J0D01*
G01*
G37*
G36*
G01*
X115948750Y-61513000D02*
X116461250Y-61513000D01*
G75*
G02*
X116680000Y-61731750I0J-218750D01*
G01*
X116680000Y-62169250D01*
G75*
G02*
X116461250Y-62388000I-218750J0D01*
G01*
X115948750Y-62388000D01*
G75*
G02*
X115730000Y-62169250I0J218750D01*
G01*
X115730000Y-61731750D01*
G75*
G02*
X115948750Y-61513000I218750J0D01*
G01*
G37*
G04 #@! TD*
G04 #@! TO.C,C10*
G36*
G01*
X173098750Y-78328000D02*
X173611250Y-78328000D01*
G75*
G02*
X173830000Y-78546750I0J-218750D01*
G01*
X173830000Y-78984250D01*
G75*
G02*
X173611250Y-79203000I-218750J0D01*
G01*
X173098750Y-79203000D01*
G75*
G02*
X172880000Y-78984250I0J218750D01*
G01*
X172880000Y-78546750D01*
G75*
G02*
X173098750Y-78328000I218750J0D01*
G01*
G37*
G36*
G01*
X173098750Y-76753000D02*
X173611250Y-76753000D01*
G75*
G02*
X173830000Y-76971750I0J-218750D01*
G01*
X173830000Y-77409250D01*
G75*
G02*
X173611250Y-77628000I-218750J0D01*
G01*
X173098750Y-77628000D01*
G75*
G02*
X172880000Y-77409250I0J218750D01*
G01*
X172880000Y-76971750D01*
G75*
G02*
X173098750Y-76753000I218750J0D01*
G01*
G37*
G04 #@! TD*
G04 #@! TO.C,C8*
G36*
G01*
X154048750Y-94584000D02*
X154561250Y-94584000D01*
G75*
G02*
X154780000Y-94802750I0J-218750D01*
G01*
X154780000Y-95240250D01*
G75*
G02*
X154561250Y-95459000I-218750J0D01*
G01*
X154048750Y-95459000D01*
G75*
G02*
X153830000Y-95240250I0J218750D01*
G01*
X153830000Y-94802750D01*
G75*
G02*
X154048750Y-94584000I218750J0D01*
G01*
G37*
G36*
G01*
X154048750Y-93009000D02*
X154561250Y-93009000D01*
G75*
G02*
X154780000Y-93227750I0J-218750D01*
G01*
X154780000Y-93665250D01*
G75*
G02*
X154561250Y-93884000I-218750J0D01*
G01*
X154048750Y-93884000D01*
G75*
G02*
X153830000Y-93665250I0J218750D01*
G01*
X153830000Y-93227750D01*
G75*
G02*
X154048750Y-93009000I218750J0D01*
G01*
G37*
G04 #@! TD*
G04 #@! TO.C,C7*
G36*
G01*
X173098750Y-57373000D02*
X173611250Y-57373000D01*
G75*
G02*
X173830000Y-57591750I0J-218750D01*
G01*
X173830000Y-58029250D01*
G75*
G02*
X173611250Y-58248000I-218750J0D01*
G01*
X173098750Y-58248000D01*
G75*
G02*
X172880000Y-58029250I0J218750D01*
G01*
X172880000Y-57591750D01*
G75*
G02*
X173098750Y-57373000I218750J0D01*
G01*
G37*
G36*
G01*
X173098750Y-55798000D02*
X173611250Y-55798000D01*
G75*
G02*
X173830000Y-56016750I0J-218750D01*
G01*
X173830000Y-56454250D01*
G75*
G02*
X173611250Y-56673000I-218750J0D01*
G01*
X173098750Y-56673000D01*
G75*
G02*
X172880000Y-56454250I0J218750D01*
G01*
X172880000Y-56016750D01*
G75*
G02*
X173098750Y-55798000I218750J0D01*
G01*
G37*
G04 #@! TD*
G04 #@! TO.C,C6*
G36*
G01*
X173098750Y-35148000D02*
X173611250Y-35148000D01*
G75*
G02*
X173830000Y-35366750I0J-218750D01*
G01*
X173830000Y-35804250D01*
G75*
G02*
X173611250Y-36023000I-218750J0D01*
G01*
X173098750Y-36023000D01*
G75*
G02*
X172880000Y-35804250I0J218750D01*
G01*
X172880000Y-35366750D01*
G75*
G02*
X173098750Y-35148000I218750J0D01*
G01*
G37*
G36*
G01*
X173098750Y-33573000D02*
X173611250Y-33573000D01*
G75*
G02*
X173830000Y-33791750I0J-218750D01*
G01*
X173830000Y-34229250D01*
G75*
G02*
X173611250Y-34448000I-218750J0D01*
G01*
X173098750Y-34448000D01*
G75*
G02*
X172880000Y-34229250I0J218750D01*
G01*
X172880000Y-33791750D01*
G75*
G02*
X173098750Y-33573000I218750J0D01*
G01*
G37*
G04 #@! TD*
G04 #@! TO.C,C5*
G36*
G01*
X134998750Y-37942000D02*
X135511250Y-37942000D01*
G75*
G02*
X135730000Y-38160750I0J-218750D01*
G01*
X135730000Y-38598250D01*
G75*
G02*
X135511250Y-38817000I-218750J0D01*
G01*
X134998750Y-38817000D01*
G75*
G02*
X134780000Y-38598250I0J218750D01*
G01*
X134780000Y-38160750D01*
G75*
G02*
X134998750Y-37942000I218750J0D01*
G01*
G37*
G36*
G01*
X134998750Y-36367000D02*
X135511250Y-36367000D01*
G75*
G02*
X135730000Y-36585750I0J-218750D01*
G01*
X135730000Y-37023250D01*
G75*
G02*
X135511250Y-37242000I-218750J0D01*
G01*
X134998750Y-37242000D01*
G75*
G02*
X134780000Y-37023250I0J218750D01*
G01*
X134780000Y-36585750D01*
G75*
G02*
X134998750Y-36367000I218750J0D01*
G01*
G37*
G04 #@! TD*
G04 #@! TO.C,C4*
G36*
G01*
X211198750Y-93187000D02*
X211711250Y-93187000D01*
G75*
G02*
X211930000Y-93405750I0J-218750D01*
G01*
X211930000Y-93843250D01*
G75*
G02*
X211711250Y-94062000I-218750J0D01*
G01*
X211198750Y-94062000D01*
G75*
G02*
X210980000Y-93843250I0J218750D01*
G01*
X210980000Y-93405750D01*
G75*
G02*
X211198750Y-93187000I218750J0D01*
G01*
G37*
G36*
G01*
X211198750Y-91612000D02*
X211711250Y-91612000D01*
G75*
G02*
X211930000Y-91830750I0J-218750D01*
G01*
X211930000Y-92268250D01*
G75*
G02*
X211711250Y-92487000I-218750J0D01*
G01*
X211198750Y-92487000D01*
G75*
G02*
X210980000Y-92268250I0J218750D01*
G01*
X210980000Y-91830750D01*
G75*
G02*
X211198750Y-91612000I218750J0D01*
G01*
G37*
G04 #@! TD*
G04 #@! TO.C,C3*
G36*
G01*
X115948750Y-100934000D02*
X116461250Y-100934000D01*
G75*
G02*
X116680000Y-101152750I0J-218750D01*
G01*
X116680000Y-101590250D01*
G75*
G02*
X116461250Y-101809000I-218750J0D01*
G01*
X115948750Y-101809000D01*
G75*
G02*
X115730000Y-101590250I0J218750D01*
G01*
X115730000Y-101152750D01*
G75*
G02*
X115948750Y-100934000I218750J0D01*
G01*
G37*
G36*
G01*
X115948750Y-99359000D02*
X116461250Y-99359000D01*
G75*
G02*
X116680000Y-99577750I0J-218750D01*
G01*
X116680000Y-100015250D01*
G75*
G02*
X116461250Y-100234000I-218750J0D01*
G01*
X115948750Y-100234000D01*
G75*
G02*
X115730000Y-100015250I0J218750D01*
G01*
X115730000Y-99577750D01*
G75*
G02*
X115948750Y-99359000I218750J0D01*
G01*
G37*
G04 #@! TD*
G04 #@! TO.C,C45*
G36*
G01*
X88767400Y-105691650D02*
X88767400Y-105179150D01*
G75*
G02*
X88986150Y-104960400I218750J0D01*
G01*
X89423650Y-104960400D01*
G75*
G02*
X89642400Y-105179150I0J-218750D01*
G01*
X89642400Y-105691650D01*
G75*
G02*
X89423650Y-105910400I-218750J0D01*
G01*
X88986150Y-105910400D01*
G75*
G02*
X88767400Y-105691650I0J218750D01*
G01*
G37*
G36*
G01*
X87192400Y-105691650D02*
X87192400Y-105179150D01*
G75*
G02*
X87411150Y-104960400I218750J0D01*
G01*
X87848650Y-104960400D01*
G75*
G02*
X88067400Y-105179150I0J-218750D01*
G01*
X88067400Y-105691650D01*
G75*
G02*
X87848650Y-105910400I-218750J0D01*
G01*
X87411150Y-105910400D01*
G75*
G02*
X87192400Y-105691650I0J218750D01*
G01*
G37*
G04 #@! TD*
G04 #@! TO.C,R10*
G36*
G01*
X79275650Y-42550600D02*
X78763150Y-42550600D01*
G75*
G02*
X78544400Y-42331850I0J218750D01*
G01*
X78544400Y-41894350D01*
G75*
G02*
X78763150Y-41675600I218750J0D01*
G01*
X79275650Y-41675600D01*
G75*
G02*
X79494400Y-41894350I0J-218750D01*
G01*
X79494400Y-42331850D01*
G75*
G02*
X79275650Y-42550600I-218750J0D01*
G01*
G37*
G36*
G01*
X79275650Y-44125600D02*
X78763150Y-44125600D01*
G75*
G02*
X78544400Y-43906850I0J218750D01*
G01*
X78544400Y-43469350D01*
G75*
G02*
X78763150Y-43250600I218750J0D01*
G01*
X79275650Y-43250600D01*
G75*
G02*
X79494400Y-43469350I0J-218750D01*
G01*
X79494400Y-43906850D01*
G75*
G02*
X79275650Y-44125600I-218750J0D01*
G01*
G37*
G04 #@! TD*
G04 #@! TO.C,C47*
G36*
G01*
X90040750Y-85694000D02*
X90553250Y-85694000D01*
G75*
G02*
X90772000Y-85912750I0J-218750D01*
G01*
X90772000Y-86350250D01*
G75*
G02*
X90553250Y-86569000I-218750J0D01*
G01*
X90040750Y-86569000D01*
G75*
G02*
X89822000Y-86350250I0J218750D01*
G01*
X89822000Y-85912750D01*
G75*
G02*
X90040750Y-85694000I218750J0D01*
G01*
G37*
G36*
G01*
X90040750Y-84119000D02*
X90553250Y-84119000D01*
G75*
G02*
X90772000Y-84337750I0J-218750D01*
G01*
X90772000Y-84775250D01*
G75*
G02*
X90553250Y-84994000I-218750J0D01*
G01*
X90040750Y-84994000D01*
G75*
G02*
X89822000Y-84775250I0J218750D01*
G01*
X89822000Y-84337750D01*
G75*
G02*
X90040750Y-84119000I218750J0D01*
G01*
G37*
G04 #@! TD*
G04 #@! TO.C,C46*
G36*
G01*
X85883000Y-82268350D02*
X85883000Y-82780850D01*
G75*
G02*
X85664250Y-82999600I-218750J0D01*
G01*
X85226750Y-82999600D01*
G75*
G02*
X85008000Y-82780850I0J218750D01*
G01*
X85008000Y-82268350D01*
G75*
G02*
X85226750Y-82049600I218750J0D01*
G01*
X85664250Y-82049600D01*
G75*
G02*
X85883000Y-82268350I0J-218750D01*
G01*
G37*
G36*
G01*
X87458000Y-82268350D02*
X87458000Y-82780850D01*
G75*
G02*
X87239250Y-82999600I-218750J0D01*
G01*
X86801750Y-82999600D01*
G75*
G02*
X86583000Y-82780850I0J218750D01*
G01*
X86583000Y-82268350D01*
G75*
G02*
X86801750Y-82049600I218750J0D01*
G01*
X87239250Y-82049600D01*
G75*
G02*
X87458000Y-82268350I0J-218750D01*
G01*
G37*
G04 #@! TD*
G04 #@! TO.C,R21*
G36*
G01*
X89885000Y-82780850D02*
X89885000Y-82268350D01*
G75*
G02*
X90103750Y-82049600I218750J0D01*
G01*
X90541250Y-82049600D01*
G75*
G02*
X90760000Y-82268350I0J-218750D01*
G01*
X90760000Y-82780850D01*
G75*
G02*
X90541250Y-82999600I-218750J0D01*
G01*
X90103750Y-82999600D01*
G75*
G02*
X89885000Y-82780850I0J218750D01*
G01*
G37*
G36*
G01*
X88310000Y-82780850D02*
X88310000Y-82268350D01*
G75*
G02*
X88528750Y-82049600I218750J0D01*
G01*
X88966250Y-82049600D01*
G75*
G02*
X89185000Y-82268350I0J-218750D01*
G01*
X89185000Y-82780850D01*
G75*
G02*
X88966250Y-82999600I-218750J0D01*
G01*
X88528750Y-82999600D01*
G75*
G02*
X88310000Y-82780850I0J218750D01*
G01*
G37*
G04 #@! TD*
G04 #@! TO.C,R17*
G36*
G01*
X94871250Y-60165500D02*
X94358750Y-60165500D01*
G75*
G02*
X94140000Y-59946750I0J218750D01*
G01*
X94140000Y-59509250D01*
G75*
G02*
X94358750Y-59290500I218750J0D01*
G01*
X94871250Y-59290500D01*
G75*
G02*
X95090000Y-59509250I0J-218750D01*
G01*
X95090000Y-59946750D01*
G75*
G02*
X94871250Y-60165500I-218750J0D01*
G01*
G37*
G36*
G01*
X94871250Y-61740500D02*
X94358750Y-61740500D01*
G75*
G02*
X94140000Y-61521750I0J218750D01*
G01*
X94140000Y-61084250D01*
G75*
G02*
X94358750Y-60865500I218750J0D01*
G01*
X94871250Y-60865500D01*
G75*
G02*
X95090000Y-61084250I0J-218750D01*
G01*
X95090000Y-61521750D01*
G75*
G02*
X94871250Y-61740500I-218750J0D01*
G01*
G37*
G04 #@! TD*
G04 #@! TO.C,C41*
G36*
G01*
X82200000Y-70736750D02*
X82200000Y-71249250D01*
G75*
G02*
X81981250Y-71468000I-218750J0D01*
G01*
X81543750Y-71468000D01*
G75*
G02*
X81325000Y-71249250I0J218750D01*
G01*
X81325000Y-70736750D01*
G75*
G02*
X81543750Y-70518000I218750J0D01*
G01*
X81981250Y-70518000D01*
G75*
G02*
X82200000Y-70736750I0J-218750D01*
G01*
G37*
G36*
G01*
X83775000Y-70736750D02*
X83775000Y-71249250D01*
G75*
G02*
X83556250Y-71468000I-218750J0D01*
G01*
X83118750Y-71468000D01*
G75*
G02*
X82900000Y-71249250I0J218750D01*
G01*
X82900000Y-70736750D01*
G75*
G02*
X83118750Y-70518000I218750J0D01*
G01*
X83556250Y-70518000D01*
G75*
G02*
X83775000Y-70736750I0J-218750D01*
G01*
G37*
G04 #@! TD*
G04 #@! TO.C,C39*
G36*
G01*
X93441000Y-81536250D02*
X93441000Y-81023750D01*
G75*
G02*
X93659750Y-80805000I218750J0D01*
G01*
X94097250Y-80805000D01*
G75*
G02*
X94316000Y-81023750I0J-218750D01*
G01*
X94316000Y-81536250D01*
G75*
G02*
X94097250Y-81755000I-218750J0D01*
G01*
X93659750Y-81755000D01*
G75*
G02*
X93441000Y-81536250I0J218750D01*
G01*
G37*
G36*
G01*
X91866000Y-81536250D02*
X91866000Y-81023750D01*
G75*
G02*
X92084750Y-80805000I218750J0D01*
G01*
X92522250Y-80805000D01*
G75*
G02*
X92741000Y-81023750I0J-218750D01*
G01*
X92741000Y-81536250D01*
G75*
G02*
X92522250Y-81755000I-218750J0D01*
G01*
X92084750Y-81755000D01*
G75*
G02*
X91866000Y-81536250I0J218750D01*
G01*
G37*
G04 #@! TD*
G04 #@! TO.C,R9*
G36*
G01*
X94261650Y-42550600D02*
X93749150Y-42550600D01*
G75*
G02*
X93530400Y-42331850I0J218750D01*
G01*
X93530400Y-41894350D01*
G75*
G02*
X93749150Y-41675600I218750J0D01*
G01*
X94261650Y-41675600D01*
G75*
G02*
X94480400Y-41894350I0J-218750D01*
G01*
X94480400Y-42331850D01*
G75*
G02*
X94261650Y-42550600I-218750J0D01*
G01*
G37*
G36*
G01*
X94261650Y-44125600D02*
X93749150Y-44125600D01*
G75*
G02*
X93530400Y-43906850I0J218750D01*
G01*
X93530400Y-43469350D01*
G75*
G02*
X93749150Y-43250600I218750J0D01*
G01*
X94261650Y-43250600D01*
G75*
G02*
X94480400Y-43469350I0J-218750D01*
G01*
X94480400Y-43906850D01*
G75*
G02*
X94261650Y-44125600I-218750J0D01*
G01*
G37*
G04 #@! TD*
G04 #@! TO.C,C36*
G36*
G01*
X92271000Y-67194750D02*
X92271000Y-66282250D01*
G75*
G02*
X92514750Y-66038500I243750J0D01*
G01*
X93002250Y-66038500D01*
G75*
G02*
X93246000Y-66282250I0J-243750D01*
G01*
X93246000Y-67194750D01*
G75*
G02*
X93002250Y-67438500I-243750J0D01*
G01*
X92514750Y-67438500D01*
G75*
G02*
X92271000Y-67194750I0J243750D01*
G01*
G37*
G36*
G01*
X90396000Y-67194750D02*
X90396000Y-66282250D01*
G75*
G02*
X90639750Y-66038500I243750J0D01*
G01*
X91127250Y-66038500D01*
G75*
G02*
X91371000Y-66282250I0J-243750D01*
G01*
X91371000Y-67194750D01*
G75*
G02*
X91127250Y-67438500I-243750J0D01*
G01*
X90639750Y-67438500D01*
G75*
G02*
X90396000Y-67194750I0J243750D01*
G01*
G37*
G04 #@! TD*
D21*
G04 #@! TO.C,D70*
X94615000Y-63512700D03*
X94615000Y-65011300D03*
G04 #@! TD*
D22*
G04 #@! TO.C,P2*
X84578400Y-105510400D03*
X84578400Y-104710400D03*
X84578400Y-99810400D03*
X84578400Y-99010400D03*
X84578400Y-99010400D03*
X84578400Y-99810400D03*
X84578400Y-104710400D03*
X84578400Y-105510400D03*
D23*
X84578400Y-100510400D03*
X84578400Y-101010400D03*
X84578400Y-101510400D03*
X84578400Y-102510400D03*
X84578400Y-103010400D03*
X84578400Y-103510400D03*
X84578400Y-104010400D03*
X84578400Y-102010400D03*
G04 #@! TD*
D24*
G04 #@! TO.C,P1*
X83249700Y-42960500D03*
X84049700Y-42960500D03*
X88949700Y-42960500D03*
X89749700Y-42960500D03*
X89749700Y-42960500D03*
X88949700Y-42960500D03*
X84049700Y-42960500D03*
X83249700Y-42960500D03*
D25*
X88249700Y-42960500D03*
X87749700Y-42960500D03*
X87249700Y-42960500D03*
X86249700Y-42960500D03*
X85749700Y-42960500D03*
X85249700Y-42960500D03*
X84749700Y-42960500D03*
X86749700Y-42960500D03*
G04 #@! TD*
M02*
