G04 #@! TF.GenerationSoftware,KiCad,Pcbnew,5.1.8-db9833491~88~ubuntu20.10.1*
G04 #@! TF.CreationDate,2020-12-16T18:25:24+01:00*
G04 #@! TF.ProjectId,YAEMK,5941454d-4b2e-46b6-9963-61645f706362,1.2*
G04 #@! TF.SameCoordinates,Original*
G04 #@! TF.FileFunction,Profile,NP*
%FSLAX46Y46*%
G04 Gerber Fmt 4.6, Leading zero omitted, Abs format (unit mm)*
G04 Created by KiCad (PCBNEW 5.1.8-db9833491~88~ubuntu20.10.1) date 2020-12-16 18:25:24*
%MOMM*%
%LPD*%
G01*
G04 APERTURE LIST*
G04 #@! TA.AperFunction,Profile*
%ADD10C,0.127000*%
G04 #@! TD*
G04 #@! TA.AperFunction,Profile*
%ADD11C,0.100000*%
G04 #@! TD*
G04 APERTURE END LIST*
D10*
X77139800Y-106883200D02*
X77139800Y-117919500D01*
X77114400Y-36296600D02*
X77114400Y-97637600D01*
X77114400Y-36296600D02*
X77876400Y-35534600D01*
X77114400Y-97637600D02*
X83832700Y-97637600D01*
X83832700Y-97637600D02*
X83832700Y-106883200D01*
X83832700Y-106883200D02*
X77139800Y-106883200D01*
X230505000Y-125730000D02*
X231241600Y-124993400D01*
X230479600Y-47853600D02*
X231241600Y-48615600D01*
X154305000Y-27406600D02*
X93954600Y-35534600D01*
X81889600Y-42240200D02*
X81889600Y-35534600D01*
X91135200Y-42240200D02*
X81889600Y-42240200D01*
X91135200Y-35534600D02*
X91135200Y-42240200D01*
X77139800Y-117919500D02*
X65430400Y-127774700D01*
X65430400Y-129044700D02*
X89471500Y-157988000D01*
X65430400Y-127774700D02*
X65430400Y-129044700D01*
X89471500Y-157988000D02*
X91198700Y-158165800D01*
X91198700Y-158165800D02*
X140093700Y-132080000D01*
X140093700Y-132080000D02*
X180873400Y-132029200D01*
X180873400Y-132029200D02*
X230505000Y-125730000D01*
X231241600Y-124993400D02*
X231241600Y-48615600D01*
X230479600Y-47853600D02*
X173177200Y-27406600D01*
X93954600Y-35534600D02*
X91135200Y-35534600D01*
X154305000Y-27406600D02*
X173177200Y-27406600D01*
X81889600Y-35534600D02*
X77876400Y-35534600D01*
D11*
G04 #@! TO.C,D76*
X222680000Y-54573000D02*
X222680000Y-51573000D01*
X219280000Y-51573000D02*
X219280000Y-54573000D01*
X221680000Y-54573000D02*
X220280000Y-54573000D01*
X221680000Y-51573000D02*
X220280000Y-51573000D01*
X222680000Y-54573000D02*
G75*
G02*
X221680000Y-54573000I-500000J0D01*
G01*
X220280000Y-54573000D02*
G75*
G02*
X219280000Y-54573000I-500000J0D01*
G01*
X221680000Y-51573000D02*
G75*
G02*
X222680000Y-51573000I500000J0D01*
G01*
X219280000Y-51573000D02*
G75*
G02*
X220280000Y-51573000I500000J0D01*
G01*
G04 #@! TO.C,D75*
X203503000Y-52414000D02*
X203503000Y-49414000D01*
X200103000Y-49414000D02*
X200103000Y-52414000D01*
X202503000Y-52414000D02*
X201103000Y-52414000D01*
X202503000Y-49414000D02*
X201103000Y-49414000D01*
X203503000Y-52414000D02*
G75*
G02*
X202503000Y-52414000I-500000J0D01*
G01*
X201103000Y-52414000D02*
G75*
G02*
X200103000Y-52414000I-500000J0D01*
G01*
X202503000Y-49414000D02*
G75*
G02*
X203503000Y-49414000I500000J0D01*
G01*
X200103000Y-49414000D02*
G75*
G02*
X201103000Y-49414000I500000J0D01*
G01*
G04 #@! TO.C,D74*
X184580000Y-41746000D02*
X184580000Y-38746000D01*
X181180000Y-38746000D02*
X181180000Y-41746000D01*
X183580000Y-41746000D02*
X182180000Y-41746000D01*
X183580000Y-38746000D02*
X182180000Y-38746000D01*
X184580000Y-41746000D02*
G75*
G02*
X183580000Y-41746000I-500000J0D01*
G01*
X182180000Y-41746000D02*
G75*
G02*
X181180000Y-41746000I-500000J0D01*
G01*
X183580000Y-38746000D02*
G75*
G02*
X184580000Y-38746000I500000J0D01*
G01*
X181180000Y-38746000D02*
G75*
G02*
X182180000Y-38746000I500000J0D01*
G01*
G04 #@! TO.C,D73*
X165530000Y-34126000D02*
X165530000Y-31126000D01*
X162130000Y-31126000D02*
X162130000Y-34126000D01*
X164530000Y-34126000D02*
X163130000Y-34126000D01*
X164530000Y-31126000D02*
X163130000Y-31126000D01*
X165530000Y-34126000D02*
G75*
G02*
X164530000Y-34126000I-500000J0D01*
G01*
X163130000Y-34126000D02*
G75*
G02*
X162130000Y-34126000I-500000J0D01*
G01*
X164530000Y-31126000D02*
G75*
G02*
X165530000Y-31126000I500000J0D01*
G01*
X162130000Y-31126000D02*
G75*
G02*
X163130000Y-31126000I500000J0D01*
G01*
G04 #@! TO.C,D72*
X146480000Y-38825000D02*
X146480000Y-35825000D01*
X143080000Y-35825000D02*
X143080000Y-38825000D01*
X145480000Y-38825000D02*
X144080000Y-38825000D01*
X145480000Y-35825000D02*
X144080000Y-35825000D01*
X146480000Y-38825000D02*
G75*
G02*
X145480000Y-38825000I-500000J0D01*
G01*
X144080000Y-38825000D02*
G75*
G02*
X143080000Y-38825000I-500000J0D01*
G01*
X145480000Y-35825000D02*
G75*
G02*
X146480000Y-35825000I500000J0D01*
G01*
X143080000Y-35825000D02*
G75*
G02*
X144080000Y-35825000I500000J0D01*
G01*
G04 #@! TO.C,D71*
X127430000Y-41746000D02*
X127430000Y-38746000D01*
X124030000Y-38746000D02*
X124030000Y-41746000D01*
X126430000Y-41746000D02*
X125030000Y-41746000D01*
X126430000Y-38746000D02*
X125030000Y-38746000D01*
X127430000Y-41746000D02*
G75*
G02*
X126430000Y-41746000I-500000J0D01*
G01*
X125030000Y-41746000D02*
G75*
G02*
X124030000Y-41746000I-500000J0D01*
G01*
X126430000Y-38746000D02*
G75*
G02*
X127430000Y-38746000I500000J0D01*
G01*
X124030000Y-38746000D02*
G75*
G02*
X125030000Y-38746000I500000J0D01*
G01*
G04 #@! TO.C,D67*
X108380000Y-41746000D02*
X108380000Y-38746000D01*
X104980000Y-38746000D02*
X104980000Y-41746000D01*
X107380000Y-41746000D02*
X105980000Y-41746000D01*
X107380000Y-38746000D02*
X105980000Y-38746000D01*
X108380000Y-41746000D02*
G75*
G02*
X107380000Y-41746000I-500000J0D01*
G01*
X105980000Y-41746000D02*
G75*
G02*
X104980000Y-41746000I-500000J0D01*
G01*
X107380000Y-38746000D02*
G75*
G02*
X108380000Y-38746000I500000J0D01*
G01*
X104980000Y-38746000D02*
G75*
G02*
X105980000Y-38746000I500000J0D01*
G01*
G04 #@! TO.C,D66*
X104980000Y-57822000D02*
X104980000Y-60822000D01*
X108380000Y-60822000D02*
X108380000Y-57822000D01*
X105980000Y-57822000D02*
X107380000Y-57822000D01*
X105980000Y-60822000D02*
X107380000Y-60822000D01*
X104980000Y-57822000D02*
G75*
G02*
X105980000Y-57822000I500000J0D01*
G01*
X107380000Y-57822000D02*
G75*
G02*
X108380000Y-57822000I500000J0D01*
G01*
X105980000Y-60822000D02*
G75*
G02*
X104980000Y-60822000I-500000J0D01*
G01*
X108380000Y-60822000D02*
G75*
G02*
X107380000Y-60822000I-500000J0D01*
G01*
G04 #@! TO.C,D64*
X123903000Y-57822000D02*
X123903000Y-60822000D01*
X127303000Y-60822000D02*
X127303000Y-57822000D01*
X124903000Y-57822000D02*
X126303000Y-57822000D01*
X124903000Y-60822000D02*
X126303000Y-60822000D01*
X123903000Y-57822000D02*
G75*
G02*
X124903000Y-57822000I500000J0D01*
G01*
X126303000Y-57822000D02*
G75*
G02*
X127303000Y-57822000I500000J0D01*
G01*
X124903000Y-60822000D02*
G75*
G02*
X123903000Y-60822000I-500000J0D01*
G01*
X127303000Y-60822000D02*
G75*
G02*
X126303000Y-60822000I-500000J0D01*
G01*
G04 #@! TO.C,D63*
X142953000Y-54901000D02*
X142953000Y-57901000D01*
X146353000Y-57901000D02*
X146353000Y-54901000D01*
X143953000Y-54901000D02*
X145353000Y-54901000D01*
X143953000Y-57901000D02*
X145353000Y-57901000D01*
X142953000Y-54901000D02*
G75*
G02*
X143953000Y-54901000I500000J0D01*
G01*
X145353000Y-54901000D02*
G75*
G02*
X146353000Y-54901000I500000J0D01*
G01*
X143953000Y-57901000D02*
G75*
G02*
X142953000Y-57901000I-500000J0D01*
G01*
X146353000Y-57901000D02*
G75*
G02*
X145353000Y-57901000I-500000J0D01*
G01*
G04 #@! TO.C,D61*
X162003000Y-50202000D02*
X162003000Y-53202000D01*
X165403000Y-53202000D02*
X165403000Y-50202000D01*
X163003000Y-50202000D02*
X164403000Y-50202000D01*
X163003000Y-53202000D02*
X164403000Y-53202000D01*
X162003000Y-50202000D02*
G75*
G02*
X163003000Y-50202000I500000J0D01*
G01*
X164403000Y-50202000D02*
G75*
G02*
X165403000Y-50202000I500000J0D01*
G01*
X163003000Y-53202000D02*
G75*
G02*
X162003000Y-53202000I-500000J0D01*
G01*
X165403000Y-53202000D02*
G75*
G02*
X164403000Y-53202000I-500000J0D01*
G01*
G04 #@! TO.C,D60*
X181180000Y-58076000D02*
X181180000Y-61076000D01*
X184580000Y-61076000D02*
X184580000Y-58076000D01*
X182180000Y-58076000D02*
X183580000Y-58076000D01*
X182180000Y-61076000D02*
X183580000Y-61076000D01*
X181180000Y-58076000D02*
G75*
G02*
X182180000Y-58076000I500000J0D01*
G01*
X183580000Y-58076000D02*
G75*
G02*
X184580000Y-58076000I500000J0D01*
G01*
X182180000Y-61076000D02*
G75*
G02*
X181180000Y-61076000I-500000J0D01*
G01*
X184580000Y-61076000D02*
G75*
G02*
X183580000Y-61076000I-500000J0D01*
G01*
G04 #@! TO.C,D58*
X200230000Y-68490000D02*
X200230000Y-71490000D01*
X203630000Y-71490000D02*
X203630000Y-68490000D01*
X201230000Y-68490000D02*
X202630000Y-68490000D01*
X201230000Y-71490000D02*
X202630000Y-71490000D01*
X200230000Y-68490000D02*
G75*
G02*
X201230000Y-68490000I500000J0D01*
G01*
X202630000Y-68490000D02*
G75*
G02*
X203630000Y-68490000I500000J0D01*
G01*
X201230000Y-71490000D02*
G75*
G02*
X200230000Y-71490000I-500000J0D01*
G01*
X203630000Y-71490000D02*
G75*
G02*
X202630000Y-71490000I-500000J0D01*
G01*
G04 #@! TO.C,D57*
X219280000Y-70649000D02*
X219280000Y-73649000D01*
X222680000Y-73649000D02*
X222680000Y-70649000D01*
X220280000Y-70649000D02*
X221680000Y-70649000D01*
X220280000Y-73649000D02*
X221680000Y-73649000D01*
X219280000Y-70649000D02*
G75*
G02*
X220280000Y-70649000I500000J0D01*
G01*
X221680000Y-70649000D02*
G75*
G02*
X222680000Y-70649000I500000J0D01*
G01*
X220280000Y-73649000D02*
G75*
G02*
X219280000Y-73649000I-500000J0D01*
G01*
X222680000Y-73649000D02*
G75*
G02*
X221680000Y-73649000I-500000J0D01*
G01*
G04 #@! TO.C,D56*
X222553000Y-92546000D02*
X222553000Y-89546000D01*
X219153000Y-89546000D02*
X219153000Y-92546000D01*
X221553000Y-92546000D02*
X220153000Y-92546000D01*
X221553000Y-89546000D02*
X220153000Y-89546000D01*
X222553000Y-92546000D02*
G75*
G02*
X221553000Y-92546000I-500000J0D01*
G01*
X220153000Y-92546000D02*
G75*
G02*
X219153000Y-92546000I-500000J0D01*
G01*
X221553000Y-89546000D02*
G75*
G02*
X222553000Y-89546000I500000J0D01*
G01*
X219153000Y-89546000D02*
G75*
G02*
X220153000Y-89546000I500000J0D01*
G01*
G04 #@! TO.C,D55*
X203630000Y-90514000D02*
X203630000Y-87514000D01*
X200230000Y-87514000D02*
X200230000Y-90514000D01*
X202630000Y-90514000D02*
X201230000Y-90514000D01*
X202630000Y-87514000D02*
X201230000Y-87514000D01*
X203630000Y-90514000D02*
G75*
G02*
X202630000Y-90514000I-500000J0D01*
G01*
X201230000Y-90514000D02*
G75*
G02*
X200230000Y-90514000I-500000J0D01*
G01*
X202630000Y-87514000D02*
G75*
G02*
X203630000Y-87514000I500000J0D01*
G01*
X200230000Y-87514000D02*
G75*
G02*
X201230000Y-87514000I500000J0D01*
G01*
G04 #@! TO.C,D54*
X184580000Y-80100000D02*
X184580000Y-77100000D01*
X181180000Y-77100000D02*
X181180000Y-80100000D01*
X183580000Y-80100000D02*
X182180000Y-80100000D01*
X183580000Y-77100000D02*
X182180000Y-77100000D01*
X184580000Y-80100000D02*
G75*
G02*
X183580000Y-80100000I-500000J0D01*
G01*
X182180000Y-80100000D02*
G75*
G02*
X181180000Y-80100000I-500000J0D01*
G01*
X183580000Y-77100000D02*
G75*
G02*
X184580000Y-77100000I500000J0D01*
G01*
X181180000Y-77100000D02*
G75*
G02*
X182180000Y-77100000I500000J0D01*
G01*
G04 #@! TO.C,D53*
X165530000Y-72226000D02*
X165530000Y-69226000D01*
X162130000Y-69226000D02*
X162130000Y-72226000D01*
X164530000Y-72226000D02*
X163130000Y-72226000D01*
X164530000Y-69226000D02*
X163130000Y-69226000D01*
X165530000Y-72226000D02*
G75*
G02*
X164530000Y-72226000I-500000J0D01*
G01*
X163130000Y-72226000D02*
G75*
G02*
X162130000Y-72226000I-500000J0D01*
G01*
X164530000Y-69226000D02*
G75*
G02*
X165530000Y-69226000I500000J0D01*
G01*
X162130000Y-69226000D02*
G75*
G02*
X163130000Y-69226000I500000J0D01*
G01*
G04 #@! TO.C,D52*
X146480000Y-77052000D02*
X146480000Y-74052000D01*
X143080000Y-74052000D02*
X143080000Y-77052000D01*
X145480000Y-77052000D02*
X144080000Y-77052000D01*
X145480000Y-74052000D02*
X144080000Y-74052000D01*
X146480000Y-77052000D02*
G75*
G02*
X145480000Y-77052000I-500000J0D01*
G01*
X144080000Y-77052000D02*
G75*
G02*
X143080000Y-77052000I-500000J0D01*
G01*
X145480000Y-74052000D02*
G75*
G02*
X146480000Y-74052000I500000J0D01*
G01*
X143080000Y-74052000D02*
G75*
G02*
X144080000Y-74052000I500000J0D01*
G01*
G04 #@! TO.C,D51*
X127430000Y-79973000D02*
X127430000Y-76973000D01*
X124030000Y-76973000D02*
X124030000Y-79973000D01*
X126430000Y-79973000D02*
X125030000Y-79973000D01*
X126430000Y-76973000D02*
X125030000Y-76973000D01*
X127430000Y-79973000D02*
G75*
G02*
X126430000Y-79973000I-500000J0D01*
G01*
X125030000Y-79973000D02*
G75*
G02*
X124030000Y-79973000I-500000J0D01*
G01*
X126430000Y-76973000D02*
G75*
G02*
X127430000Y-76973000I500000J0D01*
G01*
X124030000Y-76973000D02*
G75*
G02*
X125030000Y-76973000I500000J0D01*
G01*
G04 #@! TO.C,D50*
X108507000Y-79973000D02*
X108507000Y-76973000D01*
X105107000Y-76973000D02*
X105107000Y-79973000D01*
X107507000Y-79973000D02*
X106107000Y-79973000D01*
X107507000Y-76973000D02*
X106107000Y-76973000D01*
X108507000Y-79973000D02*
G75*
G02*
X107507000Y-79973000I-500000J0D01*
G01*
X106107000Y-79973000D02*
G75*
G02*
X105107000Y-79973000I-500000J0D01*
G01*
X107507000Y-76973000D02*
G75*
G02*
X108507000Y-76973000I500000J0D01*
G01*
X105107000Y-76973000D02*
G75*
G02*
X106107000Y-76973000I500000J0D01*
G01*
G04 #@! TO.C,D49*
X124030000Y-95922000D02*
X124030000Y-98922000D01*
X127430000Y-98922000D02*
X127430000Y-95922000D01*
X125030000Y-95922000D02*
X126430000Y-95922000D01*
X125030000Y-98922000D02*
X126430000Y-98922000D01*
X124030000Y-95922000D02*
G75*
G02*
X125030000Y-95922000I500000J0D01*
G01*
X126430000Y-95922000D02*
G75*
G02*
X127430000Y-95922000I500000J0D01*
G01*
X125030000Y-98922000D02*
G75*
G02*
X124030000Y-98922000I-500000J0D01*
G01*
X127430000Y-98922000D02*
G75*
G02*
X126430000Y-98922000I-500000J0D01*
G01*
G04 #@! TO.C,D48*
X142953000Y-93001000D02*
X142953000Y-96001000D01*
X146353000Y-96001000D02*
X146353000Y-93001000D01*
X143953000Y-93001000D02*
X145353000Y-93001000D01*
X143953000Y-96001000D02*
X145353000Y-96001000D01*
X142953000Y-93001000D02*
G75*
G02*
X143953000Y-93001000I500000J0D01*
G01*
X145353000Y-93001000D02*
G75*
G02*
X146353000Y-93001000I500000J0D01*
G01*
X143953000Y-96001000D02*
G75*
G02*
X142953000Y-96001000I-500000J0D01*
G01*
X146353000Y-96001000D02*
G75*
G02*
X145353000Y-96001000I-500000J0D01*
G01*
G04 #@! TO.C,D47*
X162130000Y-88556000D02*
X162130000Y-91556000D01*
X165530000Y-91556000D02*
X165530000Y-88556000D01*
X163130000Y-88556000D02*
X164530000Y-88556000D01*
X163130000Y-91556000D02*
X164530000Y-91556000D01*
X162130000Y-88556000D02*
G75*
G02*
X163130000Y-88556000I500000J0D01*
G01*
X164530000Y-88556000D02*
G75*
G02*
X165530000Y-88556000I500000J0D01*
G01*
X163130000Y-91556000D02*
G75*
G02*
X162130000Y-91556000I-500000J0D01*
G01*
X165530000Y-91556000D02*
G75*
G02*
X164530000Y-91556000I-500000J0D01*
G01*
G04 #@! TO.C,D46*
X219280000Y-108749000D02*
X219280000Y-111749000D01*
X222680000Y-111749000D02*
X222680000Y-108749000D01*
X220280000Y-108749000D02*
X221680000Y-108749000D01*
X220280000Y-111749000D02*
X221680000Y-111749000D01*
X219280000Y-108749000D02*
G75*
G02*
X220280000Y-108749000I500000J0D01*
G01*
X221680000Y-108749000D02*
G75*
G02*
X222680000Y-108749000I500000J0D01*
G01*
X220280000Y-111749000D02*
G75*
G02*
X219280000Y-111749000I-500000J0D01*
G01*
X222680000Y-111749000D02*
G75*
G02*
X221680000Y-111749000I-500000J0D01*
G01*
G04 #@! TO.C,D45*
X181180000Y-96176000D02*
X181180000Y-99176000D01*
X184580000Y-99176000D02*
X184580000Y-96176000D01*
X182180000Y-96176000D02*
X183580000Y-96176000D01*
X182180000Y-99176000D02*
X183580000Y-99176000D01*
X181180000Y-96176000D02*
G75*
G02*
X182180000Y-96176000I500000J0D01*
G01*
X183580000Y-96176000D02*
G75*
G02*
X184580000Y-96176000I500000J0D01*
G01*
X182180000Y-99176000D02*
G75*
G02*
X181180000Y-99176000I-500000J0D01*
G01*
X184580000Y-99176000D02*
G75*
G02*
X183580000Y-99176000I-500000J0D01*
G01*
G04 #@! TO.C,D44*
X200103000Y-106971000D02*
X200103000Y-109971000D01*
X203503000Y-109971000D02*
X203503000Y-106971000D01*
X201103000Y-106971000D02*
X202503000Y-106971000D01*
X201103000Y-109971000D02*
X202503000Y-109971000D01*
X200103000Y-106971000D02*
G75*
G02*
X201103000Y-106971000I500000J0D01*
G01*
X202503000Y-106971000D02*
G75*
G02*
X203503000Y-106971000I500000J0D01*
G01*
X201103000Y-109971000D02*
G75*
G02*
X200103000Y-109971000I-500000J0D01*
G01*
X203503000Y-109971000D02*
G75*
G02*
X202503000Y-109971000I-500000J0D01*
G01*
G04 #@! TO.C,D42*
X147906000Y-115035500D02*
X147906000Y-118035500D01*
X151306000Y-118035500D02*
X151306000Y-115035500D01*
X148906000Y-115035500D02*
X150306000Y-115035500D01*
X148906000Y-118035500D02*
X150306000Y-118035500D01*
X147906000Y-115035500D02*
G75*
G02*
X148906000Y-115035500I500000J0D01*
G01*
X150306000Y-115035500D02*
G75*
G02*
X151306000Y-115035500I500000J0D01*
G01*
X148906000Y-118035500D02*
G75*
G02*
X147906000Y-118035500I-500000J0D01*
G01*
X151306000Y-118035500D02*
G75*
G02*
X150306000Y-118035500I-500000J0D01*
G01*
G04 #@! TO.C,D40*
X129359517Y-120478835D02*
X128633751Y-117567948D01*
X125334745Y-118390482D02*
X126060511Y-121301369D01*
X128389221Y-120720757D02*
X127030807Y-121059448D01*
X127663455Y-117809870D02*
X126305041Y-118148560D01*
X129359517Y-120478835D02*
G75*
G02*
X128389221Y-120720757I-485148J-120961D01*
G01*
X127030807Y-121059447D02*
G75*
G02*
X126060511Y-121301369I-485148J-120961D01*
G01*
X127663455Y-117809870D02*
G75*
G02*
X128633751Y-117567948I485148J120961D01*
G01*
X125334745Y-118390482D02*
G75*
G02*
X126305041Y-118148560I485148J120961D01*
G01*
G04 #@! TO.C,D39*
X113150243Y-137551295D02*
X111650243Y-134953218D01*
X108705757Y-136653218D02*
X110205757Y-139251295D01*
X112284218Y-138051295D02*
X111071782Y-138751295D01*
X110784218Y-135453218D02*
X109571782Y-136153218D01*
X113150242Y-137551295D02*
G75*
G02*
X112284218Y-138051295I-433012J-250000D01*
G01*
X111071783Y-138751295D02*
G75*
G02*
X110205757Y-139251295I-433013J-250000D01*
G01*
X110784217Y-135453218D02*
G75*
G02*
X111650243Y-134953218I433013J250000D01*
G01*
X108705758Y-136653218D02*
G75*
G02*
X109571782Y-136153218I433012J250000D01*
G01*
G04 #@! TO.C,D38*
X96981967Y-148348582D02*
X95053604Y-146050448D01*
X92449053Y-148235926D02*
X94377416Y-150534059D01*
X96215922Y-148991369D02*
X95143460Y-149891272D01*
X94287559Y-146693236D02*
X93215097Y-147593138D01*
X96981966Y-148348581D02*
G75*
G02*
X96215922Y-148991369I-383022J-321394D01*
G01*
X95143460Y-149891273D02*
G75*
G02*
X94377416Y-150534059I-383022J-321393D01*
G01*
X94287560Y-146693236D02*
G75*
G02*
X95053604Y-146050448I383022J321394D01*
G01*
X92449053Y-148235926D02*
G75*
G02*
X93215097Y-147593138I383022J321394D01*
G01*
G04 #@! TO.C,D37*
X75644916Y-128055059D02*
X73716553Y-125756926D01*
X76321104Y-123571448D02*
X78249467Y-125869582D01*
X76410960Y-127412272D02*
X77483422Y-126512369D01*
X74482597Y-125114138D02*
X75555059Y-124214236D01*
X75644916Y-128055060D02*
G75*
G03*
X76410960Y-127412272I383022J321394D01*
G01*
X77483421Y-126512368D02*
G75*
G03*
X78249467Y-125869582I383023J321393D01*
G01*
X74482597Y-125114138D02*
G75*
G03*
X73716553Y-125756926I-383022J-321394D01*
G01*
X76321105Y-123571448D02*
G75*
G03*
X75555059Y-124214236I-383023J-321394D01*
G01*
G04 #@! TO.C,D35*
X94113757Y-110987705D02*
X95613757Y-113585782D01*
X98558243Y-111885782D02*
X97058243Y-109287705D01*
X94979782Y-110487705D02*
X96192218Y-109787705D01*
X96479782Y-113085782D02*
X97692218Y-112385782D01*
X94113758Y-110987705D02*
G75*
G02*
X94979782Y-110487705I433012J250000D01*
G01*
X96192217Y-109787705D02*
G75*
G02*
X97058243Y-109287705I433013J250000D01*
G01*
X96479783Y-113085782D02*
G75*
G02*
X95613757Y-113585782I-433013J-250000D01*
G01*
X98558242Y-111885782D02*
G75*
G02*
X97692218Y-112385782I-433012J-250000D01*
G01*
G04 #@! TD*
M02*
