G04 #@! TF.GenerationSoftware,KiCad,Pcbnew,5.1.6-c6e7f7d~87~ubuntu20.04.1*
G04 #@! TF.CreationDate,2020-07-21T19:20:55+02:00*
G04 #@! TF.ProjectId,YAEMK,5941454d-4b2e-46b6-9963-61645f706362,1.1*
G04 #@! TF.SameCoordinates,Original*
G04 #@! TF.FileFunction,Soldermask,Top*
G04 #@! TF.FilePolarity,Negative*
%FSLAX46Y46*%
G04 Gerber Fmt 4.6, Leading zero omitted, Abs format (unit mm)*
G04 Created by KiCad (PCBNEW 5.1.6-c6e7f7d~87~ubuntu20.04.1) date 2020-07-21 19:20:55*
%MOMM*%
%LPD*%
G01*
G04 APERTURE LIST*
%ADD10C,0.100000*%
%ADD11C,1.700000*%
%ADD12C,4.100000*%
%ADD13C,0.150000*%
%ADD14C,0.609600*%
%ADD15R,2.400000X2.500000*%
%ADD16R,2.550000X2.500000*%
%ADD17O,1.500000X1.500000*%
%ADD18C,1.500000*%
%ADD19C,0.600000*%
%ADD20R,1.300000X1.150000*%
%ADD21R,1.200000X0.900000*%
%ADD22R,0.600000X1.200000*%
%ADD23R,1.300000X0.600000*%
%ADD24R,1.300000X0.300000*%
%ADD25O,1.800000X1.000000*%
%ADD26O,2.200000X1.000000*%
%ADD27R,0.600000X1.300000*%
%ADD28R,0.300000X1.300000*%
%ADD29O,1.000000X1.800000*%
%ADD30O,1.000000X2.200000*%
%ADD31C,0.700000*%
%ADD32C,4.400000*%
%ADD33R,0.797560X0.797560*%
%ADD34O,1.700000X1.700000*%
%ADD35R,1.700000X1.700000*%
%ADD36R,0.900000X0.800000*%
%ADD37R,2.000000X2.000000*%
%ADD38C,2.000000*%
%ADD39R,2.000000X3.200000*%
%ADD40R,1.900000X1.100000*%
%ADD41R,1.560000X0.650000*%
%ADD42R,0.650000X1.560000*%
G04 APERTURE END LIST*
D10*
G04 #@! TO.C,S5*
G36*
X102620783Y-110619447D02*
G01*
X101321744Y-111369447D01*
X100946744Y-110719928D01*
X102245783Y-109969928D01*
X102620783Y-110619447D01*
G37*
X102620783Y-110619447D02*
X101321744Y-111369447D01*
X100946744Y-110719928D01*
X102245783Y-109969928D01*
X102620783Y-110619447D01*
G36*
X98290656Y-113119447D02*
G01*
X96991617Y-113869447D01*
X96616617Y-113219928D01*
X97915656Y-112469928D01*
X98290656Y-113119447D01*
G37*
X98290656Y-113119447D02*
X96991617Y-113869447D01*
X96616617Y-113219928D01*
X97915656Y-112469928D01*
X98290656Y-113119447D01*
G36*
X97415656Y-111603902D02*
G01*
X96116617Y-112353902D01*
X95741617Y-111704383D01*
X97040656Y-110954383D01*
X97415656Y-111603902D01*
G37*
X97415656Y-111603902D02*
X96116617Y-112353902D01*
X95741617Y-111704383D01*
X97040656Y-110954383D01*
X97415656Y-111603902D01*
G36*
X101745783Y-109103902D02*
G01*
X100446744Y-109853902D01*
X100071744Y-109204383D01*
X101370783Y-108454383D01*
X101745783Y-109103902D01*
G37*
X101745783Y-109103902D02*
X100446744Y-109853902D01*
X100071744Y-109204383D01*
X101370783Y-108454383D01*
X101745783Y-109103902D01*
G36*
X113449806Y-139325866D02*
G01*
X112150768Y-140075866D01*
X111775768Y-139426347D01*
X113074806Y-138676347D01*
X113449806Y-139325866D01*
G37*
X113449806Y-139325866D02*
X112150768Y-140075866D01*
X111775768Y-139426347D01*
X113074806Y-138676347D01*
X113449806Y-139325866D01*
G36*
X117779933Y-136825866D02*
G01*
X116480895Y-137575866D01*
X116105895Y-136926347D01*
X117404933Y-136176347D01*
X117779933Y-136825866D01*
G37*
X117779933Y-136825866D02*
X116480895Y-137575866D01*
X116105895Y-136926347D01*
X117404933Y-136176347D01*
X117779933Y-136825866D01*
G36*
X116904933Y-135310322D02*
G01*
X115605895Y-136060322D01*
X115230895Y-135410802D01*
X116529933Y-134660802D01*
X116904933Y-135310322D01*
G37*
X116904933Y-135310322D02*
X115605895Y-136060322D01*
X115230895Y-135410802D01*
X116529933Y-134660802D01*
X116904933Y-135310322D01*
G36*
X112574806Y-137810322D02*
G01*
X111275768Y-138560322D01*
X110900768Y-137910802D01*
X112199806Y-137160802D01*
X112574806Y-137810322D01*
G37*
X112574806Y-137810322D02*
X111275768Y-138560322D01*
X110900768Y-137910802D01*
X112199806Y-137160802D01*
X112574806Y-137810322D01*
G04 #@! TO.C,S1*
G36*
X82023097Y-124346723D02*
G01*
X80874030Y-125310904D01*
X80391939Y-124736371D01*
X81541006Y-123772189D01*
X82023097Y-124346723D01*
G37*
X82023097Y-124346723D02*
X80874030Y-125310904D01*
X80391939Y-124736371D01*
X81541006Y-123772189D01*
X82023097Y-124346723D01*
G36*
X78192874Y-127560661D02*
G01*
X77043808Y-128524842D01*
X76561717Y-127950309D01*
X77710784Y-126986127D01*
X78192874Y-127560661D01*
G37*
X78192874Y-127560661D02*
X77043808Y-128524842D01*
X76561717Y-127950309D01*
X77710784Y-126986127D01*
X78192874Y-127560661D01*
G36*
X77067996Y-126220083D02*
G01*
X75918929Y-127184264D01*
X75436839Y-126609731D01*
X76585905Y-125645549D01*
X77067996Y-126220083D01*
G37*
X77067996Y-126220083D02*
X75918929Y-127184264D01*
X75436839Y-126609731D01*
X76585905Y-125645549D01*
X77067996Y-126220083D01*
G36*
X80898218Y-123006145D02*
G01*
X79749152Y-123970326D01*
X79267061Y-123395793D01*
X80416128Y-122431611D01*
X80898218Y-123006145D01*
G37*
X80898218Y-123006145D02*
X79749152Y-123970326D01*
X79267061Y-123395793D01*
X80416128Y-122431611D01*
X80898218Y-123006145D01*
G36*
X97672420Y-150736586D02*
G01*
X96523354Y-151700768D01*
X96041263Y-151126234D01*
X97190330Y-150162053D01*
X97672420Y-150736586D01*
G37*
X97672420Y-150736586D02*
X96523354Y-151700768D01*
X96041263Y-151126234D01*
X97190330Y-150162053D01*
X97672420Y-150736586D01*
G36*
X101502643Y-147522648D02*
G01*
X100353576Y-148486830D01*
X99871485Y-147912296D01*
X101020552Y-146948115D01*
X101502643Y-147522648D01*
G37*
X101502643Y-147522648D02*
X100353576Y-148486830D01*
X99871485Y-147912296D01*
X101020552Y-146948115D01*
X101502643Y-147522648D01*
G36*
X100377764Y-146182071D02*
G01*
X99228698Y-147146252D01*
X98746607Y-146571719D01*
X99895674Y-145607537D01*
X100377764Y-146182071D01*
G37*
X100377764Y-146182071D02*
X99228698Y-147146252D01*
X98746607Y-146571719D01*
X99895674Y-145607537D01*
X100377764Y-146182071D01*
G36*
X96547542Y-149396009D02*
G01*
X95398475Y-150360190D01*
X94916385Y-149785657D01*
X96065451Y-148821475D01*
X96547542Y-149396009D01*
G37*
X96547542Y-149396009D02*
X95398475Y-150360190D01*
X94916385Y-149785657D01*
X96065451Y-148821475D01*
X96547542Y-149396009D01*
G04 #@! TO.C,S32*
G36*
X224231368Y-49970500D02*
G01*
X222731368Y-49970500D01*
X222731368Y-49220500D01*
X224231368Y-49220500D01*
X224231368Y-49970500D01*
G37*
X224231368Y-49970500D02*
X222731368Y-49970500D01*
X222731368Y-49220500D01*
X224231368Y-49220500D01*
X224231368Y-49970500D01*
G36*
X224231368Y-51720500D02*
G01*
X222731368Y-51720500D01*
X222731368Y-50970500D01*
X224231368Y-50970500D01*
X224231368Y-51720500D01*
G37*
X224231368Y-51720500D02*
X222731368Y-51720500D01*
X222731368Y-50970500D01*
X224231368Y-50970500D01*
X224231368Y-51720500D01*
G36*
X219231368Y-51720500D02*
G01*
X217731368Y-51720500D01*
X217731368Y-50970500D01*
X219231368Y-50970500D01*
X219231368Y-51720500D01*
G37*
X219231368Y-51720500D02*
X217731368Y-51720500D01*
X217731368Y-50970500D01*
X219231368Y-50970500D01*
X219231368Y-51720500D01*
G36*
X219231368Y-49970500D02*
G01*
X217731368Y-49970500D01*
X217731368Y-49220500D01*
X219231368Y-49220500D01*
X219231368Y-49970500D01*
G37*
X219231368Y-49970500D02*
X217731368Y-49970500D01*
X217731368Y-49220500D01*
X219231368Y-49220500D01*
X219231368Y-49970500D01*
G04 #@! TO.C,S30*
G36*
X205168668Y-85962300D02*
G01*
X203668668Y-85962300D01*
X203668668Y-85212300D01*
X205168668Y-85212300D01*
X205168668Y-85962300D01*
G37*
X205168668Y-85962300D02*
X203668668Y-85962300D01*
X203668668Y-85212300D01*
X205168668Y-85212300D01*
X205168668Y-85962300D01*
G36*
X205168668Y-87712300D02*
G01*
X203668668Y-87712300D01*
X203668668Y-86962300D01*
X205168668Y-86962300D01*
X205168668Y-87712300D01*
G37*
X205168668Y-87712300D02*
X203668668Y-87712300D01*
X203668668Y-86962300D01*
X205168668Y-86962300D01*
X205168668Y-87712300D01*
G36*
X200168668Y-87712300D02*
G01*
X198668668Y-87712300D01*
X198668668Y-86962300D01*
X200168668Y-86962300D01*
X200168668Y-87712300D01*
G37*
X200168668Y-87712300D02*
X198668668Y-87712300D01*
X198668668Y-86962300D01*
X200168668Y-86962300D01*
X200168668Y-87712300D01*
G36*
X200168668Y-85962300D02*
G01*
X198668668Y-85962300D01*
X198668668Y-85212300D01*
X200168668Y-85212300D01*
X200168668Y-85962300D01*
G37*
X200168668Y-85962300D02*
X198668668Y-85962300D01*
X198668668Y-85212300D01*
X200168668Y-85212300D01*
X200168668Y-85962300D01*
G04 #@! TO.C,S31*
G36*
X205168668Y-105012300D02*
G01*
X203668668Y-105012300D01*
X203668668Y-104262300D01*
X205168668Y-104262300D01*
X205168668Y-105012300D01*
G37*
X205168668Y-105012300D02*
X203668668Y-105012300D01*
X203668668Y-104262300D01*
X205168668Y-104262300D01*
X205168668Y-105012300D01*
G36*
X205168668Y-106762300D02*
G01*
X203668668Y-106762300D01*
X203668668Y-106012300D01*
X205168668Y-106012300D01*
X205168668Y-106762300D01*
G37*
X205168668Y-106762300D02*
X203668668Y-106762300D01*
X203668668Y-106012300D01*
X205168668Y-106012300D01*
X205168668Y-106762300D01*
G36*
X200168668Y-106762300D02*
G01*
X198668668Y-106762300D01*
X198668668Y-106012300D01*
X200168668Y-106012300D01*
X200168668Y-106762300D01*
G37*
X200168668Y-106762300D02*
X198668668Y-106762300D01*
X198668668Y-106012300D01*
X200168668Y-106012300D01*
X200168668Y-106762300D01*
G36*
X200168668Y-105012300D02*
G01*
X198668668Y-105012300D01*
X198668668Y-104262300D01*
X200168668Y-104262300D01*
X200168668Y-105012300D01*
G37*
X200168668Y-105012300D02*
X198668668Y-105012300D01*
X198668668Y-104262300D01*
X200168668Y-104262300D01*
X200168668Y-105012300D01*
G04 #@! TO.C,S2*
G36*
X109918668Y-39289800D02*
G01*
X108418668Y-39289800D01*
X108418668Y-38539800D01*
X109918668Y-38539800D01*
X109918668Y-39289800D01*
G37*
X109918668Y-39289800D02*
X108418668Y-39289800D01*
X108418668Y-38539800D01*
X109918668Y-38539800D01*
X109918668Y-39289800D01*
G36*
X109918668Y-41039800D02*
G01*
X108418668Y-41039800D01*
X108418668Y-40289800D01*
X109918668Y-40289800D01*
X109918668Y-41039800D01*
G37*
X109918668Y-41039800D02*
X108418668Y-41039800D01*
X108418668Y-40289800D01*
X109918668Y-40289800D01*
X109918668Y-41039800D01*
G36*
X104918668Y-41039800D02*
G01*
X103418668Y-41039800D01*
X103418668Y-40289800D01*
X104918668Y-40289800D01*
X104918668Y-41039800D01*
G37*
X104918668Y-41039800D02*
X103418668Y-41039800D01*
X103418668Y-40289800D01*
X104918668Y-40289800D01*
X104918668Y-41039800D01*
G36*
X104918668Y-39289800D02*
G01*
X103418668Y-39289800D01*
X103418668Y-38539800D01*
X104918668Y-38539800D01*
X104918668Y-39289800D01*
G37*
X104918668Y-39289800D02*
X103418668Y-39289800D01*
X103418668Y-38539800D01*
X104918668Y-38539800D01*
X104918668Y-39289800D01*
G04 #@! TO.C,S27*
G36*
X186118668Y-96630300D02*
G01*
X184618668Y-96630300D01*
X184618668Y-95880300D01*
X186118668Y-95880300D01*
X186118668Y-96630300D01*
G37*
X186118668Y-96630300D02*
X184618668Y-96630300D01*
X184618668Y-95880300D01*
X186118668Y-95880300D01*
X186118668Y-96630300D01*
G36*
X186118668Y-98380300D02*
G01*
X184618668Y-98380300D01*
X184618668Y-97630300D01*
X186118668Y-97630300D01*
X186118668Y-98380300D01*
G37*
X186118668Y-98380300D02*
X184618668Y-98380300D01*
X184618668Y-97630300D01*
X186118668Y-97630300D01*
X186118668Y-98380300D01*
G36*
X181118668Y-98380300D02*
G01*
X179618668Y-98380300D01*
X179618668Y-97630300D01*
X181118668Y-97630300D01*
X181118668Y-98380300D01*
G37*
X181118668Y-98380300D02*
X179618668Y-98380300D01*
X179618668Y-97630300D01*
X181118668Y-97630300D01*
X181118668Y-98380300D01*
G36*
X181118668Y-96630300D02*
G01*
X179618668Y-96630300D01*
X179618668Y-95880300D01*
X181118668Y-95880300D01*
X181118668Y-96630300D01*
G37*
X181118668Y-96630300D02*
X179618668Y-96630300D01*
X179618668Y-95880300D01*
X181118668Y-95880300D01*
X181118668Y-96630300D01*
G04 #@! TO.C,S21*
G36*
X167068668Y-69769800D02*
G01*
X165568668Y-69769800D01*
X165568668Y-69019800D01*
X167068668Y-69019800D01*
X167068668Y-69769800D01*
G37*
X167068668Y-69769800D02*
X165568668Y-69769800D01*
X165568668Y-69019800D01*
X167068668Y-69019800D01*
X167068668Y-69769800D01*
G36*
X167068668Y-71519800D02*
G01*
X165568668Y-71519800D01*
X165568668Y-70769800D01*
X167068668Y-70769800D01*
X167068668Y-71519800D01*
G37*
X167068668Y-71519800D02*
X165568668Y-71519800D01*
X165568668Y-70769800D01*
X167068668Y-70769800D01*
X167068668Y-71519800D01*
G36*
X162068668Y-71519800D02*
G01*
X160568668Y-71519800D01*
X160568668Y-70769800D01*
X162068668Y-70769800D01*
X162068668Y-71519800D01*
G37*
X162068668Y-71519800D02*
X160568668Y-71519800D01*
X160568668Y-70769800D01*
X162068668Y-70769800D01*
X162068668Y-71519800D01*
G36*
X162068668Y-69769800D02*
G01*
X160568668Y-69769800D01*
X160568668Y-69019800D01*
X162068668Y-69019800D01*
X162068668Y-69769800D01*
G37*
X162068668Y-69769800D02*
X160568668Y-69769800D01*
X160568668Y-69019800D01*
X162068668Y-69019800D01*
X162068668Y-69769800D01*
G04 #@! TO.C,S16*
G36*
X148018668Y-74532300D02*
G01*
X146518668Y-74532300D01*
X146518668Y-73782300D01*
X148018668Y-73782300D01*
X148018668Y-74532300D01*
G37*
X148018668Y-74532300D02*
X146518668Y-74532300D01*
X146518668Y-73782300D01*
X148018668Y-73782300D01*
X148018668Y-74532300D01*
G36*
X148018668Y-76282300D02*
G01*
X146518668Y-76282300D01*
X146518668Y-75532300D01*
X148018668Y-75532300D01*
X148018668Y-76282300D01*
G37*
X148018668Y-76282300D02*
X146518668Y-76282300D01*
X146518668Y-75532300D01*
X148018668Y-75532300D01*
X148018668Y-76282300D01*
G36*
X143018668Y-76282300D02*
G01*
X141518668Y-76282300D01*
X141518668Y-75532300D01*
X143018668Y-75532300D01*
X143018668Y-76282300D01*
G37*
X143018668Y-76282300D02*
X141518668Y-76282300D01*
X141518668Y-75532300D01*
X143018668Y-75532300D01*
X143018668Y-76282300D01*
G36*
X143018668Y-74532300D02*
G01*
X141518668Y-74532300D01*
X141518668Y-73782300D01*
X143018668Y-73782300D01*
X143018668Y-74532300D01*
G37*
X143018668Y-74532300D02*
X141518668Y-74532300D01*
X141518668Y-73782300D01*
X143018668Y-73782300D01*
X143018668Y-74532300D01*
G04 #@! TO.C,S17*
G36*
X148018668Y-93582300D02*
G01*
X146518668Y-93582300D01*
X146518668Y-92832300D01*
X148018668Y-92832300D01*
X148018668Y-93582300D01*
G37*
X148018668Y-93582300D02*
X146518668Y-93582300D01*
X146518668Y-92832300D01*
X148018668Y-92832300D01*
X148018668Y-93582300D01*
G36*
X148018668Y-95332300D02*
G01*
X146518668Y-95332300D01*
X146518668Y-94582300D01*
X148018668Y-94582300D01*
X148018668Y-95332300D01*
G37*
X148018668Y-95332300D02*
X146518668Y-95332300D01*
X146518668Y-94582300D01*
X148018668Y-94582300D01*
X148018668Y-95332300D01*
G36*
X143018668Y-95332300D02*
G01*
X141518668Y-95332300D01*
X141518668Y-94582300D01*
X143018668Y-94582300D01*
X143018668Y-95332300D01*
G37*
X143018668Y-95332300D02*
X141518668Y-95332300D01*
X141518668Y-94582300D01*
X143018668Y-94582300D01*
X143018668Y-95332300D01*
G36*
X143018668Y-93582300D02*
G01*
X141518668Y-93582300D01*
X141518668Y-92832300D01*
X143018668Y-92832300D01*
X143018668Y-93582300D01*
G37*
X143018668Y-93582300D02*
X141518668Y-93582300D01*
X141518668Y-92832300D01*
X143018668Y-92832300D01*
X143018668Y-93582300D01*
G04 #@! TO.C,S13*
G36*
X133198938Y-117729550D02*
G01*
X131743494Y-118092433D01*
X131562053Y-117364711D01*
X133017496Y-117001828D01*
X133198938Y-117729550D01*
G37*
X133198938Y-117729550D02*
X131743494Y-118092433D01*
X131562053Y-117364711D01*
X133017496Y-117001828D01*
X133198938Y-117729550D01*
G36*
X133622301Y-119427567D02*
G01*
X132166857Y-119790450D01*
X131985416Y-119062728D01*
X133440859Y-118699846D01*
X133622301Y-119427567D01*
G37*
X133622301Y-119427567D02*
X132166857Y-119790450D01*
X131985416Y-119062728D01*
X133440859Y-118699846D01*
X133622301Y-119427567D01*
G36*
X128770822Y-120637177D02*
G01*
X127315379Y-121000060D01*
X127133937Y-120272338D01*
X128589381Y-119909455D01*
X128770822Y-120637177D01*
G37*
X128770822Y-120637177D02*
X127315379Y-121000060D01*
X127133937Y-120272338D01*
X128589381Y-119909455D01*
X128770822Y-120637177D01*
G36*
X128347459Y-118939159D02*
G01*
X126892015Y-119302042D01*
X126710574Y-118574320D01*
X128166017Y-118211438D01*
X128347459Y-118939159D01*
G37*
X128347459Y-118939159D02*
X126892015Y-119302042D01*
X126710574Y-118574320D01*
X128166017Y-118211438D01*
X128347459Y-118939159D01*
G04 #@! TO.C,S35*
G36*
X224231368Y-107120500D02*
G01*
X222731368Y-107120500D01*
X222731368Y-106370500D01*
X224231368Y-106370500D01*
X224231368Y-107120500D01*
G37*
X224231368Y-107120500D02*
X222731368Y-107120500D01*
X222731368Y-106370500D01*
X224231368Y-106370500D01*
X224231368Y-107120500D01*
G36*
X224231368Y-108870500D02*
G01*
X222731368Y-108870500D01*
X222731368Y-108120500D01*
X224231368Y-108120500D01*
X224231368Y-108870500D01*
G37*
X224231368Y-108870500D02*
X222731368Y-108870500D01*
X222731368Y-108120500D01*
X224231368Y-108120500D01*
X224231368Y-108870500D01*
G36*
X219231368Y-108870500D02*
G01*
X217731368Y-108870500D01*
X217731368Y-108120500D01*
X219231368Y-108120500D01*
X219231368Y-108870500D01*
G37*
X219231368Y-108870500D02*
X217731368Y-108870500D01*
X217731368Y-108120500D01*
X219231368Y-108120500D01*
X219231368Y-108870500D01*
G36*
X219231368Y-107120500D02*
G01*
X217731368Y-107120500D01*
X217731368Y-106370500D01*
X219231368Y-106370500D01*
X219231368Y-107120500D01*
G37*
X219231368Y-107120500D02*
X217731368Y-107120500D01*
X217731368Y-106370500D01*
X219231368Y-106370500D01*
X219231368Y-107120500D01*
G04 #@! TO.C,S11*
G36*
X128968668Y-77389800D02*
G01*
X127468668Y-77389800D01*
X127468668Y-76639800D01*
X128968668Y-76639800D01*
X128968668Y-77389800D01*
G37*
X128968668Y-77389800D02*
X127468668Y-77389800D01*
X127468668Y-76639800D01*
X128968668Y-76639800D01*
X128968668Y-77389800D01*
G36*
X128968668Y-79139800D02*
G01*
X127468668Y-79139800D01*
X127468668Y-78389800D01*
X128968668Y-78389800D01*
X128968668Y-79139800D01*
G37*
X128968668Y-79139800D02*
X127468668Y-79139800D01*
X127468668Y-78389800D01*
X128968668Y-78389800D01*
X128968668Y-79139800D01*
G36*
X123968668Y-79139800D02*
G01*
X122468668Y-79139800D01*
X122468668Y-78389800D01*
X123968668Y-78389800D01*
X123968668Y-79139800D01*
G37*
X123968668Y-79139800D02*
X122468668Y-79139800D01*
X122468668Y-78389800D01*
X123968668Y-78389800D01*
X123968668Y-79139800D01*
G36*
X123968668Y-77389800D02*
G01*
X122468668Y-77389800D01*
X122468668Y-76639800D01*
X123968668Y-76639800D01*
X123968668Y-77389800D01*
G37*
X123968668Y-77389800D02*
X122468668Y-77389800D01*
X122468668Y-76639800D01*
X123968668Y-76639800D01*
X123968668Y-77389800D01*
G04 #@! TO.C,S3*
G36*
X109918668Y-58339800D02*
G01*
X108418668Y-58339800D01*
X108418668Y-57589800D01*
X109918668Y-57589800D01*
X109918668Y-58339800D01*
G37*
X109918668Y-58339800D02*
X108418668Y-58339800D01*
X108418668Y-57589800D01*
X109918668Y-57589800D01*
X109918668Y-58339800D01*
G36*
X109918668Y-60089800D02*
G01*
X108418668Y-60089800D01*
X108418668Y-59339800D01*
X109918668Y-59339800D01*
X109918668Y-60089800D01*
G37*
X109918668Y-60089800D02*
X108418668Y-60089800D01*
X108418668Y-59339800D01*
X109918668Y-59339800D01*
X109918668Y-60089800D01*
G36*
X104918668Y-60089800D02*
G01*
X103418668Y-60089800D01*
X103418668Y-59339800D01*
X104918668Y-59339800D01*
X104918668Y-60089800D01*
G37*
X104918668Y-60089800D02*
X103418668Y-60089800D01*
X103418668Y-59339800D01*
X104918668Y-59339800D01*
X104918668Y-60089800D01*
G36*
X104918668Y-58339800D02*
G01*
X103418668Y-58339800D01*
X103418668Y-57589800D01*
X104918668Y-57589800D01*
X104918668Y-58339800D01*
G37*
X104918668Y-58339800D02*
X103418668Y-58339800D01*
X103418668Y-57589800D01*
X104918668Y-57589800D01*
X104918668Y-58339800D01*
G04 #@! TO.C,S34*
G36*
X224231368Y-88070500D02*
G01*
X222731368Y-88070500D01*
X222731368Y-87320500D01*
X224231368Y-87320500D01*
X224231368Y-88070500D01*
G37*
X224231368Y-88070500D02*
X222731368Y-88070500D01*
X222731368Y-87320500D01*
X224231368Y-87320500D01*
X224231368Y-88070500D01*
G36*
X224231368Y-89820500D02*
G01*
X222731368Y-89820500D01*
X222731368Y-89070500D01*
X224231368Y-89070500D01*
X224231368Y-89820500D01*
G37*
X224231368Y-89820500D02*
X222731368Y-89820500D01*
X222731368Y-89070500D01*
X224231368Y-89070500D01*
X224231368Y-89820500D01*
G36*
X219231368Y-89820500D02*
G01*
X217731368Y-89820500D01*
X217731368Y-89070500D01*
X219231368Y-89070500D01*
X219231368Y-89820500D01*
G37*
X219231368Y-89820500D02*
X217731368Y-89820500D01*
X217731368Y-89070500D01*
X219231368Y-89070500D01*
X219231368Y-89820500D01*
G36*
X219231368Y-88070500D02*
G01*
X217731368Y-88070500D01*
X217731368Y-87320500D01*
X219231368Y-87320500D01*
X219231368Y-88070500D01*
G37*
X219231368Y-88070500D02*
X217731368Y-88070500D01*
X217731368Y-87320500D01*
X219231368Y-87320500D01*
X219231368Y-88070500D01*
G04 #@! TO.C,S25*
G36*
X186118668Y-58530300D02*
G01*
X184618668Y-58530300D01*
X184618668Y-57780300D01*
X186118668Y-57780300D01*
X186118668Y-58530300D01*
G37*
X186118668Y-58530300D02*
X184618668Y-58530300D01*
X184618668Y-57780300D01*
X186118668Y-57780300D01*
X186118668Y-58530300D01*
G36*
X186118668Y-60280300D02*
G01*
X184618668Y-60280300D01*
X184618668Y-59530300D01*
X186118668Y-59530300D01*
X186118668Y-60280300D01*
G37*
X186118668Y-60280300D02*
X184618668Y-60280300D01*
X184618668Y-59530300D01*
X186118668Y-59530300D01*
X186118668Y-60280300D01*
G36*
X181118668Y-60280300D02*
G01*
X179618668Y-60280300D01*
X179618668Y-59530300D01*
X181118668Y-59530300D01*
X181118668Y-60280300D01*
G37*
X181118668Y-60280300D02*
X179618668Y-60280300D01*
X179618668Y-59530300D01*
X181118668Y-59530300D01*
X181118668Y-60280300D01*
G36*
X181118668Y-58530300D02*
G01*
X179618668Y-58530300D01*
X179618668Y-57780300D01*
X181118668Y-57780300D01*
X181118668Y-58530300D01*
G37*
X181118668Y-58530300D02*
X179618668Y-58530300D01*
X179618668Y-57780300D01*
X181118668Y-57780300D01*
X181118668Y-58530300D01*
G04 #@! TO.C,S22*
G36*
X167068668Y-88819800D02*
G01*
X165568668Y-88819800D01*
X165568668Y-88069800D01*
X167068668Y-88069800D01*
X167068668Y-88819800D01*
G37*
X167068668Y-88819800D02*
X165568668Y-88819800D01*
X165568668Y-88069800D01*
X167068668Y-88069800D01*
X167068668Y-88819800D01*
G36*
X167068668Y-90569800D02*
G01*
X165568668Y-90569800D01*
X165568668Y-89819800D01*
X167068668Y-89819800D01*
X167068668Y-90569800D01*
G37*
X167068668Y-90569800D02*
X165568668Y-90569800D01*
X165568668Y-89819800D01*
X167068668Y-89819800D01*
X167068668Y-90569800D01*
G36*
X162068668Y-90569800D02*
G01*
X160568668Y-90569800D01*
X160568668Y-89819800D01*
X162068668Y-89819800D01*
X162068668Y-90569800D01*
G37*
X162068668Y-90569800D02*
X160568668Y-90569800D01*
X160568668Y-89819800D01*
X162068668Y-89819800D01*
X162068668Y-90569800D01*
G36*
X162068668Y-88819800D02*
G01*
X160568668Y-88819800D01*
X160568668Y-88069800D01*
X162068668Y-88069800D01*
X162068668Y-88819800D01*
G37*
X162068668Y-88819800D02*
X160568668Y-88819800D01*
X160568668Y-88069800D01*
X162068668Y-88069800D01*
X162068668Y-88819800D01*
G04 #@! TO.C,S4*
G36*
X109918668Y-77389800D02*
G01*
X108418668Y-77389800D01*
X108418668Y-76639800D01*
X109918668Y-76639800D01*
X109918668Y-77389800D01*
G37*
X109918668Y-77389800D02*
X108418668Y-77389800D01*
X108418668Y-76639800D01*
X109918668Y-76639800D01*
X109918668Y-77389800D01*
G36*
X109918668Y-79139800D02*
G01*
X108418668Y-79139800D01*
X108418668Y-78389800D01*
X109918668Y-78389800D01*
X109918668Y-79139800D01*
G37*
X109918668Y-79139800D02*
X108418668Y-79139800D01*
X108418668Y-78389800D01*
X109918668Y-78389800D01*
X109918668Y-79139800D01*
G36*
X104918668Y-79139800D02*
G01*
X103418668Y-79139800D01*
X103418668Y-78389800D01*
X104918668Y-78389800D01*
X104918668Y-79139800D01*
G37*
X104918668Y-79139800D02*
X103418668Y-79139800D01*
X103418668Y-78389800D01*
X104918668Y-78389800D01*
X104918668Y-79139800D01*
G36*
X104918668Y-77389800D02*
G01*
X103418668Y-77389800D01*
X103418668Y-76639800D01*
X104918668Y-76639800D01*
X104918668Y-77389800D01*
G37*
X104918668Y-77389800D02*
X103418668Y-77389800D01*
X103418668Y-76639800D01*
X104918668Y-76639800D01*
X104918668Y-77389800D01*
G04 #@! TO.C,S14*
G36*
X148018668Y-36432300D02*
G01*
X146518668Y-36432300D01*
X146518668Y-35682300D01*
X148018668Y-35682300D01*
X148018668Y-36432300D01*
G37*
X148018668Y-36432300D02*
X146518668Y-36432300D01*
X146518668Y-35682300D01*
X148018668Y-35682300D01*
X148018668Y-36432300D01*
G36*
X148018668Y-38182300D02*
G01*
X146518668Y-38182300D01*
X146518668Y-37432300D01*
X148018668Y-37432300D01*
X148018668Y-38182300D01*
G37*
X148018668Y-38182300D02*
X146518668Y-38182300D01*
X146518668Y-37432300D01*
X148018668Y-37432300D01*
X148018668Y-38182300D01*
G36*
X143018668Y-38182300D02*
G01*
X141518668Y-38182300D01*
X141518668Y-37432300D01*
X143018668Y-37432300D01*
X143018668Y-38182300D01*
G37*
X143018668Y-38182300D02*
X141518668Y-38182300D01*
X141518668Y-37432300D01*
X143018668Y-37432300D01*
X143018668Y-38182300D01*
G36*
X143018668Y-36432300D02*
G01*
X141518668Y-36432300D01*
X141518668Y-35682300D01*
X143018668Y-35682300D01*
X143018668Y-36432300D01*
G37*
X143018668Y-36432300D02*
X141518668Y-36432300D01*
X141518668Y-35682300D01*
X143018668Y-35682300D01*
X143018668Y-36432300D01*
G04 #@! TO.C,S20*
G36*
X167068668Y-50719800D02*
G01*
X165568668Y-50719800D01*
X165568668Y-49969800D01*
X167068668Y-49969800D01*
X167068668Y-50719800D01*
G37*
X167068668Y-50719800D02*
X165568668Y-50719800D01*
X165568668Y-49969800D01*
X167068668Y-49969800D01*
X167068668Y-50719800D01*
G36*
X167068668Y-52469800D02*
G01*
X165568668Y-52469800D01*
X165568668Y-51719800D01*
X167068668Y-51719800D01*
X167068668Y-52469800D01*
G37*
X167068668Y-52469800D02*
X165568668Y-52469800D01*
X165568668Y-51719800D01*
X167068668Y-51719800D01*
X167068668Y-52469800D01*
G36*
X162068668Y-52469800D02*
G01*
X160568668Y-52469800D01*
X160568668Y-51719800D01*
X162068668Y-51719800D01*
X162068668Y-52469800D01*
G37*
X162068668Y-52469800D02*
X160568668Y-52469800D01*
X160568668Y-51719800D01*
X162068668Y-51719800D01*
X162068668Y-52469800D01*
G36*
X162068668Y-50719800D02*
G01*
X160568668Y-50719800D01*
X160568668Y-49969800D01*
X162068668Y-49969800D01*
X162068668Y-50719800D01*
G37*
X162068668Y-50719800D02*
X160568668Y-50719800D01*
X160568668Y-49969800D01*
X162068668Y-49969800D01*
X162068668Y-50719800D01*
G04 #@! TO.C,S10*
G36*
X128968668Y-58339800D02*
G01*
X127468668Y-58339800D01*
X127468668Y-57589800D01*
X128968668Y-57589800D01*
X128968668Y-58339800D01*
G37*
X128968668Y-58339800D02*
X127468668Y-58339800D01*
X127468668Y-57589800D01*
X128968668Y-57589800D01*
X128968668Y-58339800D01*
G36*
X128968668Y-60089800D02*
G01*
X127468668Y-60089800D01*
X127468668Y-59339800D01*
X128968668Y-59339800D01*
X128968668Y-60089800D01*
G37*
X128968668Y-60089800D02*
X127468668Y-60089800D01*
X127468668Y-59339800D01*
X128968668Y-59339800D01*
X128968668Y-60089800D01*
G36*
X123968668Y-60089800D02*
G01*
X122468668Y-60089800D01*
X122468668Y-59339800D01*
X123968668Y-59339800D01*
X123968668Y-60089800D01*
G37*
X123968668Y-60089800D02*
X122468668Y-60089800D01*
X122468668Y-59339800D01*
X123968668Y-59339800D01*
X123968668Y-60089800D01*
G36*
X123968668Y-58339800D02*
G01*
X122468668Y-58339800D01*
X122468668Y-57589800D01*
X123968668Y-57589800D01*
X123968668Y-58339800D01*
G37*
X123968668Y-58339800D02*
X122468668Y-58339800D01*
X122468668Y-57589800D01*
X123968668Y-57589800D01*
X123968668Y-58339800D01*
G04 #@! TO.C,S9*
G36*
X128968668Y-39289800D02*
G01*
X127468668Y-39289800D01*
X127468668Y-38539800D01*
X128968668Y-38539800D01*
X128968668Y-39289800D01*
G37*
X128968668Y-39289800D02*
X127468668Y-39289800D01*
X127468668Y-38539800D01*
X128968668Y-38539800D01*
X128968668Y-39289800D01*
G36*
X128968668Y-41039800D02*
G01*
X127468668Y-41039800D01*
X127468668Y-40289800D01*
X128968668Y-40289800D01*
X128968668Y-41039800D01*
G37*
X128968668Y-41039800D02*
X127468668Y-41039800D01*
X127468668Y-40289800D01*
X128968668Y-40289800D01*
X128968668Y-41039800D01*
G36*
X123968668Y-41039800D02*
G01*
X122468668Y-41039800D01*
X122468668Y-40289800D01*
X123968668Y-40289800D01*
X123968668Y-41039800D01*
G37*
X123968668Y-41039800D02*
X122468668Y-41039800D01*
X122468668Y-40289800D01*
X123968668Y-40289800D01*
X123968668Y-41039800D01*
G36*
X123968668Y-39289800D02*
G01*
X122468668Y-39289800D01*
X122468668Y-38539800D01*
X123968668Y-38539800D01*
X123968668Y-39289800D01*
G37*
X123968668Y-39289800D02*
X122468668Y-39289800D01*
X122468668Y-38539800D01*
X123968668Y-38539800D01*
X123968668Y-39289800D01*
G04 #@! TO.C,S29*
G36*
X205168668Y-66912300D02*
G01*
X203668668Y-66912300D01*
X203668668Y-66162300D01*
X205168668Y-66162300D01*
X205168668Y-66912300D01*
G37*
X205168668Y-66912300D02*
X203668668Y-66912300D01*
X203668668Y-66162300D01*
X205168668Y-66162300D01*
X205168668Y-66912300D01*
G36*
X205168668Y-68662300D02*
G01*
X203668668Y-68662300D01*
X203668668Y-67912300D01*
X205168668Y-67912300D01*
X205168668Y-68662300D01*
G37*
X205168668Y-68662300D02*
X203668668Y-68662300D01*
X203668668Y-67912300D01*
X205168668Y-67912300D01*
X205168668Y-68662300D01*
G36*
X200168668Y-68662300D02*
G01*
X198668668Y-68662300D01*
X198668668Y-67912300D01*
X200168668Y-67912300D01*
X200168668Y-68662300D01*
G37*
X200168668Y-68662300D02*
X198668668Y-68662300D01*
X198668668Y-67912300D01*
X200168668Y-67912300D01*
X200168668Y-68662300D01*
G36*
X200168668Y-66912300D02*
G01*
X198668668Y-66912300D01*
X198668668Y-66162300D01*
X200168668Y-66162300D01*
X200168668Y-66912300D01*
G37*
X200168668Y-66912300D02*
X198668668Y-66912300D01*
X198668668Y-66162300D01*
X200168668Y-66162300D01*
X200168668Y-66912300D01*
G04 #@! TO.C,S18*
G36*
X155930768Y-115731100D02*
G01*
X154430768Y-115731100D01*
X154430768Y-114981100D01*
X155930768Y-114981100D01*
X155930768Y-115731100D01*
G37*
X155930768Y-115731100D02*
X154430768Y-115731100D01*
X154430768Y-114981100D01*
X155930768Y-114981100D01*
X155930768Y-115731100D01*
G36*
X155930768Y-117481100D02*
G01*
X154430768Y-117481100D01*
X154430768Y-116731100D01*
X155930768Y-116731100D01*
X155930768Y-117481100D01*
G37*
X155930768Y-117481100D02*
X154430768Y-117481100D01*
X154430768Y-116731100D01*
X155930768Y-116731100D01*
X155930768Y-117481100D01*
G36*
X150930768Y-117481100D02*
G01*
X149430768Y-117481100D01*
X149430768Y-116731100D01*
X150930768Y-116731100D01*
X150930768Y-117481100D01*
G37*
X150930768Y-117481100D02*
X149430768Y-117481100D01*
X149430768Y-116731100D01*
X150930768Y-116731100D01*
X150930768Y-117481100D01*
G36*
X150930768Y-115731100D02*
G01*
X149430768Y-115731100D01*
X149430768Y-114981100D01*
X150930768Y-114981100D01*
X150930768Y-115731100D01*
G37*
X150930768Y-115731100D02*
X149430768Y-115731100D01*
X149430768Y-114981100D01*
X150930768Y-114981100D01*
X150930768Y-115731100D01*
G04 #@! TO.C,S12*
G36*
X128968668Y-96439800D02*
G01*
X127468668Y-96439800D01*
X127468668Y-95689800D01*
X128968668Y-95689800D01*
X128968668Y-96439800D01*
G37*
X128968668Y-96439800D02*
X127468668Y-96439800D01*
X127468668Y-95689800D01*
X128968668Y-95689800D01*
X128968668Y-96439800D01*
G36*
X128968668Y-98189800D02*
G01*
X127468668Y-98189800D01*
X127468668Y-97439800D01*
X128968668Y-97439800D01*
X128968668Y-98189800D01*
G37*
X128968668Y-98189800D02*
X127468668Y-98189800D01*
X127468668Y-97439800D01*
X128968668Y-97439800D01*
X128968668Y-98189800D01*
G36*
X123968668Y-98189800D02*
G01*
X122468668Y-98189800D01*
X122468668Y-97439800D01*
X123968668Y-97439800D01*
X123968668Y-98189800D01*
G37*
X123968668Y-98189800D02*
X122468668Y-98189800D01*
X122468668Y-97439800D01*
X123968668Y-97439800D01*
X123968668Y-98189800D01*
G36*
X123968668Y-96439800D02*
G01*
X122468668Y-96439800D01*
X122468668Y-95689800D01*
X123968668Y-95689800D01*
X123968668Y-96439800D01*
G37*
X123968668Y-96439800D02*
X122468668Y-96439800D01*
X122468668Y-95689800D01*
X123968668Y-95689800D01*
X123968668Y-96439800D01*
G04 #@! TO.C,S19*
G36*
X167068668Y-31669800D02*
G01*
X165568668Y-31669800D01*
X165568668Y-30919800D01*
X167068668Y-30919800D01*
X167068668Y-31669800D01*
G37*
X167068668Y-31669800D02*
X165568668Y-31669800D01*
X165568668Y-30919800D01*
X167068668Y-30919800D01*
X167068668Y-31669800D01*
G36*
X167068668Y-33419800D02*
G01*
X165568668Y-33419800D01*
X165568668Y-32669800D01*
X167068668Y-32669800D01*
X167068668Y-33419800D01*
G37*
X167068668Y-33419800D02*
X165568668Y-33419800D01*
X165568668Y-32669800D01*
X167068668Y-32669800D01*
X167068668Y-33419800D01*
G36*
X162068668Y-33419800D02*
G01*
X160568668Y-33419800D01*
X160568668Y-32669800D01*
X162068668Y-32669800D01*
X162068668Y-33419800D01*
G37*
X162068668Y-33419800D02*
X160568668Y-33419800D01*
X160568668Y-32669800D01*
X162068668Y-32669800D01*
X162068668Y-33419800D01*
G36*
X162068668Y-31669800D02*
G01*
X160568668Y-31669800D01*
X160568668Y-30919800D01*
X162068668Y-30919800D01*
X162068668Y-31669800D01*
G37*
X162068668Y-31669800D02*
X160568668Y-31669800D01*
X160568668Y-30919800D01*
X162068668Y-30919800D01*
X162068668Y-31669800D01*
G04 #@! TO.C,S24*
G36*
X186118668Y-39480300D02*
G01*
X184618668Y-39480300D01*
X184618668Y-38730300D01*
X186118668Y-38730300D01*
X186118668Y-39480300D01*
G37*
X186118668Y-39480300D02*
X184618668Y-39480300D01*
X184618668Y-38730300D01*
X186118668Y-38730300D01*
X186118668Y-39480300D01*
G36*
X186118668Y-41230300D02*
G01*
X184618668Y-41230300D01*
X184618668Y-40480300D01*
X186118668Y-40480300D01*
X186118668Y-41230300D01*
G37*
X186118668Y-41230300D02*
X184618668Y-41230300D01*
X184618668Y-40480300D01*
X186118668Y-40480300D01*
X186118668Y-41230300D01*
G36*
X181118668Y-41230300D02*
G01*
X179618668Y-41230300D01*
X179618668Y-40480300D01*
X181118668Y-40480300D01*
X181118668Y-41230300D01*
G37*
X181118668Y-41230300D02*
X179618668Y-41230300D01*
X179618668Y-40480300D01*
X181118668Y-40480300D01*
X181118668Y-41230300D01*
G36*
X181118668Y-39480300D02*
G01*
X179618668Y-39480300D01*
X179618668Y-38730300D01*
X181118668Y-38730300D01*
X181118668Y-39480300D01*
G37*
X181118668Y-39480300D02*
X179618668Y-39480300D01*
X179618668Y-38730300D01*
X181118668Y-38730300D01*
X181118668Y-39480300D01*
G04 #@! TO.C,S15*
G36*
X148018668Y-55482300D02*
G01*
X146518668Y-55482300D01*
X146518668Y-54732300D01*
X148018668Y-54732300D01*
X148018668Y-55482300D01*
G37*
X148018668Y-55482300D02*
X146518668Y-55482300D01*
X146518668Y-54732300D01*
X148018668Y-54732300D01*
X148018668Y-55482300D01*
G36*
X148018668Y-57232300D02*
G01*
X146518668Y-57232300D01*
X146518668Y-56482300D01*
X148018668Y-56482300D01*
X148018668Y-57232300D01*
G37*
X148018668Y-57232300D02*
X146518668Y-57232300D01*
X146518668Y-56482300D01*
X148018668Y-56482300D01*
X148018668Y-57232300D01*
G36*
X143018668Y-57232300D02*
G01*
X141518668Y-57232300D01*
X141518668Y-56482300D01*
X143018668Y-56482300D01*
X143018668Y-57232300D01*
G37*
X143018668Y-57232300D02*
X141518668Y-57232300D01*
X141518668Y-56482300D01*
X143018668Y-56482300D01*
X143018668Y-57232300D01*
G36*
X143018668Y-55482300D02*
G01*
X141518668Y-55482300D01*
X141518668Y-54732300D01*
X143018668Y-54732300D01*
X143018668Y-55482300D01*
G37*
X143018668Y-55482300D02*
X141518668Y-55482300D01*
X141518668Y-54732300D01*
X143018668Y-54732300D01*
X143018668Y-55482300D01*
G04 #@! TO.C,S28*
G36*
X205168668Y-47862300D02*
G01*
X203668668Y-47862300D01*
X203668668Y-47112300D01*
X205168668Y-47112300D01*
X205168668Y-47862300D01*
G37*
X205168668Y-47862300D02*
X203668668Y-47862300D01*
X203668668Y-47112300D01*
X205168668Y-47112300D01*
X205168668Y-47862300D01*
G36*
X205168668Y-49612300D02*
G01*
X203668668Y-49612300D01*
X203668668Y-48862300D01*
X205168668Y-48862300D01*
X205168668Y-49612300D01*
G37*
X205168668Y-49612300D02*
X203668668Y-49612300D01*
X203668668Y-48862300D01*
X205168668Y-48862300D01*
X205168668Y-49612300D01*
G36*
X200168668Y-49612300D02*
G01*
X198668668Y-49612300D01*
X198668668Y-48862300D01*
X200168668Y-48862300D01*
X200168668Y-49612300D01*
G37*
X200168668Y-49612300D02*
X198668668Y-49612300D01*
X198668668Y-48862300D01*
X200168668Y-48862300D01*
X200168668Y-49612300D01*
G36*
X200168668Y-47862300D02*
G01*
X198668668Y-47862300D01*
X198668668Y-47112300D01*
X200168668Y-47112300D01*
X200168668Y-47862300D01*
G37*
X200168668Y-47862300D02*
X198668668Y-47862300D01*
X198668668Y-47112300D01*
X200168668Y-47112300D01*
X200168668Y-47862300D01*
G04 #@! TO.C,S33*
G36*
X224231368Y-69020500D02*
G01*
X222731368Y-69020500D01*
X222731368Y-68270500D01*
X224231368Y-68270500D01*
X224231368Y-69020500D01*
G37*
X224231368Y-69020500D02*
X222731368Y-69020500D01*
X222731368Y-68270500D01*
X224231368Y-68270500D01*
X224231368Y-69020500D01*
G36*
X224231368Y-70770500D02*
G01*
X222731368Y-70770500D01*
X222731368Y-70020500D01*
X224231368Y-70020500D01*
X224231368Y-70770500D01*
G37*
X224231368Y-70770500D02*
X222731368Y-70770500D01*
X222731368Y-70020500D01*
X224231368Y-70020500D01*
X224231368Y-70770500D01*
G36*
X219231368Y-70770500D02*
G01*
X217731368Y-70770500D01*
X217731368Y-70020500D01*
X219231368Y-70020500D01*
X219231368Y-70770500D01*
G37*
X219231368Y-70770500D02*
X217731368Y-70770500D01*
X217731368Y-70020500D01*
X219231368Y-70020500D01*
X219231368Y-70770500D01*
G36*
X219231368Y-69020500D02*
G01*
X217731368Y-69020500D01*
X217731368Y-68270500D01*
X219231368Y-68270500D01*
X219231368Y-69020500D01*
G37*
X219231368Y-69020500D02*
X217731368Y-69020500D01*
X217731368Y-68270500D01*
X219231368Y-68270500D01*
X219231368Y-69020500D01*
G04 #@! TO.C,S26*
G36*
X186118668Y-77580300D02*
G01*
X184618668Y-77580300D01*
X184618668Y-76830300D01*
X186118668Y-76830300D01*
X186118668Y-77580300D01*
G37*
X186118668Y-77580300D02*
X184618668Y-77580300D01*
X184618668Y-76830300D01*
X186118668Y-76830300D01*
X186118668Y-77580300D01*
G36*
X186118668Y-79330300D02*
G01*
X184618668Y-79330300D01*
X184618668Y-78580300D01*
X186118668Y-78580300D01*
X186118668Y-79330300D01*
G37*
X186118668Y-79330300D02*
X184618668Y-79330300D01*
X184618668Y-78580300D01*
X186118668Y-78580300D01*
X186118668Y-79330300D01*
G36*
X181118668Y-79330300D02*
G01*
X179618668Y-79330300D01*
X179618668Y-78580300D01*
X181118668Y-78580300D01*
X181118668Y-79330300D01*
G37*
X181118668Y-79330300D02*
X179618668Y-79330300D01*
X179618668Y-78580300D01*
X181118668Y-78580300D01*
X181118668Y-79330300D01*
G36*
X181118668Y-77580300D02*
G01*
X179618668Y-77580300D01*
X179618668Y-76830300D01*
X181118668Y-76830300D01*
X181118668Y-77580300D01*
G37*
X181118668Y-77580300D02*
X179618668Y-77580300D01*
X179618668Y-76830300D01*
X181118668Y-76830300D01*
X181118668Y-77580300D01*
G04 #@! TD*
D11*
G04 #@! TO.C,S5*
X107106791Y-135049441D03*
X115905609Y-129969441D03*
X102356791Y-126822200D03*
X111155609Y-121742200D03*
X97606791Y-118594959D03*
X106405609Y-113514959D03*
D12*
X111506200Y-132509441D03*
X106756200Y-124282200D03*
X102006200Y-116054959D03*
D13*
G36*
X103073546Y-130073657D02*
G01*
X103846324Y-129622620D01*
X103855233Y-129618532D01*
X103864768Y-129616261D01*
X103874563Y-129615894D01*
X103884241Y-129617445D01*
X103893431Y-129620855D01*
X103899320Y-129624237D01*
X104538769Y-130051795D01*
X104546343Y-130058015D01*
X104554406Y-130068583D01*
X105410024Y-131568356D01*
X105414022Y-131577305D01*
X105416200Y-131586861D01*
X105416470Y-131596659D01*
X105414823Y-131606322D01*
X105411323Y-131615477D01*
X105406105Y-131623774D01*
X105399368Y-131630894D01*
X105391482Y-131636499D01*
X103265592Y-132856549D01*
X103256653Y-132860571D01*
X103247102Y-132862772D01*
X103237305Y-132863067D01*
X103227638Y-132861446D01*
X103218474Y-132857969D01*
X103210164Y-132852771D01*
X103203027Y-132846052D01*
X103197403Y-132838183D01*
X102282253Y-131253097D01*
X101178071Y-131890597D01*
X99928071Y-129725533D01*
X102136435Y-128450533D01*
X103073546Y-130073657D01*
G37*
G36*
X115197514Y-126712985D02*
G01*
X114424736Y-127164022D01*
X114415827Y-127168110D01*
X114406292Y-127170381D01*
X114396497Y-127170748D01*
X114386819Y-127169197D01*
X114377629Y-127165787D01*
X114371740Y-127162405D01*
X113732291Y-126734847D01*
X113724717Y-126728627D01*
X113716654Y-126718059D01*
X112861036Y-125218286D01*
X112857038Y-125209337D01*
X112854860Y-125199781D01*
X112854590Y-125189983D01*
X112856237Y-125180320D01*
X112859737Y-125171165D01*
X112864955Y-125162868D01*
X112871692Y-125155748D01*
X112879578Y-125150143D01*
X115005468Y-123930093D01*
X115014407Y-123926071D01*
X115023958Y-123923870D01*
X115033755Y-123923575D01*
X115043422Y-123925196D01*
X115052586Y-123928673D01*
X115060896Y-123933871D01*
X115068033Y-123940590D01*
X115073657Y-123948459D01*
X115988807Y-125533545D01*
X117092989Y-124896045D01*
X118342989Y-127061109D01*
X116134625Y-128336109D01*
X115197514Y-126712985D01*
G37*
G36*
G01*
X111973394Y-125612077D02*
X114343527Y-127174891D01*
G75*
G02*
X114762969Y-129218251I-811959J-1231401D01*
G01*
X114762969Y-129218251D01*
G75*
G02*
X112719609Y-129637693I-1231401J811959D01*
G01*
X110349475Y-128074879D01*
G75*
G02*
X109930033Y-126031519I811959J1231401D01*
G01*
X109930033Y-126031519D01*
G75*
G02*
X111973393Y-125612077I1231401J-811959D01*
G01*
G37*
G36*
G01*
X108235457Y-129295407D02*
X108403828Y-132129409D01*
G75*
G02*
X107018901Y-133689290I-1472404J-87477D01*
G01*
X107018901Y-133689290D01*
G75*
G02*
X105459020Y-132304363I-87477J1472404D01*
G01*
X105290650Y-129470361D01*
G75*
G02*
X106675577Y-127910480I1472404J87477D01*
G01*
X106675577Y-127910480D01*
G75*
G02*
X108235458Y-129295407I87477J-1472404D01*
G01*
G37*
G36*
G01*
X110018283Y-127501235D02*
X109849912Y-124667233D01*
G75*
G02*
X111234839Y-123107352I1472404J87477D01*
G01*
X111234839Y-123107352D01*
G75*
G02*
X112794720Y-124492279I87477J-1472404D01*
G01*
X112963090Y-127326281D01*
G75*
G02*
X111578163Y-128886162I-1472404J-87477D01*
G01*
X111578163Y-128886162D01*
G75*
G02*
X110018282Y-127501235I-87477J1472404D01*
G01*
G37*
G36*
G01*
X105246943Y-119217032D02*
X105078572Y-116383030D01*
G75*
G02*
X106463499Y-114823149I1472404J87477D01*
G01*
X106463499Y-114823149D01*
G75*
G02*
X108023380Y-116208076I87477J-1472404D01*
G01*
X108191750Y-119042078D01*
G75*
G02*
X106806823Y-120601959I-1472404J-87477D01*
G01*
X106806823Y-120601959D01*
G75*
G02*
X105246942Y-119217032I-87477J1472404D01*
G01*
G37*
G36*
G01*
X106270346Y-131167244D02*
X103900213Y-129604430D01*
G75*
G02*
X103480771Y-127561070I811959J1231401D01*
G01*
X103480771Y-127561070D01*
G75*
G02*
X105524131Y-127141628I1231401J-811959D01*
G01*
X107894265Y-128704442D01*
G75*
G02*
X108313707Y-130747802I-811959J-1231401D01*
G01*
X108313707Y-130747802D01*
G75*
G02*
X106270347Y-131167244I-1231401J811959D01*
G01*
G37*
G36*
G01*
X101500346Y-122905362D02*
X99130213Y-121342548D01*
G75*
G02*
X98710771Y-119299188I811959J1231401D01*
G01*
X98710771Y-119299188D01*
G75*
G02*
X100754131Y-118879746I1231401J-811959D01*
G01*
X103124265Y-120442560D01*
G75*
G02*
X103543707Y-122485920I-811959J-1231401D01*
G01*
X103543707Y-122485920D01*
G75*
G02*
X101500347Y-122905362I-1231401J811959D01*
G01*
G37*
D14*
X114588955Y-125648930D03*
D13*
G36*
X97356435Y-120171330D02*
G01*
X98606435Y-122336394D01*
X96398071Y-123611394D01*
X95148071Y-121446330D01*
X97356435Y-120171330D01*
G37*
G36*
X110330768Y-115613534D02*
G01*
X111580768Y-117778598D01*
X109502308Y-118978598D01*
X108252308Y-116813534D01*
X110330768Y-115613534D01*
G37*
D14*
X104033086Y-131685628D03*
G04 #@! TD*
D11*
G04 #@! TO.C,S1*
X90683177Y-147626583D03*
X98466188Y-141095861D03*
X84576694Y-140349161D03*
X92359706Y-133818439D03*
X78470212Y-133071739D03*
X86253223Y-126541017D03*
D12*
X94574682Y-144361222D03*
X88468200Y-137083800D03*
X82361718Y-129806378D03*
D13*
G36*
X85847170Y-143426758D02*
G01*
X86529886Y-142848381D01*
X86537949Y-142842808D01*
X86546945Y-142838916D01*
X86556527Y-142836854D01*
X86566328Y-142836701D01*
X86575970Y-142838463D01*
X86582357Y-142840771D01*
X87286336Y-143150794D01*
X87294875Y-143155605D01*
X87304651Y-143164612D01*
X88407702Y-144493024D01*
X88413194Y-144501142D01*
X88416998Y-144510176D01*
X88418965Y-144519777D01*
X88419022Y-144529579D01*
X88417165Y-144539204D01*
X88413466Y-144548281D01*
X88408068Y-144556462D01*
X88401275Y-144563351D01*
X86519542Y-146134023D01*
X86511437Y-146139536D01*
X86502413Y-146143362D01*
X86492816Y-146145354D01*
X86483015Y-146145436D01*
X86473387Y-146143603D01*
X86464300Y-146139927D01*
X86456105Y-146134550D01*
X86449200Y-146127777D01*
X85272706Y-144725686D01*
X84295999Y-145545240D01*
X82689030Y-143630129D01*
X84642443Y-141991020D01*
X85847170Y-143426758D01*
G37*
G36*
X97203372Y-138011836D02*
G01*
X96520656Y-138590213D01*
X96512593Y-138595786D01*
X96503597Y-138599678D01*
X96494015Y-138601740D01*
X96484214Y-138601893D01*
X96474572Y-138600131D01*
X96468185Y-138597823D01*
X95764206Y-138287800D01*
X95755667Y-138282989D01*
X95745891Y-138273982D01*
X94642840Y-136945570D01*
X94637348Y-136937452D01*
X94633544Y-136928418D01*
X94631577Y-136918817D01*
X94631520Y-136909015D01*
X94633377Y-136899390D01*
X94637076Y-136890313D01*
X94642474Y-136882132D01*
X94649267Y-136875243D01*
X96531000Y-135304571D01*
X96539105Y-135299058D01*
X96548129Y-135295232D01*
X96557726Y-135293240D01*
X96567527Y-135293158D01*
X96577155Y-135294991D01*
X96586242Y-135298667D01*
X96594437Y-135304044D01*
X96601342Y-135310817D01*
X97777836Y-136712908D01*
X98754543Y-135893354D01*
X100361512Y-137808465D01*
X98408099Y-139447574D01*
X97203372Y-138011836D01*
G37*
G36*
G01*
X93837062Y-137487516D02*
X96442568Y-138615019D01*
G75*
G02*
X97210463Y-140554500I-585793J-1353688D01*
G01*
X97210463Y-140554500D01*
G75*
G02*
X95270982Y-141322395I-1353688J585793D01*
G01*
X92665476Y-140194893D01*
G75*
G02*
X91897581Y-138255412I585793J1353688D01*
G01*
X91897581Y-138255412D01*
G75*
G02*
X93837062Y-137487517I1353688J-585793D01*
G01*
G37*
G36*
G01*
X90795518Y-141763973D02*
X91453450Y-144525684D01*
G75*
G02*
X90360434Y-146302356I-1434844J-341828D01*
G01*
X90360434Y-146302356D01*
G75*
G02*
X88583762Y-145209340I-341828J1434844D01*
G01*
X87925830Y-142447630D01*
G75*
G02*
X89018846Y-140670958I1434844J341828D01*
G01*
X89018846Y-140670958D01*
G75*
G02*
X90795518Y-141763974I341828J-1434844D01*
G01*
G37*
G36*
G01*
X92239704Y-139687477D02*
X91581772Y-136925766D01*
G75*
G02*
X92674788Y-135149094I1434844J341828D01*
G01*
X92674788Y-135149094D01*
G75*
G02*
X94451460Y-136242110I341828J-1434844D01*
G01*
X95109392Y-139003820D01*
G75*
G02*
X94016376Y-140780492I-1434844J-341828D01*
G01*
X94016376Y-140780492D01*
G75*
G02*
X92239704Y-139687476I-341828J1434844D01*
G01*
G37*
G36*
G01*
X86102315Y-132357664D02*
X85444383Y-129595953D01*
G75*
G02*
X86537399Y-127819281I1434844J341828D01*
G01*
X86537399Y-127819281D01*
G75*
G02*
X88314071Y-128912297I341828J-1434844D01*
G01*
X88972003Y-131674007D01*
G75*
G02*
X87878987Y-133450679I-1434844J-341828D01*
G01*
X87878987Y-133450679D01*
G75*
G02*
X86102315Y-132357663I-341828J1434844D01*
G01*
G37*
G36*
G01*
X89185304Y-143948613D02*
X86579798Y-142821110D01*
G75*
G02*
X85811903Y-140881629I585793J1353688D01*
G01*
X85811903Y-140881629D01*
G75*
G02*
X87751384Y-140113734I1353688J-585793D01*
G01*
X90356890Y-141241236D01*
G75*
G02*
X91124785Y-143180717I-585793J-1353688D01*
G01*
X91124785Y-143180717D01*
G75*
G02*
X89185304Y-143948612I-1353688J585793D01*
G01*
G37*
G36*
G01*
X83053110Y-136640549D02*
X80447604Y-135513046D01*
G75*
G02*
X79679709Y-133573565I585793J1353688D01*
G01*
X79679709Y-133573565D01*
G75*
G02*
X81619190Y-132805670I1353688J-585793D01*
G01*
X84224696Y-133933172D01*
G75*
G02*
X84992591Y-135872653I-585793J-1353688D01*
G01*
X84992591Y-135872653D01*
G75*
G02*
X83053110Y-136640548I-1353688J585793D01*
G01*
G37*
D14*
X96419288Y-137069622D03*
D13*
G36*
X78497394Y-134667635D02*
G01*
X80104363Y-136582746D01*
X78150950Y-138221855D01*
X76543981Y-136306744D01*
X78497394Y-134667635D01*
G37*
G36*
X90483165Y-127926114D02*
G01*
X92090134Y-129841225D01*
X90251627Y-131383916D01*
X88644658Y-129468805D01*
X90483165Y-127926114D01*
G37*
D14*
X87072048Y-144847617D03*
G04 #@! TD*
D11*
G04 #@! TO.C,S32*
X226061368Y-56070500D03*
X215901368Y-56070500D03*
D12*
X220981368Y-56070500D03*
G36*
G01*
X218494651Y-57950803D02*
X219765839Y-60489307D01*
G75*
G02*
X219107407Y-62468629I-1318877J-660445D01*
G01*
X219107407Y-62468629D01*
G75*
G02*
X217128085Y-61810197I-660445J1318877D01*
G01*
X215856897Y-59271693D01*
G75*
G02*
X216515329Y-57292371I1318877J660445D01*
G01*
X216515329Y-57292371D01*
G75*
G02*
X218494651Y-57950803I660445J-1318877D01*
G01*
G37*
G36*
G01*
X226115840Y-59271693D02*
X224844651Y-61810197D01*
G75*
G02*
X222865329Y-62468629I-1318877J660445D01*
G01*
X222865329Y-62468629D01*
G75*
G02*
X222206897Y-60489307I660445J1318877D01*
G01*
X223478085Y-57950803D01*
G75*
G02*
X225457407Y-57292371I1318877J-660445D01*
G01*
X225457407Y-57292371D01*
G75*
G02*
X226115839Y-59271693I-660445J-1318877D01*
G01*
G37*
D15*
X227151368Y-61150500D03*
D16*
X213621368Y-58610500D03*
G04 #@! TD*
D11*
G04 #@! TO.C,S30*
X206998668Y-92062300D03*
X196838668Y-92062300D03*
D12*
X201918668Y-92062300D03*
G36*
G01*
X199431951Y-93942603D02*
X200703139Y-96481107D01*
G75*
G02*
X200044707Y-98460429I-1318877J-660445D01*
G01*
X200044707Y-98460429D01*
G75*
G02*
X198065385Y-97801997I-660445J1318877D01*
G01*
X196794197Y-95263493D01*
G75*
G02*
X197452629Y-93284171I1318877J660445D01*
G01*
X197452629Y-93284171D01*
G75*
G02*
X199431951Y-93942603I660445J-1318877D01*
G01*
G37*
G36*
G01*
X207053140Y-95263493D02*
X205781951Y-97801997D01*
G75*
G02*
X203802629Y-98460429I-1318877J660445D01*
G01*
X203802629Y-98460429D01*
G75*
G02*
X203144197Y-96481107I660445J1318877D01*
G01*
X204415385Y-93942603D01*
G75*
G02*
X206394707Y-93284171I1318877J-660445D01*
G01*
X206394707Y-93284171D01*
G75*
G02*
X207053139Y-95263493I-660445J-1318877D01*
G01*
G37*
D15*
X208088668Y-97142300D03*
D16*
X194558668Y-94602300D03*
G04 #@! TD*
D11*
G04 #@! TO.C,S31*
X206998668Y-111112300D03*
X196838668Y-111112300D03*
D12*
X201918668Y-111112300D03*
G36*
G01*
X199431951Y-112992603D02*
X200703139Y-115531107D01*
G75*
G02*
X200044707Y-117510429I-1318877J-660445D01*
G01*
X200044707Y-117510429D01*
G75*
G02*
X198065385Y-116851997I-660445J1318877D01*
G01*
X196794197Y-114313493D01*
G75*
G02*
X197452629Y-112334171I1318877J660445D01*
G01*
X197452629Y-112334171D01*
G75*
G02*
X199431951Y-112992603I660445J-1318877D01*
G01*
G37*
G36*
G01*
X207053140Y-114313493D02*
X205781951Y-116851997D01*
G75*
G02*
X203802629Y-117510429I-1318877J660445D01*
G01*
X203802629Y-117510429D01*
G75*
G02*
X203144197Y-115531107I660445J1318877D01*
G01*
X204415385Y-112992603D01*
G75*
G02*
X206394707Y-112334171I1318877J-660445D01*
G01*
X206394707Y-112334171D01*
G75*
G02*
X207053139Y-114313493I-660445J-1318877D01*
G01*
G37*
D15*
X208088668Y-116192300D03*
D16*
X194558668Y-113652300D03*
G04 #@! TD*
D11*
G04 #@! TO.C,S2*
X111748668Y-45389800D03*
X101588668Y-45389800D03*
D12*
X106668668Y-45389800D03*
G36*
G01*
X104181951Y-47270103D02*
X105453139Y-49808607D01*
G75*
G02*
X104794707Y-51787929I-1318877J-660445D01*
G01*
X104794707Y-51787929D01*
G75*
G02*
X102815385Y-51129497I-660445J1318877D01*
G01*
X101544197Y-48590993D01*
G75*
G02*
X102202629Y-46611671I1318877J660445D01*
G01*
X102202629Y-46611671D01*
G75*
G02*
X104181951Y-47270103I660445J-1318877D01*
G01*
G37*
G36*
G01*
X111803140Y-48590993D02*
X110531951Y-51129497D01*
G75*
G02*
X108552629Y-51787929I-1318877J660445D01*
G01*
X108552629Y-51787929D01*
G75*
G02*
X107894197Y-49808607I660445J1318877D01*
G01*
X109165385Y-47270103D01*
G75*
G02*
X111144707Y-46611671I1318877J-660445D01*
G01*
X111144707Y-46611671D01*
G75*
G02*
X111803139Y-48590993I-660445J-1318877D01*
G01*
G37*
D15*
X112838668Y-50469800D03*
D16*
X99308668Y-47929800D03*
G04 #@! TD*
D11*
G04 #@! TO.C,S27*
X187948668Y-102730300D03*
X177788668Y-102730300D03*
D12*
X182868668Y-102730300D03*
G36*
G01*
X180381951Y-104610603D02*
X181653139Y-107149107D01*
G75*
G02*
X180994707Y-109128429I-1318877J-660445D01*
G01*
X180994707Y-109128429D01*
G75*
G02*
X179015385Y-108469997I-660445J1318877D01*
G01*
X177744197Y-105931493D01*
G75*
G02*
X178402629Y-103952171I1318877J660445D01*
G01*
X178402629Y-103952171D01*
G75*
G02*
X180381951Y-104610603I660445J-1318877D01*
G01*
G37*
G36*
G01*
X188003140Y-105931493D02*
X186731951Y-108469997D01*
G75*
G02*
X184752629Y-109128429I-1318877J660445D01*
G01*
X184752629Y-109128429D01*
G75*
G02*
X184094197Y-107149107I660445J1318877D01*
G01*
X185365385Y-104610603D01*
G75*
G02*
X187344707Y-103952171I1318877J-660445D01*
G01*
X187344707Y-103952171D01*
G75*
G02*
X188003139Y-105931493I-660445J-1318877D01*
G01*
G37*
D15*
X189038668Y-107810300D03*
D16*
X175508668Y-105270300D03*
G04 #@! TD*
D11*
G04 #@! TO.C,S21*
X168898668Y-75869800D03*
X158738668Y-75869800D03*
D12*
X163818668Y-75869800D03*
G36*
G01*
X161331951Y-77750103D02*
X162603139Y-80288607D01*
G75*
G02*
X161944707Y-82267929I-1318877J-660445D01*
G01*
X161944707Y-82267929D01*
G75*
G02*
X159965385Y-81609497I-660445J1318877D01*
G01*
X158694197Y-79070993D01*
G75*
G02*
X159352629Y-77091671I1318877J660445D01*
G01*
X159352629Y-77091671D01*
G75*
G02*
X161331951Y-77750103I660445J-1318877D01*
G01*
G37*
G36*
G01*
X168953140Y-79070993D02*
X167681951Y-81609497D01*
G75*
G02*
X165702629Y-82267929I-1318877J660445D01*
G01*
X165702629Y-82267929D01*
G75*
G02*
X165044197Y-80288607I660445J1318877D01*
G01*
X166315385Y-77750103D01*
G75*
G02*
X168294707Y-77091671I1318877J-660445D01*
G01*
X168294707Y-77091671D01*
G75*
G02*
X168953139Y-79070993I-660445J-1318877D01*
G01*
G37*
D15*
X169988668Y-80949800D03*
D16*
X156458668Y-78409800D03*
G04 #@! TD*
D11*
G04 #@! TO.C,S16*
X149848668Y-80632300D03*
X139688668Y-80632300D03*
D12*
X144768668Y-80632300D03*
G36*
G01*
X142281951Y-82512603D02*
X143553139Y-85051107D01*
G75*
G02*
X142894707Y-87030429I-1318877J-660445D01*
G01*
X142894707Y-87030429D01*
G75*
G02*
X140915385Y-86371997I-660445J1318877D01*
G01*
X139644197Y-83833493D01*
G75*
G02*
X140302629Y-81854171I1318877J660445D01*
G01*
X140302629Y-81854171D01*
G75*
G02*
X142281951Y-82512603I660445J-1318877D01*
G01*
G37*
G36*
G01*
X149903140Y-83833493D02*
X148631951Y-86371997D01*
G75*
G02*
X146652629Y-87030429I-1318877J660445D01*
G01*
X146652629Y-87030429D01*
G75*
G02*
X145994197Y-85051107I660445J1318877D01*
G01*
X147265385Y-82512603D01*
G75*
G02*
X149244707Y-81854171I1318877J-660445D01*
G01*
X149244707Y-81854171D01*
G75*
G02*
X149903139Y-83833493I-660445J-1318877D01*
G01*
G37*
D15*
X150938668Y-85712300D03*
D16*
X137408668Y-83172300D03*
G04 #@! TD*
D11*
G04 #@! TO.C,S17*
X149848668Y-99682300D03*
X139688668Y-99682300D03*
D12*
X144768668Y-99682300D03*
G36*
G01*
X142281951Y-101562603D02*
X143553139Y-104101107D01*
G75*
G02*
X142894707Y-106080429I-1318877J-660445D01*
G01*
X142894707Y-106080429D01*
G75*
G02*
X140915385Y-105421997I-660445J1318877D01*
G01*
X139644197Y-102883493D01*
G75*
G02*
X140302629Y-100904171I1318877J660445D01*
G01*
X140302629Y-100904171D01*
G75*
G02*
X142281951Y-101562603I660445J-1318877D01*
G01*
G37*
G36*
G01*
X149903140Y-102883493D02*
X148631951Y-105421997D01*
G75*
G02*
X146652629Y-106080429I-1318877J660445D01*
G01*
X146652629Y-106080429D01*
G75*
G02*
X145994197Y-104101107I660445J1318877D01*
G01*
X147265385Y-101562603D01*
G75*
G02*
X149244707Y-100904171I1318877J-660445D01*
G01*
X149244707Y-100904171D01*
G75*
G02*
X149903139Y-102883493I-660445J-1318877D01*
G01*
G37*
D15*
X150938668Y-104762300D03*
D16*
X137408668Y-102222300D03*
G04 #@! TD*
D11*
G04 #@! TO.C,S13*
X136450302Y-123205637D03*
X126592098Y-125663563D03*
D12*
X131521200Y-124434600D03*
G36*
G01*
X129563236Y-126860641D02*
X131410784Y-129016213D01*
G75*
G02*
X131250751Y-131096030I-1119925J-959892D01*
G01*
X131250751Y-131096030D01*
G75*
G02*
X129170934Y-130935997I-959892J1119925D01*
G01*
X127323386Y-128780425D01*
G75*
G02*
X127483419Y-126700608I1119925J959892D01*
G01*
X127483419Y-126700608D01*
G75*
G02*
X129563236Y-126860641I959892J-1119925D01*
G01*
G37*
G36*
G01*
X137277595Y-126298562D02*
X136658286Y-129069190D01*
G75*
G02*
X134897048Y-130186906I-1439477J321761D01*
G01*
X134897048Y-130186906D01*
G75*
G02*
X133779332Y-128425668I321761J1439477D01*
G01*
X134398640Y-125655040D01*
G75*
G02*
X136159878Y-124537324I1439477J-321761D01*
G01*
X136159878Y-124537324D01*
G75*
G02*
X137277594Y-126298562I-321761J-1439477D01*
G01*
G37*
D13*
G36*
X139598841Y-126367868D02*
G01*
X140203645Y-128793607D01*
X137874935Y-129374220D01*
X137270131Y-126948481D01*
X139598841Y-126367868D01*
G37*
G36*
X125929030Y-127158376D02*
G01*
X126533834Y-129584115D01*
X124059580Y-130201016D01*
X123454776Y-127775277D01*
X125929030Y-127158376D01*
G37*
G04 #@! TD*
D11*
G04 #@! TO.C,S35*
X226061368Y-113220500D03*
X215901368Y-113220500D03*
D12*
X220981368Y-113220500D03*
G36*
G01*
X218494651Y-115100803D02*
X219765839Y-117639307D01*
G75*
G02*
X219107407Y-119618629I-1318877J-660445D01*
G01*
X219107407Y-119618629D01*
G75*
G02*
X217128085Y-118960197I-660445J1318877D01*
G01*
X215856897Y-116421693D01*
G75*
G02*
X216515329Y-114442371I1318877J660445D01*
G01*
X216515329Y-114442371D01*
G75*
G02*
X218494651Y-115100803I660445J-1318877D01*
G01*
G37*
G36*
G01*
X226115840Y-116421693D02*
X224844651Y-118960197D01*
G75*
G02*
X222865329Y-119618629I-1318877J660445D01*
G01*
X222865329Y-119618629D01*
G75*
G02*
X222206897Y-117639307I660445J1318877D01*
G01*
X223478085Y-115100803D01*
G75*
G02*
X225457407Y-114442371I1318877J-660445D01*
G01*
X225457407Y-114442371D01*
G75*
G02*
X226115839Y-116421693I-660445J-1318877D01*
G01*
G37*
D15*
X227151368Y-118300500D03*
D16*
X213621368Y-115760500D03*
G04 #@! TD*
D11*
G04 #@! TO.C,S11*
X130798668Y-83489800D03*
X120638668Y-83489800D03*
D12*
X125718668Y-83489800D03*
G36*
G01*
X123231951Y-85370103D02*
X124503139Y-87908607D01*
G75*
G02*
X123844707Y-89887929I-1318877J-660445D01*
G01*
X123844707Y-89887929D01*
G75*
G02*
X121865385Y-89229497I-660445J1318877D01*
G01*
X120594197Y-86690993D01*
G75*
G02*
X121252629Y-84711671I1318877J660445D01*
G01*
X121252629Y-84711671D01*
G75*
G02*
X123231951Y-85370103I660445J-1318877D01*
G01*
G37*
G36*
G01*
X130853140Y-86690993D02*
X129581951Y-89229497D01*
G75*
G02*
X127602629Y-89887929I-1318877J660445D01*
G01*
X127602629Y-89887929D01*
G75*
G02*
X126944197Y-87908607I660445J1318877D01*
G01*
X128215385Y-85370103D01*
G75*
G02*
X130194707Y-84711671I1318877J-660445D01*
G01*
X130194707Y-84711671D01*
G75*
G02*
X130853139Y-86690993I-660445J-1318877D01*
G01*
G37*
D15*
X131888668Y-88569800D03*
D16*
X118358668Y-86029800D03*
G04 #@! TD*
D11*
G04 #@! TO.C,S3*
X111748668Y-64439800D03*
X101588668Y-64439800D03*
D12*
X106668668Y-64439800D03*
G36*
G01*
X104181951Y-66320103D02*
X105453139Y-68858607D01*
G75*
G02*
X104794707Y-70837929I-1318877J-660445D01*
G01*
X104794707Y-70837929D01*
G75*
G02*
X102815385Y-70179497I-660445J1318877D01*
G01*
X101544197Y-67640993D01*
G75*
G02*
X102202629Y-65661671I1318877J660445D01*
G01*
X102202629Y-65661671D01*
G75*
G02*
X104181951Y-66320103I660445J-1318877D01*
G01*
G37*
G36*
G01*
X111803140Y-67640993D02*
X110531951Y-70179497D01*
G75*
G02*
X108552629Y-70837929I-1318877J660445D01*
G01*
X108552629Y-70837929D01*
G75*
G02*
X107894197Y-68858607I660445J1318877D01*
G01*
X109165385Y-66320103D01*
G75*
G02*
X111144707Y-65661671I1318877J-660445D01*
G01*
X111144707Y-65661671D01*
G75*
G02*
X111803139Y-67640993I-660445J-1318877D01*
G01*
G37*
D15*
X112838668Y-69519800D03*
D16*
X99308668Y-66979800D03*
G04 #@! TD*
D11*
G04 #@! TO.C,S34*
X226061368Y-94170500D03*
X215901368Y-94170500D03*
D12*
X220981368Y-94170500D03*
G36*
G01*
X218494651Y-96050803D02*
X219765839Y-98589307D01*
G75*
G02*
X219107407Y-100568629I-1318877J-660445D01*
G01*
X219107407Y-100568629D01*
G75*
G02*
X217128085Y-99910197I-660445J1318877D01*
G01*
X215856897Y-97371693D01*
G75*
G02*
X216515329Y-95392371I1318877J660445D01*
G01*
X216515329Y-95392371D01*
G75*
G02*
X218494651Y-96050803I660445J-1318877D01*
G01*
G37*
G36*
G01*
X226115840Y-97371693D02*
X224844651Y-99910197D01*
G75*
G02*
X222865329Y-100568629I-1318877J660445D01*
G01*
X222865329Y-100568629D01*
G75*
G02*
X222206897Y-98589307I660445J1318877D01*
G01*
X223478085Y-96050803D01*
G75*
G02*
X225457407Y-95392371I1318877J-660445D01*
G01*
X225457407Y-95392371D01*
G75*
G02*
X226115839Y-97371693I-660445J-1318877D01*
G01*
G37*
D15*
X227151368Y-99250500D03*
D16*
X213621368Y-96710500D03*
G04 #@! TD*
D11*
G04 #@! TO.C,S25*
X187948668Y-64630300D03*
X177788668Y-64630300D03*
D12*
X182868668Y-64630300D03*
G36*
G01*
X180381951Y-66510603D02*
X181653139Y-69049107D01*
G75*
G02*
X180994707Y-71028429I-1318877J-660445D01*
G01*
X180994707Y-71028429D01*
G75*
G02*
X179015385Y-70369997I-660445J1318877D01*
G01*
X177744197Y-67831493D01*
G75*
G02*
X178402629Y-65852171I1318877J660445D01*
G01*
X178402629Y-65852171D01*
G75*
G02*
X180381951Y-66510603I660445J-1318877D01*
G01*
G37*
G36*
G01*
X188003140Y-67831493D02*
X186731951Y-70369997D01*
G75*
G02*
X184752629Y-71028429I-1318877J660445D01*
G01*
X184752629Y-71028429D01*
G75*
G02*
X184094197Y-69049107I660445J1318877D01*
G01*
X185365385Y-66510603D01*
G75*
G02*
X187344707Y-65852171I1318877J-660445D01*
G01*
X187344707Y-65852171D01*
G75*
G02*
X188003139Y-67831493I-660445J-1318877D01*
G01*
G37*
D15*
X189038668Y-69710300D03*
D16*
X175508668Y-67170300D03*
G04 #@! TD*
D11*
G04 #@! TO.C,S22*
X168898668Y-94919800D03*
X158738668Y-94919800D03*
D12*
X163818668Y-94919800D03*
G36*
G01*
X161331951Y-96800103D02*
X162603139Y-99338607D01*
G75*
G02*
X161944707Y-101317929I-1318877J-660445D01*
G01*
X161944707Y-101317929D01*
G75*
G02*
X159965385Y-100659497I-660445J1318877D01*
G01*
X158694197Y-98120993D01*
G75*
G02*
X159352629Y-96141671I1318877J660445D01*
G01*
X159352629Y-96141671D01*
G75*
G02*
X161331951Y-96800103I660445J-1318877D01*
G01*
G37*
G36*
G01*
X168953140Y-98120993D02*
X167681951Y-100659497D01*
G75*
G02*
X165702629Y-101317929I-1318877J660445D01*
G01*
X165702629Y-101317929D01*
G75*
G02*
X165044197Y-99338607I660445J1318877D01*
G01*
X166315385Y-96800103D01*
G75*
G02*
X168294707Y-96141671I1318877J-660445D01*
G01*
X168294707Y-96141671D01*
G75*
G02*
X168953139Y-98120993I-660445J-1318877D01*
G01*
G37*
D15*
X169988668Y-99999800D03*
D16*
X156458668Y-97459800D03*
G04 #@! TD*
D11*
G04 #@! TO.C,S4*
X111748668Y-83489800D03*
X101588668Y-83489800D03*
D12*
X106668668Y-83489800D03*
G36*
G01*
X104181951Y-85370103D02*
X105453139Y-87908607D01*
G75*
G02*
X104794707Y-89887929I-1318877J-660445D01*
G01*
X104794707Y-89887929D01*
G75*
G02*
X102815385Y-89229497I-660445J1318877D01*
G01*
X101544197Y-86690993D01*
G75*
G02*
X102202629Y-84711671I1318877J660445D01*
G01*
X102202629Y-84711671D01*
G75*
G02*
X104181951Y-85370103I660445J-1318877D01*
G01*
G37*
G36*
G01*
X111803140Y-86690993D02*
X110531951Y-89229497D01*
G75*
G02*
X108552629Y-89887929I-1318877J660445D01*
G01*
X108552629Y-89887929D01*
G75*
G02*
X107894197Y-87908607I660445J1318877D01*
G01*
X109165385Y-85370103D01*
G75*
G02*
X111144707Y-84711671I1318877J-660445D01*
G01*
X111144707Y-84711671D01*
G75*
G02*
X111803139Y-86690993I-660445J-1318877D01*
G01*
G37*
D15*
X112838668Y-88569800D03*
D16*
X99308668Y-86029800D03*
G04 #@! TD*
D11*
G04 #@! TO.C,S14*
X149848668Y-42532300D03*
X139688668Y-42532300D03*
D12*
X144768668Y-42532300D03*
G36*
G01*
X142281951Y-44412603D02*
X143553139Y-46951107D01*
G75*
G02*
X142894707Y-48930429I-1318877J-660445D01*
G01*
X142894707Y-48930429D01*
G75*
G02*
X140915385Y-48271997I-660445J1318877D01*
G01*
X139644197Y-45733493D01*
G75*
G02*
X140302629Y-43754171I1318877J660445D01*
G01*
X140302629Y-43754171D01*
G75*
G02*
X142281951Y-44412603I660445J-1318877D01*
G01*
G37*
G36*
G01*
X149903140Y-45733493D02*
X148631951Y-48271997D01*
G75*
G02*
X146652629Y-48930429I-1318877J660445D01*
G01*
X146652629Y-48930429D01*
G75*
G02*
X145994197Y-46951107I660445J1318877D01*
G01*
X147265385Y-44412603D01*
G75*
G02*
X149244707Y-43754171I1318877J-660445D01*
G01*
X149244707Y-43754171D01*
G75*
G02*
X149903139Y-45733493I-660445J-1318877D01*
G01*
G37*
D15*
X150938668Y-47612300D03*
D16*
X137408668Y-45072300D03*
G04 #@! TD*
D11*
G04 #@! TO.C,S20*
X168898668Y-56819800D03*
X158738668Y-56819800D03*
D12*
X163818668Y-56819800D03*
G36*
G01*
X161331951Y-58700103D02*
X162603139Y-61238607D01*
G75*
G02*
X161944707Y-63217929I-1318877J-660445D01*
G01*
X161944707Y-63217929D01*
G75*
G02*
X159965385Y-62559497I-660445J1318877D01*
G01*
X158694197Y-60020993D01*
G75*
G02*
X159352629Y-58041671I1318877J660445D01*
G01*
X159352629Y-58041671D01*
G75*
G02*
X161331951Y-58700103I660445J-1318877D01*
G01*
G37*
G36*
G01*
X168953140Y-60020993D02*
X167681951Y-62559497D01*
G75*
G02*
X165702629Y-63217929I-1318877J660445D01*
G01*
X165702629Y-63217929D01*
G75*
G02*
X165044197Y-61238607I660445J1318877D01*
G01*
X166315385Y-58700103D01*
G75*
G02*
X168294707Y-58041671I1318877J-660445D01*
G01*
X168294707Y-58041671D01*
G75*
G02*
X168953139Y-60020993I-660445J-1318877D01*
G01*
G37*
D15*
X169988668Y-61899800D03*
D16*
X156458668Y-59359800D03*
G04 #@! TD*
D11*
G04 #@! TO.C,S10*
X130798668Y-64439800D03*
X120638668Y-64439800D03*
D12*
X125718668Y-64439800D03*
G36*
G01*
X123231951Y-66320103D02*
X124503139Y-68858607D01*
G75*
G02*
X123844707Y-70837929I-1318877J-660445D01*
G01*
X123844707Y-70837929D01*
G75*
G02*
X121865385Y-70179497I-660445J1318877D01*
G01*
X120594197Y-67640993D01*
G75*
G02*
X121252629Y-65661671I1318877J660445D01*
G01*
X121252629Y-65661671D01*
G75*
G02*
X123231951Y-66320103I660445J-1318877D01*
G01*
G37*
G36*
G01*
X130853140Y-67640993D02*
X129581951Y-70179497D01*
G75*
G02*
X127602629Y-70837929I-1318877J660445D01*
G01*
X127602629Y-70837929D01*
G75*
G02*
X126944197Y-68858607I660445J1318877D01*
G01*
X128215385Y-66320103D01*
G75*
G02*
X130194707Y-65661671I1318877J-660445D01*
G01*
X130194707Y-65661671D01*
G75*
G02*
X130853139Y-67640993I-660445J-1318877D01*
G01*
G37*
D15*
X131888668Y-69519800D03*
D16*
X118358668Y-66979800D03*
G04 #@! TD*
D11*
G04 #@! TO.C,S9*
X130798668Y-45389800D03*
X120638668Y-45389800D03*
D12*
X125718668Y-45389800D03*
G36*
G01*
X123231951Y-47270103D02*
X124503139Y-49808607D01*
G75*
G02*
X123844707Y-51787929I-1318877J-660445D01*
G01*
X123844707Y-51787929D01*
G75*
G02*
X121865385Y-51129497I-660445J1318877D01*
G01*
X120594197Y-48590993D01*
G75*
G02*
X121252629Y-46611671I1318877J660445D01*
G01*
X121252629Y-46611671D01*
G75*
G02*
X123231951Y-47270103I660445J-1318877D01*
G01*
G37*
G36*
G01*
X130853140Y-48590993D02*
X129581951Y-51129497D01*
G75*
G02*
X127602629Y-51787929I-1318877J660445D01*
G01*
X127602629Y-51787929D01*
G75*
G02*
X126944197Y-49808607I660445J1318877D01*
G01*
X128215385Y-47270103D01*
G75*
G02*
X130194707Y-46611671I1318877J-660445D01*
G01*
X130194707Y-46611671D01*
G75*
G02*
X130853139Y-48590993I-660445J-1318877D01*
G01*
G37*
D15*
X131888668Y-50469800D03*
D16*
X118358668Y-47929800D03*
G04 #@! TD*
D11*
G04 #@! TO.C,S29*
X206998668Y-73012300D03*
X196838668Y-73012300D03*
D12*
X201918668Y-73012300D03*
G36*
G01*
X199431951Y-74892603D02*
X200703139Y-77431107D01*
G75*
G02*
X200044707Y-79410429I-1318877J-660445D01*
G01*
X200044707Y-79410429D01*
G75*
G02*
X198065385Y-78751997I-660445J1318877D01*
G01*
X196794197Y-76213493D01*
G75*
G02*
X197452629Y-74234171I1318877J660445D01*
G01*
X197452629Y-74234171D01*
G75*
G02*
X199431951Y-74892603I660445J-1318877D01*
G01*
G37*
G36*
G01*
X207053140Y-76213493D02*
X205781951Y-78751997D01*
G75*
G02*
X203802629Y-79410429I-1318877J660445D01*
G01*
X203802629Y-79410429D01*
G75*
G02*
X203144197Y-77431107I660445J1318877D01*
G01*
X204415385Y-74892603D01*
G75*
G02*
X206394707Y-74234171I1318877J-660445D01*
G01*
X206394707Y-74234171D01*
G75*
G02*
X207053139Y-76213493I-660445J-1318877D01*
G01*
G37*
D15*
X208088668Y-78092300D03*
D16*
X194558668Y-75552300D03*
G04 #@! TD*
D11*
G04 #@! TO.C,S18*
X157760768Y-121831100D03*
X147600768Y-121831100D03*
D12*
X152680768Y-121831100D03*
G36*
G01*
X150194051Y-123711403D02*
X151465239Y-126249907D01*
G75*
G02*
X150806807Y-128229229I-1318877J-660445D01*
G01*
X150806807Y-128229229D01*
G75*
G02*
X148827485Y-127570797I-660445J1318877D01*
G01*
X147556297Y-125032293D01*
G75*
G02*
X148214729Y-123052971I1318877J660445D01*
G01*
X148214729Y-123052971D01*
G75*
G02*
X150194051Y-123711403I660445J-1318877D01*
G01*
G37*
G36*
G01*
X157815240Y-125032293D02*
X156544051Y-127570797D01*
G75*
G02*
X154564729Y-128229229I-1318877J660445D01*
G01*
X154564729Y-128229229D01*
G75*
G02*
X153906297Y-126249907I660445J1318877D01*
G01*
X155177485Y-123711403D01*
G75*
G02*
X157156807Y-123052971I1318877J-660445D01*
G01*
X157156807Y-123052971D01*
G75*
G02*
X157815239Y-125032293I-660445J-1318877D01*
G01*
G37*
D15*
X158850768Y-126911100D03*
D16*
X145320768Y-124371100D03*
G04 #@! TD*
D11*
G04 #@! TO.C,S12*
X130798668Y-102539800D03*
X120638668Y-102539800D03*
D12*
X125718668Y-102539800D03*
G36*
G01*
X123231951Y-104420103D02*
X124503139Y-106958607D01*
G75*
G02*
X123844707Y-108937929I-1318877J-660445D01*
G01*
X123844707Y-108937929D01*
G75*
G02*
X121865385Y-108279497I-660445J1318877D01*
G01*
X120594197Y-105740993D01*
G75*
G02*
X121252629Y-103761671I1318877J660445D01*
G01*
X121252629Y-103761671D01*
G75*
G02*
X123231951Y-104420103I660445J-1318877D01*
G01*
G37*
G36*
G01*
X130853140Y-105740993D02*
X129581951Y-108279497D01*
G75*
G02*
X127602629Y-108937929I-1318877J660445D01*
G01*
X127602629Y-108937929D01*
G75*
G02*
X126944197Y-106958607I660445J1318877D01*
G01*
X128215385Y-104420103D01*
G75*
G02*
X130194707Y-103761671I1318877J-660445D01*
G01*
X130194707Y-103761671D01*
G75*
G02*
X130853139Y-105740993I-660445J-1318877D01*
G01*
G37*
D15*
X131888668Y-107619800D03*
D16*
X118358668Y-105079800D03*
G04 #@! TD*
D11*
G04 #@! TO.C,S19*
X168898668Y-37769800D03*
X158738668Y-37769800D03*
D12*
X163818668Y-37769800D03*
G36*
G01*
X161331951Y-39650103D02*
X162603139Y-42188607D01*
G75*
G02*
X161944707Y-44167929I-1318877J-660445D01*
G01*
X161944707Y-44167929D01*
G75*
G02*
X159965385Y-43509497I-660445J1318877D01*
G01*
X158694197Y-40970993D01*
G75*
G02*
X159352629Y-38991671I1318877J660445D01*
G01*
X159352629Y-38991671D01*
G75*
G02*
X161331951Y-39650103I660445J-1318877D01*
G01*
G37*
G36*
G01*
X168953140Y-40970993D02*
X167681951Y-43509497D01*
G75*
G02*
X165702629Y-44167929I-1318877J660445D01*
G01*
X165702629Y-44167929D01*
G75*
G02*
X165044197Y-42188607I660445J1318877D01*
G01*
X166315385Y-39650103D01*
G75*
G02*
X168294707Y-38991671I1318877J-660445D01*
G01*
X168294707Y-38991671D01*
G75*
G02*
X168953139Y-40970993I-660445J-1318877D01*
G01*
G37*
D15*
X169988668Y-42849800D03*
D16*
X156458668Y-40309800D03*
G04 #@! TD*
D11*
G04 #@! TO.C,S24*
X187948668Y-45580300D03*
X177788668Y-45580300D03*
D12*
X182868668Y-45580300D03*
G36*
G01*
X180381951Y-47460603D02*
X181653139Y-49999107D01*
G75*
G02*
X180994707Y-51978429I-1318877J-660445D01*
G01*
X180994707Y-51978429D01*
G75*
G02*
X179015385Y-51319997I-660445J1318877D01*
G01*
X177744197Y-48781493D01*
G75*
G02*
X178402629Y-46802171I1318877J660445D01*
G01*
X178402629Y-46802171D01*
G75*
G02*
X180381951Y-47460603I660445J-1318877D01*
G01*
G37*
G36*
G01*
X188003140Y-48781493D02*
X186731951Y-51319997D01*
G75*
G02*
X184752629Y-51978429I-1318877J660445D01*
G01*
X184752629Y-51978429D01*
G75*
G02*
X184094197Y-49999107I660445J1318877D01*
G01*
X185365385Y-47460603D01*
G75*
G02*
X187344707Y-46802171I1318877J-660445D01*
G01*
X187344707Y-46802171D01*
G75*
G02*
X188003139Y-48781493I-660445J-1318877D01*
G01*
G37*
D15*
X189038668Y-50660300D03*
D16*
X175508668Y-48120300D03*
G04 #@! TD*
D11*
G04 #@! TO.C,S15*
X149848668Y-61582300D03*
X139688668Y-61582300D03*
D12*
X144768668Y-61582300D03*
G36*
G01*
X142281951Y-63462603D02*
X143553139Y-66001107D01*
G75*
G02*
X142894707Y-67980429I-1318877J-660445D01*
G01*
X142894707Y-67980429D01*
G75*
G02*
X140915385Y-67321997I-660445J1318877D01*
G01*
X139644197Y-64783493D01*
G75*
G02*
X140302629Y-62804171I1318877J660445D01*
G01*
X140302629Y-62804171D01*
G75*
G02*
X142281951Y-63462603I660445J-1318877D01*
G01*
G37*
G36*
G01*
X149903140Y-64783493D02*
X148631951Y-67321997D01*
G75*
G02*
X146652629Y-67980429I-1318877J660445D01*
G01*
X146652629Y-67980429D01*
G75*
G02*
X145994197Y-66001107I660445J1318877D01*
G01*
X147265385Y-63462603D01*
G75*
G02*
X149244707Y-62804171I1318877J-660445D01*
G01*
X149244707Y-62804171D01*
G75*
G02*
X149903139Y-64783493I-660445J-1318877D01*
G01*
G37*
D15*
X150938668Y-66662300D03*
D16*
X137408668Y-64122300D03*
G04 #@! TD*
D11*
G04 #@! TO.C,S28*
X206998668Y-53962300D03*
X196838668Y-53962300D03*
D12*
X201918668Y-53962300D03*
G36*
G01*
X199431951Y-55842603D02*
X200703139Y-58381107D01*
G75*
G02*
X200044707Y-60360429I-1318877J-660445D01*
G01*
X200044707Y-60360429D01*
G75*
G02*
X198065385Y-59701997I-660445J1318877D01*
G01*
X196794197Y-57163493D01*
G75*
G02*
X197452629Y-55184171I1318877J660445D01*
G01*
X197452629Y-55184171D01*
G75*
G02*
X199431951Y-55842603I660445J-1318877D01*
G01*
G37*
G36*
G01*
X207053140Y-57163493D02*
X205781951Y-59701997D01*
G75*
G02*
X203802629Y-60360429I-1318877J660445D01*
G01*
X203802629Y-60360429D01*
G75*
G02*
X203144197Y-58381107I660445J1318877D01*
G01*
X204415385Y-55842603D01*
G75*
G02*
X206394707Y-55184171I1318877J-660445D01*
G01*
X206394707Y-55184171D01*
G75*
G02*
X207053139Y-57163493I-660445J-1318877D01*
G01*
G37*
D15*
X208088668Y-59042300D03*
D16*
X194558668Y-56502300D03*
G04 #@! TD*
D11*
G04 #@! TO.C,S33*
X226061368Y-75120500D03*
X215901368Y-75120500D03*
D12*
X220981368Y-75120500D03*
G36*
G01*
X218494651Y-77000803D02*
X219765839Y-79539307D01*
G75*
G02*
X219107407Y-81518629I-1318877J-660445D01*
G01*
X219107407Y-81518629D01*
G75*
G02*
X217128085Y-80860197I-660445J1318877D01*
G01*
X215856897Y-78321693D01*
G75*
G02*
X216515329Y-76342371I1318877J660445D01*
G01*
X216515329Y-76342371D01*
G75*
G02*
X218494651Y-77000803I660445J-1318877D01*
G01*
G37*
G36*
G01*
X226115840Y-78321693D02*
X224844651Y-80860197D01*
G75*
G02*
X222865329Y-81518629I-1318877J660445D01*
G01*
X222865329Y-81518629D01*
G75*
G02*
X222206897Y-79539307I660445J1318877D01*
G01*
X223478085Y-77000803D01*
G75*
G02*
X225457407Y-76342371I1318877J-660445D01*
G01*
X225457407Y-76342371D01*
G75*
G02*
X226115839Y-78321693I-660445J-1318877D01*
G01*
G37*
D15*
X227151368Y-80200500D03*
D16*
X213621368Y-77660500D03*
G04 #@! TD*
D11*
G04 #@! TO.C,S26*
X187948668Y-83680300D03*
X177788668Y-83680300D03*
D12*
X182868668Y-83680300D03*
G36*
G01*
X180381951Y-85560603D02*
X181653139Y-88099107D01*
G75*
G02*
X180994707Y-90078429I-1318877J-660445D01*
G01*
X180994707Y-90078429D01*
G75*
G02*
X179015385Y-89419997I-660445J1318877D01*
G01*
X177744197Y-86881493D01*
G75*
G02*
X178402629Y-84902171I1318877J660445D01*
G01*
X178402629Y-84902171D01*
G75*
G02*
X180381951Y-85560603I660445J-1318877D01*
G01*
G37*
G36*
G01*
X188003140Y-86881493D02*
X186731951Y-89419997D01*
G75*
G02*
X184752629Y-90078429I-1318877J660445D01*
G01*
X184752629Y-90078429D01*
G75*
G02*
X184094197Y-88099107I660445J1318877D01*
G01*
X185365385Y-85560603D01*
G75*
G02*
X187344707Y-84902171I1318877J-660445D01*
G01*
X187344707Y-84902171D01*
G75*
G02*
X188003139Y-86881493I-660445J-1318877D01*
G01*
G37*
D15*
X189038668Y-88760300D03*
D16*
X175508668Y-86220300D03*
G04 #@! TD*
D17*
G04 #@! TO.C,P3*
X83312000Y-89357200D03*
X85852000Y-89357200D03*
X88392000Y-89357200D03*
D18*
X90932000Y-89357200D03*
G04 #@! TD*
G04 #@! TO.C,C46*
G36*
G01*
X94769650Y-47249600D02*
X94257150Y-47249600D01*
G75*
G02*
X94038400Y-47030850I0J218750D01*
G01*
X94038400Y-46593350D01*
G75*
G02*
X94257150Y-46374600I218750J0D01*
G01*
X94769650Y-46374600D01*
G75*
G02*
X94988400Y-46593350I0J-218750D01*
G01*
X94988400Y-47030850D01*
G75*
G02*
X94769650Y-47249600I-218750J0D01*
G01*
G37*
G36*
G01*
X94769650Y-48824600D02*
X94257150Y-48824600D01*
G75*
G02*
X94038400Y-48605850I0J218750D01*
G01*
X94038400Y-48168350D01*
G75*
G02*
X94257150Y-47949600I218750J0D01*
G01*
X94769650Y-47949600D01*
G75*
G02*
X94988400Y-48168350I0J-218750D01*
G01*
X94988400Y-48605850D01*
G75*
G02*
X94769650Y-48824600I-218750J0D01*
G01*
G37*
G04 #@! TD*
G04 #@! TO.C,C44*
G36*
G01*
X90193150Y-47949600D02*
X90705650Y-47949600D01*
G75*
G02*
X90924400Y-48168350I0J-218750D01*
G01*
X90924400Y-48605850D01*
G75*
G02*
X90705650Y-48824600I-218750J0D01*
G01*
X90193150Y-48824600D01*
G75*
G02*
X89974400Y-48605850I0J218750D01*
G01*
X89974400Y-48168350D01*
G75*
G02*
X90193150Y-47949600I218750J0D01*
G01*
G37*
G36*
G01*
X90193150Y-46374600D02*
X90705650Y-46374600D01*
G75*
G02*
X90924400Y-46593350I0J-218750D01*
G01*
X90924400Y-47030850D01*
G75*
G02*
X90705650Y-47249600I-218750J0D01*
G01*
X90193150Y-47249600D01*
G75*
G02*
X89974400Y-47030850I0J218750D01*
G01*
X89974400Y-46593350D01*
G75*
G02*
X90193150Y-46374600I218750J0D01*
G01*
G37*
G04 #@! TD*
D19*
G04 #@! TO.C,S6*
X78003400Y-91121600D03*
X78003400Y-89421600D03*
G04 #@! TD*
G04 #@! TO.C,C45*
G36*
G01*
X80434700Y-80236350D02*
X80434700Y-80748850D01*
G75*
G02*
X80215950Y-80967600I-218750J0D01*
G01*
X79778450Y-80967600D01*
G75*
G02*
X79559700Y-80748850I0J218750D01*
G01*
X79559700Y-80236350D01*
G75*
G02*
X79778450Y-80017600I218750J0D01*
G01*
X80215950Y-80017600D01*
G75*
G02*
X80434700Y-80236350I0J-218750D01*
G01*
G37*
G36*
G01*
X82009700Y-80236350D02*
X82009700Y-80748850D01*
G75*
G02*
X81790950Y-80967600I-218750J0D01*
G01*
X81353450Y-80967600D01*
G75*
G02*
X81134700Y-80748850I0J218750D01*
G01*
X81134700Y-80236350D01*
G75*
G02*
X81353450Y-80017600I218750J0D01*
G01*
X81790950Y-80017600D01*
G75*
G02*
X82009700Y-80236350I0J-218750D01*
G01*
G37*
G04 #@! TD*
G04 #@! TO.C,C43*
G36*
G01*
X80434700Y-78077350D02*
X80434700Y-78589850D01*
G75*
G02*
X80215950Y-78808600I-218750J0D01*
G01*
X79778450Y-78808600D01*
G75*
G02*
X79559700Y-78589850I0J218750D01*
G01*
X79559700Y-78077350D01*
G75*
G02*
X79778450Y-77858600I218750J0D01*
G01*
X80215950Y-77858600D01*
G75*
G02*
X80434700Y-78077350I0J-218750D01*
G01*
G37*
G36*
G01*
X82009700Y-78077350D02*
X82009700Y-78589850D01*
G75*
G02*
X81790950Y-78808600I-218750J0D01*
G01*
X81353450Y-78808600D01*
G75*
G02*
X81134700Y-78589850I0J218750D01*
G01*
X81134700Y-78077350D01*
G75*
G02*
X81353450Y-77858600I218750J0D01*
G01*
X81790950Y-77858600D01*
G75*
G02*
X82009700Y-78077350I0J-218750D01*
G01*
G37*
G04 #@! TD*
G04 #@! TO.C,R15*
G36*
G01*
X80434700Y-84236850D02*
X80434700Y-84749350D01*
G75*
G02*
X80215950Y-84968100I-218750J0D01*
G01*
X79778450Y-84968100D01*
G75*
G02*
X79559700Y-84749350I0J218750D01*
G01*
X79559700Y-84236850D01*
G75*
G02*
X79778450Y-84018100I218750J0D01*
G01*
X80215950Y-84018100D01*
G75*
G02*
X80434700Y-84236850I0J-218750D01*
G01*
G37*
G36*
G01*
X82009700Y-84236850D02*
X82009700Y-84749350D01*
G75*
G02*
X81790950Y-84968100I-218750J0D01*
G01*
X81353450Y-84968100D01*
G75*
G02*
X81134700Y-84749350I0J218750D01*
G01*
X81134700Y-84236850D01*
G75*
G02*
X81353450Y-84018100I218750J0D01*
G01*
X81790950Y-84018100D01*
G75*
G02*
X82009700Y-84236850I0J-218750D01*
G01*
G37*
G04 #@! TD*
G04 #@! TO.C,R16*
G36*
G01*
X80434700Y-82331850D02*
X80434700Y-82844350D01*
G75*
G02*
X80215950Y-83063100I-218750J0D01*
G01*
X79778450Y-83063100D01*
G75*
G02*
X79559700Y-82844350I0J218750D01*
G01*
X79559700Y-82331850D01*
G75*
G02*
X79778450Y-82113100I218750J0D01*
G01*
X80215950Y-82113100D01*
G75*
G02*
X80434700Y-82331850I0J-218750D01*
G01*
G37*
G36*
G01*
X82009700Y-82331850D02*
X82009700Y-82844350D01*
G75*
G02*
X81790950Y-83063100I-218750J0D01*
G01*
X81353450Y-83063100D01*
G75*
G02*
X81134700Y-82844350I0J218750D01*
G01*
X81134700Y-82331850D01*
G75*
G02*
X81353450Y-82113100I218750J0D01*
G01*
X81790950Y-82113100D01*
G75*
G02*
X82009700Y-82331850I0J-218750D01*
G01*
G37*
G04 #@! TD*
G04 #@! TO.C,R10*
G36*
G01*
X80421900Y-76070750D02*
X80421900Y-76583250D01*
G75*
G02*
X80203150Y-76802000I-218750J0D01*
G01*
X79765650Y-76802000D01*
G75*
G02*
X79546900Y-76583250I0J218750D01*
G01*
X79546900Y-76070750D01*
G75*
G02*
X79765650Y-75852000I218750J0D01*
G01*
X80203150Y-75852000D01*
G75*
G02*
X80421900Y-76070750I0J-218750D01*
G01*
G37*
G36*
G01*
X81996900Y-76070750D02*
X81996900Y-76583250D01*
G75*
G02*
X81778150Y-76802000I-218750J0D01*
G01*
X81340650Y-76802000D01*
G75*
G02*
X81121900Y-76583250I0J218750D01*
G01*
X81121900Y-76070750D01*
G75*
G02*
X81340650Y-75852000I218750J0D01*
G01*
X81778150Y-75852000D01*
G75*
G02*
X81996900Y-76070750I0J-218750D01*
G01*
G37*
G04 #@! TD*
G04 #@! TO.C,S6*
X78003400Y-89421600D03*
X78003400Y-91121600D03*
D20*
X79553400Y-88596600D03*
D21*
X78003400Y-92571600D03*
D20*
X79553400Y-91946600D03*
D21*
X78003400Y-87971600D03*
G04 #@! TD*
G04 #@! TO.C,C38*
G36*
G01*
X93441000Y-84863650D02*
X93441000Y-84351150D01*
G75*
G02*
X93659750Y-84132400I218750J0D01*
G01*
X94097250Y-84132400D01*
G75*
G02*
X94316000Y-84351150I0J-218750D01*
G01*
X94316000Y-84863650D01*
G75*
G02*
X94097250Y-85082400I-218750J0D01*
G01*
X93659750Y-85082400D01*
G75*
G02*
X93441000Y-84863650I0J218750D01*
G01*
G37*
G36*
G01*
X91866000Y-84863650D02*
X91866000Y-84351150D01*
G75*
G02*
X92084750Y-84132400I218750J0D01*
G01*
X92522250Y-84132400D01*
G75*
G02*
X92741000Y-84351150I0J-218750D01*
G01*
X92741000Y-84863650D01*
G75*
G02*
X92522250Y-85082400I-218750J0D01*
G01*
X92084750Y-85082400D01*
G75*
G02*
X91866000Y-84863650I0J218750D01*
G01*
G37*
G04 #@! TD*
G04 #@! TO.C,C3*
G36*
G01*
X93441000Y-69115650D02*
X93441000Y-68603150D01*
G75*
G02*
X93659750Y-68384400I218750J0D01*
G01*
X94097250Y-68384400D01*
G75*
G02*
X94316000Y-68603150I0J-218750D01*
G01*
X94316000Y-69115650D01*
G75*
G02*
X94097250Y-69334400I-218750J0D01*
G01*
X93659750Y-69334400D01*
G75*
G02*
X93441000Y-69115650I0J218750D01*
G01*
G37*
G36*
G01*
X91866000Y-69115650D02*
X91866000Y-68603150D01*
G75*
G02*
X92084750Y-68384400I218750J0D01*
G01*
X92522250Y-68384400D01*
G75*
G02*
X92741000Y-68603150I0J-218750D01*
G01*
X92741000Y-69115650D01*
G75*
G02*
X92522250Y-69334400I-218750J0D01*
G01*
X92084750Y-69334400D01*
G75*
G02*
X91866000Y-69115650I0J218750D01*
G01*
G37*
G04 #@! TD*
G04 #@! TO.C,R9*
G36*
G01*
X81134700Y-73065350D02*
X81134700Y-72552850D01*
G75*
G02*
X81353450Y-72334100I218750J0D01*
G01*
X81790950Y-72334100D01*
G75*
G02*
X82009700Y-72552850I0J-218750D01*
G01*
X82009700Y-73065350D01*
G75*
G02*
X81790950Y-73284100I-218750J0D01*
G01*
X81353450Y-73284100D01*
G75*
G02*
X81134700Y-73065350I0J218750D01*
G01*
G37*
G36*
G01*
X79559700Y-73065350D02*
X79559700Y-72552850D01*
G75*
G02*
X79778450Y-72334100I218750J0D01*
G01*
X80215950Y-72334100D01*
G75*
G02*
X80434700Y-72552850I0J-218750D01*
G01*
X80434700Y-73065350D01*
G75*
G02*
X80215950Y-73284100I-218750J0D01*
G01*
X79778450Y-73284100D01*
G75*
G02*
X79559700Y-73065350I0J218750D01*
G01*
G37*
G04 #@! TD*
G04 #@! TO.C,R19*
G36*
G01*
X170055250Y-110394000D02*
X169542750Y-110394000D01*
G75*
G02*
X169324000Y-110175250I0J218750D01*
G01*
X169324000Y-109737750D01*
G75*
G02*
X169542750Y-109519000I218750J0D01*
G01*
X170055250Y-109519000D01*
G75*
G02*
X170274000Y-109737750I0J-218750D01*
G01*
X170274000Y-110175250D01*
G75*
G02*
X170055250Y-110394000I-218750J0D01*
G01*
G37*
G36*
G01*
X170055250Y-111969000D02*
X169542750Y-111969000D01*
G75*
G02*
X169324000Y-111750250I0J218750D01*
G01*
X169324000Y-111312750D01*
G75*
G02*
X169542750Y-111094000I218750J0D01*
G01*
X170055250Y-111094000D01*
G75*
G02*
X170274000Y-111312750I0J-218750D01*
G01*
X170274000Y-111750250D01*
G75*
G02*
X170055250Y-111969000I-218750J0D01*
G01*
G37*
G04 #@! TD*
G04 #@! TO.C,R18*
G36*
G01*
X163959250Y-110394000D02*
X163446750Y-110394000D01*
G75*
G02*
X163228000Y-110175250I0J218750D01*
G01*
X163228000Y-109737750D01*
G75*
G02*
X163446750Y-109519000I218750J0D01*
G01*
X163959250Y-109519000D01*
G75*
G02*
X164178000Y-109737750I0J-218750D01*
G01*
X164178000Y-110175250D01*
G75*
G02*
X163959250Y-110394000I-218750J0D01*
G01*
G37*
G36*
G01*
X163959250Y-111969000D02*
X163446750Y-111969000D01*
G75*
G02*
X163228000Y-111750250I0J218750D01*
G01*
X163228000Y-111312750D01*
G75*
G02*
X163446750Y-111094000I218750J0D01*
G01*
X163959250Y-111094000D01*
G75*
G02*
X164178000Y-111312750I0J-218750D01*
G01*
X164178000Y-111750250D01*
G75*
G02*
X163959250Y-111969000I-218750J0D01*
G01*
G37*
G04 #@! TD*
G04 #@! TO.C,R17*
G36*
G01*
X171447750Y-111094000D02*
X171960250Y-111094000D01*
G75*
G02*
X172179000Y-111312750I0J-218750D01*
G01*
X172179000Y-111750250D01*
G75*
G02*
X171960250Y-111969000I-218750J0D01*
G01*
X171447750Y-111969000D01*
G75*
G02*
X171229000Y-111750250I0J218750D01*
G01*
X171229000Y-111312750D01*
G75*
G02*
X171447750Y-111094000I218750J0D01*
G01*
G37*
G36*
G01*
X171447750Y-109519000D02*
X171960250Y-109519000D01*
G75*
G02*
X172179000Y-109737750I0J-218750D01*
G01*
X172179000Y-110175250D01*
G75*
G02*
X171960250Y-110394000I-218750J0D01*
G01*
X171447750Y-110394000D01*
G75*
G02*
X171229000Y-110175250I0J218750D01*
G01*
X171229000Y-109737750D01*
G75*
G02*
X171447750Y-109519000I218750J0D01*
G01*
G37*
G04 #@! TD*
G04 #@! TO.C,R12*
G36*
G01*
X165478750Y-111094000D02*
X165991250Y-111094000D01*
G75*
G02*
X166210000Y-111312750I0J-218750D01*
G01*
X166210000Y-111750250D01*
G75*
G02*
X165991250Y-111969000I-218750J0D01*
G01*
X165478750Y-111969000D01*
G75*
G02*
X165260000Y-111750250I0J218750D01*
G01*
X165260000Y-111312750D01*
G75*
G02*
X165478750Y-111094000I218750J0D01*
G01*
G37*
G36*
G01*
X165478750Y-109519000D02*
X165991250Y-109519000D01*
G75*
G02*
X166210000Y-109737750I0J-218750D01*
G01*
X166210000Y-110175250D01*
G75*
G02*
X165991250Y-110394000I-218750J0D01*
G01*
X165478750Y-110394000D01*
G75*
G02*
X165260000Y-110175250I0J218750D01*
G01*
X165260000Y-109737750D01*
G75*
G02*
X165478750Y-109519000I218750J0D01*
G01*
G37*
G04 #@! TD*
G04 #@! TO.C,C2*
G36*
G01*
X174119250Y-110394000D02*
X173606750Y-110394000D01*
G75*
G02*
X173388000Y-110175250I0J218750D01*
G01*
X173388000Y-109737750D01*
G75*
G02*
X173606750Y-109519000I218750J0D01*
G01*
X174119250Y-109519000D01*
G75*
G02*
X174338000Y-109737750I0J-218750D01*
G01*
X174338000Y-110175250D01*
G75*
G02*
X174119250Y-110394000I-218750J0D01*
G01*
G37*
G36*
G01*
X174119250Y-111969000D02*
X173606750Y-111969000D01*
G75*
G02*
X173388000Y-111750250I0J218750D01*
G01*
X173388000Y-111312750D01*
G75*
G02*
X173606750Y-111094000I218750J0D01*
G01*
X174119250Y-111094000D01*
G75*
G02*
X174338000Y-111312750I0J-218750D01*
G01*
X174338000Y-111750250D01*
G75*
G02*
X174119250Y-111969000I-218750J0D01*
G01*
G37*
G04 #@! TD*
G04 #@! TO.C,C1*
G36*
G01*
X168023250Y-110394000D02*
X167510750Y-110394000D01*
G75*
G02*
X167292000Y-110175250I0J218750D01*
G01*
X167292000Y-109737750D01*
G75*
G02*
X167510750Y-109519000I218750J0D01*
G01*
X168023250Y-109519000D01*
G75*
G02*
X168242000Y-109737750I0J-218750D01*
G01*
X168242000Y-110175250D01*
G75*
G02*
X168023250Y-110394000I-218750J0D01*
G01*
G37*
G36*
G01*
X168023250Y-111969000D02*
X167510750Y-111969000D01*
G75*
G02*
X167292000Y-111750250I0J218750D01*
G01*
X167292000Y-111312750D01*
G75*
G02*
X167510750Y-111094000I218750J0D01*
G01*
X168023250Y-111094000D01*
G75*
G02*
X168242000Y-111312750I0J-218750D01*
G01*
X168242000Y-111750250D01*
G75*
G02*
X168023250Y-111969000I-218750J0D01*
G01*
G37*
G04 #@! TD*
G04 #@! TO.C,R11*
G36*
G01*
X94261650Y-38994600D02*
X93749150Y-38994600D01*
G75*
G02*
X93530400Y-38775850I0J218750D01*
G01*
X93530400Y-38338350D01*
G75*
G02*
X93749150Y-38119600I218750J0D01*
G01*
X94261650Y-38119600D01*
G75*
G02*
X94480400Y-38338350I0J-218750D01*
G01*
X94480400Y-38775850D01*
G75*
G02*
X94261650Y-38994600I-218750J0D01*
G01*
G37*
G36*
G01*
X94261650Y-40569600D02*
X93749150Y-40569600D01*
G75*
G02*
X93530400Y-40350850I0J218750D01*
G01*
X93530400Y-39913350D01*
G75*
G02*
X93749150Y-39694600I218750J0D01*
G01*
X94261650Y-39694600D01*
G75*
G02*
X94480400Y-39913350I0J-218750D01*
G01*
X94480400Y-40350850D01*
G75*
G02*
X94261650Y-40569600I-218750J0D01*
G01*
G37*
G04 #@! TD*
G04 #@! TO.C,R3*
G36*
G01*
X78859900Y-94130150D02*
X78859900Y-94642650D01*
G75*
G02*
X78641150Y-94861400I-218750J0D01*
G01*
X78203650Y-94861400D01*
G75*
G02*
X77984900Y-94642650I0J218750D01*
G01*
X77984900Y-94130150D01*
G75*
G02*
X78203650Y-93911400I218750J0D01*
G01*
X78641150Y-93911400D01*
G75*
G02*
X78859900Y-94130150I0J-218750D01*
G01*
G37*
G36*
G01*
X80434900Y-94130150D02*
X80434900Y-94642650D01*
G75*
G02*
X80216150Y-94861400I-218750J0D01*
G01*
X79778650Y-94861400D01*
G75*
G02*
X79559900Y-94642650I0J218750D01*
G01*
X79559900Y-94130150D01*
G75*
G02*
X79778650Y-93911400I218750J0D01*
G01*
X80216150Y-93911400D01*
G75*
G02*
X80434900Y-94130150I0J-218750D01*
G01*
G37*
G04 #@! TD*
G04 #@! TO.C,R1*
G36*
G01*
X79275650Y-39121600D02*
X78763150Y-39121600D01*
G75*
G02*
X78544400Y-38902850I0J218750D01*
G01*
X78544400Y-38465350D01*
G75*
G02*
X78763150Y-38246600I218750J0D01*
G01*
X79275650Y-38246600D01*
G75*
G02*
X79494400Y-38465350I0J-218750D01*
G01*
X79494400Y-38902850D01*
G75*
G02*
X79275650Y-39121600I-218750J0D01*
G01*
G37*
G36*
G01*
X79275650Y-40696600D02*
X78763150Y-40696600D01*
G75*
G02*
X78544400Y-40477850I0J218750D01*
G01*
X78544400Y-40040350D01*
G75*
G02*
X78763150Y-39821600I218750J0D01*
G01*
X79275650Y-39821600D01*
G75*
G02*
X79494400Y-40040350I0J-218750D01*
G01*
X79494400Y-40477850D01*
G75*
G02*
X79275650Y-40696600I-218750J0D01*
G01*
G37*
G04 #@! TD*
G04 #@! TO.C,R2*
G36*
G01*
X78859900Y-108925650D02*
X78859900Y-109438150D01*
G75*
G02*
X78641150Y-109656900I-218750J0D01*
G01*
X78203650Y-109656900D01*
G75*
G02*
X77984900Y-109438150I0J218750D01*
G01*
X77984900Y-108925650D01*
G75*
G02*
X78203650Y-108706900I218750J0D01*
G01*
X78641150Y-108706900D01*
G75*
G02*
X78859900Y-108925650I0J-218750D01*
G01*
G37*
G36*
G01*
X80434900Y-108925650D02*
X80434900Y-109438150D01*
G75*
G02*
X80216150Y-109656900I-218750J0D01*
G01*
X79778650Y-109656900D01*
G75*
G02*
X79559900Y-109438150I0J218750D01*
G01*
X79559900Y-108925650D01*
G75*
G02*
X79778650Y-108706900I218750J0D01*
G01*
X80216150Y-108706900D01*
G75*
G02*
X80434900Y-108925650I0J-218750D01*
G01*
G37*
G04 #@! TD*
G04 #@! TO.C,C36*
G36*
G01*
X192661250Y-105136200D02*
X192148750Y-105136200D01*
G75*
G02*
X191930000Y-104917450I0J218750D01*
G01*
X191930000Y-104479950D01*
G75*
G02*
X192148750Y-104261200I218750J0D01*
G01*
X192661250Y-104261200D01*
G75*
G02*
X192880000Y-104479950I0J-218750D01*
G01*
X192880000Y-104917450D01*
G75*
G02*
X192661250Y-105136200I-218750J0D01*
G01*
G37*
G36*
G01*
X192661250Y-106711200D02*
X192148750Y-106711200D01*
G75*
G02*
X191930000Y-106492450I0J218750D01*
G01*
X191930000Y-106054950D01*
G75*
G02*
X192148750Y-105836200I218750J0D01*
G01*
X192661250Y-105836200D01*
G75*
G02*
X192880000Y-106054950I0J-218750D01*
G01*
X192880000Y-106492450D01*
G75*
G02*
X192661250Y-106711200I-218750J0D01*
G01*
G37*
G04 #@! TD*
G04 #@! TO.C,C35*
G36*
G01*
X83969123Y-116635770D02*
X83576526Y-116965199D01*
G75*
G02*
X83268344Y-116938237I-140610J167572D01*
G01*
X82987124Y-116603092D01*
G75*
G02*
X83014086Y-116294910I167572J140610D01*
G01*
X83406684Y-115965481D01*
G75*
G02*
X83714866Y-115992443I140610J-167572D01*
G01*
X83996086Y-116327588D01*
G75*
G02*
X83969124Y-116635770I-167572J-140610D01*
G01*
G37*
G36*
G01*
X84981513Y-117842290D02*
X84588916Y-118171719D01*
G75*
G02*
X84280734Y-118144757I-140610J167572D01*
G01*
X83999514Y-117809612D01*
G75*
G02*
X84026476Y-117501430I167572J140610D01*
G01*
X84419074Y-117172001D01*
G75*
G02*
X84727256Y-117198963I140610J-167572D01*
G01*
X85008476Y-117534108D01*
G75*
G02*
X84981514Y-117842290I-167572J-140610D01*
G01*
G37*
G04 #@! TD*
G04 #@! TO.C,C34*
G36*
G01*
X154561250Y-69931800D02*
X154048750Y-69931800D01*
G75*
G02*
X153830000Y-69713050I0J218750D01*
G01*
X153830000Y-69275550D01*
G75*
G02*
X154048750Y-69056800I218750J0D01*
G01*
X154561250Y-69056800D01*
G75*
G02*
X154780000Y-69275550I0J-218750D01*
G01*
X154780000Y-69713050D01*
G75*
G02*
X154561250Y-69931800I-218750J0D01*
G01*
G37*
G36*
G01*
X154561250Y-71506800D02*
X154048750Y-71506800D01*
G75*
G02*
X153830000Y-71288050I0J218750D01*
G01*
X153830000Y-70850550D01*
G75*
G02*
X154048750Y-70631800I218750J0D01*
G01*
X154561250Y-70631800D01*
G75*
G02*
X154780000Y-70850550I0J-218750D01*
G01*
X154780000Y-71288050D01*
G75*
G02*
X154561250Y-71506800I-218750J0D01*
G01*
G37*
G04 #@! TD*
G04 #@! TO.C,C33*
G36*
G01*
X116461250Y-77475600D02*
X115948750Y-77475600D01*
G75*
G02*
X115730000Y-77256850I0J218750D01*
G01*
X115730000Y-76819350D01*
G75*
G02*
X115948750Y-76600600I218750J0D01*
G01*
X116461250Y-76600600D01*
G75*
G02*
X116680000Y-76819350I0J-218750D01*
G01*
X116680000Y-77256850D01*
G75*
G02*
X116461250Y-77475600I-218750J0D01*
G01*
G37*
G36*
G01*
X116461250Y-79050600D02*
X115948750Y-79050600D01*
G75*
G02*
X115730000Y-78831850I0J218750D01*
G01*
X115730000Y-78394350D01*
G75*
G02*
X115948750Y-78175600I218750J0D01*
G01*
X116461250Y-78175600D01*
G75*
G02*
X116680000Y-78394350I0J-218750D01*
G01*
X116680000Y-78831850D01*
G75*
G02*
X116461250Y-79050600I-218750J0D01*
G01*
G37*
G04 #@! TD*
G04 #@! TO.C,C32*
G36*
G01*
X135485850Y-93706200D02*
X134973350Y-93706200D01*
G75*
G02*
X134754600Y-93487450I0J218750D01*
G01*
X134754600Y-93049950D01*
G75*
G02*
X134973350Y-92831200I218750J0D01*
G01*
X135485850Y-92831200D01*
G75*
G02*
X135704600Y-93049950I0J-218750D01*
G01*
X135704600Y-93487450D01*
G75*
G02*
X135485850Y-93706200I-218750J0D01*
G01*
G37*
G36*
G01*
X135485850Y-95281200D02*
X134973350Y-95281200D01*
G75*
G02*
X134754600Y-95062450I0J218750D01*
G01*
X134754600Y-94624950D01*
G75*
G02*
X134973350Y-94406200I218750J0D01*
G01*
X135485850Y-94406200D01*
G75*
G02*
X135704600Y-94624950I0J-218750D01*
G01*
X135704600Y-95062450D01*
G75*
G02*
X135485850Y-95281200I-218750J0D01*
G01*
G37*
G04 #@! TD*
G04 #@! TO.C,C31*
G36*
G01*
X173611250Y-96678000D02*
X173098750Y-96678000D01*
G75*
G02*
X172880000Y-96459250I0J218750D01*
G01*
X172880000Y-96021750D01*
G75*
G02*
X173098750Y-95803000I218750J0D01*
G01*
X173611250Y-95803000D01*
G75*
G02*
X173830000Y-96021750I0J-218750D01*
G01*
X173830000Y-96459250D01*
G75*
G02*
X173611250Y-96678000I-218750J0D01*
G01*
G37*
G36*
G01*
X173611250Y-98253000D02*
X173098750Y-98253000D01*
G75*
G02*
X172880000Y-98034250I0J218750D01*
G01*
X172880000Y-97596750D01*
G75*
G02*
X173098750Y-97378000I218750J0D01*
G01*
X173611250Y-97378000D01*
G75*
G02*
X173830000Y-97596750I0J-218750D01*
G01*
X173830000Y-98034250D01*
G75*
G02*
X173611250Y-98253000I-218750J0D01*
G01*
G37*
G04 #@! TD*
G04 #@! TO.C,C30*
G36*
G01*
X143359850Y-115766100D02*
X142847350Y-115766100D01*
G75*
G02*
X142628600Y-115547350I0J218750D01*
G01*
X142628600Y-115109850D01*
G75*
G02*
X142847350Y-114891100I218750J0D01*
G01*
X143359850Y-114891100D01*
G75*
G02*
X143578600Y-115109850I0J-218750D01*
G01*
X143578600Y-115547350D01*
G75*
G02*
X143359850Y-115766100I-218750J0D01*
G01*
G37*
G36*
G01*
X143359850Y-117341100D02*
X142847350Y-117341100D01*
G75*
G02*
X142628600Y-117122350I0J218750D01*
G01*
X142628600Y-116684850D01*
G75*
G02*
X142847350Y-116466100I218750J0D01*
G01*
X143359850Y-116466100D01*
G75*
G02*
X143578600Y-116684850I0J-218750D01*
G01*
X143578600Y-117122350D01*
G75*
G02*
X143359850Y-117341100I-218750J0D01*
G01*
G37*
G04 #@! TD*
G04 #@! TO.C,C29*
G36*
G01*
X97449350Y-39223200D02*
X96936850Y-39223200D01*
G75*
G02*
X96718100Y-39004450I0J218750D01*
G01*
X96718100Y-38566950D01*
G75*
G02*
X96936850Y-38348200I218750J0D01*
G01*
X97449350Y-38348200D01*
G75*
G02*
X97668100Y-38566950I0J-218750D01*
G01*
X97668100Y-39004450D01*
G75*
G02*
X97449350Y-39223200I-218750J0D01*
G01*
G37*
G36*
G01*
X97449350Y-40798200D02*
X96936850Y-40798200D01*
G75*
G02*
X96718100Y-40579450I0J218750D01*
G01*
X96718100Y-40141950D01*
G75*
G02*
X96936850Y-39923200I218750J0D01*
G01*
X97449350Y-39923200D01*
G75*
G02*
X97668100Y-40141950I0J-218750D01*
G01*
X97668100Y-40579450D01*
G75*
G02*
X97449350Y-40798200I-218750J0D01*
G01*
G37*
G04 #@! TD*
G04 #@! TO.C,C28*
G36*
G01*
X192661250Y-86035400D02*
X192148750Y-86035400D01*
G75*
G02*
X191930000Y-85816650I0J218750D01*
G01*
X191930000Y-85379150D01*
G75*
G02*
X192148750Y-85160400I218750J0D01*
G01*
X192661250Y-85160400D01*
G75*
G02*
X192880000Y-85379150I0J-218750D01*
G01*
X192880000Y-85816650D01*
G75*
G02*
X192661250Y-86035400I-218750J0D01*
G01*
G37*
G36*
G01*
X192661250Y-87610400D02*
X192148750Y-87610400D01*
G75*
G02*
X191930000Y-87391650I0J218750D01*
G01*
X191930000Y-86954150D01*
G75*
G02*
X192148750Y-86735400I218750J0D01*
G01*
X192661250Y-86735400D01*
G75*
G02*
X192880000Y-86954150I0J-218750D01*
G01*
X192880000Y-87391650D01*
G75*
G02*
X192661250Y-87610400I-218750J0D01*
G01*
G37*
G04 #@! TD*
G04 #@! TO.C,C27*
G36*
G01*
X103559681Y-138200834D02*
X104003519Y-137944584D01*
G75*
G02*
X104302337Y-138024652I109375J-189443D01*
G01*
X104521087Y-138403538D01*
G75*
G02*
X104441019Y-138702356I-189443J-109375D01*
G01*
X103997181Y-138958606D01*
G75*
G02*
X103698363Y-138878538I-109375J189443D01*
G01*
X103479613Y-138499652D01*
G75*
G02*
X103559681Y-138200834I189443J109375D01*
G01*
G37*
G36*
G01*
X102772181Y-136836844D02*
X103216019Y-136580594D01*
G75*
G02*
X103514837Y-136660662I109375J-189443D01*
G01*
X103733587Y-137039548D01*
G75*
G02*
X103653519Y-137338366I-189443J-109375D01*
G01*
X103209681Y-137594616D01*
G75*
G02*
X102910863Y-137514548I-109375J189443D01*
G01*
X102692113Y-137135662D01*
G75*
G02*
X102772181Y-136836844I189443J109375D01*
G01*
G37*
G04 #@! TD*
G04 #@! TO.C,C26*
G36*
G01*
X90953519Y-115418166D02*
X90509681Y-115674416D01*
G75*
G02*
X90210863Y-115594348I-109375J189443D01*
G01*
X89992113Y-115215462D01*
G75*
G02*
X90072181Y-114916644I189443J109375D01*
G01*
X90516019Y-114660394D01*
G75*
G02*
X90814837Y-114740462I109375J-189443D01*
G01*
X91033587Y-115119348D01*
G75*
G02*
X90953519Y-115418166I-189443J-109375D01*
G01*
G37*
G36*
G01*
X91741019Y-116782156D02*
X91297181Y-117038406D01*
G75*
G02*
X90998363Y-116958338I-109375J189443D01*
G01*
X90779613Y-116579452D01*
G75*
G02*
X90859681Y-116280634I189443J109375D01*
G01*
X91303519Y-116024384D01*
G75*
G02*
X91602337Y-116104452I109375J-189443D01*
G01*
X91821087Y-116483338D01*
G75*
G02*
X91741019Y-116782156I-189443J-109375D01*
G01*
G37*
G04 #@! TD*
G04 #@! TO.C,C25*
G36*
G01*
X97449350Y-58400200D02*
X96936850Y-58400200D01*
G75*
G02*
X96718100Y-58181450I0J218750D01*
G01*
X96718100Y-57743950D01*
G75*
G02*
X96936850Y-57525200I218750J0D01*
G01*
X97449350Y-57525200D01*
G75*
G02*
X97668100Y-57743950I0J-218750D01*
G01*
X97668100Y-58181450D01*
G75*
G02*
X97449350Y-58400200I-218750J0D01*
G01*
G37*
G36*
G01*
X97449350Y-59975200D02*
X96936850Y-59975200D01*
G75*
G02*
X96718100Y-59756450I0J218750D01*
G01*
X96718100Y-59318950D01*
G75*
G02*
X96936850Y-59100200I218750J0D01*
G01*
X97449350Y-59100200D01*
G75*
G02*
X97668100Y-59318950I0J-218750D01*
G01*
X97668100Y-59756450D01*
G75*
G02*
X97449350Y-59975200I-218750J0D01*
G01*
G37*
G04 #@! TD*
G04 #@! TO.C,C24*
G36*
G01*
X192661250Y-67036200D02*
X192148750Y-67036200D01*
G75*
G02*
X191930000Y-66817450I0J218750D01*
G01*
X191930000Y-66379950D01*
G75*
G02*
X192148750Y-66161200I218750J0D01*
G01*
X192661250Y-66161200D01*
G75*
G02*
X192880000Y-66379950I0J-218750D01*
G01*
X192880000Y-66817450D01*
G75*
G02*
X192661250Y-67036200I-218750J0D01*
G01*
G37*
G36*
G01*
X192661250Y-68611200D02*
X192148750Y-68611200D01*
G75*
G02*
X191930000Y-68392450I0J218750D01*
G01*
X191930000Y-67954950D01*
G75*
G02*
X192148750Y-67736200I218750J0D01*
G01*
X192661250Y-67736200D01*
G75*
G02*
X192880000Y-67954950I0J-218750D01*
G01*
X192880000Y-68392450D01*
G75*
G02*
X192661250Y-68611200I-218750J0D01*
G01*
G37*
G04 #@! TD*
G04 #@! TO.C,C23*
G36*
G01*
X211660450Y-69119000D02*
X211147950Y-69119000D01*
G75*
G02*
X210929200Y-68900250I0J218750D01*
G01*
X210929200Y-68462750D01*
G75*
G02*
X211147950Y-68244000I218750J0D01*
G01*
X211660450Y-68244000D01*
G75*
G02*
X211879200Y-68462750I0J-218750D01*
G01*
X211879200Y-68900250D01*
G75*
G02*
X211660450Y-69119000I-218750J0D01*
G01*
G37*
G36*
G01*
X211660450Y-70694000D02*
X211147950Y-70694000D01*
G75*
G02*
X210929200Y-70475250I0J218750D01*
G01*
X210929200Y-70037750D01*
G75*
G02*
X211147950Y-69819000I218750J0D01*
G01*
X211660450Y-69819000D01*
G75*
G02*
X211879200Y-70037750I0J-218750D01*
G01*
X211879200Y-70475250D01*
G75*
G02*
X211660450Y-70694000I-218750J0D01*
G01*
G37*
G04 #@! TD*
G04 #@! TO.C,C22*
G36*
G01*
X116461250Y-39299400D02*
X115948750Y-39299400D01*
G75*
G02*
X115730000Y-39080650I0J218750D01*
G01*
X115730000Y-38643150D01*
G75*
G02*
X115948750Y-38424400I218750J0D01*
G01*
X116461250Y-38424400D01*
G75*
G02*
X116680000Y-38643150I0J-218750D01*
G01*
X116680000Y-39080650D01*
G75*
G02*
X116461250Y-39299400I-218750J0D01*
G01*
G37*
G36*
G01*
X116461250Y-40874400D02*
X115948750Y-40874400D01*
G75*
G02*
X115730000Y-40655650I0J218750D01*
G01*
X115730000Y-40218150D01*
G75*
G02*
X115948750Y-39999400I218750J0D01*
G01*
X116461250Y-39999400D01*
G75*
G02*
X116680000Y-40218150I0J-218750D01*
G01*
X116680000Y-40655650D01*
G75*
G02*
X116461250Y-40874400I-218750J0D01*
G01*
G37*
G04 #@! TD*
G04 #@! TO.C,C21*
G36*
G01*
X121011449Y-120746627D02*
X120512085Y-120861914D01*
G75*
G02*
X120249734Y-120697979I-49208J213143D01*
G01*
X120151318Y-120271692D01*
G75*
G02*
X120315253Y-120009341I213143J49208D01*
G01*
X120814617Y-119894054D01*
G75*
G02*
X121076968Y-120057989I49208J-213143D01*
G01*
X121175384Y-120484276D01*
G75*
G02*
X121011449Y-120746627I-213143J-49208D01*
G01*
G37*
G36*
G01*
X121365747Y-122281259D02*
X120866383Y-122396546D01*
G75*
G02*
X120604032Y-122232611I-49208J213143D01*
G01*
X120505616Y-121806324D01*
G75*
G02*
X120669551Y-121543973I213143J49208D01*
G01*
X121168915Y-121428686D01*
G75*
G02*
X121431266Y-121592621I49208J-213143D01*
G01*
X121529682Y-122018908D01*
G75*
G02*
X121365747Y-122281259I-213143J-49208D01*
G01*
G37*
G04 #@! TD*
G04 #@! TO.C,C20*
G36*
G01*
X154561250Y-31831800D02*
X154048750Y-31831800D01*
G75*
G02*
X153830000Y-31613050I0J218750D01*
G01*
X153830000Y-31175550D01*
G75*
G02*
X154048750Y-30956800I218750J0D01*
G01*
X154561250Y-30956800D01*
G75*
G02*
X154780000Y-31175550I0J-218750D01*
G01*
X154780000Y-31613050D01*
G75*
G02*
X154561250Y-31831800I-218750J0D01*
G01*
G37*
G36*
G01*
X154561250Y-33406800D02*
X154048750Y-33406800D01*
G75*
G02*
X153830000Y-33188050I0J218750D01*
G01*
X153830000Y-32750550D01*
G75*
G02*
X154048750Y-32531800I218750J0D01*
G01*
X154561250Y-32531800D01*
G75*
G02*
X154780000Y-32750550I0J-218750D01*
G01*
X154780000Y-33188050D01*
G75*
G02*
X154561250Y-33406800I-218750J0D01*
G01*
G37*
G04 #@! TD*
G04 #@! TO.C,C19*
G36*
G01*
X211660450Y-107219000D02*
X211147950Y-107219000D01*
G75*
G02*
X210929200Y-107000250I0J218750D01*
G01*
X210929200Y-106562750D01*
G75*
G02*
X211147950Y-106344000I218750J0D01*
G01*
X211660450Y-106344000D01*
G75*
G02*
X211879200Y-106562750I0J-218750D01*
G01*
X211879200Y-107000250D01*
G75*
G02*
X211660450Y-107219000I-218750J0D01*
G01*
G37*
G36*
G01*
X211660450Y-108794000D02*
X211147950Y-108794000D01*
G75*
G02*
X210929200Y-108575250I0J218750D01*
G01*
X210929200Y-108137750D01*
G75*
G02*
X211147950Y-107919000I218750J0D01*
G01*
X211660450Y-107919000D01*
G75*
G02*
X211879200Y-108137750I0J-218750D01*
G01*
X211879200Y-108575250D01*
G75*
G02*
X211660450Y-108794000I-218750J0D01*
G01*
G37*
G04 #@! TD*
G04 #@! TO.C,C18*
G36*
G01*
X135422350Y-55542700D02*
X134909850Y-55542700D01*
G75*
G02*
X134691100Y-55323950I0J218750D01*
G01*
X134691100Y-54886450D01*
G75*
G02*
X134909850Y-54667700I218750J0D01*
G01*
X135422350Y-54667700D01*
G75*
G02*
X135641100Y-54886450I0J-218750D01*
G01*
X135641100Y-55323950D01*
G75*
G02*
X135422350Y-55542700I-218750J0D01*
G01*
G37*
G36*
G01*
X135422350Y-57117700D02*
X134909850Y-57117700D01*
G75*
G02*
X134691100Y-56898950I0J218750D01*
G01*
X134691100Y-56461450D01*
G75*
G02*
X134909850Y-56242700I218750J0D01*
G01*
X135422350Y-56242700D01*
G75*
G02*
X135641100Y-56461450I0J-218750D01*
G01*
X135641100Y-56898950D01*
G75*
G02*
X135422350Y-57117700I-218750J0D01*
G01*
G37*
G04 #@! TD*
G04 #@! TO.C,C17*
G36*
G01*
X192661250Y-47910000D02*
X192148750Y-47910000D01*
G75*
G02*
X191930000Y-47691250I0J218750D01*
G01*
X191930000Y-47253750D01*
G75*
G02*
X192148750Y-47035000I218750J0D01*
G01*
X192661250Y-47035000D01*
G75*
G02*
X192880000Y-47253750I0J-218750D01*
G01*
X192880000Y-47691250D01*
G75*
G02*
X192661250Y-47910000I-218750J0D01*
G01*
G37*
G36*
G01*
X192661250Y-49485000D02*
X192148750Y-49485000D01*
G75*
G02*
X191930000Y-49266250I0J218750D01*
G01*
X191930000Y-48828750D01*
G75*
G02*
X192148750Y-48610000I218750J0D01*
G01*
X192661250Y-48610000D01*
G75*
G02*
X192880000Y-48828750I0J-218750D01*
G01*
X192880000Y-49266250D01*
G75*
G02*
X192661250Y-49485000I-218750J0D01*
G01*
G37*
G04 #@! TD*
G04 #@! TO.C,C16*
G36*
G01*
X154561250Y-50881800D02*
X154048750Y-50881800D01*
G75*
G02*
X153830000Y-50663050I0J218750D01*
G01*
X153830000Y-50225550D01*
G75*
G02*
X154048750Y-50006800I218750J0D01*
G01*
X154561250Y-50006800D01*
G75*
G02*
X154780000Y-50225550I0J-218750D01*
G01*
X154780000Y-50663050D01*
G75*
G02*
X154561250Y-50881800I-218750J0D01*
G01*
G37*
G36*
G01*
X154561250Y-52456800D02*
X154048750Y-52456800D01*
G75*
G02*
X153830000Y-52238050I0J218750D01*
G01*
X153830000Y-51800550D01*
G75*
G02*
X154048750Y-51581800I218750J0D01*
G01*
X154561250Y-51581800D01*
G75*
G02*
X154780000Y-51800550I0J-218750D01*
G01*
X154780000Y-52238050D01*
G75*
G02*
X154561250Y-52456800I-218750J0D01*
G01*
G37*
G04 #@! TD*
G04 #@! TO.C,C15*
G36*
G01*
X211787450Y-50043600D02*
X211274950Y-50043600D01*
G75*
G02*
X211056200Y-49824850I0J218750D01*
G01*
X211056200Y-49387350D01*
G75*
G02*
X211274950Y-49168600I218750J0D01*
G01*
X211787450Y-49168600D01*
G75*
G02*
X212006200Y-49387350I0J-218750D01*
G01*
X212006200Y-49824850D01*
G75*
G02*
X211787450Y-50043600I-218750J0D01*
G01*
G37*
G36*
G01*
X211787450Y-51618600D02*
X211274950Y-51618600D01*
G75*
G02*
X211056200Y-51399850I0J218750D01*
G01*
X211056200Y-50962350D01*
G75*
G02*
X211274950Y-50743600I218750J0D01*
G01*
X211787450Y-50743600D01*
G75*
G02*
X212006200Y-50962350I0J-218750D01*
G01*
X212006200Y-51399850D01*
G75*
G02*
X211787450Y-51618600I-218750J0D01*
G01*
G37*
G04 #@! TD*
G04 #@! TO.C,C14*
G36*
G01*
X102111277Y-139269230D02*
X102503874Y-138939801D01*
G75*
G02*
X102812056Y-138966763I140610J-167572D01*
G01*
X103093276Y-139301908D01*
G75*
G02*
X103066314Y-139610090I-167572J-140610D01*
G01*
X102673716Y-139939519D01*
G75*
G02*
X102365534Y-139912557I-140610J167572D01*
G01*
X102084314Y-139577412D01*
G75*
G02*
X102111276Y-139269230I167572J140610D01*
G01*
G37*
G36*
G01*
X101098887Y-138062710D02*
X101491484Y-137733281D01*
G75*
G02*
X101799666Y-137760243I140610J-167572D01*
G01*
X102080886Y-138095388D01*
G75*
G02*
X102053924Y-138403570I-167572J-140610D01*
G01*
X101661326Y-138732999D01*
G75*
G02*
X101353144Y-138706037I-140610J167572D01*
G01*
X101071924Y-138370892D01*
G75*
G02*
X101098886Y-138062710I167572J140610D01*
G01*
G37*
G04 #@! TD*
G04 #@! TO.C,C13*
G36*
G01*
X134973350Y-73832200D02*
X135485850Y-73832200D01*
G75*
G02*
X135704600Y-74050950I0J-218750D01*
G01*
X135704600Y-74488450D01*
G75*
G02*
X135485850Y-74707200I-218750J0D01*
G01*
X134973350Y-74707200D01*
G75*
G02*
X134754600Y-74488450I0J218750D01*
G01*
X134754600Y-74050950D01*
G75*
G02*
X134973350Y-73832200I218750J0D01*
G01*
G37*
G36*
G01*
X134973350Y-72257200D02*
X135485850Y-72257200D01*
G75*
G02*
X135704600Y-72475950I0J-218750D01*
G01*
X135704600Y-72913450D01*
G75*
G02*
X135485850Y-73132200I-218750J0D01*
G01*
X134973350Y-73132200D01*
G75*
G02*
X134754600Y-72913450I0J218750D01*
G01*
X134754600Y-72475950D01*
G75*
G02*
X134973350Y-72257200I218750J0D01*
G01*
G37*
G04 #@! TD*
G04 #@! TO.C,C12*
G36*
G01*
X97449350Y-77399400D02*
X96936850Y-77399400D01*
G75*
G02*
X96718100Y-77180650I0J218750D01*
G01*
X96718100Y-76743150D01*
G75*
G02*
X96936850Y-76524400I218750J0D01*
G01*
X97449350Y-76524400D01*
G75*
G02*
X97668100Y-76743150I0J-218750D01*
G01*
X97668100Y-77180650D01*
G75*
G02*
X97449350Y-77399400I-218750J0D01*
G01*
G37*
G36*
G01*
X97449350Y-78974400D02*
X96936850Y-78974400D01*
G75*
G02*
X96718100Y-78755650I0J218750D01*
G01*
X96718100Y-78318150D01*
G75*
G02*
X96936850Y-78099400I218750J0D01*
G01*
X97449350Y-78099400D01*
G75*
G02*
X97668100Y-78318150I0J-218750D01*
G01*
X97668100Y-78755650D01*
G75*
G02*
X97449350Y-78974400I-218750J0D01*
G01*
G37*
G04 #@! TD*
G04 #@! TO.C,C11*
G36*
G01*
X116461250Y-58349400D02*
X115948750Y-58349400D01*
G75*
G02*
X115730000Y-58130650I0J218750D01*
G01*
X115730000Y-57693150D01*
G75*
G02*
X115948750Y-57474400I218750J0D01*
G01*
X116461250Y-57474400D01*
G75*
G02*
X116680000Y-57693150I0J-218750D01*
G01*
X116680000Y-58130650D01*
G75*
G02*
X116461250Y-58349400I-218750J0D01*
G01*
G37*
G36*
G01*
X116461250Y-59924400D02*
X115948750Y-59924400D01*
G75*
G02*
X115730000Y-59705650I0J218750D01*
G01*
X115730000Y-59268150D01*
G75*
G02*
X115948750Y-59049400I218750J0D01*
G01*
X116461250Y-59049400D01*
G75*
G02*
X116680000Y-59268150I0J-218750D01*
G01*
X116680000Y-59705650D01*
G75*
G02*
X116461250Y-59924400I-218750J0D01*
G01*
G37*
G04 #@! TD*
G04 #@! TO.C,C10*
G36*
G01*
X173611250Y-77628000D02*
X173098750Y-77628000D01*
G75*
G02*
X172880000Y-77409250I0J218750D01*
G01*
X172880000Y-76971750D01*
G75*
G02*
X173098750Y-76753000I218750J0D01*
G01*
X173611250Y-76753000D01*
G75*
G02*
X173830000Y-76971750I0J-218750D01*
G01*
X173830000Y-77409250D01*
G75*
G02*
X173611250Y-77628000I-218750J0D01*
G01*
G37*
G36*
G01*
X173611250Y-79203000D02*
X173098750Y-79203000D01*
G75*
G02*
X172880000Y-78984250I0J218750D01*
G01*
X172880000Y-78546750D01*
G75*
G02*
X173098750Y-78328000I218750J0D01*
G01*
X173611250Y-78328000D01*
G75*
G02*
X173830000Y-78546750I0J-218750D01*
G01*
X173830000Y-78984250D01*
G75*
G02*
X173611250Y-79203000I-218750J0D01*
G01*
G37*
G04 #@! TD*
G04 #@! TO.C,C9*
G36*
G01*
X154561250Y-88854800D02*
X154048750Y-88854800D01*
G75*
G02*
X153830000Y-88636050I0J218750D01*
G01*
X153830000Y-88198550D01*
G75*
G02*
X154048750Y-87979800I218750J0D01*
G01*
X154561250Y-87979800D01*
G75*
G02*
X154780000Y-88198550I0J-218750D01*
G01*
X154780000Y-88636050D01*
G75*
G02*
X154561250Y-88854800I-218750J0D01*
G01*
G37*
G36*
G01*
X154561250Y-90429800D02*
X154048750Y-90429800D01*
G75*
G02*
X153830000Y-90211050I0J218750D01*
G01*
X153830000Y-89773550D01*
G75*
G02*
X154048750Y-89554800I218750J0D01*
G01*
X154561250Y-89554800D01*
G75*
G02*
X154780000Y-89773550I0J-218750D01*
G01*
X154780000Y-90211050D01*
G75*
G02*
X154561250Y-90429800I-218750J0D01*
G01*
G37*
G04 #@! TD*
G04 #@! TO.C,C8*
G36*
G01*
X173611250Y-58578000D02*
X173098750Y-58578000D01*
G75*
G02*
X172880000Y-58359250I0J218750D01*
G01*
X172880000Y-57921750D01*
G75*
G02*
X173098750Y-57703000I218750J0D01*
G01*
X173611250Y-57703000D01*
G75*
G02*
X173830000Y-57921750I0J-218750D01*
G01*
X173830000Y-58359250D01*
G75*
G02*
X173611250Y-58578000I-218750J0D01*
G01*
G37*
G36*
G01*
X173611250Y-60153000D02*
X173098750Y-60153000D01*
G75*
G02*
X172880000Y-59934250I0J218750D01*
G01*
X172880000Y-59496750D01*
G75*
G02*
X173098750Y-59278000I218750J0D01*
G01*
X173611250Y-59278000D01*
G75*
G02*
X173830000Y-59496750I0J-218750D01*
G01*
X173830000Y-59934250D01*
G75*
G02*
X173611250Y-60153000I-218750J0D01*
G01*
G37*
G04 #@! TD*
G04 #@! TO.C,C7*
G36*
G01*
X173611250Y-39655000D02*
X173098750Y-39655000D01*
G75*
G02*
X172880000Y-39436250I0J218750D01*
G01*
X172880000Y-38998750D01*
G75*
G02*
X173098750Y-38780000I218750J0D01*
G01*
X173611250Y-38780000D01*
G75*
G02*
X173830000Y-38998750I0J-218750D01*
G01*
X173830000Y-39436250D01*
G75*
G02*
X173611250Y-39655000I-218750J0D01*
G01*
G37*
G36*
G01*
X173611250Y-41230000D02*
X173098750Y-41230000D01*
G75*
G02*
X172880000Y-41011250I0J218750D01*
G01*
X172880000Y-40573750D01*
G75*
G02*
X173098750Y-40355000I218750J0D01*
G01*
X173611250Y-40355000D01*
G75*
G02*
X173830000Y-40573750I0J-218750D01*
G01*
X173830000Y-41011250D01*
G75*
G02*
X173611250Y-41230000I-218750J0D01*
G01*
G37*
G04 #@! TD*
G04 #@! TO.C,C6*
G36*
G01*
X135435050Y-38308800D02*
X134922550Y-38308800D01*
G75*
G02*
X134703800Y-38090050I0J218750D01*
G01*
X134703800Y-37652550D01*
G75*
G02*
X134922550Y-37433800I218750J0D01*
G01*
X135435050Y-37433800D01*
G75*
G02*
X135653800Y-37652550I0J-218750D01*
G01*
X135653800Y-38090050D01*
G75*
G02*
X135435050Y-38308800I-218750J0D01*
G01*
G37*
G36*
G01*
X135435050Y-39883800D02*
X134922550Y-39883800D01*
G75*
G02*
X134703800Y-39665050I0J218750D01*
G01*
X134703800Y-39227550D01*
G75*
G02*
X134922550Y-39008800I218750J0D01*
G01*
X135435050Y-39008800D01*
G75*
G02*
X135653800Y-39227550I0J-218750D01*
G01*
X135653800Y-39665050D01*
G75*
G02*
X135435050Y-39883800I-218750J0D01*
G01*
G37*
G04 #@! TD*
G04 #@! TO.C,C5*
G36*
G01*
X211723950Y-88169000D02*
X211211450Y-88169000D01*
G75*
G02*
X210992700Y-87950250I0J218750D01*
G01*
X210992700Y-87512750D01*
G75*
G02*
X211211450Y-87294000I218750J0D01*
G01*
X211723950Y-87294000D01*
G75*
G02*
X211942700Y-87512750I0J-218750D01*
G01*
X211942700Y-87950250D01*
G75*
G02*
X211723950Y-88169000I-218750J0D01*
G01*
G37*
G36*
G01*
X211723950Y-89744000D02*
X211211450Y-89744000D01*
G75*
G02*
X210992700Y-89525250I0J218750D01*
G01*
X210992700Y-89087750D01*
G75*
G02*
X211211450Y-88869000I218750J0D01*
G01*
X211723950Y-88869000D01*
G75*
G02*
X211942700Y-89087750I0J-218750D01*
G01*
X211942700Y-89525250D01*
G75*
G02*
X211723950Y-89744000I-218750J0D01*
G01*
G37*
G04 #@! TD*
G04 #@! TO.C,C4*
G36*
G01*
X116461250Y-96474900D02*
X115948750Y-96474900D01*
G75*
G02*
X115730000Y-96256150I0J218750D01*
G01*
X115730000Y-95818650D01*
G75*
G02*
X115948750Y-95599900I218750J0D01*
G01*
X116461250Y-95599900D01*
G75*
G02*
X116680000Y-95818650I0J-218750D01*
G01*
X116680000Y-96256150D01*
G75*
G02*
X116461250Y-96474900I-218750J0D01*
G01*
G37*
G36*
G01*
X116461250Y-98049900D02*
X115948750Y-98049900D01*
G75*
G02*
X115730000Y-97831150I0J218750D01*
G01*
X115730000Y-97393650D01*
G75*
G02*
X115948750Y-97174900I218750J0D01*
G01*
X116461250Y-97174900D01*
G75*
G02*
X116680000Y-97393650I0J-218750D01*
G01*
X116680000Y-97831150D01*
G75*
G02*
X116461250Y-98049900I-218750J0D01*
G01*
G37*
G04 #@! TD*
G04 #@! TO.C,R14*
G36*
G01*
X83919350Y-68536300D02*
X84431850Y-68536300D01*
G75*
G02*
X84650600Y-68755050I0J-218750D01*
G01*
X84650600Y-69192550D01*
G75*
G02*
X84431850Y-69411300I-218750J0D01*
G01*
X83919350Y-69411300D01*
G75*
G02*
X83700600Y-69192550I0J218750D01*
G01*
X83700600Y-68755050D01*
G75*
G02*
X83919350Y-68536300I218750J0D01*
G01*
G37*
G36*
G01*
X83919350Y-66961300D02*
X84431850Y-66961300D01*
G75*
G02*
X84650600Y-67180050I0J-218750D01*
G01*
X84650600Y-67617550D01*
G75*
G02*
X84431850Y-67836300I-218750J0D01*
G01*
X83919350Y-67836300D01*
G75*
G02*
X83700600Y-67617550I0J218750D01*
G01*
X83700600Y-67180050D01*
G75*
G02*
X83919350Y-66961300I218750J0D01*
G01*
G37*
G04 #@! TD*
G04 #@! TO.C,C60*
G36*
G01*
X88767400Y-105183650D02*
X88767400Y-104671150D01*
G75*
G02*
X88986150Y-104452400I218750J0D01*
G01*
X89423650Y-104452400D01*
G75*
G02*
X89642400Y-104671150I0J-218750D01*
G01*
X89642400Y-105183650D01*
G75*
G02*
X89423650Y-105402400I-218750J0D01*
G01*
X88986150Y-105402400D01*
G75*
G02*
X88767400Y-105183650I0J218750D01*
G01*
G37*
G36*
G01*
X87192400Y-105183650D02*
X87192400Y-104671150D01*
G75*
G02*
X87411150Y-104452400I218750J0D01*
G01*
X87848650Y-104452400D01*
G75*
G02*
X88067400Y-104671150I0J-218750D01*
G01*
X88067400Y-105183650D01*
G75*
G02*
X87848650Y-105402400I-218750J0D01*
G01*
X87411150Y-105402400D01*
G75*
G02*
X87192400Y-105183650I0J218750D01*
G01*
G37*
G04 #@! TD*
G04 #@! TO.C,R8*
G36*
G01*
X85697350Y-68536300D02*
X86209850Y-68536300D01*
G75*
G02*
X86428600Y-68755050I0J-218750D01*
G01*
X86428600Y-69192550D01*
G75*
G02*
X86209850Y-69411300I-218750J0D01*
G01*
X85697350Y-69411300D01*
G75*
G02*
X85478600Y-69192550I0J218750D01*
G01*
X85478600Y-68755050D01*
G75*
G02*
X85697350Y-68536300I218750J0D01*
G01*
G37*
G36*
G01*
X85697350Y-66961300D02*
X86209850Y-66961300D01*
G75*
G02*
X86428600Y-67180050I0J-218750D01*
G01*
X86428600Y-67617550D01*
G75*
G02*
X86209850Y-67836300I-218750J0D01*
G01*
X85697350Y-67836300D01*
G75*
G02*
X85478600Y-67617550I0J218750D01*
G01*
X85478600Y-67180050D01*
G75*
G02*
X85697350Y-66961300I218750J0D01*
G01*
G37*
G04 #@! TD*
G04 #@! TO.C,R7*
G36*
G01*
X88076750Y-67810900D02*
X87564250Y-67810900D01*
G75*
G02*
X87345500Y-67592150I0J218750D01*
G01*
X87345500Y-67154650D01*
G75*
G02*
X87564250Y-66935900I218750J0D01*
G01*
X88076750Y-66935900D01*
G75*
G02*
X88295500Y-67154650I0J-218750D01*
G01*
X88295500Y-67592150D01*
G75*
G02*
X88076750Y-67810900I-218750J0D01*
G01*
G37*
G36*
G01*
X88076750Y-69385900D02*
X87564250Y-69385900D01*
G75*
G02*
X87345500Y-69167150I0J218750D01*
G01*
X87345500Y-68729650D01*
G75*
G02*
X87564250Y-68510900I218750J0D01*
G01*
X88076750Y-68510900D01*
G75*
G02*
X88295500Y-68729650I0J-218750D01*
G01*
X88295500Y-69167150D01*
G75*
G02*
X88076750Y-69385900I-218750J0D01*
G01*
G37*
G04 #@! TD*
G04 #@! TO.C,R4*
G36*
G01*
X79275650Y-42550600D02*
X78763150Y-42550600D01*
G75*
G02*
X78544400Y-42331850I0J218750D01*
G01*
X78544400Y-41894350D01*
G75*
G02*
X78763150Y-41675600I218750J0D01*
G01*
X79275650Y-41675600D01*
G75*
G02*
X79494400Y-41894350I0J-218750D01*
G01*
X79494400Y-42331850D01*
G75*
G02*
X79275650Y-42550600I-218750J0D01*
G01*
G37*
G36*
G01*
X79275650Y-44125600D02*
X78763150Y-44125600D01*
G75*
G02*
X78544400Y-43906850I0J218750D01*
G01*
X78544400Y-43469350D01*
G75*
G02*
X78763150Y-43250600I218750J0D01*
G01*
X79275650Y-43250600D01*
G75*
G02*
X79494400Y-43469350I0J-218750D01*
G01*
X79494400Y-43906850D01*
G75*
G02*
X79275650Y-44125600I-218750J0D01*
G01*
G37*
G04 #@! TD*
G04 #@! TO.C,L2*
G36*
G01*
X91802700Y-82780850D02*
X91802700Y-82268350D01*
G75*
G02*
X92021450Y-82049600I218750J0D01*
G01*
X92458950Y-82049600D01*
G75*
G02*
X92677700Y-82268350I0J-218750D01*
G01*
X92677700Y-82780850D01*
G75*
G02*
X92458950Y-82999600I-218750J0D01*
G01*
X92021450Y-82999600D01*
G75*
G02*
X91802700Y-82780850I0J218750D01*
G01*
G37*
G36*
G01*
X90227700Y-82780850D02*
X90227700Y-82268350D01*
G75*
G02*
X90446450Y-82049600I218750J0D01*
G01*
X90883950Y-82049600D01*
G75*
G02*
X91102700Y-82268350I0J-218750D01*
G01*
X91102700Y-82780850D01*
G75*
G02*
X90883950Y-82999600I-218750J0D01*
G01*
X90446450Y-82999600D01*
G75*
G02*
X90227700Y-82780850I0J218750D01*
G01*
G37*
G04 #@! TD*
G04 #@! TO.C,C59*
G36*
G01*
X90180450Y-85668600D02*
X90692950Y-85668600D01*
G75*
G02*
X90911700Y-85887350I0J-218750D01*
G01*
X90911700Y-86324850D01*
G75*
G02*
X90692950Y-86543600I-218750J0D01*
G01*
X90180450Y-86543600D01*
G75*
G02*
X89961700Y-86324850I0J218750D01*
G01*
X89961700Y-85887350D01*
G75*
G02*
X90180450Y-85668600I218750J0D01*
G01*
G37*
G36*
G01*
X90180450Y-84093600D02*
X90692950Y-84093600D01*
G75*
G02*
X90911700Y-84312350I0J-218750D01*
G01*
X90911700Y-84749850D01*
G75*
G02*
X90692950Y-84968600I-218750J0D01*
G01*
X90180450Y-84968600D01*
G75*
G02*
X89961700Y-84749850I0J218750D01*
G01*
X89961700Y-84312350D01*
G75*
G02*
X90180450Y-84093600I218750J0D01*
G01*
G37*
G04 #@! TD*
G04 #@! TO.C,C57*
G36*
G01*
X83990700Y-82268350D02*
X83990700Y-82780850D01*
G75*
G02*
X83771950Y-82999600I-218750J0D01*
G01*
X83334450Y-82999600D01*
G75*
G02*
X83115700Y-82780850I0J218750D01*
G01*
X83115700Y-82268350D01*
G75*
G02*
X83334450Y-82049600I218750J0D01*
G01*
X83771950Y-82049600D01*
G75*
G02*
X83990700Y-82268350I0J-218750D01*
G01*
G37*
G36*
G01*
X85565700Y-82268350D02*
X85565700Y-82780850D01*
G75*
G02*
X85346950Y-82999600I-218750J0D01*
G01*
X84909450Y-82999600D01*
G75*
G02*
X84690700Y-82780850I0J218750D01*
G01*
X84690700Y-82268350D01*
G75*
G02*
X84909450Y-82049600I218750J0D01*
G01*
X85346950Y-82049600D01*
G75*
G02*
X85565700Y-82268350I0J-218750D01*
G01*
G37*
G04 #@! TD*
G04 #@! TO.C,R13*
G36*
G01*
X88246700Y-82780850D02*
X88246700Y-82268350D01*
G75*
G02*
X88465450Y-82049600I218750J0D01*
G01*
X88902950Y-82049600D01*
G75*
G02*
X89121700Y-82268350I0J-218750D01*
G01*
X89121700Y-82780850D01*
G75*
G02*
X88902950Y-82999600I-218750J0D01*
G01*
X88465450Y-82999600D01*
G75*
G02*
X88246700Y-82780850I0J218750D01*
G01*
G37*
G36*
G01*
X86671700Y-82780850D02*
X86671700Y-82268350D01*
G75*
G02*
X86890450Y-82049600I218750J0D01*
G01*
X87327950Y-82049600D01*
G75*
G02*
X87546700Y-82268350I0J-218750D01*
G01*
X87546700Y-82780850D01*
G75*
G02*
X87327950Y-82999600I-218750J0D01*
G01*
X86890450Y-82999600D01*
G75*
G02*
X86671700Y-82780850I0J218750D01*
G01*
G37*
G04 #@! TD*
G04 #@! TO.C,R6*
G36*
G01*
X95150650Y-62616600D02*
X94638150Y-62616600D01*
G75*
G02*
X94419400Y-62397850I0J218750D01*
G01*
X94419400Y-61960350D01*
G75*
G02*
X94638150Y-61741600I218750J0D01*
G01*
X95150650Y-61741600D01*
G75*
G02*
X95369400Y-61960350I0J-218750D01*
G01*
X95369400Y-62397850D01*
G75*
G02*
X95150650Y-62616600I-218750J0D01*
G01*
G37*
G36*
G01*
X95150650Y-64191600D02*
X94638150Y-64191600D01*
G75*
G02*
X94419400Y-63972850I0J218750D01*
G01*
X94419400Y-63535350D01*
G75*
G02*
X94638150Y-63316600I218750J0D01*
G01*
X95150650Y-63316600D01*
G75*
G02*
X95369400Y-63535350I0J-218750D01*
G01*
X95369400Y-63972850D01*
G75*
G02*
X95150650Y-64191600I-218750J0D01*
G01*
G37*
G04 #@! TD*
G04 #@! TO.C,C52*
G36*
G01*
X93428300Y-71088730D02*
X93428300Y-70576230D01*
G75*
G02*
X93647050Y-70357480I218750J0D01*
G01*
X94084550Y-70357480D01*
G75*
G02*
X94303300Y-70576230I0J-218750D01*
G01*
X94303300Y-71088730D01*
G75*
G02*
X94084550Y-71307480I-218750J0D01*
G01*
X93647050Y-71307480D01*
G75*
G02*
X93428300Y-71088730I0J218750D01*
G01*
G37*
G36*
G01*
X91853300Y-71088730D02*
X91853300Y-70576230D01*
G75*
G02*
X92072050Y-70357480I218750J0D01*
G01*
X92509550Y-70357480D01*
G75*
G02*
X92728300Y-70576230I0J-218750D01*
G01*
X92728300Y-71088730D01*
G75*
G02*
X92509550Y-71307480I-218750J0D01*
G01*
X92072050Y-71307480D01*
G75*
G02*
X91853300Y-71088730I0J218750D01*
G01*
G37*
G04 #@! TD*
G04 #@! TO.C,C50*
G36*
G01*
X80434700Y-68679350D02*
X80434700Y-69191850D01*
G75*
G02*
X80215950Y-69410600I-218750J0D01*
G01*
X79778450Y-69410600D01*
G75*
G02*
X79559700Y-69191850I0J218750D01*
G01*
X79559700Y-68679350D01*
G75*
G02*
X79778450Y-68460600I218750J0D01*
G01*
X80215950Y-68460600D01*
G75*
G02*
X80434700Y-68679350I0J-218750D01*
G01*
G37*
G36*
G01*
X82009700Y-68679350D02*
X82009700Y-69191850D01*
G75*
G02*
X81790950Y-69410600I-218750J0D01*
G01*
X81353450Y-69410600D01*
G75*
G02*
X81134700Y-69191850I0J218750D01*
G01*
X81134700Y-68679350D01*
G75*
G02*
X81353450Y-68460600I218750J0D01*
G01*
X81790950Y-68460600D01*
G75*
G02*
X82009700Y-68679350I0J-218750D01*
G01*
G37*
G04 #@! TD*
G04 #@! TO.C,C49*
G36*
G01*
X80434700Y-70584350D02*
X80434700Y-71096850D01*
G75*
G02*
X80215950Y-71315600I-218750J0D01*
G01*
X79778450Y-71315600D01*
G75*
G02*
X79559700Y-71096850I0J218750D01*
G01*
X79559700Y-70584350D01*
G75*
G02*
X79778450Y-70365600I218750J0D01*
G01*
X80215950Y-70365600D01*
G75*
G02*
X80434700Y-70584350I0J-218750D01*
G01*
G37*
G36*
G01*
X82009700Y-70584350D02*
X82009700Y-71096850D01*
G75*
G02*
X81790950Y-71315600I-218750J0D01*
G01*
X81353450Y-71315600D01*
G75*
G02*
X81134700Y-71096850I0J218750D01*
G01*
X81134700Y-70584350D01*
G75*
G02*
X81353450Y-70365600I218750J0D01*
G01*
X81790950Y-70365600D01*
G75*
G02*
X82009700Y-70584350I0J-218750D01*
G01*
G37*
G04 #@! TD*
G04 #@! TO.C,C47*
G36*
G01*
X93441000Y-86959150D02*
X93441000Y-86446650D01*
G75*
G02*
X93659750Y-86227900I218750J0D01*
G01*
X94097250Y-86227900D01*
G75*
G02*
X94316000Y-86446650I0J-218750D01*
G01*
X94316000Y-86959150D01*
G75*
G02*
X94097250Y-87177900I-218750J0D01*
G01*
X93659750Y-87177900D01*
G75*
G02*
X93441000Y-86959150I0J218750D01*
G01*
G37*
G36*
G01*
X91866000Y-86959150D02*
X91866000Y-86446650D01*
G75*
G02*
X92084750Y-86227900I218750J0D01*
G01*
X92522250Y-86227900D01*
G75*
G02*
X92741000Y-86446650I0J-218750D01*
G01*
X92741000Y-86959150D01*
G75*
G02*
X92522250Y-87177900I-218750J0D01*
G01*
X92084750Y-87177900D01*
G75*
G02*
X91866000Y-86959150I0J218750D01*
G01*
G37*
G04 #@! TD*
G04 #@! TO.C,L1*
G36*
G01*
X92225150Y-47949600D02*
X92737650Y-47949600D01*
G75*
G02*
X92956400Y-48168350I0J-218750D01*
G01*
X92956400Y-48605850D01*
G75*
G02*
X92737650Y-48824600I-218750J0D01*
G01*
X92225150Y-48824600D01*
G75*
G02*
X92006400Y-48605850I0J218750D01*
G01*
X92006400Y-48168350D01*
G75*
G02*
X92225150Y-47949600I218750J0D01*
G01*
G37*
G36*
G01*
X92225150Y-46374600D02*
X92737650Y-46374600D01*
G75*
G02*
X92956400Y-46593350I0J-218750D01*
G01*
X92956400Y-47030850D01*
G75*
G02*
X92737650Y-47249600I-218750J0D01*
G01*
X92225150Y-47249600D01*
G75*
G02*
X92006400Y-47030850I0J218750D01*
G01*
X92006400Y-46593350D01*
G75*
G02*
X92225150Y-46374600I218750J0D01*
G01*
G37*
G04 #@! TD*
G04 #@! TO.C,R5*
G36*
G01*
X94261650Y-42550600D02*
X93749150Y-42550600D01*
G75*
G02*
X93530400Y-42331850I0J218750D01*
G01*
X93530400Y-41894350D01*
G75*
G02*
X93749150Y-41675600I218750J0D01*
G01*
X94261650Y-41675600D01*
G75*
G02*
X94480400Y-41894350I0J-218750D01*
G01*
X94480400Y-42331850D01*
G75*
G02*
X94261650Y-42550600I-218750J0D01*
G01*
G37*
G36*
G01*
X94261650Y-44125600D02*
X93749150Y-44125600D01*
G75*
G02*
X93530400Y-43906850I0J218750D01*
G01*
X93530400Y-43469350D01*
G75*
G02*
X93749150Y-43250600I218750J0D01*
G01*
X94261650Y-43250600D01*
G75*
G02*
X94480400Y-43469350I0J-218750D01*
G01*
X94480400Y-43906850D01*
G75*
G02*
X94261650Y-44125600I-218750J0D01*
G01*
G37*
G04 #@! TD*
G04 #@! TO.C,C37*
G36*
G01*
X92423400Y-65454850D02*
X92423400Y-64542350D01*
G75*
G02*
X92667150Y-64298600I243750J0D01*
G01*
X93154650Y-64298600D01*
G75*
G02*
X93398400Y-64542350I0J-243750D01*
G01*
X93398400Y-65454850D01*
G75*
G02*
X93154650Y-65698600I-243750J0D01*
G01*
X92667150Y-65698600D01*
G75*
G02*
X92423400Y-65454850I0J243750D01*
G01*
G37*
G36*
G01*
X90548400Y-65454850D02*
X90548400Y-64542350D01*
G75*
G02*
X90792150Y-64298600I243750J0D01*
G01*
X91279650Y-64298600D01*
G75*
G02*
X91523400Y-64542350I0J-243750D01*
G01*
X91523400Y-65454850D01*
G75*
G02*
X91279650Y-65698600I-243750J0D01*
G01*
X90792150Y-65698600D01*
G75*
G02*
X90548400Y-65454850I0J243750D01*
G01*
G37*
G04 #@! TD*
G04 #@! TO.C,C42*
G36*
G01*
X92423400Y-63041850D02*
X92423400Y-62129350D01*
G75*
G02*
X92667150Y-61885600I243750J0D01*
G01*
X93154650Y-61885600D01*
G75*
G02*
X93398400Y-62129350I0J-243750D01*
G01*
X93398400Y-63041850D01*
G75*
G02*
X93154650Y-63285600I-243750J0D01*
G01*
X92667150Y-63285600D01*
G75*
G02*
X92423400Y-63041850I0J243750D01*
G01*
G37*
G36*
G01*
X90548400Y-63041850D02*
X90548400Y-62129350D01*
G75*
G02*
X90792150Y-61885600I243750J0D01*
G01*
X91279650Y-61885600D01*
G75*
G02*
X91523400Y-62129350I0J-243750D01*
G01*
X91523400Y-63041850D01*
G75*
G02*
X91279650Y-63285600I-243750J0D01*
G01*
X90792150Y-63285600D01*
G75*
G02*
X90548400Y-63041850I0J243750D01*
G01*
G37*
G04 #@! TD*
D22*
G04 #@! TO.C,JP10*
X90595500Y-91224100D03*
X91395500Y-91224100D03*
G04 #@! TD*
G04 #@! TO.C,JP9*
X87992000Y-91160600D03*
X88792000Y-91160600D03*
G04 #@! TD*
G04 #@! TO.C,JP6*
X82912000Y-91224100D03*
X83712000Y-91224100D03*
G04 #@! TD*
G04 #@! TO.C,JP5*
X86252000Y-91160600D03*
X85452000Y-91160600D03*
G04 #@! TD*
D23*
G04 #@! TO.C,P2*
X84578400Y-105002400D03*
X84578400Y-104202400D03*
X84578400Y-99302400D03*
X84578400Y-98502400D03*
X84578400Y-98502400D03*
X84578400Y-99302400D03*
X84578400Y-104202400D03*
X84578400Y-105002400D03*
D24*
X84578400Y-100002400D03*
X84578400Y-100502400D03*
X84578400Y-101002400D03*
X84578400Y-102002400D03*
X84578400Y-102502400D03*
X84578400Y-103002400D03*
X84578400Y-103502400D03*
X84578400Y-101502400D03*
D25*
X83228400Y-107372400D03*
X83228400Y-96132400D03*
D26*
X79228400Y-96132400D03*
X79228400Y-107372400D03*
G04 #@! TD*
D27*
G04 #@! TO.C,P1*
X83249700Y-42960500D03*
X84049700Y-42960500D03*
X88949700Y-42960500D03*
X89749700Y-42960500D03*
X89749700Y-42960500D03*
X88949700Y-42960500D03*
X84049700Y-42960500D03*
X83249700Y-42960500D03*
D28*
X88249700Y-42960500D03*
X87749700Y-42960500D03*
X87249700Y-42960500D03*
X86249700Y-42960500D03*
X85749700Y-42960500D03*
X85249700Y-42960500D03*
X84749700Y-42960500D03*
X86749700Y-42960500D03*
D29*
X80879700Y-41610500D03*
X92119700Y-41610500D03*
D30*
X92119700Y-37610500D03*
X80879700Y-37610500D03*
G04 #@! TD*
D31*
G04 #@! TO.C,MH9*
X157122726Y-110212274D03*
X155956000Y-109729000D03*
X154789274Y-110212274D03*
X154306000Y-111379000D03*
X154789274Y-112545726D03*
X155956000Y-113029000D03*
X157122726Y-112545726D03*
X157606000Y-111379000D03*
D32*
X155956000Y-111379000D03*
G04 #@! TD*
D31*
G04 #@! TO.C,MH8*
X136421726Y-78081274D03*
X135255000Y-77598000D03*
X134088274Y-78081274D03*
X133605000Y-79248000D03*
X134088274Y-80414726D03*
X135255000Y-80898000D03*
X136421726Y-80414726D03*
X136905000Y-79248000D03*
D32*
X135255000Y-79248000D03*
G04 #@! TD*
D31*
G04 #@! TO.C,MH7*
X135786726Y-32488274D03*
X134620000Y-32005000D03*
X133453274Y-32488274D03*
X132970000Y-33655000D03*
X133453274Y-34821726D03*
X134620000Y-35305000D03*
X135786726Y-34821726D03*
X136270000Y-33655000D03*
D32*
X134620000Y-33655000D03*
G04 #@! TD*
D31*
G04 #@! TO.C,MH6*
X191412726Y-73636274D03*
X190246000Y-73153000D03*
X189079274Y-73636274D03*
X188596000Y-74803000D03*
X189079274Y-75969726D03*
X190246000Y-76453000D03*
X191412726Y-75969726D03*
X191896000Y-74803000D03*
D32*
X190246000Y-74803000D03*
G04 #@! TD*
D31*
G04 #@! TO.C,MH5*
X209295326Y-122683674D03*
X208128600Y-122200400D03*
X206961874Y-122683674D03*
X206478600Y-123850400D03*
X206961874Y-125017126D03*
X208128600Y-125500400D03*
X209295326Y-125017126D03*
X209778600Y-123850400D03*
D32*
X208128600Y-123850400D03*
G04 #@! TD*
D31*
G04 #@! TO.C,MH4*
X118260726Y-140971674D03*
X117094000Y-140488400D03*
X115927274Y-140971674D03*
X115444000Y-142138400D03*
X115927274Y-143305126D03*
X117094000Y-143788400D03*
X118260726Y-143305126D03*
X118744000Y-142138400D03*
D32*
X117094000Y-142138400D03*
G04 #@! TD*
D31*
G04 #@! TO.C,MH3*
X212775126Y-42089474D03*
X211608400Y-41606200D03*
X210441674Y-42089474D03*
X209958400Y-43256200D03*
X210441674Y-44422926D03*
X211608400Y-44906200D03*
X212775126Y-44422926D03*
X213258400Y-43256200D03*
D32*
X211608400Y-43256200D03*
G04 #@! TD*
D31*
G04 #@! TO.C,MH2*
X81786326Y-47118674D03*
X80619600Y-46635400D03*
X79452874Y-47118674D03*
X78969600Y-48285400D03*
X79452874Y-49452126D03*
X80619600Y-49935400D03*
X81786326Y-49452126D03*
X82269600Y-48285400D03*
D32*
X80619600Y-48285400D03*
G04 #@! TD*
D31*
G04 #@! TO.C,MH1*
X81786326Y-112244274D03*
X80619600Y-111761000D03*
X79452874Y-112244274D03*
X78969600Y-113411000D03*
X79452874Y-114577726D03*
X80619600Y-115061000D03*
X81786326Y-114577726D03*
X82269600Y-113411000D03*
D32*
X80619600Y-113411000D03*
G04 #@! TD*
D33*
G04 #@! TO.C,D78*
X79971900Y-74587100D03*
X81470500Y-74587100D03*
G04 #@! TD*
D34*
G04 #@! TO.C,J1*
X87909400Y-64871600D03*
X87909400Y-62331600D03*
X87909400Y-59791600D03*
X87909400Y-57251600D03*
X87909400Y-54711600D03*
D35*
X87909400Y-52171600D03*
G04 #@! TD*
D36*
G04 #@! TO.C,Q1*
X93481400Y-59283600D03*
X91481400Y-60233600D03*
X91481400Y-58333600D03*
G04 #@! TD*
D37*
G04 #@! TO.C,SW1*
X174142400Y-114274600D03*
D38*
X171642400Y-114274600D03*
X169142400Y-114274600D03*
D39*
X177242400Y-121774600D03*
X166042400Y-121774600D03*
D38*
X174142400Y-128774600D03*
X169142400Y-128774600D03*
G04 #@! TD*
G04 #@! TO.C,U3*
G36*
G01*
X84396700Y-78820600D02*
X83071700Y-78820600D01*
G75*
G02*
X82996700Y-78745600I0J75000D01*
G01*
X82996700Y-78595600D01*
G75*
G02*
X83071700Y-78520600I75000J0D01*
G01*
X84396700Y-78520600D01*
G75*
G02*
X84471700Y-78595600I0J-75000D01*
G01*
X84471700Y-78745600D01*
G75*
G02*
X84396700Y-78820600I-75000J0D01*
G01*
G37*
G36*
G01*
X84396700Y-78320600D02*
X83071700Y-78320600D01*
G75*
G02*
X82996700Y-78245600I0J75000D01*
G01*
X82996700Y-78095600D01*
G75*
G02*
X83071700Y-78020600I75000J0D01*
G01*
X84396700Y-78020600D01*
G75*
G02*
X84471700Y-78095600I0J-75000D01*
G01*
X84471700Y-78245600D01*
G75*
G02*
X84396700Y-78320600I-75000J0D01*
G01*
G37*
G36*
G01*
X84396700Y-77820600D02*
X83071700Y-77820600D01*
G75*
G02*
X82996700Y-77745600I0J75000D01*
G01*
X82996700Y-77595600D01*
G75*
G02*
X83071700Y-77520600I75000J0D01*
G01*
X84396700Y-77520600D01*
G75*
G02*
X84471700Y-77595600I0J-75000D01*
G01*
X84471700Y-77745600D01*
G75*
G02*
X84396700Y-77820600I-75000J0D01*
G01*
G37*
G36*
G01*
X84396700Y-77320600D02*
X83071700Y-77320600D01*
G75*
G02*
X82996700Y-77245600I0J75000D01*
G01*
X82996700Y-77095600D01*
G75*
G02*
X83071700Y-77020600I75000J0D01*
G01*
X84396700Y-77020600D01*
G75*
G02*
X84471700Y-77095600I0J-75000D01*
G01*
X84471700Y-77245600D01*
G75*
G02*
X84396700Y-77320600I-75000J0D01*
G01*
G37*
G36*
G01*
X84396700Y-76820600D02*
X83071700Y-76820600D01*
G75*
G02*
X82996700Y-76745600I0J75000D01*
G01*
X82996700Y-76595600D01*
G75*
G02*
X83071700Y-76520600I75000J0D01*
G01*
X84396700Y-76520600D01*
G75*
G02*
X84471700Y-76595600I0J-75000D01*
G01*
X84471700Y-76745600D01*
G75*
G02*
X84396700Y-76820600I-75000J0D01*
G01*
G37*
G36*
G01*
X84396700Y-76320600D02*
X83071700Y-76320600D01*
G75*
G02*
X82996700Y-76245600I0J75000D01*
G01*
X82996700Y-76095600D01*
G75*
G02*
X83071700Y-76020600I75000J0D01*
G01*
X84396700Y-76020600D01*
G75*
G02*
X84471700Y-76095600I0J-75000D01*
G01*
X84471700Y-76245600D01*
G75*
G02*
X84396700Y-76320600I-75000J0D01*
G01*
G37*
G36*
G01*
X84396700Y-75820600D02*
X83071700Y-75820600D01*
G75*
G02*
X82996700Y-75745600I0J75000D01*
G01*
X82996700Y-75595600D01*
G75*
G02*
X83071700Y-75520600I75000J0D01*
G01*
X84396700Y-75520600D01*
G75*
G02*
X84471700Y-75595600I0J-75000D01*
G01*
X84471700Y-75745600D01*
G75*
G02*
X84396700Y-75820600I-75000J0D01*
G01*
G37*
G36*
G01*
X84396700Y-75320600D02*
X83071700Y-75320600D01*
G75*
G02*
X82996700Y-75245600I0J75000D01*
G01*
X82996700Y-75095600D01*
G75*
G02*
X83071700Y-75020600I75000J0D01*
G01*
X84396700Y-75020600D01*
G75*
G02*
X84471700Y-75095600I0J-75000D01*
G01*
X84471700Y-75245600D01*
G75*
G02*
X84396700Y-75320600I-75000J0D01*
G01*
G37*
G36*
G01*
X84396700Y-74820600D02*
X83071700Y-74820600D01*
G75*
G02*
X82996700Y-74745600I0J75000D01*
G01*
X82996700Y-74595600D01*
G75*
G02*
X83071700Y-74520600I75000J0D01*
G01*
X84396700Y-74520600D01*
G75*
G02*
X84471700Y-74595600I0J-75000D01*
G01*
X84471700Y-74745600D01*
G75*
G02*
X84396700Y-74820600I-75000J0D01*
G01*
G37*
G36*
G01*
X84396700Y-74320600D02*
X83071700Y-74320600D01*
G75*
G02*
X82996700Y-74245600I0J75000D01*
G01*
X82996700Y-74095600D01*
G75*
G02*
X83071700Y-74020600I75000J0D01*
G01*
X84396700Y-74020600D01*
G75*
G02*
X84471700Y-74095600I0J-75000D01*
G01*
X84471700Y-74245600D01*
G75*
G02*
X84396700Y-74320600I-75000J0D01*
G01*
G37*
G36*
G01*
X84396700Y-73820600D02*
X83071700Y-73820600D01*
G75*
G02*
X82996700Y-73745600I0J75000D01*
G01*
X82996700Y-73595600D01*
G75*
G02*
X83071700Y-73520600I75000J0D01*
G01*
X84396700Y-73520600D01*
G75*
G02*
X84471700Y-73595600I0J-75000D01*
G01*
X84471700Y-73745600D01*
G75*
G02*
X84396700Y-73820600I-75000J0D01*
G01*
G37*
G36*
G01*
X84396700Y-73320600D02*
X83071700Y-73320600D01*
G75*
G02*
X82996700Y-73245600I0J75000D01*
G01*
X82996700Y-73095600D01*
G75*
G02*
X83071700Y-73020600I75000J0D01*
G01*
X84396700Y-73020600D01*
G75*
G02*
X84471700Y-73095600I0J-75000D01*
G01*
X84471700Y-73245600D01*
G75*
G02*
X84396700Y-73320600I-75000J0D01*
G01*
G37*
G36*
G01*
X85221700Y-72495600D02*
X85071700Y-72495600D01*
G75*
G02*
X84996700Y-72420600I0J75000D01*
G01*
X84996700Y-71095600D01*
G75*
G02*
X85071700Y-71020600I75000J0D01*
G01*
X85221700Y-71020600D01*
G75*
G02*
X85296700Y-71095600I0J-75000D01*
G01*
X85296700Y-72420600D01*
G75*
G02*
X85221700Y-72495600I-75000J0D01*
G01*
G37*
G36*
G01*
X85721700Y-72495600D02*
X85571700Y-72495600D01*
G75*
G02*
X85496700Y-72420600I0J75000D01*
G01*
X85496700Y-71095600D01*
G75*
G02*
X85571700Y-71020600I75000J0D01*
G01*
X85721700Y-71020600D01*
G75*
G02*
X85796700Y-71095600I0J-75000D01*
G01*
X85796700Y-72420600D01*
G75*
G02*
X85721700Y-72495600I-75000J0D01*
G01*
G37*
G36*
G01*
X86221700Y-72495600D02*
X86071700Y-72495600D01*
G75*
G02*
X85996700Y-72420600I0J75000D01*
G01*
X85996700Y-71095600D01*
G75*
G02*
X86071700Y-71020600I75000J0D01*
G01*
X86221700Y-71020600D01*
G75*
G02*
X86296700Y-71095600I0J-75000D01*
G01*
X86296700Y-72420600D01*
G75*
G02*
X86221700Y-72495600I-75000J0D01*
G01*
G37*
G36*
G01*
X86721700Y-72495600D02*
X86571700Y-72495600D01*
G75*
G02*
X86496700Y-72420600I0J75000D01*
G01*
X86496700Y-71095600D01*
G75*
G02*
X86571700Y-71020600I75000J0D01*
G01*
X86721700Y-71020600D01*
G75*
G02*
X86796700Y-71095600I0J-75000D01*
G01*
X86796700Y-72420600D01*
G75*
G02*
X86721700Y-72495600I-75000J0D01*
G01*
G37*
G36*
G01*
X87221700Y-72495600D02*
X87071700Y-72495600D01*
G75*
G02*
X86996700Y-72420600I0J75000D01*
G01*
X86996700Y-71095600D01*
G75*
G02*
X87071700Y-71020600I75000J0D01*
G01*
X87221700Y-71020600D01*
G75*
G02*
X87296700Y-71095600I0J-75000D01*
G01*
X87296700Y-72420600D01*
G75*
G02*
X87221700Y-72495600I-75000J0D01*
G01*
G37*
G36*
G01*
X87721700Y-72495600D02*
X87571700Y-72495600D01*
G75*
G02*
X87496700Y-72420600I0J75000D01*
G01*
X87496700Y-71095600D01*
G75*
G02*
X87571700Y-71020600I75000J0D01*
G01*
X87721700Y-71020600D01*
G75*
G02*
X87796700Y-71095600I0J-75000D01*
G01*
X87796700Y-72420600D01*
G75*
G02*
X87721700Y-72495600I-75000J0D01*
G01*
G37*
G36*
G01*
X88221700Y-72495600D02*
X88071700Y-72495600D01*
G75*
G02*
X87996700Y-72420600I0J75000D01*
G01*
X87996700Y-71095600D01*
G75*
G02*
X88071700Y-71020600I75000J0D01*
G01*
X88221700Y-71020600D01*
G75*
G02*
X88296700Y-71095600I0J-75000D01*
G01*
X88296700Y-72420600D01*
G75*
G02*
X88221700Y-72495600I-75000J0D01*
G01*
G37*
G36*
G01*
X88721700Y-72495600D02*
X88571700Y-72495600D01*
G75*
G02*
X88496700Y-72420600I0J75000D01*
G01*
X88496700Y-71095600D01*
G75*
G02*
X88571700Y-71020600I75000J0D01*
G01*
X88721700Y-71020600D01*
G75*
G02*
X88796700Y-71095600I0J-75000D01*
G01*
X88796700Y-72420600D01*
G75*
G02*
X88721700Y-72495600I-75000J0D01*
G01*
G37*
G36*
G01*
X89221700Y-72495600D02*
X89071700Y-72495600D01*
G75*
G02*
X88996700Y-72420600I0J75000D01*
G01*
X88996700Y-71095600D01*
G75*
G02*
X89071700Y-71020600I75000J0D01*
G01*
X89221700Y-71020600D01*
G75*
G02*
X89296700Y-71095600I0J-75000D01*
G01*
X89296700Y-72420600D01*
G75*
G02*
X89221700Y-72495600I-75000J0D01*
G01*
G37*
G36*
G01*
X89721700Y-72495600D02*
X89571700Y-72495600D01*
G75*
G02*
X89496700Y-72420600I0J75000D01*
G01*
X89496700Y-71095600D01*
G75*
G02*
X89571700Y-71020600I75000J0D01*
G01*
X89721700Y-71020600D01*
G75*
G02*
X89796700Y-71095600I0J-75000D01*
G01*
X89796700Y-72420600D01*
G75*
G02*
X89721700Y-72495600I-75000J0D01*
G01*
G37*
G36*
G01*
X90221700Y-72495600D02*
X90071700Y-72495600D01*
G75*
G02*
X89996700Y-72420600I0J75000D01*
G01*
X89996700Y-71095600D01*
G75*
G02*
X90071700Y-71020600I75000J0D01*
G01*
X90221700Y-71020600D01*
G75*
G02*
X90296700Y-71095600I0J-75000D01*
G01*
X90296700Y-72420600D01*
G75*
G02*
X90221700Y-72495600I-75000J0D01*
G01*
G37*
G36*
G01*
X90721700Y-72495600D02*
X90571700Y-72495600D01*
G75*
G02*
X90496700Y-72420600I0J75000D01*
G01*
X90496700Y-71095600D01*
G75*
G02*
X90571700Y-71020600I75000J0D01*
G01*
X90721700Y-71020600D01*
G75*
G02*
X90796700Y-71095600I0J-75000D01*
G01*
X90796700Y-72420600D01*
G75*
G02*
X90721700Y-72495600I-75000J0D01*
G01*
G37*
G36*
G01*
X92721700Y-73320600D02*
X91396700Y-73320600D01*
G75*
G02*
X91321700Y-73245600I0J75000D01*
G01*
X91321700Y-73095600D01*
G75*
G02*
X91396700Y-73020600I75000J0D01*
G01*
X92721700Y-73020600D01*
G75*
G02*
X92796700Y-73095600I0J-75000D01*
G01*
X92796700Y-73245600D01*
G75*
G02*
X92721700Y-73320600I-75000J0D01*
G01*
G37*
G36*
G01*
X92721700Y-73820600D02*
X91396700Y-73820600D01*
G75*
G02*
X91321700Y-73745600I0J75000D01*
G01*
X91321700Y-73595600D01*
G75*
G02*
X91396700Y-73520600I75000J0D01*
G01*
X92721700Y-73520600D01*
G75*
G02*
X92796700Y-73595600I0J-75000D01*
G01*
X92796700Y-73745600D01*
G75*
G02*
X92721700Y-73820600I-75000J0D01*
G01*
G37*
G36*
G01*
X92721700Y-74320600D02*
X91396700Y-74320600D01*
G75*
G02*
X91321700Y-74245600I0J75000D01*
G01*
X91321700Y-74095600D01*
G75*
G02*
X91396700Y-74020600I75000J0D01*
G01*
X92721700Y-74020600D01*
G75*
G02*
X92796700Y-74095600I0J-75000D01*
G01*
X92796700Y-74245600D01*
G75*
G02*
X92721700Y-74320600I-75000J0D01*
G01*
G37*
G36*
G01*
X92721700Y-74820600D02*
X91396700Y-74820600D01*
G75*
G02*
X91321700Y-74745600I0J75000D01*
G01*
X91321700Y-74595600D01*
G75*
G02*
X91396700Y-74520600I75000J0D01*
G01*
X92721700Y-74520600D01*
G75*
G02*
X92796700Y-74595600I0J-75000D01*
G01*
X92796700Y-74745600D01*
G75*
G02*
X92721700Y-74820600I-75000J0D01*
G01*
G37*
G36*
G01*
X92721700Y-75320600D02*
X91396700Y-75320600D01*
G75*
G02*
X91321700Y-75245600I0J75000D01*
G01*
X91321700Y-75095600D01*
G75*
G02*
X91396700Y-75020600I75000J0D01*
G01*
X92721700Y-75020600D01*
G75*
G02*
X92796700Y-75095600I0J-75000D01*
G01*
X92796700Y-75245600D01*
G75*
G02*
X92721700Y-75320600I-75000J0D01*
G01*
G37*
G36*
G01*
X92721700Y-75820600D02*
X91396700Y-75820600D01*
G75*
G02*
X91321700Y-75745600I0J75000D01*
G01*
X91321700Y-75595600D01*
G75*
G02*
X91396700Y-75520600I75000J0D01*
G01*
X92721700Y-75520600D01*
G75*
G02*
X92796700Y-75595600I0J-75000D01*
G01*
X92796700Y-75745600D01*
G75*
G02*
X92721700Y-75820600I-75000J0D01*
G01*
G37*
G36*
G01*
X92721700Y-76320600D02*
X91396700Y-76320600D01*
G75*
G02*
X91321700Y-76245600I0J75000D01*
G01*
X91321700Y-76095600D01*
G75*
G02*
X91396700Y-76020600I75000J0D01*
G01*
X92721700Y-76020600D01*
G75*
G02*
X92796700Y-76095600I0J-75000D01*
G01*
X92796700Y-76245600D01*
G75*
G02*
X92721700Y-76320600I-75000J0D01*
G01*
G37*
G36*
G01*
X92721700Y-76820600D02*
X91396700Y-76820600D01*
G75*
G02*
X91321700Y-76745600I0J75000D01*
G01*
X91321700Y-76595600D01*
G75*
G02*
X91396700Y-76520600I75000J0D01*
G01*
X92721700Y-76520600D01*
G75*
G02*
X92796700Y-76595600I0J-75000D01*
G01*
X92796700Y-76745600D01*
G75*
G02*
X92721700Y-76820600I-75000J0D01*
G01*
G37*
G36*
G01*
X92721700Y-77320600D02*
X91396700Y-77320600D01*
G75*
G02*
X91321700Y-77245600I0J75000D01*
G01*
X91321700Y-77095600D01*
G75*
G02*
X91396700Y-77020600I75000J0D01*
G01*
X92721700Y-77020600D01*
G75*
G02*
X92796700Y-77095600I0J-75000D01*
G01*
X92796700Y-77245600D01*
G75*
G02*
X92721700Y-77320600I-75000J0D01*
G01*
G37*
G36*
G01*
X92721700Y-77820600D02*
X91396700Y-77820600D01*
G75*
G02*
X91321700Y-77745600I0J75000D01*
G01*
X91321700Y-77595600D01*
G75*
G02*
X91396700Y-77520600I75000J0D01*
G01*
X92721700Y-77520600D01*
G75*
G02*
X92796700Y-77595600I0J-75000D01*
G01*
X92796700Y-77745600D01*
G75*
G02*
X92721700Y-77820600I-75000J0D01*
G01*
G37*
G36*
G01*
X92721700Y-78320600D02*
X91396700Y-78320600D01*
G75*
G02*
X91321700Y-78245600I0J75000D01*
G01*
X91321700Y-78095600D01*
G75*
G02*
X91396700Y-78020600I75000J0D01*
G01*
X92721700Y-78020600D01*
G75*
G02*
X92796700Y-78095600I0J-75000D01*
G01*
X92796700Y-78245600D01*
G75*
G02*
X92721700Y-78320600I-75000J0D01*
G01*
G37*
G36*
G01*
X92721700Y-78820600D02*
X91396700Y-78820600D01*
G75*
G02*
X91321700Y-78745600I0J75000D01*
G01*
X91321700Y-78595600D01*
G75*
G02*
X91396700Y-78520600I75000J0D01*
G01*
X92721700Y-78520600D01*
G75*
G02*
X92796700Y-78595600I0J-75000D01*
G01*
X92796700Y-78745600D01*
G75*
G02*
X92721700Y-78820600I-75000J0D01*
G01*
G37*
G36*
G01*
X90721700Y-80820600D02*
X90571700Y-80820600D01*
G75*
G02*
X90496700Y-80745600I0J75000D01*
G01*
X90496700Y-79420600D01*
G75*
G02*
X90571700Y-79345600I75000J0D01*
G01*
X90721700Y-79345600D01*
G75*
G02*
X90796700Y-79420600I0J-75000D01*
G01*
X90796700Y-80745600D01*
G75*
G02*
X90721700Y-80820600I-75000J0D01*
G01*
G37*
G36*
G01*
X90221700Y-80820600D02*
X90071700Y-80820600D01*
G75*
G02*
X89996700Y-80745600I0J75000D01*
G01*
X89996700Y-79420600D01*
G75*
G02*
X90071700Y-79345600I75000J0D01*
G01*
X90221700Y-79345600D01*
G75*
G02*
X90296700Y-79420600I0J-75000D01*
G01*
X90296700Y-80745600D01*
G75*
G02*
X90221700Y-80820600I-75000J0D01*
G01*
G37*
G36*
G01*
X89721700Y-80820600D02*
X89571700Y-80820600D01*
G75*
G02*
X89496700Y-80745600I0J75000D01*
G01*
X89496700Y-79420600D01*
G75*
G02*
X89571700Y-79345600I75000J0D01*
G01*
X89721700Y-79345600D01*
G75*
G02*
X89796700Y-79420600I0J-75000D01*
G01*
X89796700Y-80745600D01*
G75*
G02*
X89721700Y-80820600I-75000J0D01*
G01*
G37*
G36*
G01*
X89221700Y-80820600D02*
X89071700Y-80820600D01*
G75*
G02*
X88996700Y-80745600I0J75000D01*
G01*
X88996700Y-79420600D01*
G75*
G02*
X89071700Y-79345600I75000J0D01*
G01*
X89221700Y-79345600D01*
G75*
G02*
X89296700Y-79420600I0J-75000D01*
G01*
X89296700Y-80745600D01*
G75*
G02*
X89221700Y-80820600I-75000J0D01*
G01*
G37*
G36*
G01*
X88721700Y-80820600D02*
X88571700Y-80820600D01*
G75*
G02*
X88496700Y-80745600I0J75000D01*
G01*
X88496700Y-79420600D01*
G75*
G02*
X88571700Y-79345600I75000J0D01*
G01*
X88721700Y-79345600D01*
G75*
G02*
X88796700Y-79420600I0J-75000D01*
G01*
X88796700Y-80745600D01*
G75*
G02*
X88721700Y-80820600I-75000J0D01*
G01*
G37*
G36*
G01*
X88221700Y-80820600D02*
X88071700Y-80820600D01*
G75*
G02*
X87996700Y-80745600I0J75000D01*
G01*
X87996700Y-79420600D01*
G75*
G02*
X88071700Y-79345600I75000J0D01*
G01*
X88221700Y-79345600D01*
G75*
G02*
X88296700Y-79420600I0J-75000D01*
G01*
X88296700Y-80745600D01*
G75*
G02*
X88221700Y-80820600I-75000J0D01*
G01*
G37*
G36*
G01*
X87721700Y-80820600D02*
X87571700Y-80820600D01*
G75*
G02*
X87496700Y-80745600I0J75000D01*
G01*
X87496700Y-79420600D01*
G75*
G02*
X87571700Y-79345600I75000J0D01*
G01*
X87721700Y-79345600D01*
G75*
G02*
X87796700Y-79420600I0J-75000D01*
G01*
X87796700Y-80745600D01*
G75*
G02*
X87721700Y-80820600I-75000J0D01*
G01*
G37*
G36*
G01*
X87221700Y-80820600D02*
X87071700Y-80820600D01*
G75*
G02*
X86996700Y-80745600I0J75000D01*
G01*
X86996700Y-79420600D01*
G75*
G02*
X87071700Y-79345600I75000J0D01*
G01*
X87221700Y-79345600D01*
G75*
G02*
X87296700Y-79420600I0J-75000D01*
G01*
X87296700Y-80745600D01*
G75*
G02*
X87221700Y-80820600I-75000J0D01*
G01*
G37*
G36*
G01*
X86721700Y-80820600D02*
X86571700Y-80820600D01*
G75*
G02*
X86496700Y-80745600I0J75000D01*
G01*
X86496700Y-79420600D01*
G75*
G02*
X86571700Y-79345600I75000J0D01*
G01*
X86721700Y-79345600D01*
G75*
G02*
X86796700Y-79420600I0J-75000D01*
G01*
X86796700Y-80745600D01*
G75*
G02*
X86721700Y-80820600I-75000J0D01*
G01*
G37*
G36*
G01*
X86221700Y-80820600D02*
X86071700Y-80820600D01*
G75*
G02*
X85996700Y-80745600I0J75000D01*
G01*
X85996700Y-79420600D01*
G75*
G02*
X86071700Y-79345600I75000J0D01*
G01*
X86221700Y-79345600D01*
G75*
G02*
X86296700Y-79420600I0J-75000D01*
G01*
X86296700Y-80745600D01*
G75*
G02*
X86221700Y-80820600I-75000J0D01*
G01*
G37*
G36*
G01*
X85721700Y-80820600D02*
X85571700Y-80820600D01*
G75*
G02*
X85496700Y-80745600I0J75000D01*
G01*
X85496700Y-79420600D01*
G75*
G02*
X85571700Y-79345600I75000J0D01*
G01*
X85721700Y-79345600D01*
G75*
G02*
X85796700Y-79420600I0J-75000D01*
G01*
X85796700Y-80745600D01*
G75*
G02*
X85721700Y-80820600I-75000J0D01*
G01*
G37*
G36*
G01*
X85221700Y-80820600D02*
X85071700Y-80820600D01*
G75*
G02*
X84996700Y-80745600I0J75000D01*
G01*
X84996700Y-79420600D01*
G75*
G02*
X85071700Y-79345600I75000J0D01*
G01*
X85221700Y-79345600D01*
G75*
G02*
X85296700Y-79420600I0J-75000D01*
G01*
X85296700Y-80745600D01*
G75*
G02*
X85221700Y-80820600I-75000J0D01*
G01*
G37*
G04 #@! TD*
D22*
G04 #@! TO.C,JP2*
X92265400Y-96672400D03*
X90665400Y-96672400D03*
X91465400Y-96672400D03*
G04 #@! TD*
G04 #@! TO.C,JP1*
X87236400Y-96672400D03*
X88836400Y-96672400D03*
X88036400Y-96672400D03*
G04 #@! TD*
G04 #@! TO.C,C56*
G36*
G01*
X91606400Y-54294600D02*
X91606400Y-56144600D01*
G75*
G02*
X91356400Y-56394600I-250000J0D01*
G01*
X90356400Y-56394600D01*
G75*
G02*
X90106400Y-56144600I0J250000D01*
G01*
X90106400Y-54294600D01*
G75*
G02*
X90356400Y-54044600I250000J0D01*
G01*
X91356400Y-54044600D01*
G75*
G02*
X91606400Y-54294600I0J-250000D01*
G01*
G37*
G36*
G01*
X94856400Y-54294600D02*
X94856400Y-56144600D01*
G75*
G02*
X94606400Y-56394600I-250000J0D01*
G01*
X93606400Y-56394600D01*
G75*
G02*
X93356400Y-56144600I0J250000D01*
G01*
X93356400Y-54294600D01*
G75*
G02*
X93606400Y-54044600I250000J0D01*
G01*
X94606400Y-54044600D01*
G75*
G02*
X94856400Y-54294600I0J-250000D01*
G01*
G37*
G04 #@! TD*
G04 #@! TO.C,C48*
G36*
G01*
X91606400Y-50484600D02*
X91606400Y-52334600D01*
G75*
G02*
X91356400Y-52584600I-250000J0D01*
G01*
X90356400Y-52584600D01*
G75*
G02*
X90106400Y-52334600I0J250000D01*
G01*
X90106400Y-50484600D01*
G75*
G02*
X90356400Y-50234600I250000J0D01*
G01*
X91356400Y-50234600D01*
G75*
G02*
X91606400Y-50484600I0J-250000D01*
G01*
G37*
G36*
G01*
X94856400Y-50484600D02*
X94856400Y-52334600D01*
G75*
G02*
X94606400Y-52584600I-250000J0D01*
G01*
X93606400Y-52584600D01*
G75*
G02*
X93356400Y-52334600I0J250000D01*
G01*
X93356400Y-50484600D01*
G75*
G02*
X93606400Y-50234600I250000J0D01*
G01*
X94606400Y-50234600D01*
G75*
G02*
X94856400Y-50484600I0J-250000D01*
G01*
G37*
G04 #@! TD*
D40*
G04 #@! TO.C,HSE1*
X84268700Y-84676600D03*
X87968700Y-84676600D03*
X87968700Y-86976600D03*
X84268700Y-86976600D03*
G04 #@! TD*
D41*
G04 #@! TO.C,U2*
X90656400Y-101752400D03*
X90656400Y-100802400D03*
X90656400Y-102702400D03*
X87956400Y-102702400D03*
X87956400Y-101752400D03*
X87956400Y-100802400D03*
G04 #@! TD*
D42*
G04 #@! TO.C,U1*
X86512400Y-49076600D03*
X87462400Y-49076600D03*
X85562400Y-49076600D03*
X85562400Y-46376600D03*
X86512400Y-46376600D03*
X87462400Y-46376600D03*
G04 #@! TD*
D33*
G04 #@! TO.C,D77*
X94894400Y-65646300D03*
X94894400Y-67144900D03*
G04 #@! TD*
M02*
