M48
; DRILL file {KiCad 5.1.8-db9833491~88~ubuntu20.10.1} date Thu Dec 17 18:19:57 2020
; FORMAT={-:-/ absolute / inch / decimal}
; #@! TF.CreationDate,2020-12-17T18:19:57+01:00
; #@! TF.GenerationSoftware,Kicad,Pcbnew,5.1.8-db9833491~88~ubuntu20.10.1
; #@! TF.FileFunction,Plated,1,2,PTH
FMAT,2
INCH
T1C0.0120
T2C0.0157
T3C0.0200
T4C0.0236
T5C0.0394
T6C0.0591
T7C0.0866
%
G90
G05
T1
X2.8275Y-4.9075
X3.063Y-1.584
X3.063Y-1.655
X3.09Y-3.36
X3.1118Y-2.8578
X3.1325Y-4.6125
X3.135Y-2.6475
X3.135Y-3.67
X3.145Y-3.1
X3.145Y-3.17
X3.15Y-3.301
X3.151Y-3.443
X3.18Y-2.925
X3.186Y-1.729
X3.1862Y-4.9618
X3.198Y-4.317
X3.21Y-3.005
X3.213Y-3.034
X3.2175Y-2.7475
X3.245Y-3.08
X3.245Y-3.685
X3.246Y-1.689
X3.246Y-1.729
X3.263Y-2.901
X3.268Y-2.841
X3.27Y-3.45
X3.2775Y-3.6
X3.2975Y-2.861
X3.3Y-4.5375
X3.3031Y-1.9919
X3.325Y-3.865
X3.3275Y-3.3325
X3.33Y-3.5525
X3.3331Y-1.9919
X3.335Y-2.055
X3.335Y-2.125
X3.3475Y-3.0775
X3.356Y-3.865
X3.3585Y-2.5565
X3.371Y-3.896
X3.371Y-4.016
X3.371Y-4.156
X3.371Y-4.211
X3.3725Y-2.875
X3.375Y-3.71
X3.385Y-2.765
X3.3925Y-3.2075
X3.3925Y-3.2875
X3.396Y-1.739
X3.4Y-3.105
X3.406Y-1.795
X3.406Y-4.156
X3.406Y-4.211
X3.415Y-3.59
X3.4155Y-4.0555
X3.42Y-2.98
X3.43Y-3.5575
X3.43Y-4.026
X3.435Y-1.7775
X3.45Y-2.8725
X3.45Y-5.935
X3.452Y-5.2327
X3.49Y-3.1025
X3.4925Y-4.925
X3.5Y-3.6325
X3.5Y-3.6575
X3.5Y-3.6825
X3.5125Y-2.6525
X3.5125Y-2.605
X3.515Y-3.3975
X3.526Y-4.026
X3.53Y-2.9825
X3.53Y-3.5525
X3.537Y-4.873
X3.5525Y-4.3375
X3.555Y-3.43
X3.56Y-2.28
X3.56Y-2.445
X3.56Y-2.525
X3.566Y-1.689
X3.566Y-1.729
X3.575Y-2.9
X3.5768Y-2.1268
X3.58Y-4.7675
X3.5825Y-3.6
X3.595Y-2.49
X3.6018Y-2.1268
X3.6075Y-2.795
X3.626Y-1.729
X3.6325Y-2.63
X3.6325Y-3.161
X3.635Y-2.045
X3.635Y-3.71
X3.6375Y-4.31
X3.655Y-3.2525
X3.6768Y-2.9404
X3.677Y-3.29
X3.684Y-4.026
X3.6875Y-2.88
X3.6876Y-2.9201
X3.69Y-2.49
X3.695Y-3.3225
X3.695Y-2.045
X3.71Y-2.5725
X3.7175Y-3.2725
X3.725Y-3.9
X3.73Y-3.69
X3.735Y-2.28
X3.735Y-2.31
X3.735Y-2.455
X3.7575Y-2.795
X3.765Y-2.07
X3.775Y-4.2225
X3.785Y-2.1
X3.811Y-1.555
X3.8225Y-2.9575
X3.8343Y-4.9965
X3.8673Y-2.1528
X3.8675Y-3.055
X3.8695Y-2.48
X3.88Y-3.63
X3.8908Y-5.3817
X3.895Y-5.6575
X3.9375Y-3.96
X3.9525Y-4.2575
X4.1475Y-4.0725
X4.225Y-3.9975
X4.2413Y-3.7555
X4.2441Y-4.7311
X4.2843Y-2.9508
X4.36Y-4.47
X4.385Y-5.2675
X4.44Y-3.06
X4.4676Y-4.2676
X4.4893Y-2.8995
X4.5Y-4.4425
X4.555Y-4.3125
X4.575Y-1.555
X4.575Y-2.99
X4.575Y-3.11
X4.575Y-4.0325
X4.576Y-3.2602
X4.62Y-2.29
X4.685Y-4.565
X4.7175Y-2.37
X4.7405Y-5.278
X5.1012Y-4.5762
X5.17Y-3.07
X5.325Y-1.56
X5.325Y-2.455
X5.325Y-3.935
X5.4325Y-4.525
X5.44Y-4.57
X5.4475Y-3.75
X5.465Y-2.2675
X5.6Y-2.9
X5.605Y-3.06
X5.7975Y-4.35
X5.83Y-2.0475
X5.8525Y-2.1775
X5.9083Y-2.9437
X5.99Y-2.78
X6.075Y-1.325
X6.075Y-2.2775
X6.075Y-2.78
X6.075Y-2.91
X6.075Y-3.7875
X6.22Y-3.5825
X6.345Y-4.455
X6.469Y-4.36
X6.5775Y-4.29
X6.6953Y-2.0996
X6.7393Y-2.7157
X6.825Y-1.45
X6.825Y-2.3225
X6.825Y-2.995
X6.825Y-3.155
X6.825Y-3.8125
X6.825Y-4.28
X6.825Y-2.9025
X7.0264Y-3.848
X7.4891Y-2.3859
X7.575Y-1.745
X7.575Y-2.73
X7.575Y-3.4825
X7.575Y-4.24
X7.5754Y-3.3071
X7.5787Y-3.6465
X8.1697Y-4.3398
X8.18Y-3.5
X8.2393Y-2.5485
X8.2675Y-2.0175
X8.3248Y-3.4077
X8.325Y-3.0425
X8.325Y-3.575
X8.3275Y-4.4725
X8.4275Y-2.8675
X8.43Y-3.4625
X6.186Y-4.355
X6.2169Y-4.355
X6.3212Y-4.355
X6.356Y-4.355
X4.8358Y-1.5861
X4.8654Y-1.5861
X5.0346Y-1.5861
X5.0661Y-1.5861
X5.5858Y-1.4711
X5.6154Y-1.4711
X5.7846Y-1.4711
X5.8161Y-1.4711
X4.0839Y-2.3339
X4.1154Y-2.3339
X4.2846Y-2.3339
X4.3142Y-2.3339
X5.7739Y-4.5864
X5.8054Y-4.5864
X5.9746Y-4.5864
X6.0042Y-4.5864
X4.861Y-4.47
X4.8919Y-4.47
X4.9962Y-4.47
X5.031Y-4.47
X8.5858Y-2.0911
X8.6154Y-2.0911
X8.7846Y-2.0911
X8.8161Y-2.0911
X7.0858Y-3.0961
X7.1154Y-3.0961
X7.2846Y-3.0961
X7.3161Y-3.0961
X8.5808Y-3.5861
X8.6104Y-3.5861
X8.7796Y-3.5861
X8.8111Y-3.5861
X7.8358Y-3.5061
X7.8654Y-3.5061
X8.0346Y-3.5061
X8.0661Y-3.5061
X7.8339Y-2.7539
X7.8654Y-2.7539
X8.0346Y-2.7539
X8.0642Y-2.7539
X7.0858Y-1.5861
X7.1154Y-1.5861
X7.2846Y-1.5861
X7.3161Y-1.5861
X4.2692Y-5.4562
X4.2947Y-5.4414
X4.4413Y-5.3568
X4.4686Y-5.341
X4.0858Y-1.5861
X4.1154Y-1.5861
X4.2846Y-1.5861
X4.3161Y-1.5861
X3.612Y-5.1378
X3.6405Y-5.1178
X3.726Y-5.058
X3.7513Y-5.0403
X4.0908Y-3.0911
X4.1204Y-3.0911
X4.2896Y-3.0911
X4.3211Y-3.0911
X4.8358Y-3.0911
X4.8654Y-3.0911
X5.0346Y-3.0911
X5.0661Y-3.0911
X7.0839Y-3.8439
X7.1154Y-3.8439
X7.2846Y-3.8439
X7.3142Y-3.8439
X7.0839Y-2.3439
X7.1154Y-2.3439
X7.2846Y-2.3439
X7.3142Y-2.3439
X6.3339Y-3.5439
X6.3654Y-3.5439
X6.5346Y-3.5439
X6.5642Y-3.5439
X6.359Y-1.86
X6.3938Y-1.86
X6.4981Y-1.86
X6.529Y-1.86
X2.9035Y-5.0291
X2.9276Y-5.0089
X3.0573Y-4.9001
X3.0799Y-4.8811
X7.859Y-4.08
X7.8938Y-4.08
X7.9981Y-4.08
X8.029Y-4.08
X7.864Y-2.585
X7.8988Y-2.585
X8.0031Y-2.585
X8.034Y-2.585
X8.5839Y-4.3389
X8.6154Y-4.3389
X8.7846Y-4.3389
X8.8142Y-4.3389
X8.5839Y-2.8389
X8.6154Y-2.8389
X8.7846Y-2.8389
X8.8142Y-2.8389
X5.5858Y-2.9761
X5.6154Y-2.9761
X5.7846Y-2.9761
X5.8161Y-2.9761
X5.5789Y-3.7189
X5.6104Y-3.7189
X5.7796Y-3.7189
X5.8092Y-3.7189
X6.3358Y-1.2861
X6.3654Y-1.2861
X6.5346Y-1.2861
X6.5661Y-1.2861
X4.1102Y-2.165
X4.145Y-2.165
X4.2493Y-2.165
X4.2802Y-2.165
X7.8308Y-2.0061
X7.8604Y-2.0061
X8.0296Y-2.0061
X8.0611Y-2.0061
X4.8289Y-2.3339
X4.8604Y-2.3339
X5.0296Y-2.3339
X5.0592Y-2.3339
X4.9033Y-4.7313
X4.9319Y-4.7242
X5.0962Y-4.6832
X5.1267Y-4.6756
X6.3289Y-2.0339
X6.3604Y-2.0339
X6.5296Y-2.0339
X6.5592Y-2.0339
X7.8289Y-4.2689
X7.8604Y-4.2689
X8.0296Y-4.2689
X8.0592Y-4.2689
X4.8339Y-3.8339
X4.8654Y-3.8339
X5.0346Y-3.8339
X5.0642Y-3.8339
X3.6914Y-4.444
X3.7187Y-4.4282
X3.8653Y-4.3436
X3.8908Y-4.3288
X3.6425Y-5.9129
X3.6651Y-5.8939
X3.7948Y-5.7851
X3.8189Y-5.7648
X5.5789Y-2.2189
X5.6104Y-2.2189
X5.7796Y-2.2189
X5.8092Y-2.2189
X6.3358Y-2.7861
X6.3654Y-2.7861
X6.5346Y-2.7861
X6.5661Y-2.7861
T2
X5.3896Y-3.9545
X5.3896Y-4.0945
X5.4246Y-4.1945
X5.4446Y-3.9545
X5.4796Y-4.1945
X5.5106Y-4.1607
X5.8885Y-4.1607
X5.9196Y-4.1945
X5.9546Y-3.9545
X5.9746Y-4.1945
X6.0096Y-3.9545
X6.0096Y-4.0945
X6.1396Y-3.017
X6.1396Y-3.157
X6.1746Y-3.257
X6.1946Y-3.017
X6.2296Y-3.257
X6.2606Y-3.2232
X6.6385Y-3.2232
X6.6696Y-3.257
X6.7046Y-3.017
X6.7246Y-3.257
X6.7596Y-3.017
X6.7596Y-3.157
X8.2661Y-1.788
X8.2851Y-1.7421
X8.2851Y-1.8339
X8.331Y-1.723
X8.331Y-1.853
X8.377Y-1.7421
X8.377Y-1.8339
X8.396Y-1.788
X7.4799Y-2.9205
X7.4989Y-2.8745
X7.4989Y-2.9664
X7.5449Y-2.8555
X7.5449Y-2.9854
X7.5908Y-2.8745
X7.5908Y-2.9664
X7.6098Y-2.9205
X6.8896Y-2.5745
X6.8896Y-2.7145
X6.9246Y-2.8145
X6.9446Y-2.5745
X6.9796Y-2.8145
X7.0106Y-2.7807
X7.3885Y-2.7807
X7.4196Y-2.8145
X7.4546Y-2.5745
X7.4746Y-2.8145
X7.5096Y-2.5745
X7.5096Y-2.7145
X6.1396Y-2.267
X6.1396Y-2.407
X6.1746Y-2.507
X6.1946Y-2.267
X6.2296Y-2.507
X6.2606Y-2.4732
X6.6385Y-2.4732
X6.6696Y-2.507
X6.7046Y-2.267
X6.7246Y-2.507
X6.7596Y-2.267
X6.7596Y-2.407
X8.3901Y-3.8225
X8.3901Y-3.9625
X8.4251Y-4.0625
X8.4451Y-3.8225
X8.4801Y-4.0625
X8.5111Y-4.0287
X8.889Y-4.0287
X8.9201Y-4.0625
X8.9551Y-3.8225
X8.9751Y-4.0625
X9.0101Y-3.8225
X9.0101Y-3.9625
X5.3896Y-1.7045
X5.3896Y-1.8445
X5.4246Y-1.9445
X5.4446Y-1.7045
X5.4796Y-1.9445
X5.5106Y-1.9107
X5.8885Y-1.9107
X5.9196Y-1.9445
X5.9546Y-1.7045
X5.9746Y-1.9445
X6.0096Y-1.7045
X6.0096Y-1.8445
X6.8896Y-1.8245
X6.8896Y-1.9645
X6.9246Y-2.0645
X6.9446Y-1.8245
X6.9796Y-2.0645
X7.0106Y-2.0307
X7.3885Y-2.0307
X7.4196Y-2.0645
X7.4546Y-1.8245
X7.4746Y-2.0645
X7.5096Y-1.8245
X7.5096Y-1.9645
X5.235Y-2.91
X5.2541Y-2.8641
X5.2541Y-2.9559
X5.3Y-2.845
X5.3Y-2.975
X5.3459Y-2.8641
X5.3459Y-2.9559
X5.365Y-2.91
X4.6396Y-3.317
X4.6396Y-3.457
X4.6746Y-3.557
X4.6946Y-3.317
X4.7296Y-3.557
X4.7606Y-3.5232
X5.1385Y-3.5232
X5.1696Y-3.557
X5.2046Y-3.317
X5.2246Y-3.557
X5.2596Y-3.317
X5.2596Y-3.457
X7.6396Y-2.2395
X7.6396Y-2.3795
X7.6746Y-2.4795
X7.6946Y-2.2395
X7.7296Y-2.4795
X7.7606Y-2.4457
X8.1385Y-2.4457
X8.1696Y-2.4795
X8.2046Y-2.2395
X8.2246Y-2.4795
X8.2596Y-2.2395
X8.2596Y-2.3795
X7.6396Y-2.9895
X7.6396Y-3.1295
X7.6746Y-3.2295
X7.6946Y-2.9895
X7.7296Y-3.2295
X7.7606Y-3.1957
X8.1385Y-3.1957
X8.1696Y-3.2295
X8.2046Y-2.9895
X8.2246Y-3.2295
X8.2596Y-2.9895
X8.2596Y-3.1295
X4.6396Y-4.067
X4.6396Y-4.207
X4.6746Y-4.307
X4.6946Y-4.067
X4.7296Y-4.307
X4.7606Y-4.2732
X5.1385Y-4.2732
X5.1696Y-4.307
X5.2046Y-4.067
X5.2246Y-4.307
X5.2596Y-4.067
X5.2596Y-4.207
X8.3901Y-3.0725
X8.3901Y-3.2125
X8.4251Y-3.3125
X8.4451Y-3.0725
X8.4801Y-3.3125
X8.5111Y-3.2787
X8.889Y-3.2787
X8.9201Y-3.3125
X8.9551Y-3.0725
X8.9751Y-3.3125
X9.0101Y-3.0725
X9.0101Y-3.2125
X7.6396Y-3.7395
X7.6396Y-3.8795
X7.6746Y-3.9795
X7.6946Y-3.7395
X7.7296Y-3.9795
X7.7606Y-3.9457
X8.1385Y-3.9457
X8.1696Y-3.9795
X8.2046Y-3.7395
X8.2246Y-3.9795
X8.2596Y-3.7395
X8.2596Y-3.8795
X7.825Y-4.955
X7.8441Y-4.9091
X7.8441Y-5.0009
X7.89Y-4.89
X7.89Y-5.02
X7.9359Y-4.9091
X7.9359Y-5.0009
X7.955Y-4.955
X5.3896Y-2.4545
X5.3896Y-2.5945
X5.4246Y-2.6945
X5.4446Y-2.4545
X5.4796Y-2.6945
X5.5106Y-2.6607
X5.8885Y-2.6607
X5.9196Y-2.6945
X5.9546Y-2.4545
X5.9746Y-2.6945
X6.0096Y-2.4545
X6.0096Y-2.5945
X2.9044Y-5.3302
X2.9465Y-5.2949
X2.9944Y-5.4375
X3.0855Y-5.4916
X3.1276Y-5.4562
X3.1297Y-5.4104
X3.1448Y-5.6167
X3.1869Y-5.5814
X3.2192Y-5.6509
X3.2377Y-5.7412
X3.3259Y-5.7781
X3.3311Y-5.6628
X3.3372Y-4.9671
X3.3467Y-5.8573
X3.3793Y-4.9317
X3.3888Y-5.8219
X3.4192Y-5.1675
X3.4647Y-5.1734
X3.4693Y-5.039
X3.5068Y-5.1381
X3.5776Y-5.2536
X3.6198Y-5.2182
X3.6332Y-5.4042
X3.6405Y-5.2974
X3.7207Y-5.3308
X3.7472Y-5.4246
X3.7795Y-5.4941
X3.8216Y-5.4588
X6.39Y-4.155
X6.4091Y-4.1091
X6.4091Y-4.2009
X6.455Y-4.09
X6.455Y-4.22
X6.5009Y-4.1091
X6.5009Y-4.2009
X6.52Y-4.155
X6.1396Y-1.517
X6.1396Y-1.657
X6.1746Y-1.757
X6.1946Y-1.517
X6.2296Y-1.757
X6.2606Y-1.7232
X6.6385Y-1.7232
X6.6696Y-1.757
X6.7046Y-1.517
X6.7246Y-1.757
X6.7596Y-1.517
X6.7596Y-1.657
X8.3901Y-2.3225
X8.3901Y-2.4625
X8.4251Y-2.5625
X8.4451Y-2.3225
X8.4801Y-2.5625
X8.5111Y-2.5287
X8.889Y-2.5287
X8.9201Y-2.5625
X8.9551Y-2.3225
X8.9751Y-2.5625
X9.0101Y-2.3225
X9.0101Y-2.4625
X3.8896Y-3.317
X3.8896Y-3.457
X3.9246Y-3.557
X3.9446Y-3.317
X3.9796Y-3.557
X4.0106Y-3.5232
X4.3885Y-3.5232
X4.4196Y-3.557
X4.4546Y-3.317
X4.4746Y-3.557
X4.5096Y-3.317
X4.5096Y-3.457
X4.6396Y-1.817
X4.6396Y-1.957
X4.6746Y-2.057
X4.6946Y-1.817
X4.7296Y-2.057
X4.7606Y-2.0232
X5.1385Y-2.0232
X5.1696Y-2.057
X5.2046Y-1.817
X5.2246Y-2.057
X5.2596Y-1.817
X5.2596Y-1.957
X6.8896Y-4.0745
X6.8896Y-4.2145
X6.9246Y-4.3145
X6.9446Y-4.0745
X6.9796Y-4.3145
X7.0106Y-4.2807
X7.3885Y-4.2807
X7.4196Y-4.3145
X7.4546Y-4.0745
X7.4746Y-4.3145
X7.5096Y-4.0745
X7.5096Y-4.2145
X3.8896Y-1.817
X3.8896Y-1.957
X3.9246Y-2.057
X3.9446Y-1.817
X3.9796Y-2.057
X4.0106Y-2.0232
X4.3885Y-2.0232
X4.4196Y-2.057
X4.4546Y-1.817
X4.4746Y-2.057
X4.5096Y-1.817
X4.5096Y-1.957
X4.6396Y-2.567
X4.6396Y-2.707
X4.6746Y-2.807
X4.6946Y-2.567
X4.7296Y-2.807
X4.7606Y-2.7732
X5.1385Y-2.7732
X5.1696Y-2.807
X5.2046Y-2.567
X5.2246Y-2.807
X5.2596Y-2.567
X5.2596Y-2.707
X6.1396Y-3.767
X6.1396Y-3.907
X6.1746Y-4.007
X6.1946Y-3.767
X6.2296Y-4.007
X6.2606Y-3.9732
X6.6385Y-3.9732
X6.6696Y-4.007
X6.7046Y-3.767
X6.7246Y-4.007
X6.7596Y-3.767
X6.7596Y-3.907
X7.6396Y-4.4895
X7.6396Y-4.6295
X7.6746Y-4.7295
X7.6946Y-4.4895
X7.7296Y-4.7295
X7.7606Y-4.6957
X8.1385Y-4.6957
X8.1696Y-4.7295
X8.2046Y-4.4895
X8.2246Y-4.7295
X8.2596Y-4.4895
X8.2596Y-4.6295
X5.235Y-1.325
X5.2541Y-1.2791
X5.2541Y-1.3709
X5.3Y-1.26
X5.3Y-1.39
X5.3459Y-1.2791
X5.3459Y-1.3709
X5.365Y-1.325
X4.425Y-5.5935
X4.4441Y-5.5476
X4.4441Y-5.6394
X4.49Y-5.5285
X4.49Y-5.6585
X4.5359Y-5.5476
X4.5359Y-5.6394
X4.555Y-5.5935
X3.109Y-4.455
X3.1281Y-4.4091
X3.1281Y-4.5009
X3.174Y-4.39
X3.174Y-4.52
X3.2199Y-4.4091
X3.2199Y-4.5009
X3.239Y-4.455
X6.8896Y-3.3245
X6.8896Y-3.4645
X6.9246Y-3.5645
X6.9446Y-3.3245
X6.9796Y-3.5645
X7.0106Y-3.5307
X7.3885Y-3.5307
X7.4196Y-3.5645
X7.4546Y-3.3245
X7.4746Y-3.5645
X7.5096Y-3.3245
X7.5096Y-3.4645
X4.7645Y-5.0006
X4.7983Y-5.1364
X4.8178Y-4.9873
X4.8565Y-5.225
X4.9099Y-5.2117
X4.9318Y-5.1714
X5.2985Y-5.08
X5.3127Y-4.8639
X5.3368Y-5.1053
X5.366Y-4.8506
X5.3902Y-5.092
X5.3999Y-4.9865
X8.3901Y-4.5725
X8.3901Y-4.7125
X8.4251Y-4.8125
X8.4451Y-4.5725
X8.4801Y-4.8125
X8.5111Y-4.7787
X8.889Y-4.7787
X8.9201Y-4.8125
X8.9551Y-4.5725
X8.9751Y-4.8125
X9.0101Y-4.5725
X9.0101Y-4.7125
X3.8896Y-2.567
X3.8896Y-2.707
X3.9246Y-2.807
X3.9446Y-2.567
X3.9796Y-2.807
X4.0106Y-2.7732
X4.3885Y-2.7732
X4.4196Y-2.807
X4.4546Y-2.567
X4.4746Y-2.807
X4.5096Y-2.567
X4.5096Y-2.707
X3.6425Y-4.7476
X3.6902Y-4.7201
X3.7125Y-4.8688
X3.7928Y-4.9379
X3.8295Y-5.0715
X3.8405Y-4.9104
X3.8504Y-4.8657
X3.8772Y-5.044
X3.8969Y-5.1181
X3.8993Y-5.2102
X3.9798Y-5.2618
X3.9865Y-5.3434
X4.005Y-5.1492
X4.0342Y-5.3159
X4.1318Y-4.4651
X4.1778Y-4.6767
X4.1795Y-4.4376
X4.2215Y-4.6904
X4.2495Y-4.5588
X4.2691Y-4.6629
X4.3188Y-4.789
X4.3474Y-4.9469
X4.3665Y-4.7615
X4.3732Y-4.8431
X4.4463Y-4.8899
X4.4562Y-4.9868
X4.4758Y-5.0609
X4.5235Y-5.0334
X5.3896Y-3.2045
X5.3896Y-3.3445
X5.4246Y-3.4445
X5.4446Y-3.2045
X5.4796Y-3.4445
X5.5106Y-3.4107
X5.8885Y-3.4107
X5.9196Y-3.4445
X5.9546Y-3.2045
X5.9746Y-3.4445
X6.0096Y-3.2045
X6.0096Y-3.3445
X5.5811Y-4.824
X5.5811Y-4.964
X5.6161Y-5.064
X5.6361Y-4.824
X5.6711Y-5.064
X5.7021Y-5.0302
X6.08Y-5.0302
X6.1111Y-5.064
X6.1461Y-4.824
X6.1661Y-5.064
X6.2011Y-4.824
X6.2011Y-4.964
X3.109Y-1.901
X3.1281Y-1.8551
X3.1281Y-1.9469
X3.174Y-1.836
X3.174Y-1.966
X3.2199Y-1.8551
X3.2199Y-1.9469
X3.239Y-1.901
T3
X3.31Y-1.731
X3.371Y-3.931
X3.371Y-4.121
X3.406Y-1.879
X3.5024Y-1.7306
T5
X3.28Y-3.503
X3.38Y-3.503
X3.48Y-3.503
X3.58Y-3.503
X6.5391Y-4.4965
X6.5391Y-5.0674
X6.6376Y-4.4965
X6.736Y-4.4965
X6.736Y-5.0674
X3.461Y-2.054
X3.461Y-2.154
X3.461Y-2.254
X3.461Y-2.354
X3.461Y-2.454
X3.461Y-2.554
T7
X4.49Y-5.5935
X3.174Y-1.901
X8.331Y-1.788
X7.5449Y-2.9205
X5.3Y-2.91
X7.89Y-4.955
X6.455Y-4.155
X5.3Y-1.325
X3.174Y-4.455
T4
G00X3.1429Y-3.8047
M15
G01X3.0956Y-3.8047
M16
G05
G00X3.1429Y-4.2473
M15
G01X3.0956Y-4.2473
M16
G05
G00X3.2925Y-3.8047
M15
G01X3.261Y-3.8047
M16
G05
G00X3.2925Y-4.2473
M15
G01X3.261Y-4.2473
M16
G05
G00X3.1842Y-1.5044
M15
G01X3.1842Y-1.4571
M16
G05
G00X3.1842Y-1.654
M15
G01X3.1842Y-1.6225
M16
G05
G00X3.6268Y-1.5044
M15
G01X3.6268Y-1.4571
M16
G05
G00X3.6268Y-1.654
M15
G01X3.6268Y-1.6225
M16
G05
T6
G00X6.4171Y-4.7662
M15
G01X6.4171Y-4.8174
M16
G05
G00X6.858Y-4.7662
M15
G01X6.858Y-4.8174
M16
G05
T0
M30
