M48
; DRILL file {KiCad 5.1.6-c6e7f7d~87~ubuntu20.04.1} date Tue Jul 21 19:21:00 2020
; FORMAT={-:-/ absolute / inch / decimal}
; #@! TF.CreationDate,2020-07-21T19:21:00+02:00
; #@! TF.GenerationSoftware,Kicad,Pcbnew,5.1.6-c6e7f7d~87~ubuntu20.04.1
; #@! TF.FileFunction,NonPlated,1,2,NPTH
FMAT,2
INCH
T1C0.0236
T2C0.0669
T3C0.1161
T4C0.1614
%
G90
G05
T1
X3.071Y-3.5205
X3.071Y-3.5875
X3.071Y-3.5205
X3.071Y-3.5875
T2
X6.2496Y-2.987
X6.6496Y-2.987
X4.7496Y-1.787
X5.1496Y-1.787
X6.9996Y-3.2945
X7.3996Y-3.2945
X5.4996Y-3.9245
X5.8996Y-3.9245
X7.7496Y-2.8745
X8.1496Y-2.8745
X3.9996Y-1.787
X4.3996Y-1.787
X7.7496Y-3.6245
X8.1496Y-3.6245
X6.2496Y-1.487
X6.6496Y-1.487
X4.7496Y-4.037
X5.1496Y-4.037
X6.9996Y-4.0445
X7.3996Y-4.0445
X3.9996Y-3.287
X4.3996Y-3.287
X5.4996Y-2.4245
X5.8996Y-2.4245
X6.9996Y-2.5445
X7.3996Y-2.5445
X7.7496Y-2.1245
X8.1496Y-2.1245
X7.7496Y-4.3745
X8.1496Y-4.3745
X5.4996Y-3.1745
X5.8996Y-3.1745
X3.8428Y-4.6691
X4.0298Y-4.993
X4.1892Y-4.4691
X4.2168Y-5.3169
X4.3762Y-4.793
X4.5632Y-5.1169
X5.4996Y-1.6745
X5.8996Y-1.6745
X5.8111Y-4.7965
X6.2111Y-4.7965
X8.5001Y-2.2075
X8.9001Y-2.2075
X4.7496Y-3.287
X5.1496Y-3.287
X6.2496Y-3.737
X6.6496Y-3.737
X4.7496Y-2.537
X5.1496Y-2.537
X3.9996Y-2.537
X4.3996Y-2.537
X4.9839Y-4.9474
X5.3721Y-4.8506
X8.5001Y-3.7075
X8.9001Y-3.7075
X8.5001Y-4.4575
X8.9001Y-4.4575
X3.0894Y-5.239
X3.3298Y-5.5256
X3.3958Y-4.9819
X3.5702Y-5.8121
X3.6362Y-5.2684
X3.8766Y-5.555
X6.9996Y-1.7945
X7.3996Y-1.7945
X8.5001Y-2.9575
X8.9001Y-2.9575
X6.2496Y-2.237
X6.6496Y-2.237
T4
X6.4496Y-2.987
X4.9496Y-1.787
X7.1996Y-3.2945
X5.6996Y-3.9245
X7.9496Y-2.8745
X4.1996Y-1.787
X7.9496Y-3.6245
X6.4496Y-1.487
X4.9496Y-4.037
X7.1996Y-4.0445
X4.1996Y-3.287
X5.6996Y-2.4245
X7.1996Y-2.5445
X7.9496Y-2.1245
X7.9496Y-4.3745
X5.6996Y-3.1745
X4.016Y-4.5691
X4.203Y-4.893
X4.39Y-5.2169
X5.6996Y-1.6745
X6.0111Y-4.7965
X8.7001Y-2.2075
X4.9496Y-3.287
X6.4496Y-3.737
X4.9496Y-2.537
X4.1996Y-2.537
X5.178Y-4.899
X8.7001Y-3.7075
X8.7001Y-4.4575
X3.2426Y-5.1105
X3.483Y-5.397
X3.7234Y-5.6835
X7.1996Y-1.7945
X8.7001Y-2.9575
X6.4496Y-2.237
T3
G00X4.0998Y-2.737
M15
G01X4.0497Y-2.637
M16
G05
G00X4.2997Y-2.737
M15
G01X4.3498Y-2.637
M16
G05
G00X5.1296Y-5.1172
M15
G01X5.0568Y-5.0323
M16
G05
G00X5.3236Y-5.0688
M15
G01X5.348Y-4.9597
M16
G05
G00X8.6003Y-3.9075
M15
G01X8.5502Y-3.8075
M16
G05
G00X8.8002Y-3.9075
M15
G01X8.8503Y-3.8075
M16
G05
G00X8.6003Y-4.6575
M15
G01X8.5502Y-4.5575
M16
G05
G00X8.8002Y-4.6575
M15
G01X8.8503Y-4.5575
M16
G05
G00X3.1903Y-5.2819
M15
G01X3.2929Y-5.3263
M16
G05
G00X3.4204Y-5.0887
M15
G01X3.4463Y-5.1975
M16
G05
G00X3.4317Y-5.5696
M15
G01X3.5343Y-5.614
M16
G05
G00X3.544Y-5.7034
M15
G01X3.5181Y-5.5947
M16
G05
G00X3.6621Y-5.3773
M15
G01X3.688Y-5.486
M16
G05
G00X3.7739Y-5.5106
M15
G01X3.6713Y-5.4662
M16
G05
G00X7.0998Y-1.9945
M15
G01X7.0497Y-1.8945
M16
G05
G00X7.2997Y-1.9945
M15
G01X7.3498Y-1.8945
M16
G05
G00X8.6003Y-3.1575
M15
G01X8.5502Y-3.0575
M16
G05
G00X8.8002Y-3.1575
M15
G01X8.8503Y-3.0575
M16
G05
G00X6.3498Y-2.437
M15
G01X6.2997Y-2.337
M16
G05
G00X6.5497Y-2.437
M15
G01X6.5998Y-2.337
M16
G05
G00X6.3498Y-3.187
M15
G01X6.2997Y-3.087
M16
G05
G00X6.5497Y-3.187
M15
G01X6.5998Y-3.087
M16
G05
G00X4.8498Y-1.987
M15
G01X4.7997Y-1.887
M16
G05
G00X5.0497Y-1.987
M15
G01X5.0998Y-1.887
M16
G05
G00X7.0998Y-3.4945
M15
G01X7.0497Y-3.3945
M16
G05
G00X7.2997Y-3.4945
M15
G01X7.3498Y-3.3945
M16
G05
G00X5.5998Y-4.1245
M15
G01X5.5497Y-4.0245
M16
G05
G00X5.7997Y-4.1245
M15
G01X5.8498Y-4.0245
M16
G05
G00X7.8498Y-3.0745
M15
G01X7.7997Y-2.9745
M16
G05
G00X8.0497Y-3.0745
M15
G01X8.0998Y-2.9745
M16
G05
G00X4.0998Y-1.987
M15
G01X4.0497Y-1.887
M16
G05
G00X4.2997Y-1.987
M15
G01X4.3498Y-1.887
M16
G05
G00X7.8498Y-3.8245
M15
G01X7.7997Y-3.7245
M16
G05
G00X8.0497Y-3.8245
M15
G01X8.0998Y-3.7245
M16
G05
G00X6.3498Y-1.687
M15
G01X6.2997Y-1.587
M16
G05
G00X6.5497Y-1.687
M15
G01X6.5998Y-1.587
M16
G05
G00X4.8498Y-4.237
M15
G01X4.7997Y-4.137
M16
G05
G00X5.0497Y-4.237
M15
G01X5.0998Y-4.137
M16
G05
G00X7.0998Y-4.2445
M15
G01X7.0497Y-4.1445
M16
G05
G00X7.2997Y-4.2445
M15
G01X7.3498Y-4.1445
M16
G05
G00X4.0998Y-3.487
M15
G01X4.0497Y-3.387
M16
G05
G00X4.2997Y-3.487
M15
G01X4.3498Y-3.387
M16
G05
G00X5.5998Y-2.6245
M15
G01X5.5497Y-2.5245
M16
G05
G00X5.7997Y-2.6245
M15
G01X5.8498Y-2.5245
M16
G05
G00X7.0998Y-2.7445
M15
G01X7.0497Y-2.6445
M16
G05
G00X7.2997Y-2.7445
M15
G01X7.3498Y-2.6445
M16
G05
G00X7.8498Y-2.3245
M15
G01X7.7997Y-2.2245
M16
G05
G00X8.0497Y-2.3245
M15
G01X8.0998Y-2.2245
M16
G05
G00X7.8498Y-4.5745
M15
G01X7.7997Y-4.4745
M16
G05
G00X8.0497Y-4.5745
M15
G01X8.0998Y-4.4745
M16
G05
G00X5.5998Y-3.3745
M15
G01X5.5497Y-3.2745
M16
G05
G00X5.7997Y-3.3745
M15
G01X5.8498Y-3.2745
M16
G05
G00X3.9347Y-4.7288
M15
G01X4.028Y-4.7903
M16
G05
G00X4.1225Y-5.0541
M15
G01X4.2158Y-5.1156
M16
G05
G00X4.1949Y-4.5786
M15
G01X4.2015Y-4.6901
M16
G05
G00X4.2099Y-5.2054
M15
G01X4.2033Y-5.0938
M16
G05
G00X4.3828Y-4.9047
M15
G01X4.3894Y-5.0163
M16
G05
G00X4.4697Y-5.0554
M15
G01X4.3764Y-4.9938
M16
G05
G00X5.5998Y-1.8745
M15
G01X5.5497Y-1.7745
M16
G05
G00X5.7997Y-1.8745
M15
G01X5.8498Y-1.7745
M16
G05
G00X5.9113Y-4.9965
M15
G01X5.8612Y-4.8965
M16
G05
G00X6.1112Y-4.9965
M15
G01X6.1613Y-4.8965
M16
G05
G00X8.6003Y-2.4075
M15
G01X8.5502Y-2.3075
M16
G05
G00X8.8002Y-2.4075
M15
G01X8.8503Y-2.3075
M16
G05
G00X4.8498Y-3.487
M15
G01X4.7997Y-3.387
M16
G05
G00X5.0497Y-3.487
M15
G01X5.0998Y-3.387
M16
G05
G00X6.3498Y-3.937
M15
G01X6.2997Y-3.837
M16
G05
G00X6.5497Y-3.937
M15
G01X6.5998Y-3.837
M16
G05
G00X4.8498Y-2.737
M15
G01X4.7997Y-2.637
M16
G05
G00X5.0497Y-2.737
M15
G01X5.0998Y-2.637
M16
G05
T0
M30
