M48
; DRILL file {KiCad 5.1.8-db9833491~88~ubuntu20.10.1} date Thu Dec 17 18:19:57 2020
; FORMAT={-:-/ absolute / inch / decimal}
; #@! TF.CreationDate,2020-12-17T18:19:57+01:00
; #@! TF.GenerationSoftware,Kicad,Pcbnew,5.1.8-db9833491~88~ubuntu20.10.1
; #@! TF.FileFunction,NonPlated,1,2,NPTH
FMAT,2
INCH
T1C0.0236
T2C0.0454
T3C0.0669
T4C0.0670
T5C0.1181
T6C0.1570
%
G90
G05
T1
X3.071Y-3.5205
X3.071Y-3.5875
X3.07Y-2.7265
X3.07Y-2.7935
T2
X3.999Y-1.6956
X8.9Y-4.45
X8.9Y-2.2
T3
X5.8996Y-3.9245
X6.6496Y-2.987
X7.3996Y-2.5445
X6.6496Y-2.237
X8.9001Y-3.7925
X5.8996Y-1.6745
X7.3996Y-1.7945
X5.1496Y-3.287
X8.1496Y-2.2095
X8.1496Y-2.9595
X5.1496Y-4.037
X8.9001Y-3.0425
X8.1496Y-3.7095
X5.8996Y-2.4245
X3.2098Y-5.5231
X3.2758Y-4.9794
X3.4502Y-5.8096
X3.5162Y-5.2659
X3.7566Y-5.5525
X6.6496Y-1.487
X8.9001Y-2.2925
X4.3996Y-3.287
X5.1496Y-1.787
X7.3996Y-4.0445
X4.3996Y-1.787
X5.1496Y-2.537
X6.6496Y-3.737
X8.1496Y-4.4595
X7.3996Y-3.2945
X5.2521Y-4.8481
X8.9001Y-4.5425
X4.3996Y-2.537
X3.9098Y-4.9905
X4.0692Y-4.4666
X4.0968Y-5.3144
X4.2562Y-4.7905
X4.4432Y-5.1144
X5.8996Y-3.1745
X6.0911Y-4.794
T4
X5.4996Y-3.9245
X6.2496Y-2.987
X6.9996Y-2.5445
X6.2496Y-2.237
X8.5001Y-3.7925
X5.4996Y-1.6745
X6.9996Y-1.7945
X4.7496Y-3.287
X7.7496Y-2.2095
X7.7496Y-2.9595
X4.7496Y-4.037
X8.5001Y-3.0425
X7.7496Y-3.7095
X5.4996Y-2.4245
X2.9694Y-5.2365
X6.2496Y-1.487
X8.5001Y-2.2925
X3.9996Y-3.287
X4.7496Y-1.787
X6.9996Y-4.0445
X3.9996Y-1.787
X4.7496Y-2.537
X6.2496Y-3.737
X7.7496Y-4.4595
X6.9996Y-3.2945
X4.8639Y-4.9449
X8.5001Y-4.5425
X3.9996Y-2.537
X3.7228Y-4.6666
X5.4996Y-3.1745
X5.6911Y-4.794
T5
X7.0496Y-2.6445
X7.0996Y-2.7445
X7.2996Y-2.7445
X7.3496Y-2.6445
X6.2996Y-2.337
X6.3496Y-2.437
X6.5496Y-2.437
X6.5996Y-2.337
X8.5501Y-3.8925
X8.6001Y-3.9925
X8.8001Y-3.9925
X8.8501Y-3.8925
X5.5496Y-1.7745
X5.5996Y-1.8745
X5.7996Y-1.8745
X5.8496Y-1.7745
X7.0496Y-1.8945
X7.0996Y-1.9945
X7.2996Y-1.9945
X7.3496Y-1.8945
X4.7996Y-3.387
X4.8496Y-3.487
X5.0496Y-3.487
X5.0996Y-3.387
X7.7996Y-2.3095
X7.8496Y-2.4095
X8.0496Y-2.4095
X8.0996Y-2.3095
X7.7996Y-3.0595
X7.8496Y-3.1595
X8.0496Y-3.1595
X8.0996Y-3.0595
X4.7996Y-4.137
X4.8496Y-4.237
X5.0496Y-4.237
X5.0996Y-4.137
X8.5501Y-3.1425
X8.6001Y-3.2425
X8.8001Y-3.2425
X8.8501Y-3.1425
X7.7996Y-3.8095
X7.8496Y-3.9095
X8.0496Y-3.9095
X8.0996Y-3.8095
X5.5496Y-2.5245
X5.5996Y-2.6245
X5.7996Y-2.6245
X5.8496Y-2.5245
X3.072Y-5.281
X3.1745Y-5.3255
X3.3018Y-5.0882
X3.3124Y-5.5675
X3.3277Y-5.1969
X3.3983Y-5.5921
X3.415Y-5.612
X3.4242Y-5.7008
X3.5422Y-5.3747
X3.5515Y-5.4635
X3.5682Y-5.4834
X3.654Y-5.508
X6.2996Y-1.587
X6.3496Y-1.687
X6.5496Y-1.687
X6.5996Y-1.587
X8.5501Y-2.3925
X8.6001Y-2.4925
X8.8001Y-2.4925
X8.8501Y-2.3925
X4.0496Y-3.387
X4.0996Y-3.487
X4.2996Y-3.487
X4.3496Y-3.387
X4.7996Y-1.887
X4.8496Y-1.987
X5.0496Y-1.987
X5.0996Y-1.887
X7.0496Y-4.1445
X7.0996Y-4.2445
X7.2996Y-4.2445
X7.3496Y-4.1445
X4.0496Y-1.887
X4.0996Y-1.987
X4.2996Y-1.987
X4.3496Y-1.887
X4.7996Y-2.637
X4.8496Y-2.737
X5.0496Y-2.737
X5.0996Y-2.637
X6.2996Y-3.837
X6.3496Y-3.937
X6.5496Y-3.937
X6.5996Y-3.837
X7.7996Y-4.5595
X7.8496Y-4.6595
X8.0496Y-4.6595
X8.0996Y-4.5595
X7.0496Y-3.3945
X7.0996Y-3.4945
X7.2996Y-3.4945
X7.3496Y-3.3945
X4.9366Y-5.0298
X5.0094Y-5.1148
X5.2034Y-5.0664
X5.2277Y-4.9572
X8.5501Y-4.6425
X8.6001Y-4.7425
X8.8001Y-4.7425
X8.8501Y-4.6425
X4.0496Y-2.637
X4.0996Y-2.737
X4.2996Y-2.737
X4.3496Y-2.637
X3.8161Y-4.7282
X3.9094Y-4.7898
X4.0031Y-5.0521
X4.0759Y-4.5782
X4.0826Y-4.6898
X4.0834Y-5.0912
X4.0901Y-5.2028
X4.0964Y-5.1137
X4.2566Y-4.9912
X4.2629Y-4.9021
X4.2696Y-5.0137
X4.3499Y-5.0528
X5.5496Y-3.2745
X5.5996Y-3.3745
X5.7996Y-3.3745
X5.8496Y-3.2745
X5.7411Y-4.894
X5.7911Y-4.994
X5.9911Y-4.994
X6.0411Y-4.894
X5.5496Y-4.0245
X5.5996Y-4.1245
X5.7996Y-4.1245
X5.8496Y-4.0245
X6.2996Y-3.087
X6.3496Y-3.187
X6.5496Y-3.187
X6.5996Y-3.087
T6
X7.1996Y-2.5445
X6.4496Y-2.237
X8.7001Y-3.7925
X5.6996Y-1.6745
X7.1996Y-1.7945
X4.9496Y-3.287
X7.9496Y-2.2095
X7.9496Y-2.9595
X4.9496Y-4.037
X8.7001Y-3.0425
X7.9496Y-3.7095
X5.6996Y-2.4245
X3.1226Y-5.108
X3.363Y-5.3945
X3.6034Y-5.681
X3.6034Y-5.681
X6.4496Y-1.487
X8.7001Y-2.2925
X4.1996Y-3.287
X4.9496Y-1.787
X7.1996Y-4.0445
X4.1996Y-1.787
X4.9496Y-2.537
X6.4496Y-3.737
X7.9496Y-4.4595
X7.1996Y-3.2945
X5.058Y-4.8965
X8.7001Y-4.5425
X4.1996Y-2.537
X3.896Y-4.5666
X4.083Y-4.8905
X4.27Y-5.2144
X4.27Y-5.2144
X5.6996Y-3.1745
X5.8911Y-4.794
X5.6996Y-3.9245
X6.4496Y-2.987
T0
M30
