G04 #@! TF.GenerationSoftware,KiCad,Pcbnew,5.1.6-c6e7f7d~87~ubuntu20.04.1*
G04 #@! TF.CreationDate,2020-07-21T19:20:55+02:00*
G04 #@! TF.ProjectId,YAEMK,5941454d-4b2e-46b6-9963-61645f706362,1.1*
G04 #@! TF.SameCoordinates,Original*
G04 #@! TF.FileFunction,Profile,NP*
%FSLAX46Y46*%
G04 Gerber Fmt 4.6, Leading zero omitted, Abs format (unit mm)*
G04 Created by KiCad (PCBNEW 5.1.6-c6e7f7d~87~ubuntu20.04.1) date 2020-07-21 19:20:55*
%MOMM*%
%LPD*%
G01*
G04 APERTURE LIST*
G04 #@! TA.AperFunction,Profile*
%ADD10C,0.127000*%
G04 #@! TD*
G04 #@! TA.AperFunction,Profile*
%ADD11C,0.100000*%
G04 #@! TD*
G04 APERTURE END LIST*
D10*
X77139800Y-106387900D02*
X77139800Y-120650000D01*
X77114400Y-36296600D02*
X77114400Y-97142300D01*
X77114400Y-36296600D02*
X77876400Y-35534600D01*
X77114400Y-97142300D02*
X83832700Y-97142300D01*
X83832700Y-97142300D02*
X83832700Y-106387900D01*
X83832700Y-106387900D02*
X77139800Y-106387900D01*
X230505000Y-123418600D02*
X231241600Y-122707400D01*
X230479600Y-45567600D02*
X231241600Y-46329600D01*
X154305000Y-27406600D02*
X93954600Y-35534600D01*
X81889600Y-42240200D02*
X81889600Y-35534600D01*
X91135200Y-42240200D02*
X81889600Y-42240200D01*
X91135200Y-35534600D02*
X91135200Y-42240200D01*
X77139800Y-120650000D02*
X68478400Y-127838200D01*
X68478400Y-129108200D02*
X92456000Y-157988000D01*
X68478400Y-127838200D02*
X68478400Y-129108200D01*
X92456000Y-157988000D02*
X94183200Y-158165800D01*
X94183200Y-158165800D02*
X143078200Y-132080000D01*
X143078200Y-132080000D02*
X180873400Y-132029200D01*
X180873400Y-132029200D02*
X230505000Y-123418600D01*
X231241600Y-122707400D02*
X231241600Y-46329600D01*
X230479600Y-45567600D02*
X173177200Y-27406600D01*
X93954600Y-35534600D02*
X91135200Y-35534600D01*
X154305000Y-27406600D02*
X173177200Y-27406600D01*
X81889600Y-35534600D02*
X77876400Y-35534600D01*
D11*
G04 #@! TO.C,S5*
X98540656Y-113552460D02*
X101571744Y-111802460D01*
X101571744Y-111802460D02*
X99821744Y-108771371D01*
X99821744Y-108771371D02*
X96790656Y-110521371D01*
X96790656Y-110521371D02*
X98540656Y-113552460D01*
X111949806Y-136727790D02*
X113699806Y-139758879D01*
X114980895Y-134977790D02*
X111949806Y-136727790D01*
X116730895Y-138008879D02*
X114980895Y-134977790D01*
X113699806Y-139758879D02*
X116730895Y-138008879D01*
G04 #@! TO.C,S1*
X78514268Y-127943683D02*
X81195424Y-125693926D01*
X81195424Y-125693926D02*
X78945667Y-123012771D01*
X78945667Y-123012771D02*
X76264512Y-125262527D01*
X76264512Y-125262527D02*
X78514268Y-127943683D01*
X95744058Y-148438453D02*
X97993814Y-151119609D01*
X98425213Y-146188696D02*
X95744058Y-148438453D01*
X100674970Y-148869852D02*
X98425213Y-146188696D01*
X97993814Y-151119609D02*
X100674970Y-148869852D01*
G04 #@! TO.C,S32*
X219231368Y-52220500D02*
X222731368Y-52220500D01*
X222731368Y-52220500D02*
X222731368Y-48720500D01*
X222731368Y-48720500D02*
X219231368Y-48720500D01*
X219231368Y-48720500D02*
X219231368Y-52220500D01*
G04 #@! TO.C,S30*
X200168668Y-88212300D02*
X203668668Y-88212300D01*
X203668668Y-88212300D02*
X203668668Y-84712300D01*
X203668668Y-84712300D02*
X200168668Y-84712300D01*
X200168668Y-84712300D02*
X200168668Y-88212300D01*
G04 #@! TO.C,S31*
X200168668Y-107262300D02*
X203668668Y-107262300D01*
X203668668Y-107262300D02*
X203668668Y-103762300D01*
X203668668Y-103762300D02*
X200168668Y-103762300D01*
X200168668Y-103762300D02*
X200168668Y-107262300D01*
G04 #@! TO.C,S2*
X104918668Y-41539800D02*
X108418668Y-41539800D01*
X108418668Y-41539800D02*
X108418668Y-38039800D01*
X108418668Y-38039800D02*
X104918668Y-38039800D01*
X104918668Y-38039800D02*
X104918668Y-41539800D01*
G04 #@! TO.C,S27*
X181118668Y-98880300D02*
X184618668Y-98880300D01*
X184618668Y-98880300D02*
X184618668Y-95380300D01*
X184618668Y-95380300D02*
X181118668Y-95380300D01*
X181118668Y-95380300D02*
X181118668Y-98880300D01*
G04 #@! TO.C,S21*
X162068668Y-72019800D02*
X165568668Y-72019800D01*
X165568668Y-72019800D02*
X165568668Y-68519800D01*
X165568668Y-68519800D02*
X162068668Y-68519800D01*
X162068668Y-68519800D02*
X162068668Y-72019800D01*
G04 #@! TO.C,S16*
X143018668Y-76782300D02*
X146518668Y-76782300D01*
X146518668Y-76782300D02*
X146518668Y-73282300D01*
X146518668Y-73282300D02*
X143018668Y-73282300D01*
X143018668Y-73282300D02*
X143018668Y-76782300D01*
G04 #@! TO.C,S17*
X143018668Y-95832300D02*
X146518668Y-95832300D01*
X146518668Y-95832300D02*
X146518668Y-92332300D01*
X146518668Y-92332300D02*
X143018668Y-92332300D01*
X143018668Y-92332300D02*
X143018668Y-95832300D01*
G04 #@! TO.C,S13*
X128891783Y-121122325D02*
X132287818Y-120275598D01*
X132287818Y-120275598D02*
X131441092Y-116879563D01*
X131441092Y-116879563D02*
X128045057Y-117726290D01*
X128045057Y-117726290D02*
X128891783Y-121122325D01*
G04 #@! TO.C,S35*
X219231368Y-109370500D02*
X222731368Y-109370500D01*
X222731368Y-109370500D02*
X222731368Y-105870500D01*
X222731368Y-105870500D02*
X219231368Y-105870500D01*
X219231368Y-105870500D02*
X219231368Y-109370500D01*
G04 #@! TO.C,S11*
X123968668Y-79639800D02*
X127468668Y-79639800D01*
X127468668Y-79639800D02*
X127468668Y-76139800D01*
X127468668Y-76139800D02*
X123968668Y-76139800D01*
X123968668Y-76139800D02*
X123968668Y-79639800D01*
G04 #@! TO.C,S3*
X104918668Y-60589800D02*
X108418668Y-60589800D01*
X108418668Y-60589800D02*
X108418668Y-57089800D01*
X108418668Y-57089800D02*
X104918668Y-57089800D01*
X104918668Y-57089800D02*
X104918668Y-60589800D01*
G04 #@! TO.C,S34*
X219231368Y-90320500D02*
X222731368Y-90320500D01*
X222731368Y-90320500D02*
X222731368Y-86820500D01*
X222731368Y-86820500D02*
X219231368Y-86820500D01*
X219231368Y-86820500D02*
X219231368Y-90320500D01*
G04 #@! TO.C,S25*
X181118668Y-60780300D02*
X184618668Y-60780300D01*
X184618668Y-60780300D02*
X184618668Y-57280300D01*
X184618668Y-57280300D02*
X181118668Y-57280300D01*
X181118668Y-57280300D02*
X181118668Y-60780300D01*
G04 #@! TO.C,S22*
X162068668Y-91069800D02*
X165568668Y-91069800D01*
X165568668Y-91069800D02*
X165568668Y-87569800D01*
X165568668Y-87569800D02*
X162068668Y-87569800D01*
X162068668Y-87569800D02*
X162068668Y-91069800D01*
G04 #@! TO.C,S4*
X104918668Y-79639800D02*
X108418668Y-79639800D01*
X108418668Y-79639800D02*
X108418668Y-76139800D01*
X108418668Y-76139800D02*
X104918668Y-76139800D01*
X104918668Y-76139800D02*
X104918668Y-79639800D01*
G04 #@! TO.C,S14*
X143018668Y-38682300D02*
X146518668Y-38682300D01*
X146518668Y-38682300D02*
X146518668Y-35182300D01*
X146518668Y-35182300D02*
X143018668Y-35182300D01*
X143018668Y-35182300D02*
X143018668Y-38682300D01*
G04 #@! TO.C,S20*
X162068668Y-52969800D02*
X165568668Y-52969800D01*
X165568668Y-52969800D02*
X165568668Y-49469800D01*
X165568668Y-49469800D02*
X162068668Y-49469800D01*
X162068668Y-49469800D02*
X162068668Y-52969800D01*
G04 #@! TO.C,S10*
X123968668Y-60589800D02*
X127468668Y-60589800D01*
X127468668Y-60589800D02*
X127468668Y-57089800D01*
X127468668Y-57089800D02*
X123968668Y-57089800D01*
X123968668Y-57089800D02*
X123968668Y-60589800D01*
G04 #@! TO.C,S9*
X123968668Y-41539800D02*
X127468668Y-41539800D01*
X127468668Y-41539800D02*
X127468668Y-38039800D01*
X127468668Y-38039800D02*
X123968668Y-38039800D01*
X123968668Y-38039800D02*
X123968668Y-41539800D01*
G04 #@! TO.C,S29*
X200168668Y-69162300D02*
X203668668Y-69162300D01*
X203668668Y-69162300D02*
X203668668Y-65662300D01*
X203668668Y-65662300D02*
X200168668Y-65662300D01*
X200168668Y-65662300D02*
X200168668Y-69162300D01*
G04 #@! TO.C,S18*
X150930768Y-117981100D02*
X154430768Y-117981100D01*
X154430768Y-117981100D02*
X154430768Y-114481100D01*
X154430768Y-114481100D02*
X150930768Y-114481100D01*
X150930768Y-114481100D02*
X150930768Y-117981100D01*
G04 #@! TO.C,S12*
X123968668Y-98689800D02*
X127468668Y-98689800D01*
X127468668Y-98689800D02*
X127468668Y-95189800D01*
X127468668Y-95189800D02*
X123968668Y-95189800D01*
X123968668Y-95189800D02*
X123968668Y-98689800D01*
G04 #@! TO.C,S19*
X162068668Y-33919800D02*
X165568668Y-33919800D01*
X165568668Y-33919800D02*
X165568668Y-30419800D01*
X165568668Y-30419800D02*
X162068668Y-30419800D01*
X162068668Y-30419800D02*
X162068668Y-33919800D01*
G04 #@! TO.C,S24*
X181118668Y-41730300D02*
X184618668Y-41730300D01*
X184618668Y-41730300D02*
X184618668Y-38230300D01*
X184618668Y-38230300D02*
X181118668Y-38230300D01*
X181118668Y-38230300D02*
X181118668Y-41730300D01*
G04 #@! TO.C,S15*
X143018668Y-57732300D02*
X146518668Y-57732300D01*
X146518668Y-57732300D02*
X146518668Y-54232300D01*
X146518668Y-54232300D02*
X143018668Y-54232300D01*
X143018668Y-54232300D02*
X143018668Y-57732300D01*
G04 #@! TO.C,S28*
X200168668Y-50112300D02*
X203668668Y-50112300D01*
X203668668Y-50112300D02*
X203668668Y-46612300D01*
X203668668Y-46612300D02*
X200168668Y-46612300D01*
X200168668Y-46612300D02*
X200168668Y-50112300D01*
G04 #@! TO.C,S33*
X219231368Y-71270500D02*
X222731368Y-71270500D01*
X222731368Y-71270500D02*
X222731368Y-67770500D01*
X222731368Y-67770500D02*
X219231368Y-67770500D01*
X219231368Y-67770500D02*
X219231368Y-71270500D01*
G04 #@! TO.C,S26*
X181118668Y-79830300D02*
X184618668Y-79830300D01*
X184618668Y-79830300D02*
X184618668Y-76330300D01*
X184618668Y-76330300D02*
X181118668Y-76330300D01*
X181118668Y-76330300D02*
X181118668Y-79830300D01*
G04 #@! TD*
M02*
