M48
; DRILL file {KiCad 5.1.6-c6e7f7d~87~ubuntu20.04.1} date Tue Jul 21 19:21:00 2020
; FORMAT={-:-/ absolute / inch / decimal}
; #@! TF.CreationDate,2020-07-21T19:21:00+02:00
; #@! TF.GenerationSoftware,Kicad,Pcbnew,5.1.6-c6e7f7d~87~ubuntu20.04.1
; #@! TF.FileFunction,Plated,1,2,PTH
FMAT,2
INCH
T1C0.0120
T2C0.0157
T3C0.0160
T4C0.0200
T5C0.0236
T6C0.0394
T7C0.0591
T8C0.0866
%
G90
G05
T1
X3.063Y-1.584
X3.063Y-1.655
X3.079Y-3.391
X3.11Y-2.714
X3.11Y-2.789
X3.1326Y-3.452
X3.134Y-3.575
X3.1485Y-2.9035
X3.15Y-3.045
X3.15Y-3.126
X3.18Y-2.825
X3.186Y-1.689
X3.186Y-1.729
X3.198Y-4.297
X3.2Y-3.718
X3.212Y-2.826
X3.212Y-3.045
X3.2449Y-2.9365
X3.246Y-1.689
X3.246Y-1.729
X3.263Y-2.901
X3.268Y-2.841
X3.29Y-3.288
X3.2975Y-2.861
X3.315Y-3.381
X3.326Y-3.826
X3.3275Y-2.766
X3.331Y-3.597
X3.333Y-3.663
X3.355Y-3.075
X3.356Y-3.826
X3.3585Y-2.5565
X3.362Y-4.671
X3.371Y-3.876
X3.371Y-3.996
X3.371Y-4.136
X3.371Y-4.191
X3.372Y-2.885
X3.386Y-3.049
X3.392Y-3.424
X3.396Y-1.739
X3.4Y-3.005
X3.4Y-3.105
X3.406Y-1.805
X3.406Y-1.841
X3.406Y-4.136
X3.406Y-4.191
X3.4155Y-4.0355
X3.4434Y-1.7764
X3.446Y-4.006
X3.4484Y-2.7649
X3.46Y-3.381
X3.481Y-4.006
X3.4946Y-2.7631
X3.4947Y-3.736
X3.497Y-3.886
X3.506Y-1.909
X3.5212Y-2.7082
X3.525Y-3.291
X3.526Y-4.006
X3.531Y-3.806
X3.533Y-3.593
X3.534Y-3.664
X3.5445Y-2.744
X3.549Y-2.886
X3.5497Y-2.768
X3.556Y-2.294
X3.5586Y-2.9443
X3.56Y-3.435
X3.566Y-1.689
X3.566Y-1.729
X3.571Y-3.886
X3.581Y-2.6415
X3.5866Y-2.7851
X3.5867Y-2.9417
X3.595Y-2.8185
X3.601Y-2.254
X3.601Y-2.334
X3.611Y-3.174
X3.615Y-4.625
X3.626Y-1.689
X3.626Y-1.729
X3.628Y-2.024
X3.629Y-2.175
X3.641Y-2.294
X3.6725Y-3.1185
X3.6756Y-3.0454
X3.678Y-3.094
X3.679Y-2.931
X3.6797Y-2.9592
X3.6803Y-3.0679
X3.6812Y-3.0185
X3.688Y-3.278
X3.692Y-3.461
X3.6955Y-2.6435
X3.698Y-2.464
X3.698Y-2.559
X3.7062Y-2.979
X3.723Y-1.798
X3.7329Y-3.0301
X3.735Y-2.404
X3.736Y-2.551
X3.749Y-2.709
X3.749Y-2.787
X3.758Y-1.659
X3.759Y-1.584
X3.76Y-1.78
X3.825Y-2.39
X3.826Y-1.638
X3.832Y-3.335
X3.915Y-3.405
X3.972Y-3.075
X4.07Y-3.79
X4.255Y-2.86
X4.275Y-5.391
X4.3425Y-2.86
X4.385Y-2.135
X4.405Y-3.9075
X4.425Y-2.8625
X4.425Y-3.38
X4.46Y-4.706
X4.475Y-3.94
X4.485Y-2.413
X4.575Y-1.641
X4.575Y-2.396
X4.575Y-3.886
X4.619Y-3.095
X4.722Y-3.076
X4.779Y-4.853
X4.8464Y-5.2726
X4.847Y-2.996
X4.847Y-3.742
X4.848Y-2.237
X5.131Y-3.11
X5.134Y-1.601
X5.138Y-2.351
X5.324Y-2.278
X5.324Y-3.783
X5.325Y-1.599
X5.325Y-2.695
X5.636Y-4.649
X5.8025Y-2.0125
X5.8025Y-2.3525
X5.91Y-2.0125
X5.91Y-2.3525
X5.9625Y-3.565
X5.982Y-3.538
X6.075Y-1.347
X6.075Y-2.165
X6.075Y-2.841
X6.075Y-2.92
X6.075Y-3.592
X6.215Y-2.575
X6.22Y-1.208
X6.3375Y-2.575
X6.347Y-1.942
X6.347Y-2.695
X6.347Y-3.446
X6.517Y-1.861
X6.555Y-2.575
X6.636Y-2.047
X6.645Y-4.329
X6.657Y-1.3
X6.67Y-2.575
X6.825Y-1.655
X6.825Y-2.405
X6.825Y-2.745
X6.825Y-2.81
X6.825Y-3.155
X6.825Y-3.905
X6.882Y-4.326
X7.3225Y-2.4875
X7.3225Y-2.54
X7.364Y-1.608
X7.575Y-1.985
X7.575Y-2.731
X7.575Y-3.481
X7.575Y-4.231
X7.705Y-1.782
X7.74Y-4.04
X7.847Y-2.58
X7.847Y-3.338
X7.949Y-2.486
X7.9625Y-4.0425
X8.163Y-2.69
X8.181Y-1.942
X8.325Y-2.811
X8.325Y-3.56
X8.325Y-4.313
X8.326Y-2.059
X5.4216Y-1.8145
X5.5854Y-1.454
X5.6149Y-1.454
X5.7842Y-1.454
X5.8157Y-1.454
X5.9776Y-1.8365
X5.7331Y-4.9365
X5.8969Y-4.576
X5.9264Y-4.576
X6.0957Y-4.576
X6.1272Y-4.576
X6.2891Y-4.9585
X8.4221Y-2.3475
X8.5859Y-1.987
X8.6154Y-1.987
X8.7847Y-1.987
X8.8162Y-1.987
X8.9781Y-2.3695
X4.6716Y-3.427
X4.8354Y-3.0665
X4.8649Y-3.0665
X5.0342Y-3.0665
X5.0657Y-3.0665
X5.2276Y-3.449
X6.1716Y-3.877
X6.3354Y-3.5165
X6.3649Y-3.5165
X6.5342Y-3.5165
X6.5657Y-3.5165
X6.7276Y-3.899
X4.6716Y-2.677
X4.8354Y-2.3165
X4.8649Y-2.3165
X5.0342Y-2.3165
X5.0657Y-2.3165
X5.2276Y-2.699
X3.9216Y-2.677
X4.0854Y-2.3165
X4.1149Y-2.3165
X4.2842Y-2.3165
X4.3157Y-2.3165
X4.4776Y-2.699
X4.9421Y-5.1021
X5.0139Y-4.7127
X5.0425Y-4.7056
X5.2068Y-4.6646
X5.2374Y-4.657
X5.4869Y-4.9889
X8.4221Y-3.8475
X8.5859Y-3.487
X8.6154Y-3.487
X8.7847Y-3.487
X8.8162Y-3.487
X8.9781Y-3.8695
X8.4221Y-4.5975
X8.5859Y-4.237
X8.6154Y-4.237
X8.7847Y-4.237
X8.8162Y-4.237
X8.9781Y-4.6195
X3.0121Y-5.0135
X3.0348Y-4.9945
X3.1644Y-4.8857
X3.1886Y-4.8654
X3.7791Y-5.9259
X3.8017Y-5.9069
X3.9314Y-5.7981
X3.9555Y-5.7779
X6.9216Y-1.9345
X7.0854Y-1.574
X7.1149Y-1.574
X7.2842Y-1.574
X7.3157Y-1.574
X7.4776Y-1.9565
X8.4221Y-3.0975
X8.5859Y-2.737
X8.6154Y-2.737
X8.7847Y-2.737
X8.8162Y-2.737
X8.9781Y-3.1195
X6.1716Y-2.377
X6.3354Y-2.0165
X6.3649Y-2.0165
X6.5342Y-2.0165
X6.5657Y-2.0165
X6.7276Y-2.399
X6.1716Y-3.127
X6.3354Y-2.7665
X6.3649Y-2.7665
X6.5342Y-2.7665
X6.5657Y-2.7665
X6.7276Y-3.149
X4.6716Y-1.927
X4.8354Y-1.5665
X4.8649Y-1.5665
X5.0342Y-1.5665
X5.0657Y-1.5665
X5.2276Y-1.949
X6.9216Y-3.4345
X7.0854Y-3.074
X7.1149Y-3.074
X7.2842Y-3.074
X7.3157Y-3.074
X7.4776Y-3.4565
X5.4216Y-4.0645
X5.5854Y-3.704
X5.6149Y-3.704
X5.7842Y-3.704
X5.8157Y-3.704
X5.9776Y-4.0865
X7.6716Y-3.0145
X7.8354Y-2.654
X7.8649Y-2.654
X8.0342Y-2.654
X8.0657Y-2.654
X8.2276Y-3.0365
X3.9216Y-1.927
X4.0854Y-1.5665
X4.1149Y-1.5665
X4.2842Y-1.5665
X4.3157Y-1.5665
X4.4776Y-1.949
X7.6716Y-3.7645
X7.8354Y-3.404
X7.8649Y-3.404
X8.0342Y-3.404
X8.0657Y-3.404
X8.2276Y-3.7865
X6.1716Y-1.627
X6.3354Y-1.2665
X6.3649Y-1.2665
X6.5342Y-1.2665
X6.5657Y-1.2665
X6.7276Y-1.649
X4.6716Y-4.177
X4.8354Y-3.8165
X4.8649Y-3.8165
X5.0342Y-3.8165
X5.0657Y-3.8165
X5.2276Y-4.199
X6.9216Y-4.1845
X7.0854Y-3.824
X7.1149Y-3.824
X7.2842Y-3.824
X7.3157Y-3.824
X7.4776Y-4.2065
X3.9216Y-3.427
X4.0854Y-3.0665
X4.1149Y-3.0665
X4.2842Y-3.0665
X4.3157Y-3.0665
X4.4776Y-3.449
X5.4216Y-2.5645
X5.5854Y-2.204
X5.6149Y-2.204
X5.7842Y-2.204
X5.8157Y-2.204
X5.9776Y-2.5865
X6.9216Y-2.6845
X7.0854Y-2.324
X7.1149Y-2.324
X7.2842Y-2.324
X7.3157Y-2.324
X7.4776Y-2.7065
X7.6716Y-2.2645
X7.8354Y-1.904
X7.8649Y-1.904
X8.0342Y-1.904
X8.0657Y-1.904
X8.2276Y-2.2865
X7.6716Y-4.5145
X7.8354Y-4.154
X7.8649Y-4.154
X8.0342Y-4.154
X8.0657Y-4.154
X8.2276Y-4.5365
X5.4216Y-3.3145
X5.5854Y-2.954
X5.6149Y-2.954
X5.7842Y-2.954
X5.8157Y-2.954
X5.9776Y-3.3365
X3.8059Y-4.4335
X3.8315Y-4.4188
X3.9781Y-4.3341
X4.0054Y-4.3184
X4.4027Y-5.4653
X4.4283Y-5.4505
X4.5749Y-5.3659
X4.6022Y-5.3501
T2
X4.545Y-5.596
X4.5641Y-5.5501
X4.5641Y-5.6419
X4.61Y-5.531
X4.61Y-5.661
X4.6559Y-5.5501
X4.6559Y-5.6419
X4.675Y-5.596
X3.109Y-4.465
X3.1281Y-4.4191
X3.1281Y-4.5109
X3.174Y-4.4
X3.174Y-4.53
X3.2199Y-4.4191
X3.2199Y-4.5109
X3.239Y-4.465
X7.425Y-2.945
X7.4441Y-2.8991
X7.4441Y-2.9909
X7.49Y-2.88
X7.49Y-3.01
X7.5359Y-2.8991
X7.5359Y-2.9909
X7.555Y-2.945
X3.109Y-1.901
X3.1281Y-1.8551
X3.1281Y-1.9469
X3.174Y-1.836
X3.174Y-1.966
X3.2199Y-1.8551
X3.2199Y-1.9469
X3.239Y-1.901
X8.1291Y-4.876
X8.1481Y-4.8301
X8.1481Y-4.9219
X8.194Y-4.811
X8.194Y-4.941
X8.24Y-4.8301
X8.24Y-4.9219
X8.259Y-4.876
X8.2661Y-1.703
X8.2851Y-1.6571
X8.2851Y-1.7489
X8.331Y-1.638
X8.331Y-1.768
X8.377Y-1.6571
X8.377Y-1.7489
X8.396Y-1.703
X6.075Y-4.385
X6.0941Y-4.3391
X6.0941Y-4.4309
X6.14Y-4.32
X6.14Y-4.45
X6.1859Y-4.3391
X6.1859Y-4.4309
X6.205Y-4.385
X5.235Y-1.325
X5.2541Y-1.2791
X5.2541Y-1.3709
X5.3Y-1.26
X5.3Y-1.39
X5.3459Y-1.2791
X5.3459Y-1.3709
X5.365Y-1.325
X5.26Y-3.12
X5.2791Y-3.0741
X5.2791Y-3.1659
X5.325Y-3.055
X5.325Y-3.185
X5.3709Y-3.0741
X5.3709Y-3.1659
X5.39Y-3.12
T3
X3.8443Y-4.8276
X4.0958Y-5.1845
X4.3368Y-4.5687
X4.5114Y-4.9468
X3.1184Y-5.3949
X3.428Y-5.7027
X3.5584Y-5.0544
X3.796Y-5.3964
T4
X3.31Y-1.731
X3.371Y-3.911
X3.371Y-4.101
X3.406Y-1.879
X3.5024Y-1.7306
T6
X3.461Y-2.054
X3.461Y-2.154
X3.461Y-2.254
X3.461Y-2.354
X3.461Y-2.454
X3.461Y-2.554
X3.28Y-3.518
X3.38Y-3.518
X3.48Y-3.518
X3.58Y-3.518
X6.6591Y-4.499
X6.6591Y-5.0699
X6.7576Y-4.499
X6.856Y-4.499
X6.856Y-5.0699
T8
X6.14Y-4.385
X5.3Y-1.325
X5.325Y-3.12
X4.61Y-5.596
X3.174Y-4.465
X7.49Y-2.945
X3.174Y-1.901
X8.194Y-4.876
X8.331Y-1.703
T5
G00X3.1842Y-1.5044
M15
G01X3.1842Y-1.4571
M16
G05
G00X3.1842Y-1.654
M15
G01X3.1842Y-1.6225
M16
G05
G00X3.6268Y-1.5044
M15
G01X3.6268Y-1.4571
M16
G05
G00X3.6268Y-1.654
M15
G01X3.6268Y-1.6225
M16
G05
G00X3.1429Y-3.7847
M15
G01X3.0956Y-3.7847
M16
G05
G00X3.1429Y-4.2273
M15
G01X3.0956Y-4.2273
M16
G05
G00X3.2925Y-3.7847
M15
G01X3.261Y-3.7847
M16
G05
G00X3.2925Y-4.2273
M15
G01X3.261Y-4.2273
M16
G05
T7
G00X6.5371Y-4.7687
M15
G01X6.5371Y-4.8199
M16
G05
G00X6.978Y-4.7687
M15
G01X6.978Y-4.8199
M16
G05
T0
M30
